<?xml version="1.0" standalone="no"?>
<!DOCTYPE svg PUBLIC "-//W3C//DTD SVG 20010904//EN"
 "http://www.w3.org/TR/2001/REC-SVG-20010904/DTD/svg10.dtd">
<svg version="1.0" xmlns="http://www.w3.org/2000/svg"
 width="411.000000pt" height="411.000000pt" viewBox="0 0 411.000000 411.000000"
 preserveAspectRatio="xMidYMid meet">
<metadata>
Created by potrace 1.11, written by Peter Selinger 2001-2013
</metadata>
<g transform="translate(0.000000,411.000000) scale(0.100000,-0.100000)"
fill="#000000" stroke="none">
<path d="M290 4094 c-73 -23 -106 -42 -162 -93 -56 -51 -99 -124 -118 -202 -7
-31 -10 -544 -8 -1769 l3 -1725 24 -60 c35 -87 133 -183 221 -216 l65 -24
1740 0 1740 0 63 24 c111 42 198 138 235 261 16 51 17 189 14 1780 -2 949 -5
1731 -7 1738 -2 6 -7 12 -12 12 -5 0 -7 4 -4 9 7 11 -16 71 -27 71 -4 0 -6 4
-3 8 10 16 -96 123 -147 148 -111 57 -1 54 -1857 53 -1445 -1 -1722 -3 -1760
-15z"/>
</g>
</svg>
