<?xml version="1.0" encoding="UTF-8" standalone="no"?>
<!-- Created with Inkscape (http://www.inkscape.org/) -->

<svg
   xmlns:dc="http://purl.org/dc/elements/1.1/"
   xmlns:cc="http://creativecommons.org/ns#"
   xmlns:rdf="http://www.w3.org/1999/02/22-rdf-syntax-ns#"
   xmlns:svg="http://www.w3.org/2000/svg"
   xmlns="http://www.w3.org/2000/svg"
   xmlns:sodipodi="http://sodipodi.sourceforge.net/DTD/sodipodi-0.dtd"
   xmlns:inkscape="http://www.inkscape.org/namespaces/inkscape"
   width="70"
   height="70"
   viewBox="0 0 70.000001 70.000001"
   id="svg4748"
   version="1.1"
   inkscape:version="0.91 r13725"
   inkscape:export-filename="C:\Users\Fabian Gutierrez\Desktop\path374.png"
   inkscape:export-xdpi="90"
   inkscape:export-ydpi="90"
   sodipodi:docname="alarma.svg">
  <defs
     id="defs4750" />
  <sodipodi:namedview
     id="base"
     pagecolor="#ffffff"
     bordercolor="#666666"
     borderopacity="1.0"
     inkscape:pageopacity="0.0"
     inkscape:pageshadow="2"
     inkscape:zoom="3.959798"
     inkscape:cx="5.0058085"
     inkscape:cy="21.039767"
     inkscape:document-units="px"
     inkscape:current-layer="layer1"
     showgrid="false"
     units="px"
     inkscape:window-width="1280"
     inkscape:window-height="971"
     inkscape:window-x="-8"
     inkscape:window-y="-8"
     inkscape:window-maximized="1"
     showguides="true"
     inkscape:guide-bbox="true">
    <sodipodi:guide
       position="76.140249,65.000001"
       orientation="0,1"
       id="guide5628"
       inkscape:label=""
       inkscape:color="rgb(0,0,255)" />
    <sodipodi:guide
       position="28.663079,5.0000001"
       orientation="0,1"
       id="guide5630"
       inkscape:label=""
       inkscape:color="rgb(0,0,255)" />
    <sodipodi:guide
       position="5.0000001,72.730984"
       orientation="1,0"
       id="guide5632"
       inkscape:label=""
       inkscape:color="rgb(0,0,255)" />
    <sodipodi:guide
       position="65.000001,46.593287"
       orientation="1,0"
       id="guide5634"
       inkscape:label=""
       inkscape:color="rgb(0,0,255)" />
  </sodipodi:namedview>
  <metadata
     id="metadata4753">
    <rdf:RDF>
      <cc:Work
         rdf:about="">
        <dc:format>image/svg+xml</dc:format>
        <dc:type
           rdf:resource="http://purl.org/dc/dcmitype/StillImage" />
        <dc:title></dc:title>
      </cc:Work>
    </rdf:RDF>
  </metadata>
  <g
     inkscape:label="Capa 1"
     inkscape:groupmode="layer"
     id="layer1"
     transform="translate(0,-982.36213)">
    <rect
       style="opacity:1;fill:#222d55;fill-opacity:1"
       id="rect5505"
       width="70"
       height="70"
       x="0"
       y="982.36212" />
    <path
       style="clip-rule:evenodd;fill:#f16136;fill-opacity:1;fill-rule:evenodd;image-rendering:optimizeQuality;shape-rendering:geometricPrecision;text-rendering:geometricPrecision"
       inkscape:connector-curvature="0"
       id="path380"
       d="m -37.393981,1004.1809 c 0,2.0508 1.019736,4.3579 1.912005,5.5756 1.529605,1.9866 2.103207,2.1789 4.270146,3.3965 0,-5.3191 -1.338404,-12.4328 4.015212,-12.5609 4.461346,-0.1923 3.951478,4.6783 4.333879,7.8826 0.127467,1.1536 0.382401,2.6917 0.382401,4.0375 0.573602,-0.1923 1.465871,-0.8972 1.97574,-1.2818 0.637335,-0.5126 1.083469,-1.2176 1.529604,-1.8585 3.186676,-4.486 1.657072,-11.53555 -3.44161,-14.41944 -1.147203,-0.64087 -2.485607,-1.02539 -3.824011,-1.15356 l -2.16694,0 c -2.485607,0.25635 -4.907481,1.34582 -6.500819,3.3325 -0.446135,0.57678 -0.573602,0.57678 -0.956003,1.28173 -1.019736,1.92257 -1.529604,3.39657 -1.529604,5.76777 z"
       class="fil5" />
    <path
       style="clip-rule:evenodd;fill:#222d55;fill-opacity:1;fill-rule:evenodd;image-rendering:optimizeQuality;shape-rendering:geometricPrecision;text-rendering:geometricPrecision"
       inkscape:connector-curvature="0"
       id="path417"
       d="m 44.239232,1022.595 -2.114916,2.0445 c -2.255912,-1.7626 -5.1463,-4.935 -7.331714,-7.1203 -2.396905,-2.3969 -5.075801,-4.7233 -7.261215,-7.2613 l 2.044419,-1.9739 14.663426,14.311 z m -22.700111,-4.794 c 0.634474,7.2613 7.40221,13.6061 15.57989,12.9716 19.034255,-1.5509 16.284863,-30.1727 -2.467403,-28.6219 -7.402212,0.5641 -13.81746,7.3317 -13.112487,15.6503 z"
       class="fil3" />
    <path
       style="clip-rule:evenodd;fill:#fefefe;fill-rule:evenodd;image-rendering:optimizeQuality;shape-rendering:geometricPrecision;text-rendering:geometricPrecision"
       inkscape:connector-curvature="0"
       id="path419"
       d="m 62.075035,1020.4096 c -2.114917,13.3239 -14.451934,24.6739 -30.313815,22.2066 -13.041989,-2.0445 -24.6035381,-14.452 -22.0656363,-30.3844 2.1854143,-13.11234 14.3109393,-24.39197 30.3138143,-21.92467 13.04199,1.97406 24.462542,14.38147 22.065637,30.10247 z M 31.972712,987.69877 c -9.799117,1.41002 -14.099449,5.56926 -18.681768,10.57467 -4.5118247,4.86436 -7.4727091,13.60596 -6.2037592,22.27696 2.04442,14.5225 15.7208852,27.212 32.8517152,24.6741 14.663428,-2.1149 27.211937,-15.5094 24.744534,-32.8516 -2.114919,-14.52244 -15.579891,-27.14141 -32.710722,-24.67413 z"
       class="fil4" />
    <path
       style="clip-rule:evenodd;fill:#fefefe;fill-rule:evenodd;image-rendering:optimizeQuality;shape-rendering:geometricPrecision;text-rendering:geometricPrecision"
       inkscape:connector-curvature="0"
       id="path421"
       d="m 21.539121,1017.801 c -0.704973,-8.3186 5.710275,-15.0862 13.112487,-15.6503 18.752266,-1.5508 21.501658,27.071 2.467403,28.6219 -8.17768,0.6345 -14.945416,-5.7103 -15.57989,-12.9716 z m 10.433591,-16.4258 c -20.4442,5.7103 -11.702543,35.0373 7.684201,30.3139 7.190718,-1.7625 13.746961,-9.5171 11.420553,-19.0343 -1.762433,-7.2612 -9.728622,-13.88797 -19.104754,-11.2796 z"
       class="fil4" />
    <path
       style="clip-rule:evenodd;fill:#f16136;fill-opacity:1;fill-rule:evenodd;image-rendering:optimizeQuality;shape-rendering:geometricPrecision;text-rendering:geometricPrecision"
       inkscape:connector-curvature="0"
       id="path423"
       d="m 27.531387,1010.2579 c 2.185414,2.538 4.86431,4.8644 7.261215,7.2613 2.185414,2.1853 5.075802,5.3577 7.331714,7.1203 l 2.114916,-2.0445 -14.663426,-14.311 -2.044419,1.9739 z"
       class="fil5" />
    <path
       style="clip-rule:evenodd;fill:#f16136;fill-opacity:1;fill-rule:evenodd;image-rendering:optimizeQuality;shape-rendering:geometricPrecision;text-rendering:geometricPrecision"
       inkscape:connector-curvature="0"
       id="path425"
       d="m 19.706192,999.68327 c 1.057459,0 1.973923,0.91663 1.973923,1.97413 0,1.0574 -0.916464,1.9738 -1.973923,1.9738 -1.127955,0 -1.973922,-0.9164 -1.973922,-1.9738 0,-1.0575 0.845967,-1.97413 1.973922,-1.97413 z"
       class="fil5" />
    <path
       style="clip-rule:evenodd;fill:#f16136;fill-opacity:1;fill-rule:evenodd;image-rendering:optimizeQuality;shape-rendering:geometricPrecision;text-rendering:geometricPrecision"
       inkscape:connector-curvature="0"
       id="path427"
       d="m 13.85492,1014.6993 c 1.127957,0 1.973923,0.9164 1.973923,1.9739 0,1.0575 -0.845966,1.9738 -1.973923,1.9738 -1.057457,0 -1.903425,-0.9163 -1.903425,-1.9738 0,-1.0575 0.845968,-1.9739 1.903425,-1.9739 z"
       class="fil5" />
    <path
       style="clip-rule:evenodd;fill:#f16136;fill-opacity:1;fill-rule:evenodd;image-rendering:optimizeQuality;shape-rendering:geometricPrecision;text-rendering:geometricPrecision"
       inkscape:connector-curvature="0"
       id="path429"
       d="m 20.55216,1030.1381 c 1.057458,0 1.903425,0.9166 1.903425,1.974 0,1.0575 -0.845967,1.9739 -1.903425,1.9739 -1.127957,0 -1.973923,-0.9164 -1.973923,-1.9739 0,-1.0574 0.845966,-1.974 1.973923,-1.974 z"
       class="fil5" />
    <path
       style="clip-rule:evenodd;fill:#f16136;fill-opacity:1;fill-rule:evenodd;image-rendering:optimizeQuality;shape-rendering:geometricPrecision;text-rendering:geometricPrecision"
       inkscape:connector-curvature="0"
       id="path431"
       d="m 34.228623,992.35163 c 1.127957,0 1.973923,0.84597 1.973923,1.97387 0,1.05747 -0.845966,1.90344 -1.973923,1.90344 -1.057459,0 -1.903425,-0.84597 -1.903425,-1.90344 0,-1.1279 0.845966,-1.97387 1.903425,-1.97387 z"
       class="fil5" />
  </g>
</svg>
