<?xml version="1.0" encoding="UTF-8" standalone="no"?>
<!-- Created with Inkscape (http://www.inkscape.org/) -->

<svg
   xmlns:dc="http://purl.org/dc/elements/1.1/"
   xmlns:cc="http://creativecommons.org/ns#"
   xmlns:rdf="http://www.w3.org/1999/02/22-rdf-syntax-ns#"
   xmlns:svg="http://www.w3.org/2000/svg"
   xmlns="http://www.w3.org/2000/svg"
   xmlns:sodipodi="http://sodipodi.sourceforge.net/DTD/sodipodi-0.dtd"
   xmlns:inkscape="http://www.inkscape.org/namespaces/inkscape"
   width="100"
   height="100"
   viewBox="0 0 100 100"
   id="svg2"
   version="1.1"
   inkscape:version="0.91 r13725"
   inkscape:export-filename="C:\Users\Fabian Gutierrez\Desktop\path4485.png"
   inkscape:export-xdpi="135"
   inkscape:export-ydpi="135"
   sodipodi:docname="capacitacion.svg">
  <defs
     id="defs4" />
  <sodipodi:namedview
     id="base"
     pagecolor="#ffffff"
     bordercolor="#666666"
     borderopacity="1.0"
     inkscape:pageopacity="0.0"
     inkscape:pageshadow="2"
     inkscape:zoom="5.6"
     inkscape:cx="59.148501"
     inkscape:cy="32.98923"
     inkscape:document-units="px"
     inkscape:current-layer="layer1"
     showgrid="false"
     units="px"
     showguides="true"
     inkscape:guide-bbox="true"
     inkscape:window-width="1280"
     inkscape:window-height="971"
     inkscape:window-x="-8"
     inkscape:window-y="-8"
     inkscape:window-maximized="1">
    <sodipodi:guide
       position="20,20"
       orientation="0,1"
       id="guide4489"
       inkscape:label=""
       inkscape:color="rgb(0,0,255)" />
    <sodipodi:guide
       position="80,23.233509"
       orientation="1,0"
       id="guide4491"
       inkscape:label=""
       inkscape:color="rgb(0,0,255)" />
    <sodipodi:guide
       position="80,80"
       orientation="0,1"
       id="guide4499"
       inkscape:label=""
       inkscape:color="rgb(0,0,255)" />
    <sodipodi:guide
       position="20,20"
       orientation="1,0"
       id="guide4501"
       inkscape:label=""
       inkscape:color="rgb(0,0,255)" />
  </sodipodi:namedview>
  <metadata
     id="metadata7">
    <rdf:RDF>
      <cc:Work
         rdf:about="">
        <dc:format>image/svg+xml</dc:format>
        <dc:type
           rdf:resource="http://purl.org/dc/dcmitype/StillImage" />
        <dc:title></dc:title>
      </cc:Work>
    </rdf:RDF>
  </metadata>
  <g
     inkscape:label="Capa 1"
     inkscape:groupmode="layer"
     id="layer1"
     transform="translate(0,-952.36212)">
    <rect
       style="opacity:1;fill:#222d55;fill-opacity:1"
       id="rect3336"
       width="100"
       height="100"
       x="0"
       y="952.36212" />
    <path
       inkscape:connector-curvature="0"
       id="path4571"
       d="m 49.966066,1031.2249 c -1.030351,-0.3052 -3.849613,-1.5387 -7.618054,-3.3328 -1.572634,-0.7487 -4.034147,-1.9203 -5.47003,-2.6036 -3.670182,-1.7466 -4.604841,-2.0965 -6.091625,-2.2806 -0.683754,-0.084 -1.401441,-0.2326 -1.59486,-0.3288 -0.691415,-0.3437 -0.705039,-0.4772 -0.705039,-6.9111 0,-3.9968 0.04438,-6.0179 0.138039,-6.2866 0.188937,-0.5419 0.705661,-0.7787 2.853471,-1.3075 3.743748,-0.9216 6.594271,-1.2594 9.751175,-1.1553 3.406671,0.1123 5.311653,0.6215 9.115229,2.4364 1.277158,0.6094 2.545881,1.1667 2.819382,1.2385 0.476724,0.1251 1.381198,0.2239 4.785046,0.5226 3.27491,0.2874 7.076643,1.1319 8.492056,1.8863 1.166325,0.6217 1.947604,1.8403 1.773798,2.7668 -0.140124,0.7469 -0.927265,2.1453 -1.468221,2.6083 -0.282911,0.2422 -0.813294,0.5345 -1.178627,0.6497 -0.582256,0.1835 -0.813344,0.1912 -1.872191,0.062 -0.66437,-0.082 -2.270871,-0.2028 -3.570004,-0.2703 -1.299132,-0.067 -3.480928,-0.1829 -4.848435,-0.2566 -2.468438,-0.133 -4.156537,-0.053 -4.046619,0.1912 0.08257,0.1837 3.543879,1.6013 4.481734,1.8356 1.438979,0.3595 3.256805,0.4771 5.273271,0.3409 3.797281,-0.2563 5.769038,-0.6436 7.256963,-1.4255 0.465888,-0.2449 1.375601,-0.8933 2.021587,-1.4411 2.912721,-2.47 5.930463,-3.0403 7.544897,-1.4259 0.467936,0.4679 0.529318,0.595 0.529318,1.0956 0,0.4597 -0.08503,0.6777 -0.451663,1.158 l -0.451662,0.5917 0.296263,0.2258 c 0.162946,0.1243 0.366194,0.284 0.451664,0.3552 0.228607,0.1901 0.184337,0.976 -0.08889,1.578 -0.428811,0.9445 -1.919772,2.1993 -5.115737,4.3052 -0.983573,0.6481 -2.235862,1.4896 -2.782864,1.8699 -1.215086,0.8448 -2.491151,1.3961 -3.623248,1.5653 -3.331412,0.498 -7.111169,1.0713 -9.492394,1.4398 -3.627042,0.5613 -5.91337,0.6586 -7.113733,0.303 z m -29.128233,-5.7659 c -0.206783,-0.092 -0.444543,-0.318 -0.528355,-0.502 -0.11579,-0.2541 -0.152385,-2.4822 -0.152385,-9.2776 l 0,-8.9431 0.362758,-0.406 0.362759,-0.406 2.618069,0 2.618069,0 0.344702,0.3447 0.344703,0.3447 0,9.1317 0,9.1319 -0.344418,0.3446 -0.344418,0.3448 -2.452757,0.03 c -1.842388,0.023 -2.546317,-0.011 -2.828727,-0.1376 z m 47.538577,-12.6255 c -1.423186,-1.4456 -4.749171,-2.4568 -9.635808,-2.9297 -5.209287,-0.5042 -5.358339,-0.5381 -7.92574,-1.8012 -2.158894,-1.0621 -3.951505,-1.7026 -5.889469,-2.1041 -1.304731,-0.2705 -3.859181,-0.5442 -4.683481,-0.5018 -0.778908,0.04 -0.775407,0.043 -1.257043,-0.819 -0.31103,-0.5562 -0.42977,-0.8985 -0.377388,-1.0879 0.04204,-0.1519 0.722145,-0.8077 1.511357,-1.4572 0.789211,-0.6496 1.49284,-1.2489 1.56362,-1.3317 0.09047,-0.1059 0.02726,-0.5405 -0.212798,-1.46329 -0.281347,-1.0814 -0.38734,-1.32315 -0.601802,-1.37258 -0.14317,-0.033 -1.064601,-0.19874 -2.047624,-0.36831 -0.983021,-0.16959 -1.864132,-0.37209 -1.958023,-0.45001 -0.238836,-0.19822 -0.24905,-4.36693 -0.01119,-4.56435 0.08774,-0.0728 0.96885,-0.27601 1.958022,-0.45154 0.989173,-0.17553 1.915636,-0.34545 2.058807,-0.3776 0.214278,-0.0481 0.318869,-0.28423 0.591465,-1.33522 0.182136,-0.70223 0.330729,-1.31307 0.330206,-1.35742 -4.98e-4,-0.0444 -0.632448,-0.60993 -1.404275,-1.25681 -1.726489,-1.44701 -1.828961,-1.54879 -1.828961,-1.81676 0,-0.22683 1.666569,-3.20556 2.032764,-3.63324 0.249534,-0.29144 0.141728,-0.31432 2.454498,0.52073 0.929548,0.33562 1.7701,0.61022 1.867895,0.61022 0.201831,0 1.974207,-1.73952 1.974207,-1.93761 0,-0.0711 -0.311303,-0.97929 -0.691784,-2.01835 -0.380484,-1.03907 -0.660008,-1.98933 -0.621169,-2.11171 0.07811,-0.24609 3.490882,-2.2617 3.829464,-2.2617 0.117051,0 0.647662,0.51621 1.179134,1.14713 0.531471,0.63091 1.166877,1.36658 1.412013,1.63481 l 0.445697,0.4877 1.285342,-0.33041 c 0.706939,-0.18172 1.303178,-0.34823 1.324978,-0.37004 0.02179,-0.0218 0.203688,-0.94768 0.404198,-2.0575 0.200508,-1.10983 0.431523,-2.09856 0.513365,-2.19717 0.119153,-0.14357 0.5784,-0.1793 2.304787,-0.1793 1.988613,0 2.165768,0.0183 2.282012,0.23548 0.06932,0.12952 0.275814,1.09455 0.458886,2.14451 0.183071,1.04996 0.370306,1.95239 0.416074,2.00541 0.08845,0.10246 2.268697,0.71167 2.546918,0.71167 0.09053,0 0.743833,-0.69826 1.451775,-1.55171 0.707944,-0.85345 1.409618,-1.58592 1.559278,-1.62772 0.200061,-0.0559 0.743183,0.19863 2.051262,0.9612 1.479314,0.86241 1.785356,1.09039 1.815953,1.35279 0.02024,0.17356 -0.24549,1.08744 -0.590514,2.03084 -0.345024,0.94338 -0.627314,1.80976 -0.627314,1.92526 0,0.2186 1.717004,2.00517 1.929866,2.00807 0.06677,9e-4 1.002716,-0.31345 2.079887,-0.69858 1.558266,-0.55715 1.994915,-0.67002 2.136719,-0.55232 0.247586,0.20547 2.182892,3.57035 2.182892,3.79534 0,0.10079 -0.516203,0.61808 -1.147117,1.14955 -0.630915,0.53148 -1.37112,1.17112 -1.644903,1.42142 l -0.497783,0.45511 0.308474,1.2141 c 0.16966,0.66776 0.370644,1.27638 0.446633,1.35248 0.07599,0.0761 1.024461,0.29262 2.107718,0.48113 1.08326,0.18852 2.042056,0.40293 2.130661,0.47645 0.233147,0.19351 0.231179,4.36582 -0.0022,4.55947 -0.08979,0.0745 -1.067809,0.29483 -2.173381,0.48958 -1.105573,0.19474 -2.040714,0.38467 -2.078092,0.42205 -0.09509,0.0951 -0.678925,2.23125 -0.680807,2.49095 -8.96e-4,0.1208 0.699338,0.8122 1.6146,1.5941 0.888881,0.7595 1.616146,1.4549 1.616146,1.5453 0,0.217 -1.940551,3.6007 -2.178068,3.7978 -0.150275,0.1247 -0.543791,0.023 -2.117149,-0.546 -1.06291,-0.3846 -2.00123,-0.6992 -2.085156,-0.6992 -0.225725,0 -1.948989,1.7753 -1.948989,2.008 0,0.1097 0.302039,1.0315 0.6712,2.0482 0.48165,1.3268 0.63915,1.9089 0.557706,2.0616 -0.127814,0.2393 -1.534602,1.1001 -1.763923,1.0791 -0.08181,-0.01 -0.407866,-0.2768 -0.72458,-0.5985 z m -7.194088,-8.2727 c 6.823553,-2.1733 9.391926,-10.20989 5.081287,-15.89949 -1.232352,-1.62659 -3.421807,-3.08929 -5.454243,-3.64382 -1.252875,-0.34183 -3.982844,-0.31339 -5.258588,0.0548 -5.990175,1.72874 -9.022814,8.07587 -6.611672,13.83781 1.027382,2.45513 3.326312,4.59553 5.956255,5.54533 1.767537,0.6385 4.471155,0.6837 6.286961,0.1054 z"
       style="fill:#ffffff" />
  </g>
</svg>
