<?xml version="1.0" encoding="UTF-8" standalone="no"?>
<!-- Created with Inkscape (http://www.inkscape.org/) -->

<svg
   xmlns:dc="http://purl.org/dc/elements/1.1/"
   xmlns:cc="http://creativecommons.org/ns#"
   xmlns:rdf="http://www.w3.org/1999/02/22-rdf-syntax-ns#"
   xmlns:svg="http://www.w3.org/2000/svg"
   xmlns="http://www.w3.org/2000/svg"
   xmlns:sodipodi="http://sodipodi.sourceforge.net/DTD/sodipodi-0.dtd"
   xmlns:inkscape="http://www.inkscape.org/namespaces/inkscape"
   width="70"
   height="70"
   viewBox="0 0 70.000001 70.000001"
   id="svg4748"
   version="1.1"
   inkscape:version="0.91 r13725"
   inkscape:export-filename="C:\Users\Fabian Gutierrez\Desktop\path374.png"
   inkscape:export-xdpi="90"
   inkscape:export-ydpi="90"
   sodipodi:docname="geocerca.svg">
  <defs
     id="defs4750" />
  <sodipodi:namedview
     id="base"
     pagecolor="#ffffff"
     bordercolor="#666666"
     borderopacity="1.0"
     inkscape:pageopacity="0.0"
     inkscape:pageshadow="2"
     inkscape:zoom="5.6"
     inkscape:cx="20.07536"
     inkscape:cy="25.81229"
     inkscape:document-units="px"
     inkscape:current-layer="layer1"
     showgrid="false"
     units="px"
     inkscape:window-width="1280"
     inkscape:window-height="971"
     inkscape:window-x="-8"
     inkscape:window-y="-8"
     inkscape:window-maximized="1"
     showguides="true"
     inkscape:guide-bbox="true">
    <sodipodi:guide
       position="76.140249,65.000001"
       orientation="0,1"
       id="guide5628"
       inkscape:label=""
       inkscape:color="rgb(0,0,255)" />
    <sodipodi:guide
       position="28.663079,5.0000001"
       orientation="0,1"
       id="guide5630"
       inkscape:label=""
       inkscape:color="rgb(0,0,255)" />
    <sodipodi:guide
       position="5.0000001,72.730984"
       orientation="1,0"
       id="guide5632"
       inkscape:label=""
       inkscape:color="rgb(0,0,255)" />
    <sodipodi:guide
       position="65.000001,46.593287"
       orientation="1,0"
       id="guide5634"
       inkscape:label=""
       inkscape:color="rgb(0,0,255)" />
  </sodipodi:namedview>
  <metadata
     id="metadata4753">
    <rdf:RDF>
      <cc:Work
         rdf:about="">
        <dc:format>image/svg+xml</dc:format>
        <dc:type
           rdf:resource="http://purl.org/dc/dcmitype/StillImage" />
        <dc:title></dc:title>
      </cc:Work>
    </rdf:RDF>
  </metadata>
  <g
     inkscape:label="Capa 1"
     inkscape:groupmode="layer"
     id="layer1"
     transform="translate(0,-982.36213)">
    <rect
       style="opacity:1;fill:#222d55;fill-opacity:1"
       id="rect5505"
       width="70"
       height="70"
       x="0"
       y="982.36212" />
    <path
       style="clip-rule:evenodd;fill:#f16136;fill-opacity:1;fill-rule:evenodd;image-rendering:optimizeQuality;shape-rendering:geometricPrecision;text-rendering:geometricPrecision"
       inkscape:connector-curvature="0"
       id="path380"
       d="m -37.393981,1004.1809 c 0,2.0508 1.019736,4.3579 1.912005,5.5756 1.529605,1.9866 2.103207,2.1789 4.270146,3.3965 0,-5.3191 -1.338404,-12.4328 4.015212,-12.5609 4.461346,-0.1923 3.951478,4.6783 4.333879,7.8826 0.127467,1.1536 0.382401,2.6917 0.382401,4.0375 0.573602,-0.1923 1.465871,-0.8972 1.97574,-1.2818 0.637335,-0.5126 1.083469,-1.2176 1.529604,-1.8585 3.186676,-4.486 1.657072,-11.53555 -3.44161,-14.41944 -1.147203,-0.64087 -2.485607,-1.02539 -3.824011,-1.15356 l -2.16694,0 c -2.485607,0.25635 -4.907481,1.34582 -6.500819,3.3325 -0.446135,0.57678 -0.573602,0.57678 -0.956003,1.28173 -1.019736,1.92257 -1.529604,3.39657 -1.529604,5.76777 z"
       class="fil5" />
    <path
       style="clip-rule:evenodd;fill:#fefefe;fill-rule:evenodd;image-rendering:optimizeQuality;shape-rendering:geometricPrecision;text-rendering:geometricPrecision"
       inkscape:connector-curvature="0"
       id="path478"
       d="m 5.0690903,1002.3906 -0.068363,20.8508 c 0.1367266,1.1622 0.2050898,0.8204 1.4356289,0.752 1.0254492,-0.068 1.5723554,-0.068 2.5294413,-0.2051 0.957086,-0.1367 1.5723558,-0.068 2.5294418,-0.068 1.093812,-0.068 1.162175,-0.2735 2.392714,-0.2735 1.640719,0 3.349801,-0.068 5.058883,-0.2051 2.734531,-0.2734 4.306887,0.068 4.306887,-0.9571 l 0,-15.5868 c 0,-1.0255 -4.238524,-3.0764 -5.400699,-3.4865 -5.537426,-1.9142 -8.2719572,-1.2306 -12.7839337,-0.8204 z"
       class="fil4" />
    <path
       style="clip-rule:evenodd;fill:#fefefe;fill-rule:evenodd;image-rendering:optimizeQuality;shape-rendering:geometricPrecision;text-rendering:geometricPrecision"
       inkscape:connector-curvature="0"
       id="path480"
       d="m 42.190351,1016.7469 c 1.162176,0 1.709082,0.1367 1.709082,-0.6836 l 0,-17.50103 c 0,-0.82036 -0.957086,-0.88873 -1.777445,-1.16218 l -11.758484,-3.82834 c -0.888723,-0.27346 -1.572356,-0.54691 -2.324352,-0.752 -0.683632,-0.27345 -1.845808,-0.47854 -2.392714,-0.752 0,3.41817 0,6.83633 0,10.32285 0,4.8538 -0.751997,2.7345 3.213074,7.1098 3.96507,4.4436 6.084332,7.2465 13.330839,7.2465 z"
       class="fil4" />
    <path
       style="clip-rule:evenodd;fill:#fefefe;fill-rule:evenodd;image-rendering:optimizeQuality;shape-rendering:geometricPrecision;text-rendering:geometricPrecision"
       inkscape:connector-curvature="0"
       id="path482"
       d="m 46.018695,1028.7105 0,13.9461 c 1.435629,-0.068 16.270461,-3.6916 17.979543,-3.8284 l 0,-13.6726 c -2.939621,0.6836 -5.879242,1.1622 -8.95559,1.7774 -3.007984,0.6153 -6.084332,1.0938 -9.023953,1.7775 z"
       class="fil4" />
    <path
       style="clip-rule:evenodd;fill:#fefefe;fill-rule:evenodd;image-rendering:optimizeQuality;shape-rendering:geometricPrecision;text-rendering:geometricPrecision"
       inkscape:connector-curvature="0"
       id="path484"
       d="m 25.646438,1036.9141 c 1.093812,0.068 3.55489,1.0254 4.580339,1.3672 1.572356,0.5469 2.939621,1.0255 4.511977,1.504 l 9.160679,2.8713 0,-13.9461 c -6.015968,-1.3673 -12.237027,-2.3927 -18.252995,-3.8284 l 0,12.032 z"
       class="fil4" />
    <path
       style="clip-rule:evenodd;fill:#fefefe;fill-rule:evenodd;image-rendering:optimizeQuality;shape-rendering:geometricPrecision;text-rendering:geometricPrecision"
       inkscape:connector-curvature="0"
       id="path486"
       d="m 5.0690903,1026.3178 0,12.5104 c 3.5548905,-0.068 14.2195627,-1.9141 18.1846327,-1.9141 l 0,-11.7585 -18.1846327,1.1622 z"
       class="fil4" />
    <path
       style="clip-rule:evenodd;fill:#fefefe;fill-rule:evenodd;image-rendering:optimizeQuality;shape-rendering:geometricPrecision;text-rendering:geometricPrecision"
       inkscape:connector-curvature="0"
       id="path488"
       d="m 25.646438,1022.7629 c 1.777445,0 16.47555,3.5549 18.252995,3.5549 l 0,-7.8618 c -7.109781,0 -10.049402,-0.4102 -15.176648,-6.2211 -0.615269,-0.6836 -0.751996,-0.9571 -1.435629,-1.6407 -1.093812,-1.0938 -0.751996,-1.2989 -1.640718,-1.504 l 0,13.6727 z"
       class="fil4" />
    <path
       style="clip-rule:evenodd;fill:#fefefe;fill-rule:evenodd;image-rendering:optimizeQuality;shape-rendering:geometricPrecision;text-rendering:geometricPrecision"
       inkscape:connector-curvature="0"
       id="path490"
       d="m 5.0690903,993.98193 0,6.49447 c 4.2385233,0 7.9301407,-1.02541 13.1941127,0.8888 2.324352,0.8203 4.58034,2.3243 4.99052,2.461 l 0,-11.75845 c -1.298903,0 -3.076348,0.34182 -4.511977,0.47855 -1.435629,0.13672 -2.939621,0.34181 -4.580339,0.47854 l -9.0923167,0.95709 z"
       class="fil4" />
    <path
       style="clip-rule:evenodd;fill:#fefefe;fill-rule:evenodd;image-rendering:optimizeQuality;shape-rendering:geometricPrecision;text-rendering:geometricPrecision"
       inkscape:connector-curvature="0"
       id="path492"
       d="m 61.400433,1014.0807 -10.322855,2.9397 c -1.435629,0.2734 -3.554891,1.1621 -5.058883,1.1621 l 0,8.1353 c 2.050898,0 15.928644,-3.3498 17.979543,-3.3498 l 0,-9.5709 c -0.41018,0.2051 -2.050899,0.6836 -2.597805,0.6836 z"
       class="fil4" />
    <path
       style="clip-rule:evenodd;fill:#fefefe;fill-rule:evenodd;image-rendering:optimizeQuality;shape-rendering:geometricPrecision;text-rendering:geometricPrecision"
       inkscape:connector-curvature="0"
       id="path494"
       d="m 46.018695,1016.5418 c 0.478543,-0.2734 17.29591,-4.7854 17.979543,-4.8538 0,-4.8538 0,-2.8029 0,-8.8188 l -17.979543,-3.34985 0,17.02245 z"
       class="fil4" />
    <path
       style="clip-rule:evenodd;fill:#fefefe;fill-rule:evenodd;image-rendering:optimizeQuality;shape-rendering:geometricPrecision;text-rendering:geometricPrecision"
       inkscape:connector-curvature="0"
       id="path496"
       d="m 63.998238,1011.688 0,-8.8188 c -0.683633,0.8203 -3.623254,8.7505 -3.418164,9.1606 0.478543,0.752 2.050898,-0.2734 3.418164,-0.3418 z"
       class="fil4" />
    <path
       style="clip-rule:evenodd;fill:#f16136;fill-rule:evenodd;image-rendering:optimizeQuality;shape-rendering:geometricPrecision;text-rendering:geometricPrecision;fill-opacity:1"
       inkscape:connector-curvature="0"
       id="path498"
       d="m 32.482766,1010.5942 1.298902,4.6487 -4.511977,1.2989 c 0.06836,0.6836 0.273454,1.7775 0.82036,2.3244 l 4.306886,-1.1622 1.298903,4.3069 c 0.751996,0.1367 1.914172,-0.1368 2.392715,-0.6153 l -1.23054,-4.4436 c 0.82036,-0.1367 1.435629,-0.4102 2.255989,-0.6153 0.751996,-0.2051 1.640718,-0.2051 2.187625,-0.8203 l -0.61527,-2.3244 -4.58034,1.4356 -1.230539,-4.6487 -2.392714,0.6153 z"
       class="fil5" />
    <g
       style="clip-rule:evenodd;fill-rule:evenodd;image-rendering:optimizeQuality;shape-rendering:geometricPrecision;text-rendering:geometricPrecision;fill:#f16136;fill-opacity:1"
       id="g500"
       transform="matrix(0.06836328,0,0,0.06836328,-70.198881,211.42746)">
      <path
         style="fill:#f16136;fill-opacity:1"
         inkscape:connector-curvature="0"
         id="path502"
         d="m 1758,11859 c 0,29 44,26 44,6 0,-12 0,-28 -22,-28 -13,0 -22,12 -22,22 z"
         class="fil5" />
      <path
         style="fill:#f16136;fill-opacity:1"
         inkscape:connector-curvature="0"
         id="path504"
         d="m 1694,11752 c 0,4 4,13 6,16 14,14 38,2 38,-10 0,-11 0,-28 -22,-28 -13,0 -22,13 -22,22 z"
         class="fil5" />
      <path
         style="fill:#f16136;fill-opacity:1"
         inkscape:connector-curvature="0"
         id="path506"
         d="m 1784,11625 c 0,11 0,28 22,28 27,0 30,-44 -2,-44 -11,0 -20,10 -20,16 z"
         class="fil5" />
      <path
         style="fill:#f16136;fill-opacity:1"
         inkscape:connector-curvature="0"
         id="path508"
         d="m 1854,11635 c 0,11 0,28 22,28 27,0 30,-44 -2,-44 -11,0 -20,10 -20,16 z"
         class="fil5" />
      <path
         style="fill:#f16136;fill-opacity:1"
         inkscape:connector-curvature="0"
         id="path510"
         d="m 1914,11691 c 0,26 29,26 38,15 8,-9 6,-24 -1,-31 -14,-13 -37,-4 -37,16 z"
         class="fil5" />
      <path
         style="fill:#f16136;fill-opacity:1"
         inkscape:connector-curvature="0"
         id="path512"
         d="m 1925,11815 c 0,18 6,24 24,24 19,0 26,-24 13,-37 -13,-13 -37,-5 -37,13 z"
         class="fil5" />
      <path
         style="fill:#f16136;fill-opacity:1"
         inkscape:connector-curvature="0"
         id="path514"
         d="m 1733,11834 c 18,0 23,-5 23,-23 0,-19 -24,-26 -36,-13 -13,12 -6,36 13,36 z"
         class="fil5" />
      <path
         style="fill:#f16136;fill-opacity:1"
         inkscape:connector-curvature="0"
         id="path516"
         d="m 1747,11694 c 18,0 24,-5 24,-23 0,-19 -24,-26 -37,-13 -13,12 -5,36 13,36 z"
         class="fil5" />
      <path
         style="fill:#f16136;fill-opacity:1"
         inkscape:connector-curvature="0"
         id="path518"
         d="m 1870,11883 c 0,-18 -6,-24 -24,-24 -19,0 -26,24 -13,37 12,13 37,5 37,-13 z"
         class="fil5" />
      <path
         style="fill:#f16136;fill-opacity:1"
         inkscape:connector-curvature="0"
         id="path520"
         d="m 1934,11755 c 0,19 6,24 24,24 19,0 26,-24 13,-36 -12,-13 -37,-6 -37,12 z"
         class="fil5" />
      <path
         style="fill:#f16136;fill-opacity:1"
         inkscape:connector-curvature="0"
         id="path522"
         d="m 1925,11863 c 0,-19 -5,-24 -23,-24 -19,0 -26,24 -13,36 12,13 36,6 36,-12 z"
         class="fil5" />
    </g>
    <path
       style="clip-rule:evenodd;fill:#f16136;fill-rule:evenodd;image-rendering:optimizeQuality;shape-rendering:geometricPrecision;text-rendering:geometricPrecision;fill-opacity:1"
       inkscape:connector-curvature="0"
       id="path524"
       d="m 55.931371,1011.5513 c 1.914171,0 3.486527,1.5723 3.486527,3.5549 0,1.9142 -1.572356,3.4865 -3.486527,3.4865 -1.982536,0 -3.554891,-1.5723 -3.554891,-3.4865 0,-1.9826 1.572355,-3.5549 3.554891,-3.5549 z"
       class="fil5" />
  </g>
</svg>
