<?xml version="1.0" encoding="UTF-8" standalone="no"?>
<!-- Created with Inkscape (http://www.inkscape.org/) -->

<svg
   xmlns:dc="http://purl.org/dc/elements/1.1/"
   xmlns:cc="http://creativecommons.org/ns#"
   xmlns:rdf="http://www.w3.org/1999/02/22-rdf-syntax-ns#"
   xmlns:svg="http://www.w3.org/2000/svg"
   xmlns="http://www.w3.org/2000/svg"
   xmlns:sodipodi="http://sodipodi.sourceforge.net/DTD/sodipodi-0.dtd"
   xmlns:inkscape="http://www.inkscape.org/namespaces/inkscape"
   width="70"
   height="70"
   viewBox="0 0 70.000001 70.000001"
   id="svg4748"
   version="1.1"
   inkscape:version="0.91 r13725"
   inkscape:export-filename="C:\Users\Fabian Gutierrez\Desktop\path374.png"
   inkscape:export-xdpi="90"
   inkscape:export-ydpi="90"
   sodipodi:docname="mapa.svg">
  <defs
     id="defs4750" />
  <sodipodi:namedview
     id="base"
     pagecolor="#ffffff"
     bordercolor="#666666"
     borderopacity="1.0"
     inkscape:pageopacity="0.0"
     inkscape:pageshadow="2"
     inkscape:zoom="3.959798"
     inkscape:cx="16.592077"
     inkscape:cy="42.93164"
     inkscape:document-units="px"
     inkscape:current-layer="layer1"
     showgrid="false"
     units="px"
     inkscape:window-width="1280"
     inkscape:window-height="971"
     inkscape:window-x="-8"
     inkscape:window-y="-8"
     inkscape:window-maximized="1"
     showguides="true"
     inkscape:guide-bbox="true">
    <sodipodi:guide
       position="76.140249,65.000001"
       orientation="0,1"
       id="guide5628"
       inkscape:label=""
       inkscape:color="rgb(0,0,255)" />
    <sodipodi:guide
       position="28.663079,5.0000001"
       orientation="0,1"
       id="guide5630"
       inkscape:label=""
       inkscape:color="rgb(0,0,255)" />
    <sodipodi:guide
       position="5.0000001,72.730984"
       orientation="1,0"
       id="guide5632"
       inkscape:label=""
       inkscape:color="rgb(0,0,255)" />
    <sodipodi:guide
       position="65.000001,46.593287"
       orientation="1,0"
       id="guide5634"
       inkscape:label=""
       inkscape:color="rgb(0,0,255)" />
  </sodipodi:namedview>
  <metadata
     id="metadata4753">
    <rdf:RDF>
      <cc:Work
         rdf:about="">
        <dc:format>image/svg+xml</dc:format>
        <dc:type
           rdf:resource="http://purl.org/dc/dcmitype/StillImage" />
        <dc:title></dc:title>
      </cc:Work>
    </rdf:RDF>
  </metadata>
  <g
     inkscape:label="Capa 1"
     inkscape:groupmode="layer"
     id="layer1"
     transform="translate(0,-982.36213)">
    <rect
       style="opacity:1;fill:#222d55;fill-opacity:1"
       id="rect5505"
       width="70"
       height="70"
       x="0"
       y="982.36212" />
    <path
       class="fil8"
       d="m 5.3583245,1004.9427 0,20.9964 c 0.068609,1.1665 0.1372374,0.7548 1.4409139,0.6861 0.9606099,-0.068 1.5781455,0 2.5387555,-0.1375 0.9606101,-0.1375 1.5781441,-0.068 2.5387531,-0.1375 1.029225,-0.068 1.166455,-0.2059 2.401526,-0.2059 1.646759,-0.068 3.293519,-0.1374 5.008894,-0.2745 2.813215,-0.2059 4.391359,0.07 4.391359,-0.9605 l 0,-15.6444 c 0,-1.0292 -4.254129,-3.0877 -5.420583,-3.4994 -5.557815,-1.9205 -8.3024154,-1.2345 -12.8996185,-0.8228 z"
       id="path535"
       inkscape:connector-curvature="0"
       style="clip-rule:evenodd;fill:#fefefe;fill-rule:evenodd;image-rendering:optimizeQuality;shape-rendering:geometricPrecision;text-rendering:geometricPrecision" />
    <path
       class="fil8"
       d="m 42.68488,1019.352 c 1.166454,0 1.715375,0.2058 1.715375,-0.6863 l 0,-17.5653 c 0,-0.8234 -0.96061,-0.8921 -1.78399,-1.16653 l -11.801778,-3.84234 c -0.891996,-0.27459 -1.578146,-0.54899 -2.332909,-0.75483 -0.686151,-0.2744 -1.852605,-0.54899 -2.401526,-0.75484 0,3.43084 0,6.86144 0,10.36084 0,4.8718 -0.754766,2.7446 3.156289,7.1361 3.979669,4.4599 6.175351,7.2732 13.448539,7.2732 z"
       id="path537"
       inkscape:connector-curvature="0"
       style="clip-rule:evenodd;fill:#fefefe;fill-rule:evenodd;image-rendering:optimizeQuality;shape-rendering:geometricPrecision;text-rendering:geometricPrecision" />
    <path
       class="fil8"
       d="m 46.52732,1031.4282 0,13.9976 c 1.440914,-0.068 16.330368,-3.7053 18.114357,-3.9111 l 0,-13.723 c -2.950445,0.6861 -5.969504,1.2351 -9.057179,1.8526 -3.019059,0.6176 -6.106734,1.0978 -9.057178,1.7839 z"
       id="path539"
       inkscape:connector-curvature="0"
       style="clip-rule:evenodd;fill:#fefefe;fill-rule:evenodd;image-rendering:optimizeQuality;shape-rendering:geometricPrecision;text-rendering:geometricPrecision" />
    <path
       class="fil8"
       d="m 26.080052,1039.5935 c 1.097839,0.1375 3.56798,1.0978 4.597205,1.4409 1.578143,0.4803 2.950444,1.0293 4.528588,1.5095 l 9.19441,2.8819 0,-13.9976 c -6.038119,-1.4409 -12.282084,-2.4702 -18.320203,-3.8423 l 0,12.0076 z"
       id="path541"
       inkscape:connector-curvature="0"
       style="clip-rule:evenodd;fill:#fefefe;fill-rule:evenodd;image-rendering:optimizeQuality;shape-rendering:geometricPrecision;text-rendering:geometricPrecision" />
    <path
       class="fil8"
       d="m 5.3583245,1029.0268 0,12.4879 c 3.5679783,-0.068 14.3405325,-1.9212 18.3202015,-1.9212 l 0,-11.8018 -18.3202015,1.2351 z"
       id="path543"
       inkscape:connector-curvature="0"
       style="clip-rule:evenodd;fill:#fefefe;fill-rule:evenodd;image-rendering:optimizeQuality;shape-rendering:geometricPrecision;text-rendering:geometricPrecision" />
    <path
       class="fil8"
       d="m 26.080052,1025.3901 c 1.78399,0 16.604828,3.5679 18.320203,3.6367 l 0,-7.9595 c -7.135958,0 -10.086403,-0.3431 -15.232529,-6.1754 -0.617534,-0.6861 -0.754763,-1.0292 -1.440914,-1.7153 -1.097839,-1.0978 -0.754765,-1.3036 -1.64676,-1.5095 l 0,13.723 z"
       id="path545"
       inkscape:connector-curvature="0"
       style="clip-rule:evenodd;fill:#fefefe;fill-rule:evenodd;image-rendering:optimizeQuality;shape-rendering:geometricPrecision;text-rendering:geometricPrecision" />
    <path
       class="fil8"
       d="m 5.3583245,996.50323 0,6.51837 c 4.3227437,0 7.9593385,-1.0293 13.3113075,0.8919 2.264294,0.8234 4.597205,2.3331 5.008894,2.4702 l 0,-11.80184 c -1.303684,0 -3.087674,0.34315 -4.597203,0.48044 -1.440916,0.13749 -2.88183,0.34295 -4.52859,0.48024 l -9.1944085,0.96069 z"
       id="path547"
       inkscape:connector-curvature="0"
       style="clip-rule:evenodd;fill:#fefefe;fill-rule:evenodd;image-rendering:optimizeQuality;shape-rendering:geometricPrecision;text-rendering:geometricPrecision" />
    <path
       class="fil8"
       d="m 61.965693,1016.7445 -10.360864,2.8819 c -1.440914,0.3431 -3.567979,1.1665 -5.077509,1.1665 l 0,8.2339 c 2.058449,0 16.055907,-3.3621 18.114357,-3.3621 l 0,-9.675 c -0.41169,0.2059 -2.127065,0.6863 -2.675984,0.7548 z"
       id="path549"
       inkscape:connector-curvature="0"
       style="clip-rule:evenodd;fill:#fefefe;fill-rule:evenodd;image-rendering:optimizeQuality;shape-rendering:geometricPrecision;text-rendering:geometricPrecision" />
    <path
       class="fil8"
       d="m 46.52732,1019.1461 c 0.480304,-0.2058 17.428208,-4.803 18.114357,-4.803 0,-4.9403 0,-2.8133 0,-8.9199 l -18.114357,-3.3623 0,17.0852 z"
       id="path551"
       inkscape:connector-curvature="0"
       style="clip-rule:evenodd;fill:#fefefe;fill-rule:evenodd;image-rendering:optimizeQuality;shape-rendering:geometricPrecision;text-rendering:geometricPrecision" />
    <path
       class="fil5"
       d="m 34.039391,1014.6861 c 1.921219,0 3.499365,1.5782 3.499365,3.4994 0,1.9899 -1.578146,3.5679 -3.499365,3.5679 -1.989835,0 -3.567979,-1.578 -3.567979,-3.5679 0,-1.9212 1.578144,-3.4994 3.567979,-3.4994 z"
       id="path553"
       inkscape:connector-curvature="0"
       style="clip-rule:evenodd;fill:#f16136;fill-rule:evenodd;image-rendering:optimizeQuality;shape-rendering:geometricPrecision;text-rendering:geometricPrecision;fill-opacity:1" />
    <path
       class="fil5"
       d="m 33.353242,1014.8234 1.235069,0 0,-4.803 1.852605,-0.8234 c 0.27446,-0.1375 0.41169,-0.2059 0.617534,-0.3432 l 7.68488,-3.5679 c -0.137238,-0.2059 -3.293519,-1.5782 -3.773825,-1.8526 -1.23507,-0.6176 -2.675984,-1.2351 -3.84244,-1.7841 -0.274459,-0.1375 -0.411689,-0.2059 -0.686149,-0.343 -0.205846,-0.068 -0.411691,-0.2058 -0.617535,-0.2745 -0.96061,-0.4117 -1.029225,-0.5488 -1.372299,-0.5488 l -1.029225,0 -0.06861,0 0,14.3405 z"
       id="path555"
       inkscape:connector-curvature="0"
       style="clip-rule:evenodd;fill:#f16136;fill-rule:evenodd;image-rendering:optimizeQuality;shape-rendering:geometricPrecision;text-rendering:geometricPrecision;fill-opacity:1" />
    <path
       class="fil9"
       d="m 34.17662,996.77762 0,-7.47902 2.813215,0 c 0.480306,0 0.891995,0 1.166455,0.0678 0.343076,0.0678 0.68615,0.13748 0.891995,0.34314 0.274461,0.13749 0.480306,0.41169 0.617535,0.68609 0.137238,0.34295 0.205845,0.68609 0.205845,1.02923 0,0.68609 -0.205845,1.23508 -0.548919,1.64677 -0.411691,0.4117 -1.166456,0.68609 -2.264296,0.68609 l -1.92122,0 0,3.01915 -0.96061,0 z m 0.96061,-3.91108 1.989835,0 c 0.617536,0 1.097842,-0.13749 1.372301,-0.34314 0.205845,-0.2744 0.343074,-0.61754 0.343074,-1.02923 0,-0.34295 -0.06861,-0.61754 -0.205844,-0.82339 -0.137238,-0.20585 -0.343075,-0.34295 -0.617536,-0.41169 -0.205845,-0.0678 -0.480304,-0.0678 -0.96061,-0.0678 l -1.92122,0 0,2.676 z m 4.391361,3.91108 2.88183,-7.47902 1.097839,0 3.087675,7.47902 -1.09784,0 -0.891995,-2.26431 -3.156289,0 -0.823381,2.26431 -1.097839,0 z m 2.195679,-3.08769 2.538756,0 -0.754766,-2.05847 c -0.274459,-0.61754 -0.411691,-1.16653 -0.548921,-1.57822 -0.06861,0.48044 -0.274459,0.96068 -0.411689,1.44093 l -0.82338,2.19576 z m 5.695045,3.08769 0,-7.47902 3.293519,0 c 0.68615,0 1.235071,0.0678 1.578145,0.20585 0.343075,0.13748 0.617536,0.34294 0.82338,0.68609 0.205845,0.34314 0.27446,0.75483 0.27446,1.16652 0,0.48025 -0.137238,0.96049 -0.480304,1.30363 -0.343076,0.4117 -0.891995,0.61754 -1.578146,0.68609 0.205845,0.13749 0.411689,0.2746 0.548919,0.4117 0.274462,0.27459 0.548921,0.61754 0.82338,0.96068 l 1.303687,2.05846 -1.235072,0 -0.96061,-1.50947 c -0.343074,-0.48044 -0.548919,-0.82339 -0.754763,-1.09798 -0.205847,-0.20585 -0.343076,-0.41169 -0.480306,-0.48024 -0.137238,-0.0678 -0.343074,-0.13749 -0.480304,-0.20585 -0.06861,0 -0.274461,0 -0.548921,0 l -1.166454,0 0,3.29354 -0.96061,0 z m 0.96061,-4.18548 2.127064,0 c 0.480306,0 0.82338,-0.0678 1.09784,-0.13749 0.274459,-0.0678 0.480306,-0.20584 0.548921,-0.48043 0.137237,-0.20585 0.205844,-0.4117 0.205844,-0.61754 0,-0.4117 -0.137237,-0.68609 -0.343074,-0.89194 -0.274462,-0.20585 -0.686151,-0.34295 -1.235071,-0.34295 l -2.401524,0 0,2.46997 z m 6.518425,4.18548 0,-7.47902 1.029224,0 0,3.70524 3.705208,-3.70524 1.372301,0 -3.156289,3.01895 3.293519,4.46007 -1.303684,0 -2.675985,-3.77378 -1.23507,1.16633 0,2.60745 -1.029224,0 z"
       id="path557"
       inkscape:connector-curvature="0"
       style="clip-rule:evenodd;fill:#f16136;fill-rule:nonzero;image-rendering:optimizeQuality;shape-rendering:geometricPrecision;text-rendering:geometricPrecision;fill-opacity:1" />
    <path
       class="fil8"
       d="m 34.039391,1016.8818 c 0.68615,0 1.303686,0.6176 1.303686,1.3037 0,0.7548 -0.617536,1.3723 -1.303686,1.3723 -0.754766,0 -1.372299,-0.6175 -1.372299,-1.3723 0,-0.6861 0.617533,-1.3037 1.372299,-1.3037 z"
       id="path559"
       inkscape:connector-curvature="0"
       style="clip-rule:evenodd;fill:#fefefe;fill-rule:evenodd;image-rendering:optimizeQuality;shape-rendering:geometricPrecision;text-rendering:geometricPrecision" />
  </g>
</svg>
