<?xml version="1.0" encoding="UTF-8" standalone="no"?>
<!-- Created with Inkscape (http://www.inkscape.org/) -->

<svg
   xmlns:dc="http://purl.org/dc/elements/1.1/"
   xmlns:cc="http://creativecommons.org/ns#"
   xmlns:rdf="http://www.w3.org/1999/02/22-rdf-syntax-ns#"
   xmlns:svg="http://www.w3.org/2000/svg"
   xmlns="http://www.w3.org/2000/svg"
   xmlns:sodipodi="http://sodipodi.sourceforge.net/DTD/sodipodi-0.dtd"
   xmlns:inkscape="http://www.inkscape.org/namespaces/inkscape"
   width="70"
   height="70"
   viewBox="0 0 70.000001 70.000001"
   id="svg4748"
   version="1.1"
   inkscape:version="0.91 r13725"
   inkscape:export-filename="C:\Users\Fabian Gutierrez\Desktop\path374.png"
   inkscape:export-xdpi="90"
   inkscape:export-ydpi="90"
   sodipodi:docname="stop.svg">
  <defs
     id="defs4750" />
  <sodipodi:namedview
     id="base"
     pagecolor="#ffffff"
     bordercolor="#666666"
     borderopacity="1.0"
     inkscape:pageopacity="0.0"
     inkscape:pageshadow="2"
     inkscape:zoom="2.8"
     inkscape:cx="63.811211"
     inkscape:cy="21.548019"
     inkscape:document-units="px"
     inkscape:current-layer="layer1"
     showgrid="false"
     units="px"
     inkscape:window-width="1280"
     inkscape:window-height="971"
     inkscape:window-x="-8"
     inkscape:window-y="-8"
     inkscape:window-maximized="1"
     showguides="true"
     inkscape:guide-bbox="true">
    <sodipodi:guide
       position="76.140249,65.000001"
       orientation="0,1"
       id="guide5628"
       inkscape:label=""
       inkscape:color="rgb(0,0,255)" />
    <sodipodi:guide
       position="28.663079,5.0000001"
       orientation="0,1"
       id="guide5630"
       inkscape:label=""
       inkscape:color="rgb(0,0,255)" />
    <sodipodi:guide
       position="5.0000001,72.730984"
       orientation="1,0"
       id="guide5632"
       inkscape:label=""
       inkscape:color="rgb(0,0,255)" />
    <sodipodi:guide
       position="65.000001,46.593287"
       orientation="1,0"
       id="guide5634"
       inkscape:label=""
       inkscape:color="rgb(0,0,255)" />
  </sodipodi:namedview>
  <metadata
     id="metadata4753">
    <rdf:RDF>
      <cc:Work
         rdf:about="">
        <dc:format>image/svg+xml</dc:format>
        <dc:type
           rdf:resource="http://purl.org/dc/dcmitype/StillImage" />
        <dc:title />
      </cc:Work>
    </rdf:RDF>
  </metadata>
  <g
     inkscape:label="Capa 1"
     inkscape:groupmode="layer"
     id="layer1"
     transform="translate(0,-982.36213)">
    <rect
       style="opacity:1;fill:#222d55;fill-opacity:1"
       id="rect5505"
       width="70"
       height="70"
       x="0"
       y="982.36212" />
    <path
       style="clip-rule:evenodd;fill:#f16136;fill-opacity:1;fill-rule:evenodd;image-rendering:optimizeQuality;shape-rendering:geometricPrecision;text-rendering:geometricPrecision"
       inkscape:connector-curvature="0"
       id="path380"
       d="m -37.393981,1004.1809 c 0,2.0508 1.019736,4.3579 1.912005,5.5756 1.529605,1.9866 2.103207,2.1789 4.270146,3.3965 0,-5.3191 -1.338404,-12.4328 4.015212,-12.5609 4.461346,-0.1923 3.951478,4.6783 4.333879,7.8826 0.127467,1.1536 0.382401,2.6917 0.382401,4.0375 0.573602,-0.1923 1.465871,-0.8972 1.97574,-1.2818 0.637335,-0.5126 1.083469,-1.2176 1.529604,-1.8585 3.186676,-4.486 1.657072,-11.53555 -3.44161,-14.41944 -1.147203,-0.64087 -2.485607,-1.02539 -3.824011,-1.15356 l -2.16694,0 c -2.485607,0.25635 -4.907481,1.34582 -6.500819,3.3325 -0.446135,0.57678 -0.573602,0.57678 -0.956003,1.28173 -1.019736,1.92257 -1.529604,3.39657 -1.529604,5.76777 z"
       class="fil5" />
    <path
       style="clip-rule:evenodd;fill:#fefefe;fill-rule:evenodd;image-rendering:optimizeQuality;shape-rendering:geometricPrecision;text-rendering:geometricPrecision"
       inkscape:connector-curvature="0"
       id="path398"
       d="m 13.44762,1019.4798 c 0,-1.7656 0.06306,-3.279 -0.882821,-3.8466 -0.819761,-0.4414 -5.2338641,-1.6395 -6.6842122,-0.1891 -0.8197619,0.6936 -0.9458791,1.5764 -0.9458791,2.3962 l 0,0.8828 0,0 c 0,1.7026 6.1166853,1.2612 7.7562093,1.2612 -0.819762,1.3242 -2.017876,1.5134 -2.017876,3.7835 0,3.8466 -0.567527,8.2607 1.008938,10.3416 0.504469,0.6306 1.135055,1.009 1.765641,1.4504 0,1.1981 -0.189176,4.4771 0.126117,5.423 0.945879,3.3421 9.143499,3.1529 9.143499,-0.4414 l 0,-3.9727 17.845586,0 c 0,5.423 -0.567527,6.7473 5.738334,6.7473 1.198113,0 2.963755,-1.1981 3.342106,-2.2071 0.315293,-0.8828 0.189176,-3.9096 0.189176,-5.2969 1.954817,-0.5045 3.468224,-2.5854 3.468224,-4.0358 l 0,-8.0084 c 0,-2.2701 -1.135055,-2.4593 -1.954817,-3.7835 2.71152,0 4.792454,-0.2522 7.25174,-0.2522 l 0,-2.2071 -8.008444,0 0,1.9548 c -0.630586,-0.4414 -0.693644,-1.072 -0.756703,-1.9548 l -1.513407,0 0,0.6936 -32.601301,0 1.765641,-7.2517 c 0.567528,-2.207 2.27011,-4.2249 4.98163,-4.2249 l 14.566539,0 0,-1.5134 -14.566539,0 c -2.27011,0 -4.54022,1.135 -5.675275,2.8376 -1.765641,2.8376 -2.080934,10.5308 -3.342106,11.4136 z"
       class="fil4" />
    <polygon
       style="clip-rule:evenodd;fill:#fefefe;fill-rule:evenodd;image-rendering:optimizeQuality;shape-rendering:geometricPrecision;text-rendering:geometricPrecision"
       id="polygon400"
       points="1246,9258 1246,9202 1369,9202 1369,9258 "
       class="fil4"
       transform="matrix(0.06305861,0,0,0.06305861,-63.67306,446.40317)" />
    <polygon
       style="clip-rule:evenodd;fill:#fefefe;fill-rule:evenodd;image-rendering:optimizeQuality;shape-rendering:geometricPrecision;text-rendering:geometricPrecision"
       id="polygon402"
       points="1661,9258 1661,9202 1784,9202 1784,9258 "
       class="fil4"
       transform="matrix(0.06305861,0,0,0.06305861,-63.67306,446.40317)" />
    <polygon
       class="fil4 str2"
       points="1796,9057 1679,9057 1620,8956 1562,8854 1620,8753 1679,8652 1796,8652 1913,8652 1971,8753 2030,8854 1971,8956 1913,9057 "
       id="polygon406"
       style="clip-rule:evenodd;fill:#fefefe;fill-rule:evenodd;stroke:#f16136;stroke-width:20;image-rendering:optimizeQuality;shape-rendering:geometricPrecision;text-rendering:geometricPrecision;stroke-opacity:1"
       transform="matrix(0.06305861,0,0,0.06305861,-63.67306,446.40317)" />
    <polygon
       class="fil4 str2"
       points="1995,8854 1895,8682 1696,8682 1596,8854 1696,9027 1895,9027 "
       id="polygon408"
       style="clip-rule:evenodd;fill:#fefefe;fill-rule:evenodd;stroke:#f16136;stroke-width:20;image-rendering:optimizeQuality;shape-rendering:geometricPrecision;text-rendering:geometricPrecision;stroke-opacity:1"
       transform="matrix(0.06305861,0,0,0.06305861,-63.67306,446.40317)" />
    <path
       class="fil5 str3"
       d="m 48.949617,1006.6789 0,6.1798 -2.71152,0 0,-15.26022 4.855513,0 c 2.837638,0 5.107748,1.38729 5.107748,4.35102 0,2.7746 -1.8287,4.7294 -4.603279,4.7294 l -2.648462,0 z m 0,-2.5223 2.080935,0 c 1.450348,0 2.333168,-0.5045 2.333168,-2.0179 0,-1.5765 -0.945879,-1.9548 -2.333168,-1.9548 l -2.080935,0 0,3.9727 z"
       id="path410"
       inkscape:connector-curvature="0"
       style="clip-rule:evenodd;fill:#f16136;fill-rule:evenodd;stroke:#f16136;stroke-width:0.4805066;image-rendering:optimizeQuality;shape-rendering:geometricPrecision;text-rendering:geometricPrecision;stroke-opacity:1;fill-opacity:1" />
  </g>
</svg>
