<svg xmlns="http://www.w3.org/2000/svg" width="70" height="70" viewBox="0 0 70.000001 70.000001"><path fill="#222d55" d="M0 0h70v70H0z"/><path d="M12.16 20.809v39.368c0 2.336 2.038 4.672 4.424 4.672h36.832c2.337 0 4.424-2.336 4.424-4.672V9.823c0-2.336-2.087-4.672-4.424-4.672H27.271c-1.989 0-6.76 5.517-8.301 7.058a279.69 279.69 0 0 0-3.828 3.878c-1.243 1.192-2.982 2.336-2.982 4.722z" class="fil3" clip-rule="evenodd" fill="#fefefe" fill-rule="evenodd" image-rendering="optimizeQuality" shape-rendering="geometricPrecision" text-rendering="geometricPrecision"/><path class="fil4" clip-rule="evenodd" fill="#f16136" fill-rule="evenodd" image-rendering="optimizeQuality" shape-rendering="geometricPrecision" text-rendering="geometricPrecision" d="M26.674 20.71V9.673h7.158V20.71zm9.991 0V9.673h7.208V20.71zm10.041 0V9.673h7.207V20.71z"/><path class="fil7" d="M23.89 45.314c-.795-.298-1.391-.696-1.789-1.243-.398-.546-.547-1.193-.547-1.938 0-1.143.398-2.088 1.193-2.834.796-.795 1.89-1.143 3.231-1.143 1.342 0 2.436.398 3.28 1.143a3.842 3.842 0 0 1 1.244 2.884c0 .745-.2 1.342-.547 1.888-.398.547-.994.945-1.74 1.243.944.298 1.69.795 2.187 1.491.497.696.746 1.541.746 2.486 0 1.342-.497 2.435-1.442 3.33-.944.944-2.137 1.392-3.678 1.392s-2.784-.448-3.728-1.392c-.945-.895-1.392-2.038-1.392-3.38 0-.994.249-1.84.746-2.535.546-.696 1.242-1.143 2.237-1.392zm-.397-3.23c0 .745.248 1.341.696 1.789.447.497 1.093.695 1.839.695s1.342-.198 1.84-.695c.446-.448.695-.995.695-1.69a2.44 2.44 0 0 0-.746-1.79c-.447-.447-1.093-.696-1.79-.696-.745 0-1.341.249-1.838.696-.448.497-.696 1.044-.696 1.69zm-.646 7.157c0 .547.149 1.093.397 1.59.249.498.647.895 1.144 1.193a3.632 3.632 0 0 0 1.64.398c.944 0 1.69-.298 2.286-.845.547-.596.845-1.342.845-2.237 0-.944-.298-1.69-.894-2.286-.597-.597-1.392-.895-2.287-.895s-1.64.298-2.237.895c-.596.547-.894 1.292-.894 2.187zm10.339 4.473V43.376h2.038l2.435 7.356c.249.646.398 1.193.497 1.491.15-.348.299-.894.547-1.64l2.486-7.207h1.839v10.338h-1.293v-8.648l-3.032 8.648h-1.242l-2.983-8.798v8.798h-1.292zm13.073 0h-1.193V43.376h1.292v3.678c.497-.646 1.193-.994 2.038-.994.447 0 .895.1 1.292.298a2.78 2.78 0 0 1 1.044.795c.249.298.448.696.597 1.193.149.497.248.994.248 1.541 0 1.243-.298 2.237-.944 2.933-.646.745-1.392 1.093-2.287 1.093-.894 0-1.59-.397-2.087-1.143v.944zm0-3.777c0 .894.099 1.54.348 1.938.397.646.944.995 1.64.995.547 0 .994-.249 1.441-.746.398-.497.597-1.193.597-2.137 0-.995-.199-1.69-.597-2.188-.397-.447-.845-.696-1.391-.696-.547 0-1.044.25-1.442.746-.398.447-.596 1.143-.596 2.088z" clip-rule="evenodd" fill="#2e407d" image-rendering="optimizeQuality" shape-rendering="geometricPrecision" text-rendering="geometricPrecision"/></svg>