<svg xmlns="http://www.w3.org/2000/svg" width="70" height="70"><path fill="#222d55" d="M0 0h70v70H0z"/><path class="fil4" d="M96.59 36.901c-.933.22-1.426 1.042-1.426 2.14 0 3.016 4.99 3.838 4.99-.22 0-1.097-.548-1.7-1.425-1.92l4.552-10.695c2.413-5.814 6.527-12.505 1.7-17.496-1.7-1.81-3.784-2.797-5.814-3.071h-2.029c-2.633.329-5.155 1.974-6.8 4.771-1.701 2.962-1.098 6.088.164 9.215l4.607 12.779c.439 1.152 1.426 3.18 1.48 4.497z" clip-rule="evenodd" fill="#f16136" fill-rule="evenodd" image-rendering="optimizeQuality" shape-rendering="geometricPrecision" text-rendering="geometricPrecision"/><path d="M15.313 61.534c0 1.901.928 3.432 2.83 3.432h33.344c1.855 0 2.783-1.53 2.783-3.432 0-1.763.092-5.473.139-7.792 0-3.06.139-17.159-.047-18.968-.185-1.67-.37-2.411-1.252-3.524-.51-.65-2.04-1.624-3.2-1.624H19.858c-2.087 0-4.313 1.948-4.313 5.102.046 3.34.185 16.696 0 19.014-.14 1.81-.232 6.215-.232 7.792z" class="fil2" clip-rule="evenodd" fill="#fefefe" fill-rule="evenodd" image-rendering="optimizeQuality" shape-rendering="geometricPrecision" text-rendering="geometricPrecision"/><path d="M20.74 33.012h28.103c.789 0 1.438.65 1.438 1.438v19.06c0 .789-.65 1.485-1.438 1.485H20.74c-.788 0-1.438-.696-1.438-1.484V34.45c0-.789.65-1.438 1.438-1.438z" class="fil2 str2" clip-rule="evenodd" fill="#fefefe" fill-rule="evenodd" stroke="#222d55" stroke-width="2.319" image-rendering="optimizeQuality" shape-rendering="geometricPrecision" text-rendering="geometricPrecision"/><g clip-rule="evenodd" fill-rule="evenodd" image-rendering="optimizeQuality" shape-rendering="geometricPrecision" text-rendering="geometricPrecision"><path d="M21.11 11.122c0 1.391 1.113 2.226 2.505 2.226 1.02 0 4.823-3.756 10.11-3.756 4.08 0 6.724.278 10.388 2.736.835.556 1.623 1.298 2.458 1.298.417 0 4.638-1.623 1.762-3.802-1.808-1.345-2.18-1.81-4.637-2.922-5.287-2.458-11.966-2.458-17.392-.186-1.16.51-1.994 1.067-3.06 1.716-.974.557-2.134 1.299-2.134 2.69z" class="fil2" fill="#fefefe"/><path d="M29.18 19.145c1.948 0 2.597-1.484 5.797-1.484 3.107 0 3.803 1.763 6.307 1.763.835 0 4.499-3.247-2.133-5.473-5.426-1.809-12.986.325-12.058 3.478.278 1.02.88 1.716 2.087 1.716zm1.994 5.334c0 2.69 1.113 4.266 4.035 4.266 4.545 0 5.519-7.56-.51-7.56-2.18 0-3.525 1.949-3.525 3.294z" class="fil2" fill="#fefefe"/></g><path d="M15.406 20.861c0 2.644 1.252 3.154 3.246 5.148 1.484 1.484 10.991 10.806 11.455 11.548-.464.742-9.97 10.064-11.455 11.548-1.994 1.994-3.246 2.55-3.246 5.194 0 1.484 1.438 2.922 2.875 2.922 2.69 0 3.2-1.253 5.194-3.247 1.484-1.484 10.806-10.99 11.548-11.501.742.51 10.064 10.017 11.548 11.501 1.994 1.994 2.55 3.247 5.194 3.247 1.484 0 2.922-1.438 2.922-2.922 0-2.644-1.299-3.2-3.246-5.194-1.53-1.484-10.992-10.806-11.502-11.548.51-.742 9.971-10.064 11.502-11.548 1.947-1.994 3.246-2.504 3.246-5.148 0-1.484-1.438-2.921-2.922-2.921-2.643 0-3.2 1.252-5.194 3.246-1.484 1.484-10.806 10.991-11.548 11.455-.742-.464-10.064-9.971-11.548-11.455-1.994-1.994-2.504-3.246-5.194-3.246-1.437 0-2.875 1.437-2.875 2.921z" class="fil3" clip-rule="evenodd" fill="#f16136" fill-rule="evenodd" image-rendering="optimizeQuality" shape-rendering="geometricPrecision" text-rendering="geometricPrecision"/><path d="M28.577 61.21v-1.16h2.922v2.736c-.279.278-.696.51-1.253.696-.51.231-1.066.324-1.623.324-.695 0-1.345-.139-1.855-.417-.51-.325-.927-.742-1.206-1.299a4.668 4.668 0 01-.37-1.808c0-.696.138-1.299.417-1.856.324-.556.742-.973 1.298-1.252a3.494 3.494 0 011.623-.37c.835 0 1.484.185 1.995.556.463.324.742.835.88 1.437l-1.344.279a1.383 1.383 0 00-.557-.789 1.53 1.53 0 00-.974-.324c-.602 0-1.066.232-1.39.603-.372.37-.557.927-.557 1.67 0 .788.185 1.39.556 1.808.325.417.789.603 1.391.603.279 0 .557-.046.835-.186a2.23 2.23 0 00.742-.37v-.882h-1.53zm4.174 2.503v-6.77h2.18c.834 0 1.39.045 1.623.092a1.6 1.6 0 01.974.65c.278.37.417.788.417 1.344 0 .418-.093.742-.232 1.02-.14.279-.325.51-.556.696-.232.14-.51.232-.743.325a9.88 9.88 0 01-1.39.093h-.882v2.55h-1.391zm1.391-5.611v1.901h.742c.51 0 .881-.046 1.067-.093.185-.093.324-.185.417-.324.093-.186.14-.371.14-.557 0-.232-.047-.464-.186-.603a1.114 1.114 0 00-.557-.324h-1.623zm4.545 3.385l1.345-.093c.093.418.232.742.464.974.278.186.603.279 1.02.279.417 0 .742-.093.974-.279.232-.185.324-.37.324-.649a.526.526 0 00-.139-.37c-.092-.14-.232-.233-.463-.326-.186-.045-.557-.139-1.113-.278-.742-.185-1.253-.417-1.53-.696-.418-.37-.604-.788-.604-1.344 0-.325.093-.65.278-.974.186-.279.464-.51.835-.696.371-.14.835-.232 1.345-.232.835 0 1.484.186 1.902.557.417.37.649.88.649 1.53l-1.345.046c-.046-.371-.186-.603-.371-.742-.186-.186-.464-.232-.881-.232-.371 0-.696.046-.928.232-.139.093-.185.232-.185.417 0 .14.046.279.185.418.186.139.603.278 1.252.463.65.14 1.16.325 1.484.464.325.186.557.418.743.696.185.278.278.65.278 1.067 0 .417-.14.742-.325 1.113-.232.324-.556.556-.927.742-.371.139-.882.231-1.484.231-.835 0-1.484-.185-1.948-.602-.464-.371-.742-.928-.835-1.716z" class="fil6" clip-rule="evenodd" fill="#222d55" image-rendering="optimizeQuality" shape-rendering="geometricPrecision" text-rendering="geometricPrecision"/></svg>