<svg xmlns="http://www.w3.org/2000/svg" width="70" height="70" viewBox="0 0 70.000001 70.000001"><path fill="#222d55" d="M0 0h70v70H0z"/><path class="fil4" d="M96.59 36.901c-.933.22-1.426 1.042-1.426 2.14 0 3.016 4.99 3.838 4.99-.22 0-1.097-.548-1.7-1.425-1.92l4.552-10.695c2.413-5.814 6.527-12.505 1.7-17.496-1.7-1.81-3.784-2.797-5.814-3.071h-2.029c-2.633.329-5.155 1.974-6.8 4.771-1.701 2.962-1.098 6.088.164 9.215l4.607 12.779c.439 1.152 1.426 3.18 1.48 4.497z" clip-rule="evenodd" fill="#f16136" fill-rule="evenodd" image-rendering="optimizeQuality" shape-rendering="geometricPrecision" text-rendering="geometricPrecision"/><path d="M9.149 56.43c0 .698.232 1.396.93 1.396h49.842c.698 0 .93-.698.93-1.396V27.112H9.15V56.43zm6.05-43.093v2.56H6.124c-.559 0-.93.418-.93.93v6.516c0 .558.139.698.697.698H64.11c.558 0 .698-.14.698-.698v-6.516c0-.512-.372-.93-.93-.93H54.8c0-1.955.14-2.048-.232-3.723h-8.144c-.419 1.675-.233 1.768-.233 3.723H23.808c0-1.955.186-2.048-.233-3.723h-8.144c-.14.512-.232.558-.232 1.163z" class="fil3" fill="#fefefe" clip-rule="evenodd" fill-rule="evenodd" image-rendering="optimizeQuality" shape-rendering="geometricPrecision" text-rendering="geometricPrecision"/><path class="fil4" clip-rule="evenodd" fill="#f16136" fill-rule="evenodd" image-rendering="optimizeQuality" shape-rendering="geometricPrecision" text-rendering="geometricPrecision" d="M20.457 39.584h-3.583v-3.072h-3.025V32.93h3.025v-3.025h3.583v3.025h3.072v3.583h-3.072zm25.875-2.839v-3.537h9.68v3.537z"/><path class="fil4" d="M14.733 17.758c0 2.746 1.303 3.258 3.35 5.352 1.537 1.536 11.356 11.122 11.868 11.913-.512.745-10.331 10.378-11.867 11.914-2.048 2.047-3.35 2.606-3.35 5.351 0 1.49 1.488 2.979 3.024 2.979 2.7 0 3.258-1.303 5.305-3.35 1.536-1.537 11.17-11.31 11.914-11.821.79.512 10.424 10.284 11.913 11.82 2.094 2.048 2.653 3.35 5.352 3.35 1.536 0 3.025-1.488 3.025-2.978 0-2.745-1.303-3.304-3.35-5.351C50.38 45.4 40.56 35.767 40.048 35.023c.512-.79 10.331-10.377 11.867-11.913 2.048-2.094 3.35-2.606 3.35-5.352 0-1.536-1.488-3.025-3.024-3.025-2.7 0-3.258 1.303-5.352 3.35C45.4 19.62 35.767 29.439 34.976 29.951c-.745-.512-10.378-10.331-11.914-11.867-2.047-2.048-2.606-3.35-5.305-3.35-1.536 0-3.025 1.488-3.025 3.024z" clip-rule="evenodd" fill="#f16136" fill-rule="evenodd" image-rendering="optimizeQuality" shape-rendering="geometricPrecision" text-rendering="geometricPrecision"/></svg>