<svg xmlns="http://www.w3.org/2000/svg" width="70" height="70" viewBox="0 0 70.000001 70.000001"><path fill="#222d55" d="M0 0h70v70H0z"/><path class="fil4" d="M96.59 36.901c-.933.22-1.426 1.042-1.426 2.14 0 3.016 4.99 3.838 4.99-.22 0-1.097-.548-1.7-1.425-1.92l4.552-10.695c2.413-5.814 6.527-12.505 1.7-17.496-1.7-1.81-3.784-2.797-5.814-3.071h-2.029c-2.633.329-5.155 1.974-6.8 4.771-1.701 2.962-1.098 6.088.164 9.215l4.607 12.779c.439 1.152 1.426 3.18 1.48 4.497z" clip-rule="evenodd" fill="#f16136" fill-rule="evenodd" image-rendering="optimizeQuality" shape-rendering="geometricPrecision" text-rendering="geometricPrecision"/><path d="M15.51 61.257c0 1.876.868 3.431 2.744 3.431h33.034c1.876 0 2.791-1.555 2.791-3.431 0-1.739.092-5.445.092-7.687 0-3.065.183-17.02 0-18.804-.183-1.693-.412-2.425-1.282-3.523-.503-.641-2.013-1.602-3.11-1.602H19.992c-2.105 0-4.3 1.968-4.255 5.079 0 3.34.137 16.517-.046 18.85-.137 1.785-.183 6.131-.183 7.687z" class="fil3" clip-rule="evenodd" fill="#fefefe" fill-rule="evenodd" image-rendering="optimizeQuality" shape-rendering="geometricPrecision" text-rendering="geometricPrecision"/><path d="M20.862 33.027H48.68c.824 0 1.464.64 1.464 1.418v18.896c0 .778-.64 1.419-1.464 1.419H20.862c-.823 0-1.464-.64-1.464-1.419V34.445c0-.777.64-1.418 1.464-1.418z" class="fil3 str1" clip-rule="evenodd" fill="#fefefe" fill-rule="evenodd" stroke="#f16136" stroke-width=".915" image-rendering="optimizeQuality" shape-rendering="geometricPrecision" text-rendering="geometricPrecision"/><g clip-rule="evenodd" fill-rule="evenodd" image-rendering="optimizeQuality" shape-rendering="geometricPrecision" text-rendering="geometricPrecision"><path d="M21.228 11.294c0 1.419 1.098 2.288 2.471 2.288 1.007 0 4.758-3.752 10.02-3.752 4.072 0 6.68.229 10.249 2.7.869.549 1.647 1.28 2.47 1.28.412 0 4.621-1.6 1.739-3.751-1.784-1.327-2.15-1.784-4.575-2.928-5.262-2.425-11.85-2.38-17.204-.138-1.19.504-2.013 1.053-3.065 1.693-.96.55-2.105 1.281-2.105 2.608z" class="fil3" fill="#fefefe"/><path d="M29.19 19.301c1.921 0 2.562-1.51 5.764-1.51 3.066 0 3.752 1.785 6.223 1.785.869 0 4.483-3.249-2.06-5.445-5.398-1.784-12.902.366-11.987 3.477.32 1.007.87 1.693 2.06 1.693zm2.012 5.262c0 2.653 1.099 4.209 3.981 4.209 4.484 0 5.445-7.458-.503-7.458-2.196 0-3.478 1.922-3.478 3.249z" class="fil3" fill="#fefefe"/></g><path d="M8.372 14.863c0 3.569 1.738 4.3 4.438 7 2.013 2.013 14.87 14.641 15.556 15.694-.686 1.006-13.543 13.634-15.556 15.647-2.7 2.7-4.438 3.432-4.438 7 0 2.013 1.967 3.98 3.98 3.98 3.569 0 4.301-1.738 7-4.437C21.366 57.734 33.993 44.877 35 44.19c1.007.686 13.634 13.543 15.648 15.556 2.699 2.7 3.431 4.438 7.046 4.438 1.967 0 3.934-1.968 3.934-3.98 0-3.57-1.693-4.301-4.392-7.001-2.013-2.013-14.87-14.641-15.556-15.647.686-1.053 13.543-13.68 15.556-15.694 2.7-2.7 4.392-3.431 4.392-7 0-2.013-1.967-3.98-3.934-3.98-3.615 0-4.347 1.738-7.046 4.438C48.634 17.334 36.007 30.19 35 30.877c-1.007-.687-13.634-13.543-15.648-15.556-2.699-2.7-3.431-4.439-7-4.439-2.013 0-3.98 1.968-3.98 3.981z" class="fil4" clip-rule="evenodd" fill="#f16136" fill-rule="evenodd" image-rendering="optimizeQuality" shape-rendering="geometricPrecision" text-rendering="geometricPrecision"/><path d="M28.595 60.662v-1.098h2.928v2.653c-.275.275-.687.504-1.236.733a4.221 4.221 0 0 1-1.647.32c-.686 0-1.28-.137-1.83-.458a2.715 2.715 0 0 1-1.144-1.235 3.934 3.934 0 0 1-.411-1.784c0-.732.137-1.327.457-1.876.275-.55.686-.961 1.281-1.236.412-.228.961-.366 1.602-.366.823 0 1.464.183 1.921.55.458.32.778.823.915 1.418l-1.372.274c-.092-.32-.23-.595-.504-.778a1.692 1.692 0 0 0-.96-.274c-.595 0-1.053.183-1.419.549-.366.366-.503.915-.503 1.647 0 .824.137 1.418.503 1.784.366.412.824.595 1.373.595.32 0 .595-.045.87-.137.274-.137.502-.275.731-.412v-.87h-1.555zm4.163 2.47v-6.68h2.15c.824 0 1.373.046 1.602.093.412.092.732.32.96.64.275.366.412.778.412 1.327 0 .412-.091.732-.228 1.052-.138.275-.32.458-.55.641-.228.137-.457.275-.731.32-.32.045-.778.092-1.373.092h-.87v2.517h-1.372zm1.373-5.536v1.876h.732c.503 0 .87-.045 1.052-.092.183-.092.32-.183.412-.32.091-.183.183-.32.183-.549 0-.229-.092-.412-.229-.595-.137-.137-.32-.274-.549-.274-.137-.045-.503-.045-.96-.045h-.641zm4.53 3.386l1.28-.137c.092.457.275.778.504.96.228.23.549.321.96.321.458 0 .778-.092 1.007-.275.183-.183.32-.411.32-.64 0-.183-.045-.32-.137-.412-.091-.137-.275-.229-.503-.274-.138-.092-.504-.183-1.053-.32-.732-.184-1.235-.412-1.555-.641-.412-.366-.595-.824-.595-1.373 0-.32.092-.64.275-.96a2.62 2.62 0 0 1 .869-.687c.32-.137.778-.229 1.28-.229.87 0 1.465.183 1.923.55.411.411.64.869.64 1.51l-1.372.044c-.046-.366-.138-.594-.367-.732-.183-.183-.457-.229-.823-.229-.412 0-.686.092-.915.23a.481.481 0 0 0-.229.411c0 .183.092.32.229.412.137.137.549.274 1.235.457.64.138 1.144.32 1.419.458.32.183.594.412.777.686.138.32.23.64.23 1.098 0 .366-.092.732-.321 1.053a1.72 1.72 0 0 1-.87.732c-.411.183-.869.274-1.464.274-.869 0-1.51-.183-1.967-.595-.457-.411-.732-.96-.778-1.693z" class="fil6" clip-rule="evenodd" fill="#f16136" image-rendering="optimizeQuality" shape-rendering="geometricPrecision" text-rendering="geometricPrecision"/></svg>