<svg xmlns="http://www.w3.org/2000/svg" width="70" height="70" viewBox="0 0 70.000001 70.000001"><path fill="#222d55" d="M0 0h70v70H0z"/><path class="fil4" d="M96.59 36.901c-.933.22-1.426 1.042-1.426 2.14 0 3.016 4.99 3.838 4.99-.22 0-1.097-.548-1.7-1.425-1.92l4.552-10.695c2.413-5.814 6.527-12.505 1.7-17.496-1.7-1.81-3.784-2.797-5.814-3.071h-2.029c-2.633.329-5.155 1.974-6.8 4.771-1.701 2.962-1.098 6.088.164 9.215l4.607 12.779c.439 1.152 1.426 3.18 1.48 4.497z" clip-rule="evenodd" fill="#f16136" fill-rule="evenodd" image-rendering="optimizeQuality" shape-rendering="geometricPrecision" text-rendering="geometricPrecision"/><path d="M39.866 14.672c4.528 2.676 8.44 6.587 11.064 11.58 2.676 5.043 3.808 10.446 3.5 15.747l-2.007-.051-2.42-.103a25.484 25.484 0 0 0-2.932-13.432c-2.316-4.271-5.61-7.616-9.47-9.88l1.236-2.11 1.029-1.75zm-4.529 7.72c3.19 1.852 5.918 4.631 7.822 8.13a21.37 21.37 0 0 1 2.42 11.117l-4.375-.206a16.629 16.629 0 0 0-1.956-8.749c-1.492-2.779-3.654-4.992-6.175-6.433l2.264-3.86z" class="fil3" clip-rule="evenodd" fill="#fefefe" fill-rule="evenodd" image-rendering="optimizeQuality" shape-rendering="geometricPrecision" text-rendering="geometricPrecision"/><path d="M44.343 7.004a37.773 37.773 0 0 1 14.41 14.976c3.448 6.484 4.888 13.535 4.477 20.43l-4.375-.205c.31-6.073-.926-12.351-4.014-18.064A33.08 33.08 0 0 0 42.08 10.864l2.264-3.86z" class="fil3" clip-rule="evenodd" fill="#fefefe" fill-rule="evenodd" image-rendering="optimizeQuality" shape-rendering="geometricPrecision" text-rendering="geometricPrecision"/><path d="M38.27 44.572c-.102 2.728-.926 5.146-2.418 7.102-1.441 2.007-3.654 3.036-6.588 3.036a3.962 3.962 0 0 1-2.47-.823c-.72-.515-1.235-1.287-1.544-2.265-.617 1.03-1.338 1.75-2.212 2.265-.875.514-1.905.772-3.088.772-1.699 0-3.037-.772-3.963-2.316-.875-1.493-1.235-3.551-1.03-6.073.31-3.242 1.236-5.866 2.728-7.873 1.493-2.008 3.294-2.985 5.404-2.985 1.44 0 2.573.154 3.448.514.875.31 1.801.824 2.83 1.544l-.051.051h.103l-1.03 11.116c-.102 1.338.052 2.213.36 2.676.361.515.773.772 1.339.772 1.544 0 2.727-.72 3.654-2.161.926-1.39 1.44-3.191 1.544-5.352.205-4.735-.72-8.389-2.676-11.013-2.007-2.625-5.147-3.963-9.315-3.963-3.963 0-7.102 1.44-9.418 4.271-2.367 2.83-3.654 6.588-3.808 11.22-.257 4.682.669 8.388 2.83 11.064 2.11 2.676 5.147 4.065 9.11 4.065 1.131 0 2.264-.154 3.447-.412 1.132-.257 2.11-.566 2.934-1.029l.72 2.522c-.823.514-1.955.926-3.242 1.235a17.252 17.252 0 0 1-3.911.463c-4.992 0-8.8-1.595-11.528-4.786-2.676-3.19-3.911-7.565-3.705-13.123.206-5.403 1.853-9.83 4.837-13.174 2.985-3.345 6.948-4.992 11.785-4.992 4.94 0 8.697 1.544 11.322 4.734 2.573 3.14 3.808 7.462 3.602 12.918zM18.818 46.27c-.103 1.75 0 3.037.411 3.911.36.875 1.03 1.338 1.904 1.338.772 0 1.441-.154 2.11-.463.618-.308 1.184-.875 1.699-1.698v-.309c0-.103 0-.257.051-.411l.823-9.881a3.994 3.994 0 0 0-.926-.258c-.309-.102-.669-.102-1.03-.102-1.492 0-2.675.617-3.447 1.955-.823 1.287-1.338 3.294-1.595 5.918z" class="fil5" clip-rule="evenodd" fill="#fefefe" image-rendering="optimizeQuality" shape-rendering="geometricPrecision" text-rendering="geometricPrecision"/></svg>