<svg xmlns="http://www.w3.org/2000/svg" width="70" height="70" viewBox="0 0 70.000001 70.000001"><path fill="#222d55" d="M0 0h70v70H0z"/><path class="fil4" d="M96.59 36.901c-.933.22-1.426 1.042-1.426 2.14 0 3.016 4.99 3.838 4.99-.22 0-1.097-.548-1.7-1.425-1.92l4.552-10.695c2.413-5.814 6.527-12.505 1.7-17.496-1.7-1.81-3.784-2.797-5.814-3.071h-2.029c-2.633.329-5.155 1.974-6.8 4.771-1.701 2.962-1.098 6.088.164 9.215l4.607 12.779c.439 1.152 1.426 3.18 1.48 4.497z" clip-rule="evenodd" fill="#f16136" fill-rule="evenodd" image-rendering="optimizeQuality" shape-rendering="geometricPrecision" text-rendering="geometricPrecision"/><g fill-rule="evenodd"><path d="M28.695 8.38c-4.003 0-9.607-.7-9.607 6.104v44.834c0 1.702.5 2.903 1.301 3.903.6.8 2.002 1.702 3.403 1.702h22.416c2.602 0 4.704-2.503 4.704-5.605V14.484c0-6.805-5.704-6.104-9.807-6.104V5.077h-12.41V8.38z" fill="#f16136"/><path d="M31.397 11.082h-5.504c-.9 0-2.402.1-3.202.6-.8.5-.9 1.902-.9 2.802v44.834c0 .8.2 1.501.7 2.102.2.297.9.8 1.3.8h22.417c1.301 0 2.002-1.901 2.002-2.902V14.484c0-.9-.1-2.201-1-2.802-1.302-.8-4.604-.6-6.105-.6h-9.708z" fill="#fefefe"/><path d="M24.492 51.812v7.706h21.016v-7.706z" fill="#f16136"/></g></svg>