<svg xmlns="http://www.w3.org/2000/svg" width="70" height="70" viewBox="0 0 70.000001 70.000001"><path fill="#222d55" d="M0 0h70v70H0z"/><path class="fil4" d="M96.59 36.901c-.933.22-1.426 1.042-1.426 2.14 0 3.016 4.99 3.838 4.99-.22 0-1.097-.548-1.7-1.425-1.92l4.552-10.695c2.413-5.814 6.527-12.505 1.7-17.496-1.7-1.81-3.784-2.797-5.814-3.071h-2.029c-2.633.329-5.155 1.974-6.8 4.771-1.701 2.962-1.098 6.088.164 9.215l4.607 12.779c.439 1.152 1.426 3.18 1.48 4.497z" clip-rule="evenodd" fill="#f16136" fill-rule="evenodd" image-rendering="optimizeQuality" shape-rendering="geometricPrecision" text-rendering="geometricPrecision"/><path d="M35.613 15.845C43.996 27.09 50.846 38.13 59.74 49.173l5.52-.203-.613-10.019c0-10.019 1.432-6.645-9.2-14.21-4.294-3.067-10.53-6.952-14.109-9.712-1.533-1.33-2.964-1.227-4.089-.614-.204.41-1.636.818-1.636 1.431z" fill="#fefefe" fill-rule="evenodd"/><path d="M20.074 45.083c2.351 0 4.192 1.84 4.192 4.192 0 2.351-1.84 4.191-4.192 4.191-2.351 0-4.191-1.84-4.191-4.191 0-2.352 1.84-4.192 4.191-4.192z" fill="#f16136" fill-rule="evenodd"/><path d="M36.329 15.027L8.011 36.496l-.41 4.498 4.397-.511 31.283-20.14z" fill="#fefefe" fill-rule="evenodd"/><path d="M14.35 50.501l-1.739-5.929-1.738-5.93-2.147.305-.818 4.09L4.74 46.41l1.636 7.258L19.87 56.02z" fill="#fefefe" fill-rule="evenodd"/></svg>