<svg xmlns="http://www.w3.org/2000/svg" width="70" height="70" viewBox="0 0 70.000001 70.000001"><path fill="#222d55" d="M0 0h70v70H0z"/><path class="fil4" d="M96.59 36.901c-.933.22-1.426 1.042-1.426 2.14 0 3.016 4.99 3.838 4.99-.22 0-1.097-.548-1.7-1.425-1.92l4.552-10.695c2.413-5.814 6.527-12.505 1.7-17.496-1.7-1.81-3.784-2.797-5.814-3.071h-2.029c-2.633.329-5.155 1.974-6.8 4.771-1.701 2.962-1.098 6.088.164 9.215l4.607 12.779c.439 1.152 1.426 3.18 1.48 4.497z" clip-rule="evenodd" fill="#f16136" fill-rule="evenodd" image-rendering="optimizeQuality" shape-rendering="geometricPrecision" text-rendering="geometricPrecision"/><path class="fil3" d="M25.47 43.768c0 9.387 1.144 8.243-9.243 8.243-3.574 0-2.716-3.335-2.716-8.243 0-3.478 2.382-2.764 5.48-2.764v1.477h1v-1.477c3.097 0 5.48-.714 5.48 2.764z" clip-rule="evenodd" fill="#f16136" fill-rule="evenodd" image-rendering="optimizeQuality" shape-rendering="geometricPrecision" text-rendering="geometricPrecision"/><g clip-rule="evenodd" fill-rule="evenodd" image-rendering="optimizeQuality" shape-rendering="geometricPrecision" text-rendering="geometricPrecision"><path class="fil2" d="M64.97 29.33h-8.624c-8.005 5.099-12.102 13.104-12.484 23.777v10.578H64.97V29.33zm-2 1.764h-6.386c-5.956 3.812-8.957 9.72-9.243 17.63v7.814h15.628V31.094z" fill="#fefefe"/><path class="fil2" d="M37.096 29.235l-7.433-3.859-3.001-1.525-4.717-2.477c-.286-.143-.572-.334-.906-.525-1.239-.619-3.573-1.667-4.574-2.43-.476-.38-1.048-1.095-1.477-1.334a790.783 790.783 0 0 1-2.287 14.771c-.429 2.478-.715 5.098-1.191 7.528-.43 2.05-.715 4.86-1.096 7.243.238.238.095-.143.524.381 2.335 2.811 7.052 2.954 10.435 4.05.62.19 1.43.381 1.953.62.62.238 1.287.667 1.859.857.428-.524 1.048-.858 1.524-1.286.239-.239.381-.334.572-.43.286.334.572.573.858.906-.286.19-3.86 4.193-4.098 4.622-.286-.19-.524-.667-.762-1l-.906.81c-.143.142-.19.142-.38.285-.287.238-.382.334-.668.572-.667.62-2.906 2.097-3.716 2.573l-3.288 1.525c-1 .38-2.811.714-4.05.524-3.002-.477-4.431-2.62-4.622-5.48-.048-.762-.238-1.238-.19-2.048 0-1.049-.191-3.098-.239-4.241v-1c-.047-.43-.143-.668-.19-1.001.333-.19 1.048-.096 1.43-.43l.333-27.968a24.04 24.04 0 0 0 0-2.62c0-1.669.143-3.48.143-5.147V6.603c.762-.048 1.572-.095 2.334-.19 1.382-.191 1.144-.191 1.573.857.38.905.857.858 1.763 1.143.81.286 1.477.715 2.287.953l6.813 2.621c.715.334 1.573.667 2.335.905l.048-.047c.047.143.238-.19.286-.286 4.336 1.715 8.624 3.573 12.912 5.336.095.953-.286 2.573-.095 3.479l4.717 1.763c1.62.667 1.43.714 2.478 2 .238.239.428.525.667.81l5.193 6.528c0 .048-.095.143-.143.191-.143.143-.095.095-.286.238-.238.19-.333.286-.571.477-.239.238-.763.762-1.001 1.096l-.524.524c-.19.238-.286.381-.477.62-1.667 1.953-3.001 4.812-3.764 7.385 0 0 0-.096-.047-.048l-2.621-5.718c-.572-1.096-1.858-4.288-2.668-5.813-.286-.572-.715-1.667-1.049-2.192zM23.47 14.226l-.238.763 8.195 3.86c.43.142.382.142.477.285-.19.238 0 .238-.953-.143L13.94 12.56l-.334.953c-.333-.239-.047.047-.19-.19l-1.573-3.717 8.72 3.43c.714.238 2.382.81 2.906 1.191z" fill="#fefefe"/><path class="fil2" d="M34 32.666l-3.336-6.909c.286-.143-.048-.047.286-.095h.476c.143 0 .239-.048.382-.048l.238-.047h.095l5.003 10.387c.19.333.286.572.477.905.38 0 .333-.095.667-.19.38.524 1.62 3.144 1.906 3.668l2.716 5.099c.19.524-.668 3.478-.81 4.288-.382-.381-.286-.381-.43-.715l-1.62-2.906c-.142-.334-.19-.286-.38-.763l-3.86-7.1c-.143-.237-.095-.047-.143-.285.286-.19.429-.238.667-.334l-1.715-3.859-.62-1.096z" fill="#fefefe"/></g></svg>