<svg xmlns="http://www.w3.org/2000/svg" width="100" height="100" viewBox="0 0 100 100"><path fill="#222d55" d="M0 0h100v100H0z"/><text style="line-height:125%" x="59.612" y="1015.058" font-weight="400" font-size="22.762" font-family="sans-serif" letter-spacing="0" word-spacing="0" fill="#fff" transform="translate(0 -952.362)"><tspan x="59.612" y="1015.058">x2</tspan></text><path d="M38.665 80.135c-4.14-.449-7.653-1.808-10.72-4.149-.78-.596-2.529-2.303-3.264-3.186-2.334-2.806-3.893-6.378-4.433-10.154-.18-1.254-.201-3.749-.045-5.085a20.419 20.419 0 0 1 2.342-7.3c.531-.965 1.31-2.16 1.529-2.34.109-.09 3.02-.123 12.774-.142l12.633-.024v-7.643c0-7.199-.01-7.685-.183-8.364-.883-3.475-3.489-6.029-7.028-6.886-.92-.223-3.02-.223-3.941 0-3.5.847-5.991 3.248-6.999 6.742-.172.595-.198 1.022-.232 3.701-.033 2.664-.057 3.043-.196 3.149-.114.087-.704.12-2.15.12-1.096 0-2.06-.026-2.145-.058-.134-.052-.152-.4-.152-2.938 0-2.921.058-3.653.397-5.031 1.087-4.416 4.393-8.107 8.64-9.643 4.545-1.645 9.263-.945 13.172 1.955 2.473 1.834 4.336 4.651 5.083 7.688.38 1.542.397 1.964.397 9.552 0 4.07.026 7.47.058 7.553.048.126.242.152 1.137.152 1.228 0 1.155-.04 1.853 1.01.899 1.352 1.916 3.476 2.417 5.047 1.04 3.258 1.19 7.3.397 10.66-.711 3.013-2.177 5.981-4.088 8.28-.735.883-2.484 2.59-3.265 3.186-2.867 2.189-6.169 3.538-9.854 4.027-1.269.168-3.183.225-4.134.122zm2.665-6.715c.27-.135.605-.394.744-.576.505-.662.533-.88.533-4.15v-3.023l.26-.21c.143-.114.487-.432.764-.705 1.982-1.958 1.6-5.32-.784-6.902-.84-.558-1.488-.748-2.547-.748-1.06 0-1.708.19-2.548.748-1.418.94-2.166 2.505-2.037 4.258.09 1.226.763 2.342 2.017 3.35l.26.209v3.023c0 3.27.028 3.488.533 4.15.363.477 1.108.82 1.775.82.385 0 .68-.068 1.03-.244z" fill="#fff"/></svg>