<svg xmlns="http://www.w3.org/2000/svg" width="70" height="70"><path fill="#222d55" d="M0 0h70v70H0z"/><path class="fil4" d="M96.59 36.901c-.933.22-1.426 1.042-1.426 2.14 0 3.016 4.99 3.838 4.99-.22 0-1.097-.548-1.7-1.425-1.92l4.552-10.695c2.413-5.814 6.527-12.505 1.7-17.496-1.7-1.81-3.784-2.797-5.814-3.071h-2.029c-2.633.329-5.155 1.974-6.8 4.771-1.701 2.962-1.098 6.088.164 9.215l4.607 12.779c.439 1.152 1.426 3.18 1.48 4.497z" clip-rule="evenodd" fill="#f16136" fill-rule="evenodd" image-rendering="optimizeQuality" shape-rendering="geometricPrecision" text-rendering="geometricPrecision"/><path class="fil3" d="M16.877 19.225v4.239H7c-1.071 0-2.329.419-2.329 1.397V56.35c0 1.118 1.584 1.397 2.795 1.397h9.41c0 3.913-.373 3.773 2.096 3.773 0 4.332-.979 3.494 6.8 3.494 1.305 0 .932-1.724.932-3.494h15.977c0 4.332-.745 3.494 6.568 3.494.652 0 .652-.093 1.211-.233v-3.26c2.423 0 2.097.14 2.097-3.774h9.409c1.165 0 2.795-.28 2.795-1.397V24.86c0-.978-1.304-1.397-2.33-1.397h-9.874c0-2.283.605-5.87-1.398-5.87H18.274c-.373 0-.792.28-.932.466-.372.326-.465.513-.465 1.165z" clip-rule="evenodd" fill="#fefefe" fill-rule="evenodd" image-rendering="optimizeQuality" shape-rendering="geometricPrecision" text-rendering="geometricPrecision"/><path class="fil4" clip-rule="evenodd" fill="#f16136" fill-rule="evenodd" image-rendering="optimizeQuality" shape-rendering="geometricPrecision" text-rendering="geometricPrecision" d="M19.206 24.442h31.256v30.65H19.206z"/><path class="fil3" d="M29.08 34.736c0 8.804-1.07 7.733 8.665 7.733 3.4 0 2.608-3.121 2.608-7.733 0-3.26-2.282-2.608-5.17-2.608v1.444h-.932v-1.444c-2.934 0-5.17-.652-5.17 2.608zm6.336 11.04c0 9.829-1.444 8.431 8.897 8.431 2.981 0 2.142-3.54 2.142-8.431 0-2.376-2.608-1.91-4.937-1.91v1.444h-1.165v-1.444c-2.375 0-4.937-.466-4.937 1.91zm-12.437 0c0 9.829-1.444 8.431 8.897 8.431 2.98 0 2.142-3.54 2.142-8.431 0-2.376-2.608-1.91-4.937-1.91v1.444h-1.165v-1.444c-2.375 0-4.937-.466-4.937 1.91z" clip-rule="evenodd" fill="#fefefe" fill-rule="evenodd" image-rendering="optimizeQuality" shape-rendering="geometricPrecision" text-rendering="geometricPrecision"/></svg>