<svg xmlns="http://www.w3.org/2000/svg" width="70" height="70"><path fill="#222d55" d="M0 0h70v70H0z"/><path class="fil4" d="M96.59 36.901c-.933.22-1.426 1.042-1.426 2.14 0 3.016 4.99 3.838 4.99-.22 0-1.097-.548-1.7-1.425-1.92l4.552-10.695c2.413-5.814 6.527-12.505 1.7-17.496-1.7-1.81-3.784-2.797-5.814-3.071h-2.029c-2.633.329-5.155 1.974-6.8 4.771-1.701 2.962-1.098 6.088.164 9.215l4.607 12.779c.439 1.152 1.426 3.18 1.48 4.497z" clip-rule="evenodd" fill="#f16136" fill-rule="evenodd" image-rendering="optimizeQuality" shape-rendering="geometricPrecision" text-rendering="geometricPrecision"/><path d="M15.848 5.023h38.185c1.546 0 2.736 1.19 2.736 2.617v54.6c0 1.547-1.19 2.737-2.736 2.737H15.848c-1.546 0-2.617-1.19-2.617-2.737V7.64c0-1.428 1.07-2.617 2.617-2.617zM35 10.138c9.754 0 17.605 2.736 17.605 6.186 0 3.45-7.85 6.185-17.605 6.185-9.754 0-17.724-2.736-17.724-6.185 0-3.45 7.97-6.186 17.724-6.186z" fill="#fefefe" fill-rule="evenodd"/><path d="M24.77 27.744c3.806 0 6.78 2.973 6.78 6.661 0 3.687-2.974 6.661-6.78 6.661a6.65 6.65 0 01-6.662-6.66 6.65 6.65 0 016.662-6.662zm20.341 0a6.65 6.65 0 016.662 6.661 6.65 6.65 0 01-6.662 6.661 6.65 6.65 0 01-6.661-6.66 6.65 6.65 0 016.661-6.662zM24.77 45.111c3.806 0 6.78 2.974 6.78 6.662 0 3.687-2.974 6.661-6.78 6.661a6.65 6.65 0 01-6.662-6.661 6.65 6.65 0 016.662-6.662zm20.341 0a6.65 6.65 0 016.662 6.662 6.65 6.65 0 01-6.662 6.661 6.65 6.65 0 01-6.661-6.661 6.65 6.65 0 016.661-6.662z" fill="#f16136" fill-rule="evenodd"/><path d="M49.87 31.67c.118.117.118.235.118.353 0 .478-.119.714-.475 1.071-.238.236-.595.354-.952.354h-.476l-1.308 1.19 3.092 2.973-1.19 1.19-2.973-2.974-1.19 1.19v.477c0 .354-.118.714-.356.952-.357.236-.595.354-1.071.354h-.357l1.07-1.07-.95-1.071-1.071 1.07c-.12-.118-.12-.236-.12-.354 0-.354.12-.714.357-.951.357-.236.714-.478.952-.478s.357.118.476.118l1.308-1.308-1.903-2.023.952-.951 2.022 1.903 1.308-1.309c0-.118-.119-.236-.119-.354 0-.478.238-.714.476-1.07.238-.236.595-.354.952-.354h.476l-1.07 1.07.95 1.07 1.071-1.07zm-7.019-.834l-1.07.952-.12-.236.952-.952.238.236zm3.093.118c-.238 0-.476-.118-.714-.118-.357 0-.713.118-.951.354l-2.023 2.142.238.236-.832.713-1.309-1.308.714-.714.238.236 2.14-2.14c.239-.237.596-.479.834-.479.594 0 1.189.478 1.665 1.071zm4.996 20.343c0 1.19-.357 2.14-.952 3.093.238-.714.476-1.428.476-2.38 0-.832-.119-1.546-.476-2.14-.238-.952-.713-1.428-1.308-1.785.714.236 1.308.595 1.665 1.19.476.594.595 1.308.595 2.022zm-.952.236c0 .832-.238 1.665-.832 2.38.238-.479.357-1.072.357-1.904 0-.595-.12-1.19-.238-1.785-.357-.594-.714-1.07-1.19-1.308.595.118 1.07.478 1.428.951.356.478.475 1.071.475 1.666zm-.951.236c0 .595-.238 1.309-.595 1.903.238-.478.238-.951.238-1.547 0-.477 0-.95-.238-1.427-.238-.478-.476-.832-.833-1.07.357.117.833.36 1.07.832.239.354.358.714.358 1.309zm-1.07 1.07c0 .36 0 .714-.12 1.07 0 .479-.238.715-.476.715-.119 0-.238-.118-.476-.236-.237-.237-.832-.478-1.665-.478-.595-.118-1.308-.236-1.784-.236-.12 0-.238.118-.238.354 0 .118.119.236.119.354.119.118.119.236.119.354 0 0 0 .118.119.236s.238.118.238.236h-.12v.118s.12.118.12.236a.364.364 0 01.119.236v.118c0 .118-.12.118-.12.118l.12.118.119.118c0 .118-.12.118-.238.118-.476 0-.714-.118-.952-.36 0-.117-.119-.353-.238-.832-.119-.833-.476-1.309-.832-1.309h-.12c-.475 0-.713-.354-.713-1.189 0-.595.238-.833.714-1.07.238-.118.594-.236 1.07-.478.595-.236 1.07-.595 1.785-1.07.475-.355.951-.714 1.189-1.071.119-.478.238-.714.595-.714s.714.354 1.07 1.19c.238.477.357 1.07.476 1.665.12.594.12 1.07.12 1.665zm-6.781 1.07c-.357 0-.595 0-.833-.117-.238-.118-.357-.354-.357-.714 0-.354.12-.595.357-.832l.714-.354c-.238.236-.357.477-.357.951 0 .478.238.833.476 1.07zm5.472-1.545c0-.354-.12-.714-.238-1.07-.12-.355-.357-.596-.595-.834.119 1.428.357 2.38.595 2.974.119-.354.238-.595.238-1.07zm0 1.665c-.357-.478-.595-1.07-.833-1.904-.12-.713-.238-1.308-.238-2.022l.119-.594c-.357.354-.714.594-1.07.951l-1.19.595c-.476.354-.595.714-.595 1.07 0 .355 0 .596.12.833.118.236.356.478.713.478 0 0 .119 0 .476.118.951 0 1.784.118 2.498.478zm-5.83-.354c-.118-.354-.237-.714-.237-.952 0-.118 0-.236.119-.354h-.119c-.119.118-.119.354-.119.595 0 .118.119.354.238.714h.119zm-.237 0c-.238-.354-.238-.595-.238-.714v-.478l-.119.118c0 .119-.119.237-.119.355s.12.354.238.594l.238.118zM25.484 33.93l3.806-3.807-3.925 7.256-1.071-2.141-3.926 3.806 4.045-6.9zm2.736 17.723c0 .478-.12 1.071-.357 1.547-.238.595-.595.951-1.07 1.308l.594.478-1.903.478.237-1.903.476.354c.595-.354.833-1.07.833-2.023 0-.951-.595-1.903-1.546-2.498l.594-1.308a3.6 3.6 0 011.547 1.427 4.11 4.11 0 01.595 2.142zm-4.045 2.498l-.714 1.31c-.594-.355-1.07-.833-1.546-1.547-.357-.595-.476-1.19-.476-2.022 0-.478.119-1.07.357-1.547.238-.478.595-.951.952-1.308l-.476-.478 1.784-.478-.119 1.903-.476-.477a2.544 2.544 0 00-.951 2.022c0 1.19.594 2.022 1.665 2.617z" fill="#fefefe"/><path d="M35 14.777c.714 0 1.427.714 1.427 1.547 0 .832-.713 1.427-1.427 1.427-.833 0-1.546-.595-1.546-1.427 0-.833.713-1.547 1.546-1.547zm-5.829 0c.833 0 1.428.714 1.428 1.547 0 .832-.595 1.427-1.428 1.427s-1.546-.595-1.546-1.427c0-.833.713-1.547 1.546-1.547zm-5.829 0c.833 0 1.428.714 1.428 1.547 0 .832-.595 1.427-1.428 1.427-.832 0-1.546-.595-1.546-1.427 0-.833.714-1.547 1.546-1.547zm23.554 0c.832 0 1.546.714 1.546 1.547 0 .832-.714 1.427-1.546 1.427-.833 0-1.428-.595-1.428-1.427 0-.833.595-1.547 1.428-1.547zm-5.829 0c.832 0 1.546.714 1.546 1.547 0 .832-.714 1.427-1.546 1.427-.833 0-1.428-.595-1.428-1.427 0-.833.595-1.547 1.428-1.547zm-9.041 3.45c.833 0 1.547.714 1.547 1.546 0 .833-.714 1.547-1.547 1.547s-1.427-.714-1.427-1.547c0-.832.594-1.546 1.427-1.546zm6.304 0c.833 0 1.428.714 1.428 1.546 0 .833-.595 1.547-1.427 1.547-.833 0-1.547-.714-1.547-1.547 0-.832.714-1.546 1.547-1.546zm-6.304-6.899c.833 0 1.547.713 1.547 1.546 0 .833-.714 1.428-1.547 1.428s-1.427-.595-1.427-1.428.594-1.546 1.427-1.546zm6.304 0c.833 0 1.428.713 1.428 1.546 0 .833-.595 1.428-1.427 1.428-.833 0-1.547-.595-1.547-1.428s.714-1.546 1.547-1.546z" fill="#fefefe" fill-rule="evenodd"/></svg>