<svg xmlns="http://www.w3.org/2000/svg" width="70" height="70" viewBox="0 0 70.000001 70.000001"><path fill="#222d55" d="M0 0h70v70H0z"/><path class="fil4" d="M96.59 36.901c-.933.22-1.426 1.042-1.426 2.14 0 3.016 4.99 3.838 4.99-.22 0-1.097-.548-1.7-1.425-1.92l4.552-10.695c2.413-5.814 6.527-12.505 1.7-17.496-1.7-1.81-3.784-2.797-5.814-3.071h-2.029c-2.633.329-5.155 1.974-6.8 4.771-1.701 2.962-1.098 6.088.164 9.215l4.607 12.779c.439 1.152 1.426 3.18 1.48 4.497z" clip-rule="evenodd" fill="#f16136" fill-rule="evenodd" image-rendering="optimizeQuality" shape-rendering="geometricPrecision" text-rendering="geometricPrecision"/><path d="M52.388 18.175a4.19 4.19 0 1 0 0 8.382 4.19 4.19 0 0 0 0-8.382z" class="fil3" clip-rule="evenodd" fill="#fefefe" fill-rule="evenodd" image-rendering="optimizeQuality" shape-rendering="geometricPrecision" text-rendering="geometricPrecision"/><path class="fil4" clip-rule="evenodd" fill="#f16136" fill-rule="evenodd" image-rendering="optimizeQuality" shape-rendering="geometricPrecision" text-rendering="geometricPrecision" d="M62.083 5.29L34.437 42.693l-3.94-11.383-22.83 19.452 23.518-31.461 5.003 9.757z"/><path d="M63.834 62.208l-20.39-20.14 20.39-21.642v41.782zm0-44.096L42.506 40.254c-2.377 2.627-4.879 3.94-7.506 3.94-2.69 0-5.191-1.313-7.506-3.94l-3.753-4.003 6.756-4.941 3.94 11.383 24.08-33.338-22.329 19.703-5.003-9.758-10.32 13.949-14.7-15.137h41.22L62.082 5.29l-8.506 12.822h10.257zm0 46.598H6.166l21.829-21.204c2.189 1.502 4.503 2.252 7.005 2.252 2.44 0 4.816-.75 7.068-2.252L63.834 64.71zM26.556 42.068l-20.39 20.14V20.426l13.51 14.324-12.01 16.012 14.512-13.198 4.378 4.504z" class="fil5" clip-rule="evenodd" fill="#fefefe" image-rendering="optimizeQuality" shape-rendering="geometricPrecision" text-rendering="geometricPrecision"/></svg>