<svg xmlns="http://www.w3.org/2000/svg" width="70" height="70" viewBox="0 0 70.000001 70.000001"><path fill="#222d55" d="M0 0h70v70H0z"/><path d="M-37.394 21.819c0 2.05 1.02 4.358 1.912 5.575 1.53 1.987 2.103 2.18 4.27 3.397 0-5.32-1.338-12.433 4.015-12.561 4.462-.192 3.952 4.678 4.334 7.883.128 1.153.383 2.691.383 4.037.573-.192 1.466-.897 1.975-1.282.638-.512 1.084-1.217 1.53-1.858 3.187-4.486 1.657-11.536-3.442-14.42-1.147-.64-2.485-1.025-3.824-1.153h-2.167c-2.485.256-4.907 1.346-6.5 3.332-.447.577-.574.577-.956 1.282-1.02 1.923-1.53 3.397-1.53 5.768z" class="fil5" clip-rule="evenodd" fill="#f16136" fill-rule="evenodd" image-rendering="optimizeQuality" shape-rendering="geometricPrecision" text-rendering="geometricPrecision"/><path d="M5.07 20.028L5 40.88c.137 1.162.206.82 1.436.752 1.026-.068 1.573-.068 2.53-.205.957-.137 1.572-.068 2.53-.068 1.093-.068 1.161-.273 2.392-.273 1.64 0 3.35-.068 5.059-.205 2.734-.274 4.307.068 4.307-.958V24.336c0-1.026-4.239-3.077-5.401-3.487-5.537-1.914-8.272-1.23-12.784-.82zm37.12 14.357c1.163 0 1.71.136 1.71-.684v-17.5c0-.821-.958-.89-1.778-1.163L30.364 11.21c-.89-.274-1.573-.547-2.325-.752-.683-.274-1.846-.479-2.393-.752v10.322c0 4.854-.752 2.735 3.214 7.11 3.965 4.444 6.084 7.247 13.33 7.247zm3.829 11.963v13.946c1.435-.068 16.27-3.691 17.98-3.828V42.793c-2.94.684-5.88 1.163-8.956 1.778-3.008.615-6.085 1.094-9.024 1.777zm-20.373 8.204c1.094.068 3.555 1.025 4.58 1.367 1.573.547 2.94 1.026 4.513 1.504l9.16 2.871V46.348c-6.016-1.367-12.237-2.392-18.253-3.828v12.032zM5.07 43.956v12.51c3.554-.068 14.219-1.914 18.184-1.914V42.793L5.069 43.956z" class="fil4" clip-rule="evenodd" fill="#fefefe" fill-rule="evenodd" image-rendering="optimizeQuality" shape-rendering="geometricPrecision" text-rendering="geometricPrecision"/><path d="M25.646 40.4c1.778 0 16.476 3.556 18.253 3.556v-7.862c-7.11 0-10.049-.41-15.176-6.221-.615-.684-.752-.957-1.436-1.64-1.094-1.095-.752-1.3-1.64-1.505v13.673zM5.07 11.62v6.494c4.238 0 7.93-1.025 13.193.89 2.325.82 4.58 2.323 4.99 2.46V9.706c-1.298 0-3.076.341-4.511.478-1.436.137-2.94.342-4.58.479l-9.093.957zM61.4 31.719l-10.322 2.94c-1.436.273-3.555 1.161-5.06 1.161v8.136c2.052 0 15.93-3.35 17.98-3.35v-9.571c-.41.205-2.05.684-2.598.684zM46.019 34.18c.478-.274 17.296-4.786 17.98-4.854v-8.819l-17.98-3.35V34.18z" class="fil4" clip-rule="evenodd" fill="#fefefe" fill-rule="evenodd" image-rendering="optimizeQuality" shape-rendering="geometricPrecision" text-rendering="geometricPrecision"/><path d="M63.998 29.326v-8.819c-.683.82-3.623 8.75-3.418 9.16.479.753 2.051-.273 3.418-.341z" class="fil4" clip-rule="evenodd" fill="#fefefe" fill-rule="evenodd" image-rendering="optimizeQuality" shape-rendering="geometricPrecision" text-rendering="geometricPrecision"/><path d="M32.483 28.232l1.299 4.649-4.512 1.299c.068.683.273 1.777.82 2.324l4.307-1.162 1.299 4.307c.752.136 1.914-.137 2.393-.616l-1.231-4.443c.82-.137 1.436-.41 2.256-.615.752-.206 1.64-.206 2.188-.82l-.616-2.325-4.58 1.435-1.23-4.648-2.393.615zm17.501 11.553c0 1.983 3.008 1.778 3.008.41 0-.82 0-1.914-1.504-1.914-.889 0-1.504.82-1.504 1.504zm-4.375-7.315c0 .274.273.89.41 1.094.957.957 2.597.137 2.597-.683 0-.752 0-1.914-1.503-1.914-.89 0-1.504.888-1.504 1.504zm6.152-8.682c0 .752 0 1.915 1.504 1.915 1.846 0 2.051-3.008-.137-3.008-.752 0-1.367.683-1.367 1.093zm4.786.684c0 .752 0 1.914 1.504 1.914 1.845 0 2.05-3.008-.137-3.008-.752 0-1.367.684-1.367 1.094zm4.101 3.828c0 1.778 1.983 1.778 2.598 1.026.547-.615.41-1.64-.068-2.12-.957-.888-2.53-.273-2.53 1.094zm.752 8.477c0 1.231.41 1.641 1.641 1.641 1.3 0 1.778-1.64.889-2.53-.889-.888-2.53-.341-2.53.89zm-13.125 1.299c1.23 0 1.572-.341 1.572-1.572 0-1.299-1.64-1.777-2.461-.889-.889.82-.41 2.461.889 2.461zm.957-9.57c1.23 0 1.64-.342 1.64-1.573 0-1.299-1.64-1.777-2.529-.889-.889.82-.342 2.462.889 2.462zm8.408 12.92c0-1.23-.41-1.64-1.64-1.64-1.3 0-1.778 1.64-.889 2.529.82.889 2.53.342 2.53-.889zm4.376-8.75c0 1.299.41 1.64 1.64 1.64 1.3 0 1.778-1.64.89-2.46-.821-.89-2.53-.41-2.53.82zm-.616 7.383c0-1.299-.341-1.64-1.572-1.64-1.299 0-1.777 1.64-.889 2.46.82.889 2.461.41 2.461-.82zM55.931 29.19c1.915 0 3.487 1.571 3.487 3.554a3.501 3.501 0 0 1-3.487 3.487c-1.982 0-3.555-1.573-3.555-3.487a3.53 3.53 0 0 1 3.555-3.555z" class="fil5" clip-rule="evenodd" fill="#f16136" fill-rule="evenodd" image-rendering="optimizeQuality" shape-rendering="geometricPrecision" text-rendering="geometricPrecision"/></svg>