<svg xmlns="http://www.w3.org/2000/svg" width="70" height="70" viewBox="0 0 70.000001 70.000001"><path fill="#222d55" d="M0 0h70v70H0z"/><path class="fil4" d="M96.59 36.901c-.933.22-1.426 1.042-1.426 2.14 0 3.016 4.99 3.838 4.99-.22 0-1.097-.548-1.7-1.425-1.92l4.552-10.695c2.413-5.814 6.527-12.505 1.7-17.496-1.7-1.81-3.784-2.797-5.814-3.071h-2.029c-2.633.329-5.155 1.974-6.8 4.771-1.701 2.962-1.098 6.088.164 9.215l4.607 12.779c.439 1.152 1.426 3.18 1.48 4.497z" clip-rule="evenodd" fill="#f16136" fill-rule="evenodd" image-rendering="optimizeQuality" shape-rendering="geometricPrecision" text-rendering="geometricPrecision"/><path d="M9.496 16.29c0 .793 1.308 2.101 1.962 2.755.514.514 2.055 1.869 2.055 2.616v10.09c0 3.176-2.99 3.503-3.97 1.821-.607-1.12.233-1.027-.981-1.354-1.121 2.709 4.297 4.858 5.465 1.214.42-1.495.187-8.968.187-11.304.374.28 10.743 11.257 10.743 11.958v4.671H6.927c-1.121 0-1.868.747-1.868 1.869v6.212c.28 2.382 1.681 1.962 7.52 1.962 0 7.287 8.501 9.622 12.659 5.465 1.728-1.728 2.288-3.036 2.288-5.465h17.33c.187 2.475.887 3.97 2.335 5.372l1.775 1.26c5.325 2.616 11.07-1.027 11.07-6.632 2.85 0 4.905.514 4.905-1.635V34.086c0-1.028-4.25-7.007-5.091-8.268-.934-1.401-1.728-2.616-2.71-4.064-.466-.7-.84-1.307-1.307-1.961-.514-.794-1.028-1.168-2.336-1.168H41.773c-.84 0-1.868.654-1.868 1.401v18.731h-2.336c0-9.762 1.495-6.446-8.875-13.826-4.204-2.943-11.304-7.567-14.807-10.23-1.728-1.308-2.242-1.401-3.41 0-.28.327-.98 1.121-.98 1.588zm33.632 5.698h11.304l7.193 11.117H43.128V21.988z" class="fil3" clip-rule="evenodd" fill="#fefefe" fill-rule="evenodd" image-rendering="optimizeQuality" shape-rendering="geometricPrecision" text-rendering="geometricPrecision"/><path d="M19.82 45.297a4.067 4.067 0 0 1 4.063 4.063c0 2.29-1.822 4.111-4.064 4.111s-4.064-1.822-4.064-4.11a4.067 4.067 0 0 1 4.064-4.064zm32.696 0a4.067 4.067 0 0 1 4.064 4.063c0 2.29-1.822 4.111-4.064 4.111a4.087 4.087 0 0 1-4.11-4.11c0-2.243 1.822-4.064 4.11-4.064z" class="fil4" clip-rule="evenodd" fill="#f16136" fill-rule="evenodd" image-rendering="optimizeQuality" shape-rendering="geometricPrecision" text-rendering="geometricPrecision"/></svg>