<svg xmlns="http://www.w3.org/2000/svg" width="70" height="70"><path fill="#222d55" d="M0 0h70v70H0z"/><path class="fil4" d="M96.59 36.901c-.933.22-1.426 1.042-1.426 2.14 0 3.016 4.99 3.838 4.99-.22 0-1.097-.548-1.7-1.425-1.92l4.552-10.695c2.413-5.814 6.527-12.505 1.7-17.496-1.7-1.81-3.784-2.797-5.814-3.071h-2.029c-2.633.329-5.155 1.974-6.8 4.771-1.701 2.962-1.098 6.088.164 9.215l4.607 12.779c.439 1.152 1.426 3.18 1.48 4.497z" clip-rule="evenodd" fill="#f16136" fill-rule="evenodd" image-rendering="optimizeQuality" shape-rendering="geometricPrecision" text-rendering="geometricPrecision"/><path class="fil2" clip-rule="evenodd" fill="#fefefe" fill-rule="evenodd" image-rendering="optimizeQuality" shape-rendering="geometricPrecision" text-rendering="geometricPrecision" d="M64.632 23.456l-3.55.044v22.623l3.945.044zm-19.335 11.18c-2.323.35-3.902-.351-5.787.701-2.28 1.316-2.85.921-5.787.921-4.34 0-20.3-.087-24.64 0-.22 0-3.245.92-3.464.92l.088 3.508 3.156-.877 42.178-.043.131-19.773c-6.445-1.622-4.779 1.49-5.875 14.644zM25.348 45.904l2.719.263c1.315-2.061.307-3.595 2.893-4.867-3.55 2.85-2.06 9.558 2.631 9.076 4.516-.483 4.998-7.015 1.447-9.34 2.587.966 2.06 2.544 3.113 5l22.185.086.044-5.612-24.816-.088-10.128-.043-.088 5.524z"/><path class="fil1" clip-rule="evenodd" fill="#222d55" fill-rule="evenodd" image-rendering="optimizeQuality" shape-rendering="geometricPrecision" text-rendering="geometricPrecision" d="M65.772 25.473h-2.674l.22 6.138h2.761z"/><path class="fil3" clip-rule="evenodd" fill="#f16136" fill-rule="evenodd" image-rendering="optimizeQuality" shape-rendering="geometricPrecision" text-rendering="geometricPrecision" d="M64.676 20.737h-3.639l-.044 2.324h3.64zM51.699 32.444l1.052.789 1.052.833V30.82l-1.052.79-1.052.833zm2.148-.877h4.779v1.754h-4.78v-1.754zm6.927.877l-1.096.789-1.052.833V30.82l1.052.79 1.096.833z"/><path class="fil2" d="M44.07 31.435c-.22-.482-.22-.043-.22-.745-.087-1.052-.175-.088.132-1.096-1.228-1.535-.877-2.412-5.042-3.2-2.28-.44-4.034-.176-5.831-1.316-4.078-2.63-7.629-3.64-12.276-3.683-4.34 0-7.366 1.052-10.479 2.104-1.622.57-3.551 1.097-3.902 3.508-.526 3.902-1.973 1.666-1.272 5.568l2.236.702c.965-6.84 6.226-5.305 7.63-3.113.745 1.184.613 2.148.832 3.551 2.762.132 15.74.395 17.143-.22-.833-5.523 7.103-8.242 8.243-.744l.219.964c2.28-.175 1.403-.92 2.587-2.28z" clip-rule="evenodd" fill="#fefefe" fill-rule="evenodd" image-rendering="optimizeQuality" shape-rendering="geometricPrecision" text-rendering="geometricPrecision"/><path class="fil1" d="M11.494 25.385c1.403.57 18.677 1.14 20.475.789l-.79-1.008c-.306-.263-.876-.614-1.227-.79-5.437-2.762-16.441-3.025-18.458 1.009z" clip-rule="evenodd" fill="#222d55" fill-rule="evenodd" image-rendering="optimizeQuality" shape-rendering="geometricPrecision" text-rendering="geometricPrecision"/><path class="fil2" d="M36.485 29.024c-4.56.658-3.288 7.848 1.359 6.84 4.428-.965 3.2-7.498-1.36-6.84zm-25.123.131c-.263 0-1.315 0-2.236.833-2.323 2.938-.263 6.445 3.026 6.007 4.033-.57 4.252-7.059-.79-6.84z" clip-rule="evenodd" fill="#fefefe" fill-rule="evenodd" image-rendering="optimizeQuality" shape-rendering="geometricPrecision" text-rendering="geometricPrecision"/><path class="fil1" d="M11.625 30.558c1.097 0 1.973.921 1.973 2.017 0 1.096-.876 2.017-1.973 2.017a2.01 2.01 0 01-2.016-2.017c0-1.096.877-2.017 2.016-2.017zm25.474 0a2.04 2.04 0 012.016 2.017 2.04 2.04 0 01-2.016 2.017 2.04 2.04 0 01-2.017-2.017 2.04 2.04 0 012.017-2.017zm-3.99 12.847c1.315 0 2.411 1.052 2.411 2.367a2.433 2.433 0 01-2.411 2.411c-1.315 0-2.368-1.096-2.368-2.41a2.358 2.358 0 012.368-2.368z" clip-rule="evenodd" fill="#222d55" fill-rule="evenodd" image-rendering="optimizeQuality" shape-rendering="geometricPrecision" text-rendering="geometricPrecision"/></svg>