<svg xmlns="http://www.w3.org/2000/svg" width="70" height="70" viewBox="0 0 70.000001 70.000001"><path fill="#222d55" d="M0 0h70v70H0z"/><path class="fil4" d="M96.59 36.901c-.933.22-1.426 1.042-1.426 2.14 0 3.016 4.99 3.838 4.99-.22 0-1.097-.548-1.7-1.425-1.92l4.552-10.695c2.413-5.814 6.527-12.505 1.7-17.496-1.7-1.81-3.784-2.797-5.814-3.071h-2.029c-2.633.329-5.155 1.974-6.8 4.771-1.701 2.962-1.098 6.088.164 9.215l4.607 12.779c.439 1.152 1.426 3.18 1.48 4.497z" clip-rule="evenodd" fill="#f16136" fill-rule="evenodd" image-rendering="optimizeQuality" shape-rendering="geometricPrecision" text-rendering="geometricPrecision"/><path class="fil3" d="M8.96 29.588c-2.623.598-3.727 3.45-4.003 6.671v3.589c.184 2.53.736 4.969 1.288 6.303 1.749 4.417 3.497 4.324 6.671 4.095 10.766-.875 9.018.092 8.006-13.343a242.79 242.79 0 0 0-.506-5.152c-.414-3.911-4.187-2.669-5.107-2.623 0-8.281 8.42-16.655 16.655-16.655 5.198 0 9.615 1.519 13.204 5.107 2.76 2.715 5.245 7.5 5.337 11.548-5.153-.414-4.97-.736-5.66 8.42-.137 2.024-1.15 8.879-.551 10.443.644 1.518 2.07 1.702 4.094 1.794 5.291.138 6.947 1.703 9.432-.874.828-.828 1.748-2.806 2.07-4.048 1.656 1.886.828 3.634-.23 5.843-2.714 5.567-1.84 7.269-9.385 7.269-1.059 0-.69-1.61-2.623-1.61h-7.5c-.69 0-1.885 1.15-1.885 1.84 0 6.67-.23 5.659 9.385 5.659 1.15 0 1.794-.598 1.886-1.657 2.715 0 4.693.185 6.81-.506 1.748-.552 3.266-1.702 4.324-3.128 1.104-1.472 1.749-3.313 2.485-5.061 1.426-3.266 1.886-3.45 1.886-7.04 0-2.621-2.254-5.796-4.233-6.302 0-2.899-.092-8.282-2.622-10.03-.69-.46-.69-.23-1.38-.552 0-7.637-4.003-14.262-9.8-18.817-.874-.644-2.576-1.748-3.635-2.208-6.717-3.129-14.17-3.451-20.795-.093-2.346 1.197-4.923 2.945-6.763 4.74-4.003 4.001-6.855 10.35-6.855 16.377z" clip-rule="evenodd" fill="#fefefe" fill-rule="evenodd" image-rendering="optimizeQuality" shape-rendering="geometricPrecision" text-rendering="geometricPrecision"/><path class="fil4" d="M40.659 57.239h6.763c.828 0 1.472.644 1.472 1.426v2.852c0 .782-.644 1.427-1.472 1.427h-6.763c-.782 0-1.472-.645-1.472-1.427v-2.852c0-.782.69-1.426 1.472-1.426z" clip-rule="evenodd" fill="#f16136" fill-rule="evenodd" image-rendering="optimizeQuality" shape-rendering="geometricPrecision" text-rendering="geometricPrecision"/></svg>