<svg xmlns="http://www.w3.org/2000/svg" width="70" height="70"><path fill="#222d55" d="M0 0h70v70H0z"/><path d="M-37.394 21.819c0 2.05 1.02 4.358 1.912 5.575 1.53 1.987 2.103 2.18 4.27 3.397 0-5.32-1.338-12.433 4.015-12.561 4.462-.192 3.952 4.678 4.334 7.883.128 1.153.383 2.691.383 4.037.573-.192 1.466-.897 1.975-1.282.638-.512 1.084-1.217 1.53-1.858 3.187-4.486 1.657-11.536-3.442-14.42-1.147-.64-2.485-1.025-3.824-1.153h-2.167c-2.485.256-4.907 1.346-6.5 3.332-.447.577-.574.577-.956 1.282-1.02 1.923-1.53 3.397-1.53 5.768z" class="fil5" clip-rule="evenodd" fill="#f16136" fill-rule="evenodd" image-rendering="optimizeQuality" shape-rendering="geometricPrecision" text-rendering="geometricPrecision"/><path class="fil4" d="M9.021 29.578c-2.633.642-3.725 3.468-3.982 6.68v3.532c.193 2.568.707 5.009 1.285 6.358 1.734 4.367 3.468 4.303 6.679 4.046 10.726-.835 8.991.063 7.964-13.295a154.595 154.595 0 00-.514-5.138c-.385-3.917-4.175-2.633-5.138-2.633 0-8.22 8.478-16.634 16.634-16.634 5.203 0 9.634 1.541 13.23 5.074 2.698 2.761 5.203 7.514 5.267 11.56-5.074-.45-4.945-.706-5.587 8.414-.193 1.99-1.157 8.863-.579 10.404.643 1.541 2.056 1.734 4.11 1.798 5.267.129 6.937 1.67 9.378-.899.835-.835 1.798-2.762 2.055-4.046 1.67 1.927.835 3.66-.193 5.909-2.697 5.523-1.862 7.257-9.377 7.257-1.027 0-.706-1.67-2.569-1.67H40.17c-.706 0-1.862 1.22-1.862 1.863 0 6.68-.257 5.651 9.376 5.651 1.092 0 1.734-.578 1.863-1.67 2.697 0 4.688.193 6.744-.449 1.798-.578 3.275-1.734 4.367-3.211 1.092-1.413 1.734-3.276 2.44-5.01 1.478-3.211 1.863-3.468 1.863-7 0-2.634-2.184-5.78-4.175-6.358 0-2.826-.064-8.221-2.633-9.955-.706-.45-.642-.193-1.349-.578 0-7.579-4.046-14.194-9.826-18.754-.835-.642-2.57-1.734-3.597-2.248-6.743-3.083-14.13-3.404-20.809-.063-2.312 1.156-4.88 2.954-6.743 4.752C11.847 17.247 9.02 23.541 9.02 29.58z" clip-rule="evenodd" fill="#fefefe" fill-rule="evenodd" image-rendering="optimizeQuality" shape-rendering="geometricPrecision" text-rendering="geometricPrecision"/></svg>