<svg xmlns="http://www.w3.org/2000/svg" width="70" height="70"><path fill="#222d55" d="M0 0h70v70H0z"/><path class="fil8" d="M5.358 22.58v20.997c.069 1.166.138.755 1.441.686.96-.068 1.578 0 2.539-.137.96-.138 1.578-.068 2.539-.138 1.029-.068 1.166-.206 2.401-.206 1.647-.068 3.294-.137 5.01-.274 2.812-.206 4.39.07 4.39-.96V26.902c0-1.03-4.254-3.088-5.42-3.5-5.558-1.92-8.302-1.234-12.9-.822zm37.327 14.41c1.166 0 1.715.206 1.715-.686V18.738c0-.823-.96-.892-1.784-1.166l-11.802-3.843c-.892-.274-1.578-.549-2.332-.754-.687-.275-1.853-.55-2.402-.755v10.36c0 4.872-.755 2.745 3.156 7.137 3.98 4.46 6.176 7.273 13.449 7.273zm3.842 12.076v13.998c1.441-.068 16.33-3.706 18.115-3.911V45.43c-2.95.686-5.97 1.235-9.058 1.852-3.019.618-6.106 1.098-9.057 1.784zM26.08 57.231c1.098.138 3.568 1.098 4.597 1.441 1.578.48 2.95 1.03 4.529 1.51l9.194 2.882V49.066c-6.038-1.44-12.282-2.47-18.32-3.842V57.23zM5.358 46.665v12.488c3.568-.068 14.34-1.922 18.32-1.922V45.43l-18.32 1.235z" clip-rule="evenodd" fill="#fefefe" fill-rule="evenodd" image-rendering="optimizeQuality" shape-rendering="geometricPrecision" text-rendering="geometricPrecision"/><path class="fil8" d="M26.08 43.028c1.784 0 16.605 3.568 18.32 3.637v-7.96c-7.136 0-10.086-.343-15.232-6.175-.618-.686-.755-1.03-1.441-1.716-1.098-1.097-.755-1.303-1.647-1.509v13.723zM5.358 14.141v6.518c4.323 0 7.96-1.029 13.312.892 2.264.824 4.597 2.333 5.009 2.47V12.22c-1.304 0-3.088.343-4.598.48-1.44.138-2.882.343-4.528.48l-9.195.961zm56.608 20.241l-10.361 2.882c-1.441.343-3.568 1.167-5.078 1.167v8.234c2.059 0 16.056-3.362 18.115-3.362v-9.675c-.412.205-2.127.686-2.676.754zm-15.439 2.402c.48-.206 17.429-4.803 18.115-4.803v-8.92L46.527 19.7v17.085z" clip-rule="evenodd" fill="#fefefe" fill-rule="evenodd" image-rendering="optimizeQuality" shape-rendering="geometricPrecision" text-rendering="geometricPrecision"/><path class="fil5" d="M34.04 32.324a3.515 3.515 0 013.499 3.5c0 1.99-1.578 3.567-3.5 3.567a3.543 3.543 0 01-3.568-3.568c0-1.92 1.579-3.499 3.568-3.499z" clip-rule="evenodd" fill="#f16136" fill-rule="evenodd" image-rendering="optimizeQuality" shape-rendering="geometricPrecision" text-rendering="geometricPrecision"/><path class="fil5" d="M33.353 32.461h1.235v-4.803l1.853-.823c.274-.138.412-.206.617-.343l7.685-3.568c-.137-.206-3.293-1.578-3.773-1.853-1.236-.617-2.676-1.235-3.843-1.784l-.686-.343c-.206-.068-.412-.206-.618-.274-.96-.412-1.029-.55-1.372-.55h-1.098v14.341z" clip-rule="evenodd" fill="#f16136" fill-rule="evenodd" image-rendering="optimizeQuality" shape-rendering="geometricPrecision" text-rendering="geometricPrecision"/><path class="fil9" d="M34.177 14.415V6.936h2.813c.48 0 .892 0 1.166.068.343.068.686.138.892.343.275.138.48.412.618.686.137.343.206.687.206 1.03 0 .686-.206 1.235-.55 1.646-.41.412-1.166.687-2.264.687h-1.92v3.019h-.961zm.96-3.91h1.99c.618 0 1.098-.138 1.372-.344.206-.274.343-.617.343-1.029 0-.343-.068-.618-.205-.823a1.002 1.002 0 00-.618-.412c-.206-.068-.48-.068-.96-.068h-1.922v2.676zm4.392 3.91l2.881-7.479h1.098l3.088 7.48h-1.098l-.892-2.265H41.45l-.824 2.264H39.53zm2.195-3.087h2.539l-.755-2.059c-.274-.617-.411-1.166-.549-1.578-.068.48-.274.96-.411 1.441l-.824 2.196zm5.695 3.087V6.936h3.294c.686 0 1.235.068 1.578.206.343.138.618.343.823.686.206.344.275.755.275 1.167 0 .48-.137.96-.48 1.304-.344.411-.892.617-1.579.686.206.137.412.274.55.411.274.275.548.618.823.961l1.303 2.058h-1.235l-.96-1.509c-.343-.48-.55-.823-.755-1.098-.206-.206-.343-.412-.48-.48-.138-.068-.343-.138-.48-.206H48.38v3.293h-.96zm.96-4.185h2.128c.48 0 .823-.068 1.098-.137.274-.068.48-.206.549-.48.137-.207.206-.413.206-.618 0-.412-.138-.687-.343-.892-.275-.206-.687-.343-1.236-.343H48.38v2.47zm6.52 4.185V6.936h1.029v3.706l3.705-3.706h1.372l-3.156 3.02 3.293 4.46H59.84l-2.676-3.774-1.235 1.166v2.607h-1.03z" clip-rule="evenodd" fill="#f16136" image-rendering="optimizeQuality" shape-rendering="geometricPrecision" text-rendering="geometricPrecision"/><path class="fil8" d="M34.04 34.52c.686 0 1.303.617 1.303 1.303 0 .755-.617 1.373-1.304 1.373a1.376 1.376 0 01-1.372-1.373c0-.686.618-1.303 1.372-1.303z" clip-rule="evenodd" fill="#fefefe" fill-rule="evenodd" image-rendering="optimizeQuality" shape-rendering="geometricPrecision" text-rendering="geometricPrecision"/></svg>