<svg xmlns="http://www.w3.org/2000/svg" width="70" height="70" viewBox="0 0 70.000001 70.000001"><path fill="#222d55" d="M0 0h70v70H0z"/><path class="fil4" d="M96.59 36.901c-.933.22-1.426 1.042-1.426 2.14 0 3.016 4.99 3.838 4.99-.22 0-1.097-.548-1.7-1.425-1.92l4.552-10.695c2.413-5.814 6.527-12.505 1.7-17.496-1.7-1.81-3.784-2.797-5.814-3.071h-2.029c-2.633.329-5.155 1.974-6.8 4.771-1.701 2.962-1.098 6.088.164 9.215l4.607 12.779c.439 1.152 1.426 3.18 1.48 4.497z" clip-rule="evenodd" fill="#f16136" fill-rule="evenodd" image-rendering="optimizeQuality" shape-rendering="geometricPrecision" text-rendering="geometricPrecision"/><path d="M40.189 31.073c-.905.238-2.047.666-3.428 1.333l1.762 1.428c-3.523.428-6.236.619-8.14.523-2.38-.143-3.904-.285-4.475-.428-1.667-.429-2.476-1.333-2.476-2.713 0-1.334 1.238-3.142 3.713-5.475l3.666-3.428c0-.333-1-.714-3.095-1.095-.714-.095-1.713-.142-2.999-.047-.095-1.332-.142-2.38-.142-3.142.142-4.427 2.094-6.712 5.855-6.807 1.619-.047 2.951.333 4.046 1.19 1.19.952 1.762 2.285 1.762 3.999 0 2.523-1.095 3.999-3.333 4.38l.334.428 1.856-.81c.19-.094.429-.142.714-.142 1.571 0 3.38 1.142 5.522 3.38 2 2.19 2.952 3.951 2.952 5.284 0 .571-.524 1.047-1.666 1.476-.762.238-1.619.428-2.428.666zM63.182 49.4c.143.762.19 1.476.19 2.238 0 2.285-.618 4.19-1.904 5.712-1.285 1.571-2.856 2.333-4.76 2.333-2.57 0-4.856-.762-6.808-2.237-1.713-1.286-2.808-2.857-3.284-4.666.047.524.047.857 0 1.095-.143 1.238-2.761 2.38-7.76 3.428-4.046.81-7.95 1.047-11.616.666.62 0 .953-1.142.953-3.332 0-1.619-.19-3.094-.524-4.475-.667-2.809-2.095-6.14-4.19-9.854a108 108 0 0 1-5.188-.952c-1.19-.333-2.333-.667-3.475-1-1.571-.428-3.142-.619-4.856-.619-1.285 0-2.285.381-2.856 1.238-.238-.666-.334-1.19-.286-1.619.143-3.57 2.428-7.14 6.76-10.663 1.761-1.38 3.808-2.57 6.14-3.57 2.143-.905 3.81-1.38 5.047-1.428 3.19-.095 4.76.142 4.76.714 0 .047-1.142 1.142-3.427 3.284-2.285 2.19-3.475 4-3.475 5.427 0 2.618 2.57 3.951 7.617 3.999 3.427.047 6.426-.143 8.95-.571.618.571 1.19 1.237 1.76 2 1.381 1.808 2.524 3.808 3.523 5.997.762 1.667 1.286 3.57 1.667 5.57 0-.81-.096-1.666-.286-2.475a21.387 21.387 0 0 0-1.81-5.76c-1.903-4-3.76-6.475-5.616-7.427 2.713-1.095 4.76-1.666 6.236-1.666.333 0 .619.047.857.095.523.143 1.237 1.238 2.047 3.285.809 1.856 1.38 3.808 1.809 5.808.285 1.999.809 5.284 1.57 9.759.239 1.285.857 2.427 1.952 3.332 1.048.952 2.19 1.428 3.333 1.428 2 0 2.951-1.19 2.951-3.618 0-1.618-.523-3.094-1.57-4.332-1.096-1.38-2.476-2.047-4.095-2.047-1.38 0-2.237.619-2.57 1.857-.19-1.238-.524-3.238-.952-5.999a36.853 36.853 0 0 0-2.38-7.521c2.332-.524 4.76-.81 7.188-.81 3.094 0 4.76.715 4.998 2.095.048.429 0 1.095-.19 1.952l-4.951 1.428 4.427-.666c.666-.095 1.095.333 1.285 1.237.143.857-.238 1.333-1.142 1.476l-8.14 1.19.047.62 2.666-.477c2.237 0 4.142.714 5.855 2.142 1.81 1.524 2.952 3.666 3.523 6.38zm-35.99.62c.334 1.332.477 2.76.477 4.284 0 2.094-.286 3.142-.905 3.142-.523 0-1.142-.143-1.761-.476-1.19 3.046-3.475 4.57-6.807 4.57-2.762 0-5.427-1.095-7.998-3.285-2.57-2.19-4.237-4.856-4.951-7.95-.238-1.095-.38-2.142-.38-3.19 0-3.142.999-5.427 2.998-6.95l-.38-.714c.666-.857 1.618-1.285 2.856-1.285 1.57 0 3.142.19 4.617.571 1.095.333 2.19.666 3.333 1 1 .238 2.618.523 4.903.857a96.256 96.256 0 0 1 1.619 3.094c1.142 2.38 1.951 4.522 2.38 6.331zm5.38-33.42c-.714-.142-2-.332-3.856-.618-1-.143-2.094-.143-3.285-.047-.095.476-.19 1.285-.285 2.475 0 .524.095 1.286.238 2.238 1.238.095 2.475-.047 3.76-.429a8.642 8.642 0 0 0 3.38-1.809l.048-1.809zm5.19 13.235c0-.714-.239-1.333-.62-1.809a2.245 2.245 0 0 0-1.523-.762c-1.19 0-2.19.476-2.856 1.476l1.523.095v.19c-.428-.047-1.143-.095-2.237-.19-.239-.047-.667-.143-1.238-.238a5.35 5.35 0 0 0-1.143-.143c-.523 0-1.19.238-1.904.762-.714.476-1.095.952-1.095 1.428 0 .619.333 1.095 1.047 1.476.715.38 1.524.571 2.428.571.952 0 1.666-.19 2.143-.571.238.095.523.143.952.143 1 0 1.951-.238 2.856-.62 1.095-.475 1.618-1.047 1.666-1.808zM21.194 49.258a17.504 17.504 0 0 0-1.095-3.095c-.857 2.523-1.714 3.809-2.523 3.809-.381 0-.81-.857-1.333-2.619-.714-2.237-1.333-3.856-1.952-4.808-2.38.047-3.618 1.571-3.618 4.57 0 2.143.762 4.047 2.19 5.808 1.476 1.857 3.285 2.809 5.332 2.809 2.19 0 3.284-1.428 3.284-4.285a8.67 8.67 0 0 0-.285-2.19zm10.854-18.614c0 .524-.19.81-.62.81-.38 0-.523-.286-.523-.81 0-.476.143-.762.524-.762.428 0 .619.286.619.762z" class="fil5" clip-rule="evenodd" fill="#fefefe" image-rendering="optimizeQuality" shape-rendering="geometricPrecision" text-rendering="geometricPrecision"/><path class="fil4" clip-rule="evenodd" fill="#f16136" fill-rule="evenodd" image-rendering="optimizeQuality" shape-rendering="geometricPrecision" text-rendering="geometricPrecision" d="M49.567 35.405H41.76l-3.856-6.76L34 21.932l3.904-6.76L41.76 8.46h15.567l3.903 6.713 3.904 6.76-3.904 6.712-3.903 6.76z"/><path class="fil3" clip-rule="evenodd" fill="#fefefe" fill-rule="evenodd" image-rendering="optimizeQuality" shape-rendering="geometricPrecision" text-rendering="geometricPrecision" d="M62.801 21.932l-6.617-11.52H42.902l-6.617 11.52 6.617 11.473h13.282z"/><path class="fil4" d="M48.9 23.98v6.474h-2.856V14.41h5.142c2.951 0 5.331 1.428 5.331 4.57 0 2.904-1.904 4.998-4.808 4.998h-2.808zm0-2.714h2.19c1.524 0 2.476-.524 2.476-2.142 0-1.666-.952-2.047-2.476-2.047H48.9v4.189z" clip-rule="evenodd" fill="#f16136" fill-opacity=".964" fill-rule="evenodd" image-rendering="optimizeQuality" shape-rendering="geometricPrecision" text-rendering="geometricPrecision"/></svg>