<svg xmlns="http://www.w3.org/2000/svg" width="70" height="70" viewBox="0 0 70.000001 70.000001"><path fill="#222d55" d="M0 0h70v70H0z"/><path class="fil4" d="M96.59 36.901c-.933.22-1.426 1.042-1.426 2.14 0 3.016 4.99 3.838 4.99-.22 0-1.097-.548-1.7-1.425-1.92l4.552-10.695c2.413-5.814 6.527-12.505 1.7-17.496-1.7-1.81-3.784-2.797-5.814-3.071h-2.029c-2.633.329-5.155 1.974-6.8 4.771-1.701 2.962-1.098 6.088.164 9.215l4.607 12.779c.439 1.152 1.426 3.18 1.48 4.497z" clip-rule="evenodd" fill="#f16136" fill-rule="evenodd" image-rendering="optimizeQuality" shape-rendering="geometricPrecision" text-rendering="geometricPrecision"/><path d="M26.235 21.468H61.97v21.803H26.235V32.346c1.11.278 3.888 1.62 5.184 2.269.694.324 1.157.416 1.805.74v-4.86c-1.064-.092-2.5-1.018-3.425-1.481l-3.564-1.528v-6.018zm14.859-2.777h-18.1v2.777h1.158v4.86c-2.824-1.48-3.333-1.156-6.48-1.156-.88 0-1.713 2.036-3.01 3.008-.694-.462-.833-.833-1.342-1.435-.602-.648-.74-.879-1.204-1.573l-6.295 1.157-.185 10.23c-.046 1.296-.278 1.712-.278 3.194H7.95c0 1.759.463 2.592.463 4.444v14.118c-1.388 0-2.036.463-3.286.463v3.008l5.23-.23c.37.092-.277.045.602.184l3.01.046V45.353h1.62v16.433c.6 0 1.249.046 1.85.046l1.436-.185c.046 0 .139-.046.139-.046.324-.093-.232-.093.601-.093 1.158.046 1.898.278 5 .278 0-3.24.277-2.87-1.435-3.194-.834-.139-1.111-.278-2.037-.278 0-2.777-.37-13.98.231-15.738.51-1.482.695-10.23.695-12.082 1.11.093 1.064.463 2.083.695v14.164h17.404c0 5.925.695 3.194-4.721 9.675l-2.407 2.684c-.556.556-2.222 2.315-2.36 2.917 4.026 0 3.378.416 4.813-1.39.37-.462.602-.647 1.019-1.064l1.99-2.222c.74-.925 1.157-1.62 2.13-2.268v6.944h2.082v-6.944l5.972 6.573c.833.695 2.129.37 4.027.37-.232-.833-.556-.786-1.111-1.434l-2.36-2.731c-.464-.602-.88-.88-1.343-1.435-.51-.602-.556-.787-1.157-1.39-4.305-4.211-3.565-3.795-3.565-8.285h19.257V21.468h.694V18.69H45.954v-2.129h-4.86v2.13z" class="fil3" clip-rule="evenodd" fill="#fefefe" fill-rule="evenodd" image-rendering="optimizeQuality" shape-rendering="geometricPrecision" text-rendering="geometricPrecision"/><path d="M7.21 16.793c0 2.083 1.018 3.796 1.99 5.046 4.351 5.508 15.6 1.064 12.545-7.73-.834-2.315-3.703-4.722-6.157-4.722-2.453 0-4.397.185-6.341 2.268-.926 1.019-2.037 3.287-2.037 5.138z" class="fil4" clip-rule="evenodd" fill="#f16136" fill-rule="evenodd" image-rendering="optimizeQuality" shape-rendering="geometricPrecision" text-rendering="geometricPrecision"/></svg>