<svg xmlns="http://www.w3.org/2000/svg" width="70" height="70"><path fill="#222d55" d="M0 0h70v70H0z"/><path d="M54.625 36.008c-.932.22-1.426 1.042-1.426 2.14 0 3.016 4.991 3.839 4.991-.22 0-1.097-.548-1.7-1.426-1.92l4.553-10.695c2.413-5.814 6.526-12.505 1.7-17.496-1.7-1.81-3.785-2.797-5.814-3.071h-2.03c-2.632.329-5.155 1.974-6.8 4.771-1.7 2.962-1.097 6.088.164 9.215l4.607 12.779c.44 1.152 1.426 3.181 1.481 4.497z" class="fil4" clip-rule="evenodd" fill="#f58634" fill-rule="evenodd" image-rendering="optimizeQuality" shape-rendering="geometricPrecision" text-rendering="geometricPrecision"/><path d="M5.263 25.752v20.787c.11 1.152.165.768 1.426.713.988-.11 1.536-.056 2.469-.165.987-.164 1.59-.054 2.523-.11 1.096-.054 1.151-.274 2.413-.274 1.645 0 3.29-.11 4.99-.22 2.743-.218 4.279.055 4.279-.932V30.03c0-.987-4.223-3.017-5.375-3.4-5.43-1.92-8.172-1.262-12.725-.878zM42.23 40.067c1.152 0 1.645.164 1.645-.713V21.913c0-.768-.932-.823-1.755-1.097L30.438 17.03a37.272 37.272 0 00-2.304-.767c-.713-.275-1.81-.494-2.358-.768v10.256c0 4.826-.768 2.687 3.126 7.075 3.95 4.443 6.088 7.24 13.328 7.24zm3.784 11.902v13.82c1.426 0 16.125-3.674 17.88-3.783V48.404c-2.906.658-5.868 1.206-8.885 1.81-3.016.603-6.088 1.096-8.995 1.755zm-20.238 8.117c1.097.11 3.51 1.042 4.552 1.371 1.536.549 2.962 1.042 4.443 1.536l9.104 2.797V51.969c-5.978-1.371-12.175-2.414-18.099-3.785v11.902zM5.263 49.61v12.396c3.566-.11 14.206-1.92 18.1-1.92V48.404l-18.1 1.206z" class="fil3" clip-rule="evenodd" fill="#fefefe" fill-rule="evenodd" image-rendering="optimizeQuality" shape-rendering="geometricPrecision" text-rendering="geometricPrecision"/><path d="M25.776 45.99c1.755 0 16.4 3.565 18.1 3.62v-7.898c-7.02 0-9.983-.329-15.083-6.142-.604-.659-.713-.988-1.426-1.646-1.042-1.042-.713-1.261-1.59-1.48V45.99zM5.263 17.415v6.417c4.279 0 7.898-.987 13.164.933 2.248.822 4.552 2.303 4.936 2.413V15.496c-1.262.054-3.017.384-4.498.493a358.6 358.6 0 01-4.497.494l-9.105.932zm56.054 20.019c0 1.81-.22 2.797-.988 3.84-.713.987-1.48 1.7-2.961 2.029-1.426.329-2.743.22-3.95-.384-1.151-.603-1.754-1.48-2.358-2.633-1.426.33-3.565 1.152-5.046 1.207v8.117c2.03 0 15.851-3.345 17.88-3.345V36.72c-.384.165-2.029.658-2.577.713zm-15.303 2.359c.494-.22 3.895-1.097 4.553-1.152 0-4.881 2.029-1.262-.055-6.143L46.014 22.9v16.893zm17.88-4.772v-8.775c-.713.822-3.62 8.665-3.345 9.104.439.768 2.03-.274 3.345-.329zM53.419 9.682a3.91 3.91 0 00-3.894 3.894 3.91 3.91 0 003.894 3.894 3.874 3.874 0 003.894-3.894c0-2.139-1.7-3.894-3.894-3.894z" class="fil3" clip-rule="evenodd" fill="#fefefe" fill-rule="evenodd" image-rendering="optimizeQuality" shape-rendering="geometricPrecision" text-rendering="geometricPrecision"/></svg>