<svg xmlns="http://www.w3.org/2000/svg" width="70" height="70" viewBox="0 0 70.000001 70.000001"><path fill="#222d55" d="M0 0h70v70H0z"/><path class="fil4" d="M96.59 36.901c-.933.22-1.426 1.042-1.426 2.14 0 3.016 4.99 3.838 4.99-.22 0-1.097-.548-1.7-1.425-1.92l4.552-10.695c2.413-5.814 6.527-12.505 1.7-17.496-1.7-1.81-3.784-2.797-5.814-3.071h-2.029c-2.633.329-5.155 1.974-6.8 4.771-1.701 2.962-1.098 6.088.164 9.215l4.607 12.779c.439 1.152 1.426 3.18 1.48 4.497z" clip-rule="evenodd" fill="#f16136" fill-rule="evenodd" image-rendering="optimizeQuality" shape-rendering="geometricPrecision" text-rendering="geometricPrecision"/><path class="fil3" clip-rule="evenodd" fill="#fefefe" fill-rule="evenodd" image-rendering="optimizeQuality" shape-rendering="geometricPrecision" text-rendering="geometricPrecision" d="M5.104 16.418h59.792v37.164H5.104z"/><path class="fil4" d="M8.712 18.274c.98 0 1.753.824 1.753 1.804 0 .979-.774 1.752-1.753 1.752-1.03 0-1.804-.773-1.804-1.752 0-.98.773-1.804 1.804-1.804zm0 29.896c.98 0 1.753.824 1.753 1.804 0 .98-.774 1.752-1.753 1.752-1.03 0-1.804-.773-1.804-1.752 0-.98.773-1.804 1.804-1.804zm52.679-29.896c.98 0 1.753.824 1.753 1.804 0 .979-.774 1.752-1.753 1.752-.98 0-1.804-.773-1.804-1.752 0-.98.825-1.804 1.804-1.804zm0 29.896c.98 0 1.753.824 1.753 1.804 0 .98-.774 1.752-1.753 1.752-.98 0-1.804-.773-1.804-1.752 0-.98.825-1.804 1.804-1.804z" clip-rule="evenodd" fill="#f16136" fill-rule="evenodd" image-rendering="optimizeQuality" shape-rendering="geometricPrecision" text-rendering="geometricPrecision"/><path d="M50.103 28.943c0 5.722-1.444 10.516-4.279 14.433-2.68 3.763-6.288 6.134-10.824 7.216-4.484-1.082-8.093-3.453-10.824-7.216-2.835-3.917-4.227-8.711-4.227-14.433 0-2.061.464-4.02 1.34-5.927.67-1.495 1.495-2.68 2.423-3.557 2.113 1.289 4.175 1.907 6.237 1.907 2.01 0 3.71-.618 5.051-1.855 1.34 1.237 3.041 1.855 5.103 1.855s4.124-.618 6.185-1.907c.98.876 1.753 2.062 2.475 3.557.876 1.907 1.34 3.866 1.34 5.927z" class="fil10" clip-rule="evenodd" fill="#373435" image-rendering="optimizeQuality" shape-rendering="geometricPrecision" text-rendering="geometricPrecision"/><path d="M49.278 34.923c0 3.865-1.443 7.216-4.227 9.948-2.783 2.783-6.134 4.123-10 4.123-3.917 0-7.267-1.34-10.05-4.02-2.836-2.732-4.227-6.031-4.227-9.948 0-3.866 1.391-7.217 4.226-9.948 2.784-2.68 6.134-4.021 10.052-4.021 3.865 0 7.216 1.34 10 3.969 2.783 2.732 4.226 6.03 4.226 9.897zm-.773-.104c0-3.608-1.34-6.7-4.02-9.33-2.681-2.525-5.825-3.814-9.433-3.814l-1.444 2.99 1.598.31 1.237-1.238 2.165.155.464 1.185-1.34 1.34v.774l.825.154.412-.618 1.443-.928-.051.618.515.98-.618.67.412.36-.98.052.413.824-2.113.98.309 1.185h-.619l-.309-1.185h-1.546l-.258.464-.67-.31-1.03 1.031.824.98v1.082l.876.619 5 .618 1.598 1.083-.155 2.835-3.505 3.453c-.206.206-.412.876-.618 1.856-.207.98-.31 1.7-.258 2.113l-.516.567c-.412-.825-.927-2.062-1.598-3.711a15.74 15.74 0 0 1-.412-2.217c-.103-.721-.154-1.443-.258-2.216l-2.216-1.907 1.959-2.32-.825-1.134c-1.237-.258-2.01-.515-2.423-.721-.36-.207-.979-.722-1.907-1.65l.773 1.495-.515.206-1.186-2.216.258-2.114-.412-1.443-1.134-1.134-.825-.206-.722.515-.824.207c-2.217 2.577-3.3 5.515-3.3 8.814 0 3.711 1.29 6.855 3.97 9.484 2.629 2.526 5.824 3.814 9.536 3.814 3.71 0 6.907-1.288 9.535-3.917 2.63-2.577 3.918-5.773 3.918-9.484z" class="fil6" clip-rule="evenodd" fill="#f16136" image-rendering="optimizeQuality" shape-rendering="geometricPrecision" text-rendering="geometricPrecision"/></svg>