<svg xmlns="http://www.w3.org/2000/svg" width="100" height="100"><path fill="#222d55" d="M0 0h100v100H0z"/><path d="M46.704 79.897c-2.176-.338-4.147-1.662-4.97-3.338-.319-.648-.368-.91-.368-1.953 0-1.042.05-1.304.367-1.952.439-.893 1.648-2.092 2.593-2.57 1.023-.519 2.257-.796 3.538-.795 2.721 0 5.028 1.341 6.028 3.5l.45.971 1.471-.087c3.04-.18 6.497-.789 8.875-1.563.726-.236.992-.423 1.852-1.296 1.092-1.11 2.141-2.604 2.911-4.146.603-1.206 1.407-3.574 1.448-4.261l.03-.509-.751-.039c-.626-.033-.817.013-1.137.274-.583.475-1.65 1.122-2.327 1.411-.71.303-.843.448-1.069 1.164-.644 2.042-2.76 5.316-3.767 5.83-1.147.585-2.556.125-3.068-1-.38-.84-.329-1.514.18-2.32.24-.38.75-1.186 1.135-1.79.716-1.127 1.143-2.125 1.636-3.824.34-1.167.808-1.689 1.776-1.976.377-.112.767-.204.867-.204.27 0 1.146-.472 1.625-.875l.419-.353-.002-2.697c-.001-1.483-.046-2.763-.1-2.843-.054-.081-.28-.19-.5-.245-.22-.054-.597-.247-.836-.429-.771-.587-.869-.942-.984-3.594-.113-2.607-.32-4.025-.855-5.871-.525-1.813-.451-1.74-1.654-1.641-.562.045-1.925.291-3.028.547l-3.478.806c-3.307.77-6.031.955-7.818.534-2.504-.59-4.295-2.222-5.705-5.199-.335-.708-.661-1.254-.725-1.215-.064.04-.244.414-.4.833-.569 1.519-1.633 3.397-2.328 4.105-.899.918-1.867 1.372-3.586 1.682-1.943.35-2.101.399-2.257.69-.28.522-.545 2.517-.612 4.595-.037 1.177-.129 2.338-.202 2.579a2.294 2.294 0 01-3.26 1.365c-.29-.148-.6-.241-.69-.207-.25.096-.478 1.113-.494 2.216-.014.878.035 1.095.386 1.739.84 1.54 2.956 3.22 4.548 3.611 1.216.298 1.714.892 2.141 2.55.553 2.147 1.928 4.4 3.85 6.309.72.715 1.398 1.51 1.505 1.768.811 1.941-1.208 3.832-3.122 2.923-.669-.317-2.768-2.42-3.754-3.762-1.044-1.419-1.68-2.559-2.356-4.22l-.538-1.324-.953-.498c-1.44-.753-2.146-1.279-3.404-2.534-2.274-2.271-3.224-4.653-2.94-7.38.24-2.307.955-4.148 2.13-5.487l.513-.584-.065-3.352c-.042-2.137-.009-3.834.09-4.682 1.115-9.463 6.66-16.013 15.562-18.38 2.397-.638 4.235-.855 7.26-.857 3.572-.002 5.612.3 8.628 1.274 5.289 1.71 9.68 5.541 11.964 10.441 1.35 2.897 1.962 5.582 2.323 10.205l.094 1.204.87.096c2.812.31 4.894 2.018 5.836 4.787.22.65.25 1.173.25 4.48 0 3.576-.014 3.785-.309 4.6-.382 1.06-1.05 2.118-1.805 2.86-.564.556-.582.6-.87 2.2-.796 4.439-2.787 8.413-5.666 11.314-1.018 1.025-1.488 1.395-2.173 1.705-2.337 1.06-7.025 1.949-11.87 2.25l-1.69.105-.618.543c-.732.644-2.183 1.42-3.024 1.618-.904.212-2.257.288-3.023.169zm-9.646-22.989c-2.561-.915-3.804-3.584-2.844-6.109.364-.958 1.348-2.004 2.33-2.477.969-.467 2.549-.53 3.578-.141 1.047.395 2.004 1.288 2.534 2.366 1.114 2.262.092 5.09-2.22 6.148-1.05.48-2.392.565-3.378.213zm18.67.04c-1.324-.425-2.667-1.757-3.045-3.018-.242-.807-.181-2.299.127-3.122.345-.922 1.29-1.935 2.267-2.43 1.038-.524 2.558-.606 3.645-.195 1.071.404 2.097 1.372 2.584 2.439.529 1.159.542 2.623.033 3.734-.755 1.647-2.243 2.662-4.025 2.745-.607.028-1.196-.028-1.586-.154z" fill="#fff"/></svg>