<svg xmlns="http://www.w3.org/2000/svg" width="70" height="70"><path fill="#222d55" d="M0 0h70v70H0z"/><path class="fil4 str2" d="M24.915 6.758H44.99c1.466 0 2.677 1.282 2.677 2.756v22.687c0 1.474-1.211 2.756-2.677 2.756H24.915c-1.466 0-2.677-1.282-2.677-2.756V9.514c0-1.474 1.21-2.756 2.677-2.756z" clip-rule="evenodd" fill="#fefefe" fill-rule="evenodd" stroke="#f16136" stroke-width="1.278" image-rendering="optimizeQuality" shape-rendering="geometricPrecision" text-rendering="geometricPrecision"/><path d="M32.372 46.364c-1.976 0-2.868-.897-3.888-2.115-1.02-1.218-1.402-2.692-3.378-2.692-1.275 0-2.294 1.09-2.294 2.5 0 3.589 4.843 10.83 7.52 13.522.319.32.383.385.701.77.255.384.319.704.893.704h19.247c.574 0 .892-.833 1.211-1.282 1.083-1.922 2.294-3.653 2.294-5.767V41.557c0-2.243-4.397-3.076-6.883-3.845-3.951-1.153-5.417-2.307-8.604-1.538l-1.466-13.522c-.19-4.486-4.079-2.884-4.652-1.538-.319.961-.128 19.162-.128 22.11 0 1.025.446 3.14-.573 3.14z" class="fil4" clip-rule="evenodd" fill="#fefefe" fill-rule="evenodd" image-rendering="optimizeQuality" shape-rendering="geometricPrecision" text-rendering="geometricPrecision"/><path d="M25.106 21.819c0 2.05 1.02 4.358 1.912 5.575 1.53 1.987 2.103 2.18 4.27 3.397 0-5.32-1.338-12.433 4.015-12.561 4.462-.192 3.952 4.678 4.334 7.883.128 1.153.383 2.691.383 4.037.573-.192 1.466-.897 1.975-1.282.638-.512 1.084-1.217 1.53-1.858 3.187-4.486 1.657-11.536-3.442-14.42-1.147-.64-2.485-1.025-3.824-1.153h-2.167c-2.485.256-4.907 1.346-6.5 3.332-.447.577-.574.577-.956 1.282-1.02 1.923-1.53 3.397-1.53 5.768z" class="fil5" clip-rule="evenodd" fill="#f16136" fill-rule="evenodd" image-rendering="optimizeQuality" shape-rendering="geometricPrecision" text-rendering="geometricPrecision"/><path d="M31.543 62.834c0 .833.191 1.859 1.02 1.859H49.07c1.083-.064 1.912-.128 2.294-.193.383-1.538.255-1.986.255-3.78H31.543v2.114z" class="fil4" clip-rule="evenodd" fill="#fefefe" fill-rule="evenodd" image-rendering="optimizeQuality" shape-rendering="geometricPrecision" text-rendering="geometricPrecision"/><path class="fil6" d="M4.01 24.703l3.123-.577c.128 1.41.638 2.435 1.466 3.14.765.705 1.912 1.09 3.378 1.09 1.402 0 2.486-.32 3.25-.962.701-.64 1.02-1.41 1.02-2.243 0-.769-.319-1.41-.956-1.858-.446-.257-1.53-.641-3.25-1.154-2.295-.64-3.888-1.153-4.78-1.602-.893-.513-1.594-1.09-2.04-1.923-.446-.833-.7-1.73-.7-2.691 0-.897.19-1.73.573-2.5a5.67 5.67 0 011.53-1.922c.51-.385 1.21-.705 2.039-1.026.828-.256 1.72-.384 2.74-.384 1.466 0 2.74.192 3.824.705 1.084.449 1.912 1.025 2.486 1.858.51.77.828 1.795 1.083 3.14l-3.123.45a4.217 4.217 0 00-1.21-2.5c-.702-.577-1.594-.833-2.868-.833-1.403 0-2.486.256-3.06.769-.637.512-.956 1.09-.956 1.794 0 .449.128.833.383 1.218.255.384.637.705 1.21.897.32.128 1.275.449 2.805.897 2.23.641 3.76 1.154 4.652 1.602.893.385 1.594.962 2.104 1.795.51.769.764 1.73.764 2.884 0 1.153-.318 2.243-.956 3.268-.573.961-1.465 1.73-2.613 2.307-1.21.577-2.485.833-3.951.833-2.422 0-4.27-.576-5.545-1.666-1.275-1.09-2.103-2.691-2.422-4.806zm47.227 0l3.186-.577c.128 1.41.638 2.435 1.466 3.14.765.705 1.912 1.09 3.314 1.09 1.466 0 2.55-.32 3.25-.962.702-.64 1.084-1.41 1.084-2.243 0-.769-.318-1.41-.956-1.858-.446-.257-1.53-.641-3.25-1.154-2.294-.64-3.888-1.153-4.78-1.602-.892-.513-1.593-1.09-2.04-1.923-.446-.833-.7-1.73-.7-2.691 0-.897.19-1.73.573-2.5a5.67 5.67 0 011.53-1.922c.51-.385 1.147-.705 2.039-1.026.829-.256 1.72-.384 2.74-.384 1.466 0 2.741.192 3.825.705 1.083.449 1.912 1.025 2.421 1.858.574.77.893 1.795 1.084 3.14l-3.06.45a4.217 4.217 0 00-1.21-2.5c-.701-.577-1.657-.833-2.868-.833-1.466 0-2.486.256-3.123.769-.574.512-.892 1.09-.892 1.794 0 .449.127.833.382 1.218.255.384.637.705 1.21.897.32.128 1.212.449 2.805.897 2.23.641 3.76 1.154 4.653 1.602.892.385 1.593.962 2.103 1.795.51.769.765 1.73.765 2.884 0 1.153-.319 2.243-.956 3.268-.574.961-1.466 1.73-2.613 2.307-1.211.577-2.486.833-3.952.833-2.422 0-4.27-.576-5.545-1.666-1.274-1.09-2.103-2.691-2.485-4.806z" clip-rule="evenodd" fill="#fefefe" image-rendering="optimizeQuality" shape-rendering="geometricPrecision" text-rendering="geometricPrecision"/></svg>