<svg xmlns="http://www.w3.org/2000/svg" width="70" height="70" viewBox="0 0 70.000001 70.000001"><path fill="#222d55" d="M0 0h70v70H0z"/><path d="M-37.394 21.819c0 2.05 1.02 4.358 1.912 5.575 1.53 1.987 2.103 2.18 4.27 3.397 0-5.32-1.338-12.433 4.015-12.561 4.462-.192 3.952 4.678 4.334 7.883.128 1.153.383 2.691.383 4.037.573-.192 1.466-.897 1.975-1.282.638-.512 1.084-1.217 1.53-1.858 3.187-4.486 1.657-11.536-3.442-14.42-1.147-.64-2.485-1.025-3.824-1.153h-2.167c-2.485.256-4.907 1.346-6.5 3.332-.447.577-.574.577-.956 1.282-1.02 1.923-1.53 3.397-1.53 5.768z" class="fil5" clip-rule="evenodd" fill="#f16136" fill-rule="evenodd" image-rendering="optimizeQuality" shape-rendering="geometricPrecision" text-rendering="geometricPrecision"/><path d="M13.448 37.118c0-1.766.063-3.28-.883-3.847-.82-.441-5.234-1.64-6.684-.189-.82.694-.946 1.576-.946 2.396v.883c0 1.703 6.116 1.261 7.756 1.261-.82 1.324-2.018 1.514-2.018 3.784 0 3.846-.567 8.26 1.009 10.341.504.63 1.135 1.01 1.766 1.45 0 1.199-.19 4.478.126 5.424.946 3.342 9.143 3.153 9.143-.442v-3.972h17.846c0 5.423-.568 6.747 5.738 6.747 1.198 0 2.964-1.198 3.342-2.207.316-.883.19-3.91.19-5.297 1.954-.505 3.468-2.586 3.468-4.036v-8.008c0-2.27-1.135-2.46-1.955-3.784 2.711 0 4.792-.252 7.252-.252v-2.207h-8.009v1.955c-.63-.442-.694-1.072-.757-1.955H48.32v.693H15.718l1.765-7.251c.568-2.207 2.27-4.225 4.982-4.225h14.567v-1.514H22.465c-2.27 0-4.54 1.135-5.675 2.838-1.766 2.838-2.081 10.53-3.342 11.414z" class="fil4" clip-rule="evenodd" fill="#fefefe" fill-rule="evenodd" image-rendering="optimizeQuality" shape-rendering="geometricPrecision" text-rendering="geometricPrecision"/><path class="fil4" clip-rule="evenodd" fill="#fefefe" fill-rule="evenodd" image-rendering="optimizeQuality" shape-rendering="geometricPrecision" text-rendering="geometricPrecision" d="M14.898 47.838v-3.532h7.756v3.532zm26.169 0v-3.532h7.757v3.532z"/><path class="fil4 str2" clip-rule="evenodd" fill="#fefefe" fill-rule="evenodd" stroke="#f16136" stroke-width="1.261" image-rendering="optimizeQuality" shape-rendering="geometricPrecision" text-rendering="geometricPrecision" d="M49.58 35.163h-7.378l-3.72-6.369-3.658-6.432 3.658-6.369 3.72-6.369h14.756l3.657 6.37 3.72 6.368-3.72 6.432-3.657 6.369z"/><path class="fil4 str2" clip-rule="evenodd" fill="#fefefe" fill-rule="evenodd" stroke="#f16136" stroke-width="1.261" image-rendering="optimizeQuality" shape-rendering="geometricPrecision" text-rendering="geometricPrecision" d="M62.129 22.362l-6.306-10.846H43.274l-6.306 10.846 6.306 10.91h12.549z"/><path class="fil5 str3" d="M48.95 24.317v6.18h-2.712v-15.26h4.856c2.837 0 5.107 1.387 5.107 4.35 0 2.775-1.828 4.73-4.603 4.73H48.95zm0-2.523h2.08c1.45 0 2.334-.504 2.334-2.017 0-1.577-.946-1.955-2.333-1.955H48.95v3.972z" clip-rule="evenodd" fill="#f16136" fill-rule="evenodd" stroke="#f16136" stroke-width=".481" image-rendering="optimizeQuality" shape-rendering="geometricPrecision" text-rendering="geometricPrecision"/></svg>