<svg xmlns="http://www.w3.org/2000/svg" width="70" height="70" viewBox="0 0 70.000001 70.000001"><path fill="#222d55" d="M0 0h70v70H0z"/><path class="fil4" d="M96.59 36.901c-.933.22-1.426 1.042-1.426 2.14 0 3.016 4.99 3.838 4.99-.22 0-1.097-.548-1.7-1.425-1.92l4.552-10.695c2.413-5.814 6.527-12.505 1.7-17.496-1.7-1.81-3.784-2.797-5.814-3.071h-2.029c-2.633.329-5.155 1.974-6.8 4.771-1.701 2.962-1.098 6.088.164 9.215l4.607 12.779c.439 1.152 1.426 3.18 1.48 4.497z" clip-rule="evenodd" fill="#f16136" fill-rule="evenodd" image-rendering="optimizeQuality" shape-rendering="geometricPrecision" text-rendering="geometricPrecision"/><path d="M28.292 23.826v2.128c-1.683.149-5.742-.148-7.87 0-1.089.1-1.88.891-1.93 1.98-.05 1.287 0 2.673 0 3.96h-3.168c-1.188 0-1.683.05-2.327.792-.593.643-.445 1.633-.445 2.673v3.168H8.889c0-1.04.05-5.396 0-5.99-.247-1.633-2.376-2.425-3.613-.94-.545.644-.396 1.633-.396 2.623v18.166c0 .94-.149 2.03.346 2.722 1.188 1.485 3.366.792 3.663-.841.1-.594 0-5.049 0-6.039l3.663-.05v3.465c0 1.287-.148 1.98.643 2.772.743.693 1.832.495 2.97.495 1.04 0 2.426-.05 3.465.049l6.534 8.018c.396.495.792 1.139 1.534 1.386.693.198 4.801.1 5.84.1H45.22c.99 0 5.049.098 5.693-.15 1.83-.593 1.385-2.672 1.385-4.553h1.98c0 1.04-.148 2.772.248 3.564.346.792 1.386 1.386 2.524.99.495-.198 1.188-.842 1.584-1.238.198-.148.347-.297.495-.445l4.554-3.91c.198-.149.346-.297.544-.396a2.58 2.58 0 0 0 .792-1.139c.149-.594.05-9.75.05-11.186 0-.94.099-2.97 0-3.713-.198-.99-1.139-1.534-1.782-2.029L57.94 36.2c-.346-.247-.693-.544-1.237-.643-1.188-.248-2.08.495-2.327 1.386-.247.841.05 2.722-.099 3.712h-1.98c-.247-1.831.545-3.663-.792-4.801-.643-.495-1.484-.396-2.425-.396h-2.82v-4.455c0-1.089.198-3.316-.347-4.108-.742-1.139-1.88-.94-3.465-.94h-4.504l.05-2.129c1.435 0 2.475.198 3.267-.792.692-.89.445-2.277-.396-2.821-.891-.644-2.426-.446-3.614-.446h-8.117c-1.09 0-2.92-.198-3.713.396-.742.594-1.188 1.881-.396 2.871.842 1.04 1.733.643 3.267.792z" class="fil2" clip-rule="evenodd" fill="#fefefe" fill-rule="evenodd" image-rendering="optimizeQuality" shape-rendering="geometricPrecision" text-rendering="geometricPrecision"/><path class="fil2 str1" clip-rule="evenodd" fill="#fefefe" fill-rule="evenodd" stroke="#222d55" stroke-width=".99" image-rendering="optimizeQuality" shape-rendering="geometricPrecision" text-rendering="geometricPrecision" d="M42.25 34.022l-4.058-6.979-4.06-7.028 4.06-6.98 4.058-7.028h16.137l4.058 7.029 4.06 6.979-4.06 7.028-4.058 6.98h-8.068z"/><path class="fil3 str1" clip-rule="evenodd" fill="#f16136" fill-rule="evenodd" stroke="#222d55" stroke-width=".99" image-rendering="optimizeQuality" shape-rendering="geometricPrecision" text-rendering="geometricPrecision" d="M57.199 8.086h-13.76l-6.88 11.929 6.88 11.929h13.76l6.93-11.93z"/><path class="fil2" d="M49.626 22.143v6.781h-2.97v-16.73H52c3.119 0 5.594 1.534 5.594 4.801 0 3.02-2.03 5.148-5.05 5.148h-2.92zm0-2.772h2.326c1.534 0 2.524-.594 2.524-2.227 0-1.733-.99-2.129-2.524-2.129h-2.326v4.356z" clip-rule="evenodd" fill="#fefefe" fill-rule="evenodd" image-rendering="optimizeQuality" shape-rendering="geometricPrecision" text-rendering="geometricPrecision"/></svg>