<svg xmlns="http://www.w3.org/2000/svg" width="70" height="70" viewBox="0 0 70.000001 70.000001"><path fill="#222d55" d="M0 0h70v70H0z"/><path class="fil4" d="M96.59 36.901c-.933.22-1.426 1.042-1.426 2.14 0 3.016 4.99 3.838 4.99-.22 0-1.097-.548-1.7-1.425-1.92l4.552-10.695c2.413-5.814 6.527-12.505 1.7-17.496-1.7-1.81-3.784-2.797-5.814-3.071h-2.029c-2.633.329-5.155 1.974-6.8 4.771-1.701 2.962-1.098 6.088.164 9.215l4.607 12.779c.439 1.152 1.426 3.18 1.48 4.497z" clip-rule="evenodd" fill="#f16136" fill-rule="evenodd" image-rendering="optimizeQuality" shape-rendering="geometricPrecision" text-rendering="geometricPrecision"/><path class="fil5" d="M46.613 53.95c0 3.012-1.118 5.587-3.402 7.725-2.283 2.186-5.004 3.255-8.211 3.255-3.255 0-5.976-1.069-8.26-3.255-2.235-2.138-3.353-4.713-3.353-7.726 0-3.498 1.41-6.316 4.276-8.503V12.31c0-1.992.729-3.741 2.187-5.15 1.457-1.41 3.206-2.09 5.247-2.09 1.992 0 3.741.73 5.15 2.138 1.41 1.41 2.138 3.11 2.138 5.15v33.09c2.819 2.186 4.228 5.004 4.228 8.502zm-5.734-.39c0-1.748-.729-3.206-2.138-4.372V12.164c0-1.07-.34-1.944-1.069-2.673-.728-.729-1.603-1.117-2.623-1.117-1.07 0-1.944.388-2.721 1.069a3.71 3.71 0 0 0-1.118 2.672v37.073c-1.458 1.117-2.186 2.575-2.186 4.373 0 1.555.583 2.915 1.749 3.984 1.166 1.069 2.526 1.652 4.178 1.652 1.652 0 3.013-.583 4.179-1.652 1.166-1.069 1.75-2.43 1.75-3.984z" clip-rule="evenodd" fill="#fefefe" image-rendering="optimizeQuality" shape-rendering="geometricPrecision" text-rendering="geometricPrecision"/><path class="fil6" d="M37.624 28.83v21.572c1.117.875 1.652 1.944 1.652 3.159 0 1.117-.438 2.09-1.264 2.915-.826.777-1.846 1.166-3.06 1.166-1.215 0-2.236-.389-3.062-1.166-.874-.826-1.263-1.798-1.263-2.915 0-1.215.583-2.284 1.7-3.159V28.83h5.297z" clip-rule="evenodd" fill="#f16136" image-rendering="optimizeQuality" shape-rendering="geometricPrecision" text-rendering="geometricPrecision"/></svg>