<svg xmlns="http://www.w3.org/2000/svg" width="70" height="70"><path fill="#222d55" d="M0 0h70v70H0z"/><path d="M-37.394 21.819c0 2.05 1.02 4.358 1.912 5.575 1.53 1.987 2.103 2.18 4.27 3.397 0-5.32-1.338-12.433 4.015-12.561 4.462-.192 3.952 4.678 4.334 7.883.128 1.153.383 2.691.383 4.037.573-.192 1.466-.897 1.975-1.282.638-.512 1.084-1.217 1.53-1.858 3.187-4.486 1.657-11.536-3.442-14.42-1.147-.64-2.485-1.025-3.824-1.153h-2.167c-2.485.256-4.907 1.346-6.5 3.332-.447.577-.574.577-.956 1.282-1.02 1.923-1.53 3.397-1.53 5.768z" class="fil5" clip-rule="evenodd" fill="#f16136" fill-rule="evenodd" image-rendering="optimizeQuality" shape-rendering="geometricPrecision" text-rendering="geometricPrecision"/><g clip-rule="evenodd" fill-rule="evenodd" image-rendering="optimizeQuality" shape-rendering="geometricPrecision" text-rendering="geometricPrecision"><path class="fil4" d="M50.441 34.775c4.028 0 2.164.6 5.772 3.487.901.721 3.487 2.945 3.727 3.967h-9.499v-7.454zm-35.35-4.45c-3.187 0-6.253.963-9.56.963v.48c2.947 0 13.107 1.864 16.053 1.864v.18c-4.209 0-11.904 1.444-16.293 1.444v.42c2.585 0 13.167 2.105 16.293 2.105L5.29 39.404l7.515 1.563c2.766.541 2.285-.42 2.285 5.17h49.78c0-4.569-.3-3.667-5.531-8.898-6.313-6.252-4.209-5.47-11.724-5.47 0-1.744.06-4.209-2.284-4.209H17.435c-1.502 0-2.224 1.383-2.344 2.766zm-.001 21.403c0 3.968 2.285 3.487 5.351 3.487 1.263 0 .12-1.443 2.345-3.667 2.525-2.465 6.493-2.585 9.018-.24.842.841 1.864 2.344 1.864 3.907h13.286c1.984-8.417 12.265-6.372 12.806 0 3.907 0 4.87-.12 5.11-2.344V47.34H15.09v4.388z" fill="#fefefe"/><path class="fil4" d="M27.896 58.281c-4.268 0-3.126-4.629-.48-4.569 3.186.06 2.645 4.57.48 4.57zm-5.59-2.344c0 6.853 9.979 6.793 10.16.18.12-2.585-1.985-5.05-4.57-5.05-1.803 0-2.645-.12-4.268 1.563-.782.782-1.323 1.864-1.323 3.307zm31.622 2.344c-3.787 0-3.427-3.787-1.202-4.449 3.547-1.082 3.727 4.45 1.202 4.45zm-5.591-2.585c0 7.215 9.74 6.914 10.1.601.12-2.585-1.804-5.23-4.509-5.23h-1.142c-2.285 0-4.45 2.345-4.45 4.63z" fill="#fefefe"/></g><path class="fil4" d="M34.69 7.78c10.34 0 18.697 8.358 18.697 18.698S45.03 45.175 34.69 45.175c-10.28 0-18.697-8.356-18.697-18.697 0-10.34 8.416-18.697 18.697-18.697zm0 1.263c9.619 0 17.434 7.816 17.434 17.435 0 9.62-7.815 17.435-17.434 17.435-9.62 0-17.435-7.816-17.435-17.435S25.071 9.043 34.69 9.043z" clip-rule="evenodd" fill="#fefefe" fill-rule="evenodd" image-rendering="optimizeQuality" shape-rendering="geometricPrecision" text-rendering="geometricPrecision"/><path class="fil4" clip-rule="evenodd" fill="#fefefe" fill-rule="evenodd" image-rendering="optimizeQuality" shape-rendering="geometricPrecision" text-rendering="geometricPrecision" d="M33.788 10.246h1.804v4.99h-1.804zm8.236 1.684l1.624.901-2.525 4.389-1.624-.902zm6.313 5.65l.902 1.564-4.389 2.525-.902-1.564zm2.645 7.996v1.804h-5.05v-1.804zm-1.743 8.237l-.902 1.563-4.389-2.525.902-1.563zm-5.591 6.312l-1.624.902-2.525-4.389 1.624-.902zm-8.056 2.585h-1.804v-5.05h1.804zm-8.237-1.683l-1.563-.902 2.525-4.389 1.563.902zm-6.252-5.651l-.962-1.563 4.389-2.525.901 1.563zm-2.645-7.996v-1.804h5.05v1.804zm1.682-8.236l.963-1.564 4.328 2.525-.901 1.564zm5.652-6.313l1.563-.902 2.525 4.389-1.563.902zm8.718 12.745c.54-.12 1.082.241 1.202.782.12.541-.24 1.082-.782 1.202-.54.06-1.022-.24-1.142-.781-.06-.12-.06-.18-.06-.3l-4.69-4.63-4.809-4.81 5.23 4.33 5.05 4.207z"/><path class="fil12" d="M28.257 29.364h3.908v5.892h-3.908zm4.509 0h3.908v5.892h-3.908zm4.449 0h3.908v5.892h-3.908z" clip-rule="evenodd" fill-rule="evenodd" image-rendering="optimizeQuality" shape-rendering="geometricPrecision" text-rendering="geometricPrecision" fill="#f16136"/><path class="fil6" d="M30.241 30.145c.36 0 .601.12.782.421.24.361.36.962.36 1.744 0 .841-.12 1.443-.36 1.743-.18.301-.421.481-.782.481-.3 0-.601-.18-.782-.48-.24-.361-.3-.903-.3-1.744 0-.782.06-1.383.3-1.744.18-.3.481-.42.782-.42zm0 .662c-.06 0-.12.059-.18.12-.06.06-.12.18-.18.301-.06.24-.06.601-.06 1.082 0 .541 0 .842.06 1.082.06.18.12.3.18.361.06.059.12.059.18.059s.18 0 .24-.059.06-.18.12-.36c.06-.181.06-.542.06-1.083 0-.48 0-.842-.06-1.022-.06-.18-.06-.3-.12-.36a.465.465 0 00-.24-.121zm3.908 1.263a.54.54 0 01-.361-.361c-.06-.18-.12-.301-.12-.541 0-.301.06-.542.24-.782.18-.18.481-.3.782-.3.3 0 .601.12.781.3.18.24.24.48.24.782 0 .24-.06.42-.12.54a.54.54 0 01-.36.361c.18.12.36.24.42.421.12.18.181.421.181.661 0 .361-.12.722-.3.962-.18.241-.481.361-.782.361-.36 0-.601-.12-.782-.3-.3-.241-.42-.602-.42-1.023 0-.18.06-.42.18-.6.06-.181.24-.361.42-.482zm.12-.842c0 .18.06.3.12.42.06.06.18.121.3.121a.454.454 0 00.301-.12c.06-.12.12-.241.12-.421 0-.12-.06-.24-.12-.361a.465.465 0 00-.3-.12c-.12 0-.24.058-.3.12-.06.12-.121.24-.121.36zm-.06 1.863c0 .24.06.421.18.541.06.121.18.18.3.18.181 0 .241-.058.362-.18a1.133 1.133 0 000-1.022c-.12-.12-.241-.18-.361-.18-.18 0-.3.06-.36.24a.864.864 0 00-.121.421zm4.99-3.006c.3 0 .601.18.781.421.18.36.3.962.3 1.804 0 .781-.12 1.383-.3 1.743-.18.301-.48.421-.781.421-.361 0-.601-.12-.842-.48-.18-.301-.3-.903-.3-1.684 0-.842.12-1.443.36-1.804.18-.3.421-.42.782-.42zm0 .662c-.12 0-.18.059-.24.12-.06.06-.121.18-.121.361-.06.18-.06.541-.06 1.082 0 .481 0 .842.06 1.022 0 .18.06.3.12.36s.12.121.24.121c.06 0 .121-.059.181-.12.06-.06.12-.18.18-.3 0-.241.06-.602.06-1.083 0-.541-.06-.902-.06-1.082-.06-.18-.12-.3-.18-.36s-.12-.121-.18-.121z" clip-rule="evenodd" fill="#fefefe" image-rendering="optimizeQuality" shape-rendering="geometricPrecision" text-rendering="geometricPrecision"/></svg>