<svg xmlns="http://www.w3.org/2000/svg" width="70" height="70"><path fill="#222d55" d="M0 0h70v70H0z"/><path class="fil4" d="M96.59 36.901c-.933.22-1.426 1.042-1.426 2.14 0 3.016 4.99 3.838 4.99-.22 0-1.097-.548-1.7-1.425-1.92l4.552-10.695c2.413-5.814 6.527-12.505 1.7-17.496-1.7-1.81-3.784-2.797-5.814-3.071h-2.029c-2.633.329-5.155 1.974-6.8 4.771-1.701 2.962-1.098 6.088.164 9.215l4.607 12.779c.439 1.152 1.426 3.18 1.48 4.497z" clip-rule="evenodd" fill="#f16136" fill-rule="evenodd" image-rendering="optimizeQuality" shape-rendering="geometricPrecision" text-rendering="geometricPrecision"/><path class="fil3" d="M35 5.023c16.584 0 29.977 13.393 29.977 29.977S51.584 64.977 35 64.977 5.023 51.584 5.023 35 18.416 5.023 35 5.023z" clip-rule="evenodd" fill="#fefefe" fill-rule="evenodd" image-rendering="optimizeQuality" shape-rendering="geometricPrecision" text-rendering="geometricPrecision"/><path class="fil6" d="M59.62 30.954c0 4.9-1.539 9.403-4.502 13.563 1.481-3.077 2.165-6.554 2.165-10.486 0-3.59-.57-6.953-1.766-10.03-1.425-3.762-3.477-6.383-6.212-7.75 3.305 1.025 5.87 2.906 7.693 5.527 1.71 2.565 2.622 5.642 2.622 9.176zm-4.56.798c0 3.932-1.196 7.522-3.533 10.828 1.14-2.45 1.71-5.243 1.71-8.32 0-2.907-.456-5.586-1.425-8.037-1.14-3.02-2.792-5.129-4.958-6.212 2.622.798 4.673 2.28 6.098 4.446 1.425 2.051 2.109 4.445 2.109 7.295zm-4.046.854c0 3.135-.968 6.041-2.906 8.663.969-1.995 1.425-4.217 1.425-6.668 0-2.336-.4-4.445-1.14-6.44-.912-2.393-2.223-4.046-3.99-4.958 2.11.684 3.705 1.824 4.902 3.533 1.14 1.653 1.71 3.59 1.71 5.87zm-4.559 4.788c0 1.823-.114 3.42-.513 4.844-.513 2.165-1.368 3.248-2.564 3.248-.342 0-1.026-.342-2.052-1.026-1.31-.911-3.761-1.595-7.409-2.165-3.02-.513-5.642-.741-7.922-.741-.626 0-.911.513-.911 1.482 0 .342.114.855.342 1.481.285.627.399 1.14.399 1.482 0 .4.227.798.683 1.254.4.456.627.798.627 1.026 0 .114 0 .17-.057.342-.057.114-.057.228-.057.285 0 .228.171.57.57.969.4.455.57.797.57 1.14 0 .114-.057.341-.17.57-.115.227-.172.398-.172.512 0 .228.057.456.285.684.171.285.285.456.285.57 0 .285-.399.456-1.197.456-1.766 0-2.963-.57-3.704-1.539-.399-.627-.855-1.994-1.254-3.99-.74-3.704-2.108-5.584-3.932-5.584h-.285c-.171.056-.285.056-.342.056-2.109 0-3.135-1.938-3.135-5.813 0-2.223 1.083-3.819 3.249-4.787 1.083-.4 2.792-1.083 5.015-1.938 2.337-.969 4.901-2.508 7.75-4.56 2.565-1.937 4.446-3.533 5.529-4.9.399-2.28 1.31-3.42 2.678-3.42 1.596 0 3.192 1.824 4.674 5.357 1.026 2.45 1.823 4.958 2.336 7.637a37.56 37.56 0 01.684 7.067zm-30.49 5.129c-1.824-.114-3.077-.342-3.818-.741-1.14-.57-1.767-1.596-1.767-3.135 0-1.538.513-2.621 1.425-3.362.057-.056 1.14-.627 3.305-1.767-.74.855-1.14 2.223-1.14 4.047 0 2.165.627 3.818 1.995 4.958zM40.13 35.74c0-1.767-.285-3.363-.912-4.901-.627-1.71-1.538-2.964-2.678-3.648.627 5.87 1.595 10.259 2.906 13.222.456-1.425.684-3.02.684-4.673zm0 7.238c-1.482-2.223-2.621-5.016-3.476-8.378-.798-3.134-1.197-6.155-1.197-9.062l.285-2.849c-1.083 1.425-2.622 2.793-4.56 4.046-1.71 1.026-3.476 2.11-5.186 3.135-2.051 1.31-3.077 2.792-3.077 4.445 0 1.482.228 2.793.798 3.818.627 1.368 1.596 2.11 2.906 2.337.057 0 1.026.056 2.736.114 4.103.171 7.694.97 10.771 2.394zM14.084 41.44c-.626-1.824-.968-3.249-.968-4.274 0-.684.114-1.311.285-1.767l-.57.114c-.228.798-.285 1.596-.285 2.45 0 .685.285 1.881.855 3.477h.683zm-1.367-.17c-.57-1.426-.855-2.452-.855-3.022 0-.627.057-1.367.17-2.28l-.683.457a10.975 10.975 0 00-.171 1.88c0 .741.285 1.653.912 2.736l.627.228z" clip-rule="evenodd" fill="#f16136" image-rendering="optimizeQuality" shape-rendering="geometricPrecision" text-rendering="geometricPrecision"/></svg>