<?xml version="1.0" encoding="UTF-8" standalone="no"?>
<!-- Created with Inkscape (http://www.inkscape.org/) -->

<svg
   xmlns:dc="http://purl.org/dc/elements/1.1/"
   xmlns:cc="http://creativecommons.org/ns#"
   xmlns:rdf="http://www.w3.org/1999/02/22-rdf-syntax-ns#"
   xmlns:svg="http://www.w3.org/2000/svg"
   xmlns="http://www.w3.org/2000/svg"
   xmlns:sodipodi="http://sodipodi.sourceforge.net/DTD/sodipodi-0.dtd"
   xmlns:inkscape="http://www.inkscape.org/namespaces/inkscape"
   width="176.89471mm"
   height="176.89471mm"
   viewBox="0 0 626.79229 626.79229"
   id="svg2"
   version="1.1"
   inkscape:version="0.91 r13725"
   sodipodi:docname="12-anios.svg">
  <defs
     id="defs4" />
  <sodipodi:namedview
     id="base"
     pagecolor="#ffffff"
     bordercolor="#666666"
     borderopacity="1.0"
     inkscape:pageopacity="0.0"
     inkscape:pageshadow="2"
     inkscape:zoom="0.7"
     inkscape:cx="324.22747"
     inkscape:cy="328.10823"
     inkscape:document-units="px"
     inkscape:current-layer="layer1"
     showgrid="false"
     fit-margin-top="0"
     fit-margin-left="0"
     fit-margin-right="0"
     fit-margin-bottom="0"
     inkscape:window-width="1280"
     inkscape:window-height="1001"
     inkscape:window-x="-8"
     inkscape:window-y="-8"
     inkscape:window-maximized="1" />
  <metadata
     id="metadata7">
    <rdf:RDF>
      <cc:Work
         rdf:about="">
        <dc:format>image/svg+xml</dc:format>
        <dc:type
           rdf:resource="http://purl.org/dc/dcmitype/StillImage" />
        <dc:title></dc:title>
      </cc:Work>
    </rdf:RDF>
  </metadata>
  <g
     inkscape:label="Capa 1"
     inkscape:groupmode="layer"
     id="layer1"
     transform="translate(-58.651094,-212.78494)">
    <circle
       style="opacity:1;fill:#2e3c6e;fill-opacity:1;stroke:#ffffff;stroke-width:1.07799995;stroke-linecap:round;stroke-linejoin:miter;stroke-miterlimit:4;stroke-dasharray:none;stroke-opacity:1"
       id="path4171"
       cx="372.04724"
       cy="526.18109"
       r="312.85715" />
    <g
       style="font-style:normal;font-weight:normal;font-size:571.54528809px;line-height:125%;font-family:sans-serif;letter-spacing:-54.83010101px;word-spacing:0px;fill:#ffffff;fill-opacity:1;stroke:#2e3c6e;stroke-width:7.0999999;stroke-linecap:butt;stroke-linejoin:miter;stroke-miterlimit:4;stroke-dasharray:none;stroke-opacity:1"
       id="text4147"
       transform="translate(0.28933173,0)">
      <path
         d="m 155.41135,638.57001 q 3.90705,-42.97753 6.41872,-97.6762 l 5.30242,-111.62994 q 2.79075,-56.93127 3.62798,-97.95527 -12.55837,7.8141 -19.25617,12.27929 -6.41872,4.18613 -32.37268,22.04692 1.39537,-17.58172 2.2326,-39.34956 1.1163,-21.76784 1.1163,-33.48898 9.76762,-5.5815 25.39581,-15.07004 15.62819,-9.48855 19.53524,-12.00022 3.90704,-2.79075 10.60484,-8.09317 16.46542,0.55815 39.9077,0.55815 22.88414,0 43.25661,-0.55815 l -3.06983,37.95418 q -1.1163,13.11652 -2.51167,37.6751 l -11.163,221.86451 -0.83722,33.2099 q -0.27907,10.32577 -0.27907,20.93062 l 0.27907,29.30286 q -18.97709,-0.55815 -41.30308,-0.55815 -25.95396,0 -46.88457,0.55815 z"
         style="font-style:normal;font-variant:normal;font-weight:normal;font-stretch:normal;font-family:'Eras Demi ITC';-inkscape-font-specification:'Eras Demi ITC';letter-spacing:-54.83010101px;fill:#ffffff;stroke:#2e3c6e;stroke-width:7.0999999;stroke-miterlimit:4;stroke-dasharray:none;stroke-opacity:1"
         id="path4234"
         inkscape:connector-curvature="0" />
      <path
         d="m 334.44595,638.57001 q 0.83723,-10.60485 0.83723,-17.02357 l 1.67445,-40.74493 q 34.88435,-31.25638 63.62906,-60.28016 29.02379,-29.30286 59.16387,-62.51277 30.14008,-33.48898 45.4892,-53.86144 12.55837,-16.46542 16.74449,-24.55859 4.18612,-8.37225 5.5815,-13.95374 1.39537,-5.86058 1.39537,-11.72115 0,-15.34911 -9.20947,-24.83766 -9.20947,-9.76762 -25.39581,-15.07004 -15.90727,-5.5815 -37.11695,-5.5815 -19.53524,0 -42.41938,3.62798 -22.88414,3.34889 -58.88479,12.55836 l 5.30242,-28.18656 q 1.67445,-10.04669 5.02335,-33.76805 64.46629,-11.72115 123.90923,-11.72115 27.07026,0 52.18699,5.30243 25.11674,5.02334 44.65198,17.58171 19.81431,12.27929 28.74471,28.74471 9.20947,16.18634 9.20947,34.04713 0,10.60485 -2.2326,21.20969 -1.95352,10.32577 -5.86057,18.97709 -7.53502,17.30264 -19.25617,34.88436 -11.44206,17.58171 -36.27973,46.88457 -24.55858,29.30286 -53.86144,60.00109 -29.02379,30.69824 -64.74537,64.46629 l 25.39581,0 62.2337,-0.27907 q 30.9773,0 45.4892,-0.55815 14.51189,-0.83723 34.88435,-2.79075 -0.55815,8.65132 -1.95352,22.60506 -1.1163,13.67467 -2.79075,36.55881 -63.34999,-0.55815 -131.72333,-0.55815 -83.72245,0 -139.8165,0.55815 z"
         style="font-style:normal;font-variant:normal;font-weight:normal;font-stretch:normal;font-family:'Eras Demi ITC';-inkscape-font-specification:'Eras Demi ITC';letter-spacing:-54.83010101px;fill:#ffffff;stroke:#2e3c6e;stroke-width:7.0999999;stroke-miterlimit:4;stroke-dasharray:none;stroke-opacity:1"
         id="path4236"
         inkscape:connector-curvature="0" />
    </g>
    <g
       style="font-style:normal;font-weight:normal;font-size:96.31673431px;line-height:68.00000072%;font-family:sans-serif;text-align:center;letter-spacing:0px;word-spacing:0px;text-anchor:middle;fill:#e85026;fill-opacity:1;stroke:#2e3c6e;stroke-width:2.571;stroke-linecap:butt;stroke-linejoin:miter;stroke-opacity:1;stroke-miterlimit:4;stroke-dasharray:none"
       id="text4147-6">
      <path
         d="m 185.48658,719.55219 q 4.89108,-8.65346 11.47523,-21.3985 l 12.3688,-23.74997 q 5.78465,-11.00494 9.59405,-19.04701 6.11386,0.094 8.65346,0.094 4.46781,0 8.74751,-0.094 l 6.72524,19.23512 14.62623,39.78709 2.02227,5.17327 -7.05445,-0.0941 q -2.44554,0 -8.23019,0.0941 -1.12871,-4.18564 -3.57425,-11.28712 -2.39851,-7.10148 -4.09158,-11.52227 l -24.7376,0 q -5.50247,11.19306 -10.72276,22.80939 l -7.66583,-0.0941 q -2.16337,0 -8.13613,0.0941 z m 30.71036,-32.59156 18.01236,0 -7.38366,-21.7277 -3.8094,7.90099 -6.8193,13.82671 z"
         style="font-style:normal;font-variant:normal;font-weight:normal;font-stretch:normal;line-height:68.00000072%;font-family:'Eras Demi ITC';-inkscape-font-specification:'Eras Demi ITC';text-align:center;text-anchor:middle;fill:#e85026;fill-opacity:1;stroke:#2e3c6e;stroke-width:2.571;stroke-opacity:1;stroke-miterlimit:4;stroke-dasharray:none"
         id="path4239" />
      <path
         d="m 265.43699,719.55219 q 1.08168,-10.67574 1.78712,-23.98513 0.75248,-13.30939 0.84654,-23.84403 4.32673,0.0941 6.91336,0.0941 3.05692,0 6.49009,-0.0941 l -0.51733,7.99504 q 1.45792,-2.06931 2.5396,-3.29208 1.12872,-1.22277 2.82178,-2.39851 1.7401,-1.17574 3.66832,-1.88119 1.97524,-0.70544 4.37375,-1.12871 2.44555,-0.42327 5.07921,-0.42327 4.18564,0 7.99504,1.08169 3.85643,1.03465 6.20791,3.3391 2.35149,2.30445 3.10396,5.03217 0.75247,2.72772 0.75247,5.78465 0,1.2698 -0.14108,4.04455 l -0.98763,20.55196 q -0.18812,4.2797 -0.23515,9.12376 -3.71534,-0.0941 -6.349,-0.0941 -3.57425,0 -7.19554,0.0941 0.37624,-4.09158 0.9406,-14.24999 0.56435,-10.20544 0.56435,-13.49751 0,-3.71534 -1.17574,-5.97277 -1.17574,-2.25742 -3.66831,-3.43316 -2.44554,-1.17574 -5.31435,-1.17574 -2.82178,0 -5.26732,1.08168 -2.44555,1.08168 -4.23267,3.15098 -1.88119,2.11634 -2.91584,5.2203 -1.08168,3.29207 -1.59901,10.86385 -0.4703,6.72524 -0.75247,18.01236 -3.62129,-0.0941 -6.53713,-0.0941 -2.96286,0 -7.19553,0.0941 z m 14.95543,-55.07173 q 0.047,-3.66831 0.7995,-6.11386 0.7995,-2.44554 2.21039,-3.43316 1.41089,-1.03465 3.19802,-1.03465 0.61139,0 1.2698,0.14109 0.65842,0.094 1.31683,0.37623 0.65842,0.23515 1.12871,0.51733 0.51733,0.28218 1.92822,1.17574 l 2.44554,1.55198 q 0.84654,0.51732 1.59901,0.89356 0.75247,0.37624 1.55198,0.37624 0.61138,0 1.08168,-0.23515 0.51733,-0.23515 0.84653,-0.75247 0.32921,-0.56436 0.42327,-1.22277 0.14109,-0.65842 0.28218,-1.92822 1.97524,0.0941 2.96287,0.0941 0.98762,0 3.05693,-0.0941 0,3.19802 -0.65842,5.40841 -0.61139,2.21039 -2.02228,3.71534 -1.41088,1.45792 -3.8094,1.45792 -0.89356,0 -1.78712,-0.23515 -0.84654,-0.23514 -1.78713,-0.75247 -0.94059,-0.51733 -3.29208,-2.02228 -2.35148,-1.50494 -3.10395,-1.83415 -0.75248,-0.32921 -1.45792,-0.32921 -0.79951,0 -1.41089,0.51733 -0.56436,0.51732 -0.75248,1.2698 -0.14109,0.75247 -0.23515,2.49257 -1.83415,-0.0941 -2.96286,-0.0941 -1.12872,0 -2.82178,0.0941 z"
         style="font-style:normal;font-variant:normal;font-weight:normal;font-stretch:normal;line-height:68.00000072%;font-family:'Eras Demi ITC';-inkscape-font-specification:'Eras Demi ITC';text-align:center;text-anchor:middle;fill:#e85026;fill-opacity:1;stroke:#2e3c6e;stroke-width:2.571;stroke-opacity:1;stroke-miterlimit:4;stroke-dasharray:none"
         id="path4241" />
      <path
         d="m 353.19433,670.59431 q 5.40841,0 10.34652,1.64604 4.98514,1.59901 8.41831,4.79703 3.48019,3.15098 5.22029,7.75989 1.7401,4.56188 1.7401,9.64108 0,5.36138 -1.83416,10.34652 -1.83416,4.98515 -5.31435,8.65346 -3.48019,3.62128 -8.70049,5.45544 -5.17326,1.78713 -11.05196,1.78713 -5.45544,0 -10.39356,-1.59901 -4.89108,-1.64604 -8.37128,-4.89109 -3.48019,-3.24504 -5.31435,-7.90098 -1.78713,-4.65593 -1.78713,-9.73514 0,-5.17326 1.64604,-9.87622 1.64604,-4.70297 5.12624,-8.37128 3.52722,-3.66832 8.98266,-5.69059 5.45544,-2.02228 11.28712,-2.02228 z m 0,9.68811 q -4.09158,0 -7.33663,2.02228 -3.19802,1.97524 -4.79702,5.92573 -1.55198,3.9505 -1.55198,8.60643 0,4.09158 1.2698,7.2896 1.31683,3.19801 4.23267,5.17326 2.96286,1.97525 7.00742,1.97525 4.1386,0 7.24256,-2.02228 3.15099,-2.0693 4.70297,-6.0198 1.59901,-3.99752 1.59901,-8.79454 0,-3.90346 -1.22278,-7.10148 -1.22277,-3.19802 -4.1386,-5.12623 -2.86881,-1.92822 -7.00742,-1.92822 z"
         style="font-style:normal;font-variant:normal;font-weight:normal;font-stretch:normal;line-height:68.00000072%;font-family:'Eras Demi ITC';-inkscape-font-specification:'Eras Demi ITC';text-align:center;text-anchor:middle;fill:#e85026;fill-opacity:1;stroke:#2e3c6e;stroke-width:2.571;stroke-opacity:1;stroke-miterlimit:4;stroke-dasharray:none"
         id="path4243" />
      <path
         d="m 385.64478,718.65862 -1.03465,-10.34652 q 4.60891,1.88118 7.80693,2.63366 3.19801,0.70544 5.8787,0.70544 2.68069,0 4.51485,-0.61138 1.83416,-0.65842 2.72772,-1.88119 0.89356,-1.2698 0.89356,-2.63366 0,-0.61139 -0.14109,-1.12871 -0.0941,-0.51733 -0.42326,-1.08168 -0.28218,-0.56436 -0.70545,-1.03466 -0.37624,-0.51732 -1.08168,-1.12871 -0.70545,-0.65841 -2.02228,-1.64604 l -2.5396,-2.02227 q -3.66831,-2.86881 -5.59653,-4.51485 -1.92821,-1.64604 -3.24504,-3.3391 -1.31683,-1.7401 -2.02228,-3.62129 -0.65841,-1.92821 -0.65841,-3.90346 0,-3.43316 2.0693,-6.53712 2.11634,-3.10396 6.11386,-4.51485 3.99752,-1.45792 9.40593,-1.45792 6.16088,0 14.20295,1.45792 l 0.61139,9.8292 q -5.45544,-2.21039 -10.48761,-2.21039 -2.72772,0 -4.79703,0.56435 -2.02227,0.51733 -2.91584,1.64604 -0.89356,1.08168 -0.89356,2.44554 0,0.79951 0.28218,1.59901 0.28218,0.75248 0.98762,1.59901 0.70545,0.84653 1.59901,1.59901 0.94059,0.75247 3.85643,2.96287 2.91584,2.21039 5.0792,3.99752 2.2104,1.78712 3.62129,3.62128 1.41089,1.78713 2.16336,3.85643 0.75248,2.06931 0.75248,4.18564 0,3.52723 -2.16337,6.53712 -2.16336,3.0099 -6.53712,4.70297 -4.37376,1.69307 -9.78217,1.69307 -2.82178,0 -6.86633,-0.4703 -4.04455,-0.42327 -8.65346,-1.55198 z"
         style="font-style:normal;font-variant:normal;font-weight:normal;font-stretch:normal;line-height:68.00000072%;font-family:'Eras Demi ITC';-inkscape-font-specification:'Eras Demi ITC';text-align:center;text-anchor:middle;fill:#e85026;fill-opacity:1;stroke:#2e3c6e;stroke-width:2.571;stroke-opacity:1;stroke-miterlimit:4;stroke-dasharray:none"
         id="path4245" />
      <path
         d="m 501.94913,719.55219 q -3.90346,-0.0941 -6.06682,-0.0941 -2.35149,0 -6.4901,0.0941 l 0.42327,-8.18316 q -2.0693,2.68069 -3.57425,4.1386 -1.45792,1.45792 -3.66832,2.72772 -2.16336,1.22278 -4.70296,1.83416 -2.5396,0.61139 -5.26732,0.61139 -4.51485,0 -8.46534,-1.64604 -3.95049,-1.64604 -6.72524,-4.60891 -2.77475,-3.0099 -4.09158,-7.10148 -1.31683,-4.13861 -1.31683,-8.60642 0,-6.16089 2.35148,-11.99256 2.35148,-5.87871 6.44306,-9.49999 4.09158,-3.62129 9.26485,-5.12624 5.17326,-1.50495 11.099,-1.50495 4.27969,0 9.6881,0.79951 0.32921,-6.11386 0.32921,-12.8391 l 0,-3.19801 q 4.42079,0.094 6.77227,0.094 3.05693,0 6.86633,-0.094 -1.03465,11.94553 -1.97524,32.54452 -0.89357,20.55196 -0.89357,31.65096 z m -11.61632,-39.22274 q -3.52723,-0.94059 -6.77227,-0.94059 -3.71535,0 -7.10148,1.03465 -3.38614,1.03465 -6.0198,3.52723 -2.58663,2.49257 -3.99752,6.39603 -1.41089,3.90346 -1.41089,7.52474 0,3.62129 1.2698,6.63119 1.31683,3.00989 4.04455,4.74999 2.72772,1.7401 6.16089,1.7401 2.58663,0 4.70296,-0.89357 2.11634,-0.94059 3.85644,-2.82178 1.74009,-1.92821 2.91584,-4.93811 1.22277,-3.0099 1.74009,-7.99504 0.32921,-3.66831 0.61139,-14.01484 z"
         style="font-style:normal;font-variant:normal;font-weight:normal;font-stretch:normal;line-height:68.00000072%;font-family:'Eras Demi ITC';-inkscape-font-specification:'Eras Demi ITC';text-align:center;text-anchor:middle;fill:#e85026;fill-opacity:1;stroke:#2e3c6e;stroke-width:2.571;stroke-opacity:1;stroke-miterlimit:4;stroke-dasharray:none"
         id="path4247" />
      <path
         d="m 556.22133,708.87645 q -0.61138,2.77475 -1.74009,9.97029 -5.07921,1.08168 -8.5594,1.45792 -3.4802,0.37624 -7.00742,0.37624 -6.16088,0 -11.05197,-1.22277 -4.84405,-1.22278 -8.51237,-4.46782 -3.66831,-3.29208 -5.40841,-8.04207 -1.74009,-4.75 -1.74009,-9.97029 0,-5.78465 2.02227,-11.19306 2.02228,-5.45544 5.64356,-8.8886 3.66831,-3.4802 8.32425,-4.89109 4.65593,-1.45792 9.73514,-1.45792 4.79702,0 9.12375,1.22278 4.32673,1.17574 7.24257,3.90346 2.96287,2.72772 4.51484,6.58415 1.59901,3.8094 1.59901,8.51237 0,2.21039 -0.47029,4.56187 l -34.47274,0.047 q -0.0941,1.7401 -0.0941,2.77475 0,3.15099 1.08168,5.78465 1.08168,2.63366 3.15099,4.46782 2.0693,1.83415 4.93811,2.72772 2.86881,0.84653 5.64356,0.84653 3.24505,0 7.00742,-0.70544 3.8094,-0.70545 9.02969,-2.39852 z m -30.38115,-18.99998 22.00987,0.047 q 0,-2.25742 -0.14108,-3.3391 -0.14109,-1.08169 -0.65842,-2.44555 -0.4703,-1.41089 -1.31683,-2.44554 -0.84653,-1.08168 -1.97525,-1.78712 -1.12871,-0.70545 -2.63366,-1.08169 -1.45792,-0.37623 -3.15098,-0.37623 -1.97525,0 -3.85643,0.61138 -1.83416,0.61139 -3.38614,1.78713 -1.55198,1.17574 -2.5396,2.63366 -0.94059,1.45792 -1.41089,2.82178 -0.4703,1.31683 -0.94059,3.57425 z"
         style="font-style:normal;font-variant:normal;font-weight:normal;font-stretch:normal;line-height:68.00000072%;font-family:'Eras Demi ITC';-inkscape-font-specification:'Eras Demi ITC';text-align:center;text-anchor:middle;fill:#e85026;fill-opacity:1;stroke:#2e3c6e;stroke-width:2.571;stroke-opacity:1;stroke-miterlimit:4;stroke-dasharray:none"
         id="path4249" />
      <path
         d="m 159.197,774.37183 q -0.61139,2.77475 -1.7401,9.97029 -5.0792,1.08168 -8.5594,1.45792 -3.48019,0.37624 -7.00742,0.37624 -6.16088,0 -11.05196,-1.22277 -4.84406,-1.22278 -8.51237,-4.46782 -3.66832,-3.29208 -5.40841,-8.04207 -1.7401,-4.75 -1.7401,-9.97029 0,-5.78465 2.02228,-11.19306 2.02227,-5.45544 5.64355,-8.8886 3.66832,-3.4802 8.32425,-4.89109 4.65594,-1.45792 9.73514,-1.45792 4.79703,0 9.12375,1.22278 4.32673,1.17574 7.24257,3.90346 2.96287,2.72772 4.51485,6.58415 1.59901,3.8094 1.59901,8.51237 0,2.21039 -0.4703,4.56187 l -34.47274,0.047 q -0.0941,1.7401 -0.0941,2.77475 0,3.15099 1.08169,5.78465 1.08168,2.63366 3.15098,4.46782 2.06931,1.83415 4.93812,2.72772 2.86881,0.84653 5.64356,0.84653 3.24504,0 7.00741,-0.70544 3.80941,-0.70545 9.0297,-2.39852 z m -30.38116,-18.99998 22.00988,0.047 q 0,-2.25742 -0.14109,-3.3391 -0.14109,-1.08169 -0.65842,-2.44555 -0.47029,-1.41089 -1.31683,-2.44554 -0.84653,-1.08168 -1.97524,-1.78712 -1.12871,-0.70545 -2.63366,-1.08169 -1.45792,-0.37623 -3.15099,-0.37623 -1.97524,0 -3.85643,0.61138 -1.83416,0.61139 -3.38614,1.78713 -1.55197,1.17574 -2.5396,2.63366 -0.94059,1.45792 -1.41089,2.82178 -0.47029,1.31683 -0.94059,3.57425 z"
         style="font-style:normal;font-variant:normal;font-weight:normal;font-stretch:normal;line-height:68.00000072%;font-family:'Eras Demi ITC';-inkscape-font-specification:'Eras Demi ITC';text-align:center;text-anchor:middle;fill:#e85026;fill-opacity:1;stroke:#2e3c6e;stroke-width:2.571;stroke-opacity:1;stroke-miterlimit:4;stroke-dasharray:none"
         id="path4251" />
      <path
         d="m 164.69947,785.04757 q 9.26484,-12.22772 18.81186,-25.44305 l -3.95049,-6.349 q -1.92822,-3.10396 -5.12623,-7.94801 l -5.31436,-8.0891 q 5.17327,0.0941 8.27722,0.0941 4.09158,0 7.2896,-0.0941 2.11633,4.18563 4.84405,9.17078 l 3.43317,6.49009 10.34652,-15.66087 q 3.33911,0.0941 7.14851,0.0941 3.57426,0 7.38366,-0.0941 l -7.33663,9.64107 q -2.49257,3.33911 -9.31187,12.60395 l 6.86633,11.14603 9.26484,14.43811 q -4.04455,-0.0941 -7.47771,-0.0941 -4.13861,0 -8.04208,0.0941 -2.8688,-5.83168 -5.73761,-10.72277 -2.82178,-4.89108 -4.18564,-7.6188 -1.92822,3.05693 -5.17326,7.75989 -3.19802,4.70297 -6.91336,10.58168 -3.9505,-0.0941 -7.14851,-0.0941 -3.57426,0 -7.94801,0.0941 z"
         style="font-style:normal;font-variant:normal;font-weight:normal;font-stretch:normal;line-height:68.00000072%;font-family:'Eras Demi ITC';-inkscape-font-specification:'Eras Demi ITC';text-align:center;text-anchor:middle;fill:#e85026;fill-opacity:1;stroke:#2e3c6e;stroke-width:2.571;stroke-opacity:1;stroke-miterlimit:4;stroke-dasharray:none"
         id="path4253" />
      <path
         d="m 222.92218,806.63418 q 1.17574,-13.12128 2.11633,-34.00244 0.9406,-20.88117 0.9406,-33.90839 8.93563,-1.599 13.82672,-2.11633 4.89108,-0.51733 9.73514,-0.51733 6.349,0 11.61632,1.50495 5.31435,1.50495 8.46534,5.03218 3.19801,3.52722 4.70296,8.18316 1.55198,4.65593 1.55198,9.73513 0,5.12624 -1.45792,9.87623 -1.45792,4.75 -4.46781,8.5594 -3.0099,3.76237 -7.00742,5.50247 -3.95049,1.69307 -8.65346,1.69307 -2.77475,0 -5.50247,-0.65842 -2.68069,-0.65841 -4.74999,-1.7401 -2.02228,-1.08168 -3.33911,-2.16336 -1.31683,-1.12871 -3.33911,-3.33911 l -0.70544,20.4579 -0.047,3.19802 q -0.047,0.61139 -0.047,4.70297 -4.32673,-0.047 -6.67821,-0.047 l -6.96039,0.047 z m 16.03711,-59.25737 q -0.3292,2.5396 -0.47029,4.37376 l -0.28218,5.22029 q -0.18812,3.38614 -0.18812,4.98514 0,2.86881 0.56436,5.50247 0.61138,2.63366 2.35148,4.84406 1.78713,2.21039 4.18564,3.38613 2.44554,1.12872 5.03217,1.12872 3.57425,0 6.49009,-2.02228 2.96287,-2.0693 4.56188,-6.0198 1.59901,-3.95049 1.59901,-8.4183 0,-4.93812 -1.78713,-8.32425 -1.7401,-3.43317 -4.70296,-4.98515 -2.96287,-1.55198 -6.72524,-1.55198 -4.89109,0 -10.62871,1.88119 z"
         style="font-style:normal;font-variant:normal;font-weight:normal;font-stretch:normal;line-height:68.00000072%;font-family:'Eras Demi ITC';-inkscape-font-specification:'Eras Demi ITC';text-align:center;text-anchor:middle;fill:#e85026;fill-opacity:1;stroke:#2e3c6e;stroke-width:2.571;stroke-opacity:1;stroke-miterlimit:4;stroke-dasharray:none"
         id="path4255" />
      <path
         d="m 326.62257,774.37183 q -0.61139,2.77475 -1.7401,9.97029 -5.0792,1.08168 -8.5594,1.45792 -3.48019,0.37624 -7.00742,0.37624 -6.16088,0 -11.05197,-1.22277 -4.84405,-1.22278 -8.51236,-4.46782 -3.66832,-3.29208 -5.40841,-8.04207 -1.7401,-4.75 -1.7401,-9.97029 0,-5.78465 2.02227,-11.19306 2.02228,-5.45544 5.64356,-8.8886 3.66831,-3.4802 8.32425,-4.89109 4.65594,-1.45792 9.73514,-1.45792 4.79702,0 9.12375,1.22278 4.32673,1.17574 7.24257,3.90346 2.96287,2.72772 4.51485,6.58415 1.599,3.8094 1.599,8.51237 0,2.21039 -0.47029,4.56187 l -34.47274,0.047 q -0.0941,1.7401 -0.0941,2.77475 0,3.15099 1.08168,5.78465 1.08169,2.63366 3.15099,4.46782 2.06931,1.83415 4.93811,2.72772 2.86881,0.84653 5.64356,0.84653 3.24505,0 7.00742,-0.70544 3.8094,-0.70545 9.0297,-2.39852 z m -30.38116,-18.99998 22.00988,0.047 q 0,-2.25742 -0.14109,-3.3391 -0.14109,-1.08169 -0.65842,-2.44555 -0.47029,-1.41089 -1.31683,-2.44554 -0.84653,-1.08168 -1.97524,-1.78712 -1.12872,-0.70545 -2.63366,-1.08169 -1.45792,-0.37623 -3.15099,-0.37623 -1.97525,0 -3.85643,0.61138 -1.83416,0.61139 -3.38614,1.78713 -1.55198,1.17574 -2.5396,2.63366 -0.94059,1.45792 -1.41089,2.82178 -0.4703,1.31683 -0.94059,3.57425 z"
         style="font-style:normal;font-variant:normal;font-weight:normal;font-stretch:normal;line-height:68.00000072%;font-family:'Eras Demi ITC';-inkscape-font-specification:'Eras Demi ITC';text-align:center;text-anchor:middle;fill:#e85026;fill-opacity:1;stroke:#2e3c6e;stroke-width:2.571;stroke-opacity:1;stroke-miterlimit:4;stroke-dasharray:none"
         id="path4257" />
      <path
         d="m 337.86266,785.04757 1.36386,-22.33909 0.37624,-12.98019 q 0.0941,-3.99752 0.0941,-8.04207 0,-0.70544 -0.0941,-4.46781 4.37375,0.0941 6.44306,0.0941 2.39851,0 6.349,-0.0941 l -0.23514,6.63118 q 1.78712,-2.5396 3.05692,-3.76238 1.2698,-1.2698 2.82178,-2.16336 1.59901,-0.89356 3.52723,-1.36386 1.92821,-0.4703 3.95049,-0.4703 1.88118,0 3.85643,0.4703 0,4.37376 0.42327,11.099 -2.77475,-0.75248 -5.03218,-0.75248 -2.72772,0 -4.84405,0.84654 -2.06931,0.7995 -3.76237,2.49257 -1.64604,1.64604 -2.72772,4.09158 -0.89357,1.97525 -1.31683,5.12623 -0.37624,2.44554 -0.65842,8.37128 -0.23515,5.92574 -0.23515,11.66336 0,2.21039 0.14109,5.5495 -3.57425,-0.0941 -6.53712,-0.0941 -2.91584,0 -6.96039,0.0941 z"
         style="font-style:normal;font-variant:normal;font-weight:normal;font-stretch:normal;line-height:68.00000072%;font-family:'Eras Demi ITC';-inkscape-font-specification:'Eras Demi ITC';text-align:center;text-anchor:middle;fill:#e85026;fill-opacity:1;stroke:#2e3c6e;stroke-width:2.571;stroke-opacity:1;stroke-miterlimit:4;stroke-dasharray:none"
         id="path4259" />
      <path
         d="m 377.8849,729.03525 q 0.18812,-4.84406 0.18812,-7.43069 l 0,-1.50495 q 4.2797,0.0941 6.96039,0.0941 3.66831,0 6.8193,-0.0941 -0.14109,1.17574 -0.18812,2.68069 l -0.23515,6.25495 q -3.57425,-0.0941 -6.58415,-0.0941 -3.0099,0 -6.96039,0.0941 z m -2.5396,56.01232 q 0.70544,-7.05445 0.98762,-11.80445 0.4703,-7.52474 0.7995,-17.35394 0.37624,-9.8292 0.51733,-18.67077 4.60891,0.0941 6.91336,0.0941 2.11633,0 6.86633,-0.0941 -0.65842,8.18316 -1.08168,15.61384 -0.37624,7.43069 -0.56436,17.02474 -0.18812,9.59405 -0.18812,15.19058 -4.2797,-0.0941 -6.86633,-0.0941 -2.44554,0 -7.38365,0.0941 z"
         style="font-style:normal;font-variant:normal;font-weight:normal;font-stretch:normal;line-height:68.00000072%;font-family:'Eras Demi ITC';-inkscape-font-specification:'Eras Demi ITC';text-align:center;text-anchor:middle;fill:#e85026;fill-opacity:1;stroke:#2e3c6e;stroke-width:2.571;stroke-opacity:1;stroke-miterlimit:4;stroke-dasharray:none"
         id="path4261" />
      <path
         d="m 443.82047,774.37183 q -0.61138,2.77475 -1.7401,9.97029 -5.0792,1.08168 -8.55939,1.45792 -3.4802,0.37624 -7.00742,0.37624 -6.16089,0 -11.05197,-1.22277 -4.84405,-1.22278 -8.51237,-4.46782 -3.66831,-3.29208 -5.40841,-8.04207 -1.7401,-4.75 -1.7401,-9.97029 0,-5.78465 2.02228,-11.19306 2.02227,-5.45544 5.64356,-8.8886 3.66831,-3.4802 8.32425,-4.89109 4.65593,-1.45792 9.73514,-1.45792 4.79702,0 9.12375,1.22278 4.32673,1.17574 7.24257,3.90346 2.96286,2.72772 4.51484,6.58415 1.59901,3.8094 1.59901,8.51237 0,2.21039 -0.4703,4.56187 l -34.47273,0.047 q -0.0941,1.7401 -0.0941,2.77475 0,3.15099 1.08168,5.78465 1.08168,2.63366 3.15099,4.46782 2.0693,1.83415 4.93811,2.72772 2.86881,0.84653 5.64356,0.84653 3.24505,0 7.00742,-0.70544 3.8094,-0.70545 9.02969,-2.39852 z m -30.38116,-18.99998 22.00988,0.047 q 0,-2.25742 -0.14109,-3.3391 -0.14108,-1.08169 -0.65841,-2.44555 -0.4703,-1.41089 -1.31683,-2.44554 -0.84654,-1.08168 -1.97525,-1.78712 -1.12871,-0.70545 -2.63366,-1.08169 -1.45792,-0.37623 -3.15098,-0.37623 -1.97525,0 -3.85644,0.61138 -1.83415,0.61139 -3.38613,1.78713 -1.55198,1.17574 -2.5396,2.63366 -0.9406,1.45792 -1.41089,2.82178 -0.4703,1.31683 -0.9406,3.57425 z"
         style="font-style:normal;font-variant:normal;font-weight:normal;font-stretch:normal;line-height:68.00000072%;font-family:'Eras Demi ITC';-inkscape-font-specification:'Eras Demi ITC';text-align:center;text-anchor:middle;fill:#e85026;fill-opacity:1;stroke:#2e3c6e;stroke-width:2.571;stroke-opacity:1;stroke-miterlimit:4;stroke-dasharray:none"
         id="path4263" />
      <path
         d="m 454.77839,785.04757 q 1.08168,-10.67574 1.78713,-23.98513 0.75247,-13.30939 0.84653,-23.84403 4.32673,0.0941 6.91336,0.0941 3.05693,0 6.49009,-0.0941 l -0.51733,7.99504 q 1.45792,-2.06931 2.53961,-3.29208 1.12871,-1.22277 2.82178,-2.39851 1.74009,-1.17574 3.66831,-1.88119 1.97524,-0.70544 4.37376,-1.12871 2.44554,-0.42327 5.0792,-0.42327 4.18564,0 7.99504,1.08169 3.85643,1.03465 6.20792,3.3391 2.35148,2.30445 3.10395,5.03217 0.75248,2.72772 0.75248,5.78465 0,1.2698 -0.14109,4.04455 l -0.98762,20.55196 q -0.18812,4.2797 -0.23515,9.12376 -3.71535,-0.0941 -6.34901,-0.0941 -3.57425,0 -7.19553,0.0941 0.37623,-4.09158 0.94059,-14.24999 0.56436,-10.20544 0.56436,-13.49751 0,-3.71534 -1.17575,-5.97277 -1.17574,-2.25742 -3.66831,-3.43316 -2.44554,-1.17574 -5.31435,-1.17574 -2.82178,0 -5.26732,1.08168 -2.44554,1.08168 -4.23267,3.15098 -1.88119,2.11634 -2.91584,5.2203 -1.08168,3.29207 -1.59901,10.86385 -0.47029,6.72524 -0.75247,18.01236 -3.62129,-0.0941 -6.53712,-0.0941 -2.96287,0 -7.19554,0.0941 z"
         style="font-style:normal;font-variant:normal;font-weight:normal;font-stretch:normal;line-height:68.00000072%;font-family:'Eras Demi ITC';-inkscape-font-specification:'Eras Demi ITC';text-align:center;text-anchor:middle;fill:#e85026;fill-opacity:1;stroke:#2e3c6e;stroke-width:2.571;stroke-opacity:1;stroke-miterlimit:4;stroke-dasharray:none"
         id="path4265" />
      <path
         d="m 554.29311,774.18371 q -0.23515,1.92822 -0.70544,4.37376 -0.4703,2.44554 -0.98763,6.06683 -6.72524,1.55198 -13.26236,1.55198 -3.8094,0 -7.33662,-0.70545 -3.52723,-0.70544 -6.58416,-2.49257 -3.00989,-1.83416 -5.31435,-4.79702 -2.30445,-2.96287 -3.48019,-7.14851 -1.12871,-4.23267 -1.12871,-8.70049 0,-5.92574 1.88118,-11.38118 1.92822,-5.45544 5.59653,-8.8886 3.66831,-3.48019 8.13613,-4.70297 4.51485,-1.2698 10.01732,-1.2698 3.05693,0 6.30197,0.37624 3.24505,0.32921 7.66584,1.41089 l 0.70544,10.2995 q -7.00742,-2.39852 -12.22771,-2.39852 -3.19802,0 -6.06682,1.08168 -2.82178,1.08169 -4.89109,3.43317 -2.02227,2.30445 -2.91584,5.36138 -0.84653,3.05693 -0.84653,6.25494 0,4.46782 1.36386,7.7599 1.41089,3.24504 4.79702,5.03217 3.38614,1.78713 7.71287,1.78713 2.11633,0 5.12623,-0.51733 3.05693,-0.56435 6.44306,-1.78713 z"
         style="font-style:normal;font-variant:normal;font-weight:normal;font-stretch:normal;line-height:68.00000072%;font-family:'Eras Demi ITC';-inkscape-font-specification:'Eras Demi ITC';text-align:center;text-anchor:middle;fill:#e85026;fill-opacity:1;stroke:#2e3c6e;stroke-width:2.571;stroke-opacity:1;stroke-miterlimit:4;stroke-dasharray:none"
         id="path4267" />
      <path
         d="m 566.37974,729.03525 q 0.18812,-4.84406 0.18812,-7.43069 l 0,-1.50495 q 4.2797,0.0941 6.96039,0.0941 3.66831,0 6.8193,-0.0941 -0.14109,1.17574 -0.18812,2.68069 l -0.23515,6.25495 q -3.57425,-0.0941 -6.58415,-0.0941 -3.0099,0 -6.96039,0.0941 z m -2.5396,56.01232 q 0.70544,-7.05445 0.98762,-11.80445 0.4703,-7.52474 0.79951,-17.35394 0.37623,-9.8292 0.51732,-18.67077 4.60891,0.0941 6.91336,0.0941 2.11634,0 6.86633,-0.0941 -0.65841,8.18316 -1.08168,15.61384 -0.37624,7.43069 -0.56436,17.02474 -0.18811,9.59405 -0.18811,15.19058 -4.2797,-0.0941 -6.86633,-0.0941 -2.44555,0 -7.38366,0.0941 z"
         style="font-style:normal;font-variant:normal;font-weight:normal;font-stretch:normal;line-height:68.00000072%;font-family:'Eras Demi ITC';-inkscape-font-specification:'Eras Demi ITC';text-align:center;text-anchor:middle;fill:#e85026;fill-opacity:1;stroke:#2e3c6e;stroke-width:2.571;stroke-opacity:1;stroke-miterlimit:4;stroke-dasharray:none"
         id="path4269" />
      <path
         d="m 593.23367,747.70602 q 0.65842,-3.38614 0.7995,-4.75 0.18812,-1.36386 0.61139,-4.13861 6.39603,-1.50495 11.28712,-2.11633 4.89108,-0.61139 9.45296,-0.61139 5.17326,0 9.49999,1.22277 4.32673,1.17575 6.77227,3.80941 2.44554,2.63366 2.44554,7.57177 0,2.68069 -0.75247,13.68563 -0.75248,10.95791 -0.89357,22.6683 -3.57425,-0.0941 -6.58415,-0.0941 -2.86881,0 -6.72524,0.0941 0.61139,-5.69059 0.98762,-13.16831 l 0.61139,-11.71038 q -1.78713,1.17574 -2.72772,1.64604 -0.94059,0.47029 -2.11634,0.89356 -1.17574,0.37624 -4.13861,1.22277 -2.96286,0.7995 -4.74999,1.41089 -1.78713,0.61138 -3.24505,1.41089 -1.41089,0.75247 -2.39851,1.7401 -0.98762,0.94059 -1.45792,2.02227 -0.42327,1.03465 -0.42327,2.25743 0,1.97524 1.12872,3.43316 1.17574,1.41089 2.91584,1.97525 1.74009,0.56435 4.09158,0.56435 1.50494,0 3.15098,-0.23515 1.69307,-0.23515 4.51485,-1.17574 -0.98762,2.68069 -2.30445,7.99504 -3.33911,0.56436 -5.31436,0.70545 -1.97524,0.14109 -3.66831,0.14109 -5.92573,0 -9.73514,-1.59901 -3.8094,-1.59901 -5.64356,-5.0792 -1.78712,-3.4802 -1.78712,-7.00742 0,-2.02228 0.70544,-3.99752 0.70545,-1.97525 2.06931,-3.62129 1.36386,-1.64604 3.52722,-3.15098 2.16337,-1.55198 6.25495,-2.96287 4.09158,-1.45792 10.81682,-2.91584 1.78712,-0.37624 3.71534,-0.89356 1.92821,-0.56436 3.05693,-1.08169 1.17574,-0.51732 2.02227,-1.31683 0.84654,-0.84653 1.22277,-1.74009 0.42327,-0.89357 0.42327,-1.83416 0,-1.83416 -1.22277,-3.10396 -1.17574,-1.2698 -3.10396,-1.7401 -1.88118,-0.51732 -4.18564,-0.51732 -8.5594,0 -18.90592,4.09158 z"
         style="font-style:normal;font-variant:normal;font-weight:normal;font-stretch:normal;line-height:68.00000072%;font-family:'Eras Demi ITC';-inkscape-font-specification:'Eras Demi ITC';text-align:center;text-anchor:middle;fill:#e85026;fill-opacity:1;stroke:#2e3c6e;stroke-width:2.571;stroke-opacity:1;stroke-miterlimit:4;stroke-dasharray:none"
         id="path4271" />
    </g>
  </g>
</svg>
