<?xml version="1.0" encoding="UTF-8"?>
<!DOCTYPE svg PUBLIC "-//W3C//DTD SVG 1.1//EN" "http://www.w3.org/Graphics/SVG/1.1/DTD/svg11.dtd">
<!-- Creator: CorelDRAW 2017 -->
<svg xmlns="http://www.w3.org/2000/svg" xml:space="preserve" width="67.0149mm" height="14.3418mm" version="1.1" style="shape-rendering:geometricPrecision; text-rendering:geometricPrecision; image-rendering:optimizeQuality; fill-rule:evenodd; clip-rule:evenodd"
viewBox="0 0 2101 450"
 xmlns:xlink="http://www.w3.org/1999/xlink">
 <defs>
  <style type="text/css">
   <![CDATA[
    .fil0 {fill:#F39430}
    .fil1 {fill:#E85222}
    .fil8 {fill:#2B3167}
    .fil7 {fill:url(#id0)}
    .fil5 {fill:url(#id1)}
    .fil4 {fill:url(#id2)}
    .fil2 {fill:url(#id3)}
    .fil3 {fill:url(#id4)}
    .fil6 {fill:url(#id5)}
   ]]>
  </style>
  <linearGradient id="id0" gradientUnits="userSpaceOnUse" x1="1747" y1="221" x2="1982" y2="73">
   <stop offset="0" style="stop-opacity:1; stop-color:#2B3167"/>
   <stop offset="0.341176" style="stop-opacity:1; stop-color:#9497B2"/>
   <stop offset="1" style="stop-opacity:1; stop-color:#FEFEFE"/>
  </linearGradient>
  <linearGradient id="id1" gradientUnits="userSpaceOnUse" x1="1563" y1="440" x2="1561" y2="209">
   <stop offset="0" style="stop-opacity:1; stop-color:#2C3370"/>
   <stop offset="0.458824" style="stop-opacity:1; stop-color:#9398B7"/>
   <stop offset="1" style="stop-opacity:1; stop-color:#FBFDFE"/>
  </linearGradient>
  <linearGradient id="id2" gradientUnits="userSpaceOnUse" x1="1582" y1="290" x2="1582" y2="430">
   <stop offset="0" style="stop-opacity:1; stop-color:#274B8B"/>
   <stop offset="1" style="stop-opacity:1; stop-color:#FEFEFE"/>
  </linearGradient>
  <linearGradient id="id3" gradientUnits="userSpaceOnUse" xlink:href="#id2" x1="1572" y1="289" x2="1572" y2="431">
  </linearGradient>
  <linearGradient id="id4" gradientUnits="userSpaceOnUse" xlink:href="#id2" x1="1588" y1="262" x2="1588" y2="458">
  </linearGradient>
  <linearGradient id="id5" gradientUnits="userSpaceOnUse" x1="1422" y1="298" x2="1421" y2="475">
   <stop offset="0" style="stop-opacity:1; stop-color:#274B8B"/>
   <stop offset="0.529412" style="stop-opacity:1; stop-color:#92A4C4"/>
   <stop offset="1" style="stop-opacity:1; stop-color:#FEFEFE"/>
  </linearGradient>
 </defs>
 <g id="Capa_x0020_1">
  <metadata id="CorelCorpID_0Corel-Layer"/>
  <g id="_2518699253152">
   <g>
    <path class="fil0" d="M152 400l10 -37 -58 0 9 -32 118 0 -31 114 -135 0c-25,0 -45,-11 -56,-33 -11,-23 -11,-47 -4,-71 8,-28 22,-51 44,-70 21,-19 46,-31 75,-31l129 0 -13 48 -115 0c-14,0 -26,7 -36,17 -11,11 -18,24 -22,39 -3,13 -5,27 -1,40 4,11 11,17 23,17l61 0zm146 -23l-18 68 -61 0 56 -206 139 0c20,0 39,6 49,24 9,15 9,31 5,47 -5,20 -18,35 -34,47 -17,12 -36,19 -56,19l-79 0zm379 3c-5,19 -16,34 -31,46 -15,12 -32,19 -52,19l-296 0 13 -47 269 0c6,0 12,-1 18,-4 5,-3 9,-7 11,-13 4,-16 -10,-17 -23,-17l-58 0c-17,0 -32,-5 -44,-17 -12,-13 -14,-28 -10,-44 5,-19 16,-34 32,-46 17,-12 36,-17 56,-17l140 0 -12 45 -121 0c-5,0 -10,3 -14,5 -4,3 -8,7 -10,12 -1,4 -1,8 2,11 3,4 8,5 12,5l64 0c17,0 36,4 47,17 11,13 12,30 7,45zm-354 -97l-13 48 56 0c8,0 15,-3 22,-8 7,-5 11,-11 13,-19 2,-6 1,-11 -3,-15 -5,-5 -11,-6 -17,-6l-58 0z"/>
    <path class="fil1" d="M71 445c47,-22 93,-36 142,-47l-13 47 -129 0zm162 -52c21,-5 42,-9 64,-13l-18 65 -61 0 14 -52zm78 -16c41,-8 84,-16 132,-27 -3,3 -6,5 -9,8 -17,12 -36,19 -56,19l-66 0zm167 -38c23,-9 45,-20 66,-31 0,2 1,4 2,5 3,4 8,5 12,5l64 0c17,0 36,4 47,17 11,13 12,30 7,45 -5,19 -16,34 -31,46 -15,12 -32,19 -52,19l-296 0 13 -47 269 0c6,0 12,-1 18,-4 5,-3 9,-7 11,-13 4,-16 -10,-17 -23,-17l-58 0c-17,0 -32,-5 -44,-17 -2,-2 -4,-5 -6,-7zm108 -55c36,-21 69,-40 94,-45l23 0 -12 45 -104 0z"/>
   </g>
   <path class="fil2" d="M1832 415c0,0 -1,-1 -1,-1 0,0 1,1 1,1zm-2 -2c0,0 0,0 -1,-1 0,0 0,0 1,1zm-3 -3c0,0 0,0 -1,-1 0,0 0,0 1,1zm126 -28l0 0 0 -16 0 0 0 16zm-128 -40c3,-6 8,-11 14,-14 -6,4 -11,9 -14,14zm-2 -34c-10,4 -20,9 -29,16 -10,7 -18,16 -23,25 5,-10 13,-18 23,-25 9,-7 19,-12 29,-16zm-52 43c0,1 -1,2 -1,2 0,-1 1,-2 1,-2zm-2 6c0,1 -1,2 -1,3 0,-1 1,-2 1,-3zm-3 17l0 0c0,19 10,33 23,44 -13,-11 -23,-26 -23,-44zm23 44c1,1 1,1 2,2 -1,-1 -1,-1 -2,-2z"/>
   <path class="fil3" d="M1609 440l0 -193 -46 0 0 193 0 0 0 -193 46 0 0 193 0 0zm169 0l-93 -69 0 0 93 69 0 0zm-20 -124l20 -15 0 0 -20 15zm-94 30l-32 27 0 0 32 -27z"/>
   <path class="fil4" d="M1538 440l0 -17 0 0 0 17 0 0zm-135 -40c0,0 -1,-1 -1,-1 0,0 1,1 1,1zm-1 -2c0,-1 -1,-1 -1,-2 0,1 1,1 1,2zm-2 -2c-5,-7 -8,-15 -8,-24 0,-4 1,-8 2,-12 -1,4 -2,8 -2,12 0,9 3,17 8,24zm-6 -36c2,-6 5,-11 8,-15 -4,4 -7,9 -8,15zm9 -16c2,-2 4,-5 7,-7 -2,2 -5,4 -7,7zm7 -7c1,0 1,-1 2,-1 -1,0 -1,1 -2,1zm49 -17l1 0 0 0 -1 0zm80 0l0 0 0 -20 0 0 0 20zm-139 -13c-11,3 -21,8 -30,15 -1,0 -1,1 -2,1 0,0 1,-1 2,-1 9,-7 19,-11 30,-15z"/>
   <path class="fil5" d="M2033 328l0 121 -63 0 0 -156 63 0 0 20c7,-8 20,-15 30,-17 8,-2 16,-3 24,-3 2,0 5,0 7,0l8 1 0 34 -68 0zm-1000 0l0 121 -63 0 0 -156 63 0 0 20c7,-8 20,-15 30,-17 8,-2 16,-3 24,-3 2,0 5,0 7,0l8 1 0 34 -68 0zm-130 -52l0 174 -73 0 0 -174 -113 0 0 -37 302 0 0 37 -115 0zm361 80l0 -8c0,-2 -1,-4 -2,-6 -2,-2 -4,-5 -6,-7 -4,-3 -8,-5 -12,-6 -6,-1 -12,-1 -18,-1l-115 0 0 -35 118 0c16,0 33,0 48,4 10,2 19,6 28,11l0 0c8,5 16,13 20,22 4,9 5,20 5,30l0 89 -166 0c-17,0 -34,-4 -48,-13 -12,-8 -20,-18 -20,-33 0,-14 7,-26 18,-34 13,-10 29,-13 45,-13l106 0zm283 93l-97 0c-29,0 -60,-5 -85,-21 -20,-13 -31,-32 -31,-56 0,-23 11,-42 29,-55 25,-18 57,-23 87,-23l97 0 0 37 -88 0c-15,0 -29,4 -41,13 -10,7 -17,17 -17,30 0,12 6,22 16,29 12,9 26,12 40,12l89 0 0 35zm71 0l-63 0 0 -210 63 0 0 210zm82 -77l105 77 -89 0 -96 -76 96 -81 88 0 -104 79zm131 -14l132 0 0 34 -132 0c0,4 1,8 2,11 2,4 6,7 10,10 5,3 11,5 18,6 8,1 17,2 25,2l78 0 0 30 -108 0c-25,0 -49,-7 -69,-23 -17,-13 -29,-31 -29,-53 0,-24 13,-43 32,-57 21,-16 45,-24 71,-24l103 0 0 33 -76 0c-8,0 -16,0 -24,2 -6,1 -12,3 -18,6 -9,5 -15,12 -15,23zm-567 59l0 -29 -77 0c-6,0 -13,1 -18,4 -4,2 -7,6 -7,11 0,5 3,8 7,10 5,3 11,4 17,4l79 0z"/>
   <path class="fil6" d="M2093 319l0 -18c-2,0 -4,0 -6,0 -7,0 -15,1 -22,3 -8,2 -21,8 -26,15l54 0zm-1083 -52l0 -20 -284 0 0 20 113 0 0 174 56 0 0 -174 115 0zm84 52l0 -18c-2,0 -4,0 -6,0 -7,0 -15,1 -22,3 -8,2 -21,8 -26,15l54 0zm-68 24l0 -42 -45 0 0 139 45 0 0 -97zm295 97l0 -81c0,-9 -1,-19 -4,-27 -3,-8 -10,-14 -16,-18 -8,-5 -16,-8 -25,-10 -14,-3 -32,-4 -46,-4l-109 0 0 18 106 0c6,0 14,0 20,1 6,1 11,4 16,8l0 0 0 0c3,2 6,5 8,8 2,3 3,7 3,11l0 16 -114 0c-14,0 -28,3 -40,12 -9,7 -15,15 -15,27 0,12 7,19 16,25 13,8 28,11 43,11l157 0zm-47 -16l-87 0c-7,0 -14,-2 -21,-5 -7,-4 -12,-9 -12,-17 0,-8 5,-15 12,-18 7,-4 15,-5 23,-5l85 0 0 46zm266 15l0 -17 -81 0c-16,0 -32,-4 -45,-14 -12,-9 -19,-21 -19,-36 0,-15 9,-28 20,-37 14,-10 29,-15 46,-15l79 0 0 -20 -88 0c-28,0 -58,5 -81,22 -16,12 -26,28 -26,49 0,21 10,37 27,49 23,16 53,20 80,20l88 0zm71 0l0 -193 -46 0 0 193 46 0zm169 0l-93 -69 93 -71 -60 0 -86 72 85 67 60 0zm177 1l0 -13 -70 0c-9,0 -18,0 -27,-2 -7,-1 -15,-4 -21,-8 -5,-3 -10,-7 -13,-13 -2,-5 -3,-10 -3,-16l0 -8 132 0 0 -16 -132 0 0 -8c0,-14 8,-24 19,-31 6,-4 14,-6 21,-7 8,-1 17,-2 25,-2l67 0 0 -16 -95 0c-24,0 -46,7 -66,22 -16,12 -28,28 -28,50 0,20 11,35 26,46 19,15 40,21 63,21l100 0zm70 -98l0 -42 -45 0 0 139 45 0 0 -97z"/>
   <path class="fil7" d="M1959 260c0,-52 -15,-105 -44,-152 -30,-48 -71,-84 -118,-108l-9 17 -11 21c40,20 75,51 100,92 25,41 37,85 38,130l24 0 20 0zm-88 1c0,-37 -10,-74 -31,-107 -21,-33 -50,-59 -83,-76l-20 39c26,13 49,33 65,60 16,26 24,56 25,85l44 0zm-172 -71l18 -35c19,10 36,25 48,44 12,19 18,41 18,62l-39 0c-1,-21 -9,-42 -26,-58 -6,-6 -12,-10 -19,-14z"/>
   <circle class="fil1" transform="matrix(0.564729 -0.583583 -0.590603 -0.558016 1669.31 262.806)" r="41"/>
   <path class="fil8" d="M104 127l0 77 -15 0 0 -77 -23 0 0 -15 61 0 0 15 -23 0zm33 49c0,4 2,8 4,11 3,3 7,5 11,5 6,0 11,-2 15,-6l5 -4 0 17 -1 1c-6,5 -14,7 -21,7 -8,0 -16,-3 -21,-9 -6,-7 -7,-16 -7,-25 0,-9 2,-18 8,-25 5,-7 12,-10 21,-10 8,0 15,3 19,9 5,7 7,15 7,23l0 8 -39 0zm67 28l-15 0 0 -97 15 0 0 97zm29 -28c0,4 2,8 4,11 3,3 7,5 11,5 6,0 11,-2 15,-6l5 -4 0 17 -1 1c-6,5 -14,7 -21,7 -8,0 -16,-3 -21,-9 -6,-7 -7,-16 -7,-25 0,-9 2,-18 8,-25 5,-7 12,-10 21,-10 8,0 15,3 19,9 5,7 7,15 7,23l0 8 -39 0zm67 -35c4,-4 9,-6 15,-6 4,0 8,1 12,4 2,1 3,3 4,5 4,-6 10,-9 18,-9 17,0 22,13 22,28l0 41 -15 0 0 -38c0,-4 0,-10 -2,-13 -2,-3 -4,-3 -7,-3 -3,0 -6,2 -7,4 -3,4 -3,8 -3,12l0 38 -15 0 0 -39c0,-7 -1,-15 -10,-15 -3,0 -5,2 -7,4 -3,4 -3,8 -3,12l0 38 -15 0 0 -67 15 0 0 4zm118 59c-4,3 -9,5 -14,5 -6,0 -11,-2 -15,-6 -4,-4 -6,-9 -6,-15 0,-14 8,-21 21,-23l14 -2c0,-5 -2,-10 -8,-10 -6,0 -12,2 -16,7l-5 5 0 -19 1 -1c6,-4 13,-6 21,-6 16,0 23,11 23,26l0 43 -15 0 0 -4zm34 -49l-10 0 0 -14 10 0 0 -14 15 -5 0 19 14 0 0 14 -14 0 0 32c0,2 0,5 1,7 1,1 3,1 4,1 1,0 3,0 4,-1l5 -4 0 17 -1 1c-3,2 -7,2 -10,2 -13,0 -18,-9 -18,-21l0 -33zm48 -24c-2,0 -5,-1 -6,-3 -2,-2 -3,-4 -3,-7 0,-3 1,-5 3,-7 2,-2 4,-3 6,-3 2,0 5,1 6,3 2,2 3,4 3,7 0,2 -1,5 -3,7 -2,2 -4,3 -6,3zm7 77l-15 0 0 -67 15 0 0 67zm60 -3c-5,3 -11,5 -17,5 -9,0 -16,-3 -22,-10 -6,-7 -8,-15 -8,-24 0,-10 2,-19 9,-26 6,-7 14,-10 23,-10 5,0 10,1 14,3l2 1 0 18 -5 -4c-3,-3 -7,-4 -12,-4 -5,0 -9,2 -12,6 -4,4 -5,10 -5,16 0,5 1,11 4,15 3,4 7,5 12,5 5,0 8,-2 12,-5l5 -4 0 17 -1 1zm74 -2l0 -20 5 5c1,1 2,2 4,3 2,1 3,2 5,2 2,1 4,1 5,1 2,0 3,0 5,0 3,0 8,0 11,-3 2,-2 3,-5 3,-8 0,-2 0,-3 -1,-5 -1,-1 -2,-3 -3,-4 -2,-1 -3,-3 -5,-4 -2,-1 -5,-3 -7,-4 -3,-1 -5,-3 -8,-5 -2,-2 -5,-3 -7,-6 -2,-2 -4,-5 -5,-7 -1,-3 -2,-6 -2,-10 0,-4 1,-8 3,-12 2,-3 4,-6 7,-8 3,-2 6,-4 10,-5 4,-1 7,-2 11,-2 6,0 13,1 18,3l2 1 0 19 -5 -4c-5,-4 -10,-5 -16,-5 -2,0 -4,0 -5,1 -2,0 -3,1 -4,2 -1,1 -2,2 -3,3 -1,1 -1,3 -1,4 0,1 0,3 1,4 1,1 2,2 3,3 1,1 3,2 5,3 2,1 5,3 7,4 3,2 6,3 8,5 3,2 5,4 7,6 2,2 4,5 5,8 1,3 2,6 2,10 0,4 -1,8 -3,12 -2,3 -4,6 -7,8 -3,2 -6,4 -10,4 -4,1 -8,1 -11,1 -2,0 -3,0 -5,0 -2,0 -4,-1 -6,-1 -2,0 -4,-1 -6,-2 -2,-1 -3,-1 -5,-2l-1 -1zm79 -23c0,4 2,8 4,11 3,3 7,5 11,5 6,0 11,-2 15,-6l5 -4 0 17 -1 1c-6,5 -14,7 -21,7 -8,0 -16,-3 -21,-9 -6,-7 -7,-16 -7,-25 0,-9 2,-18 8,-25 5,-7 12,-10 21,-10 8,0 15,3 19,9 5,7 7,15 7,23l0 8 -39 0zm67 -35c0,0 1,-1 1,-1 3,-3 7,-4 11,-4 2,0 5,0 7,1l2 1 0 19 -5 -4c-1,-1 -3,-1 -5,-1 -3,0 -5,2 -7,5 -3,4 -3,10 -3,15l0 34 -15 0 0 -67 15 0 0 4zm54 40l15 -44 16 0 -25 67 -13 0 -23 -67 16 0 14 44zm45 -54c-2,0 -5,-1 -6,-3 -2,-2 -3,-4 -3,-7 0,-3 1,-5 3,-7 2,-2 4,-3 6,-3 2,0 5,1 6,3 2,2 3,4 3,7 0,2 -1,5 -3,7 -2,2 -4,3 -6,3zm7 77l-15 0 0 -67 15 0 0 67zm60 -3c-5,3 -11,5 -17,5 -9,0 -16,-3 -22,-10 -6,-7 -8,-15 -8,-24 0,-10 2,-19 9,-26 6,-7 14,-10 23,-10 5,0 10,1 14,3l2 1 0 18 -5 -4c-3,-3 -7,-4 -12,-4 -5,0 -9,2 -12,6 -4,4 -5,10 -5,16 0,5 1,11 4,15 3,4 7,5 12,5 5,0 8,-2 12,-5l5 -4 0 17 -1 1zm26 -25c0,4 2,8 4,11 3,3 7,5 11,5 6,0 11,-2 15,-6l5 -4 0 17 -1 1c-6,5 -14,7 -21,7 -8,0 -16,-3 -21,-9 -6,-7 -7,-16 -7,-25 0,-9 2,-18 8,-25 5,-7 12,-10 21,-10 8,0 15,3 19,9 5,7 7,15 7,23l0 8 -39 0zm-818 -14c0,-3 -1,-6 -3,-8 -2,-3 -5,-4 -8,-4 -3,0 -6,1 -9,4 -2,2 -3,5 -4,8l24 0zm96 0c0,-3 -1,-6 -3,-8 -2,-3 -5,-4 -8,-4 -3,0 -6,1 -9,4 -2,2 -3,5 -4,8l24 0zm161 12l-10 2c-3,0 -6,1 -8,3 -2,1 -2,4 -2,6 0,2 1,4 2,5 2,2 4,2 6,2 4,0 6,-1 9,-4 3,-3 4,-7 4,-11l0 -3zm326 -12c0,-3 -1,-6 -3,-8 -2,-3 -5,-4 -8,-4 -3,0 -6,1 -9,4 -2,2 -3,5 -4,8l24 0zm260 0c0,-3 -1,-6 -3,-8 -2,-3 -5,-4 -8,-4 -3,0 -6,1 -9,4 -2,2 -3,5 -4,8l24 0z"/>
  </g>
 </g>
</svg>
