<?xml version="1.0" encoding="UTF-8"?>
<!DOCTYPE svg PUBLIC "-//W3C//DTD SVG 1.1//EN" "http://www.w3.org/Graphics/SVG/1.1/DTD/svg11.dtd">
<!-- Creator: CorelDRAW 2019 (64-Bit) -->
<svg xmlns="http://www.w3.org/2000/svg" xml:space="preserve" width="163.664mm" height="34.3177mm" version="1.1" style="shape-rendering:geometricPrecision; text-rendering:geometricPrecision; image-rendering:optimizeQuality; fill-rule:evenodd; clip-rule:evenodd"
viewBox="0 0 5599.99 1174.23"
 xmlns:xlink="http://www.w3.org/1999/xlink">
 <defs>
  <style type="text/css">
   <![CDATA[
    .fil0 {fill:#2F365E}
    .fil3 {fill:#FF6600}
    .fil2 {fill:#2F365E;fill-rule:nonzero}
    .fil1 {fill:#2F365E;fill-rule:nonzero}
   ]]>
  </style>
 </defs>
 <g id="Capa_x0020_1">
  <metadata id="CorelCorpID_0Corel-Layer"/>
  <g id="_460657552720">
   <path class="fil0" d="M2715.96 865.92l0 304.84 -157.17 0 0 -392.34 157.17 0 0 49.27c16.39,-21.3 49.75,-36.64 74.5,-42.32 19.56,-4.48 39.54,-7.57 59.66,-7.57 5.91,0 11.82,0.22 17.71,0.68l20.03 1.58 0 85.85 -171.9 0z"/>
   <path class="fil0" d="M4865.78 939.83l332.65 0 0 84.51 -332.66 0c0.16,9.54 1.67,19.44 5.91,28.05 4.89,9.94 15.44,18.16 24.52,24.08 13.29,8.66 28.4,13.71 44.01,16.16 21,3.31 42.53,4.1 63.76,4.1l196.7 0 0 76.26 -272.66 0c-63.97,0 -122.31,-18 -172.75,-57.92 -42.79,-33.86 -73.28,-77.37 -73.28,-133.76 0,-60.98 32.81,-107.22 79.99,-142.74 52.77,-39.72 112.13,-60.18 178.23,-60.18l259.39 0 0 83.79 -190.63 0c-19.99,0 -40.28,0.79 -60.02,4.08 -15.89,2.65 -31.24,7.78 -45.23,15.84 -22.45,12.94 -37.31,31.36 -37.93,57.73z"/>
   <polygon class="fil0" points="4496.32,976.08 4759.25,1170.77 4534.58,1170.77 4294.04,979.88 4535.65,776.9 4758.04,776.9 "/>
   <polygon class="fil0" points="4291.24,1170.77 4131.88,1170.77 4131.88,643.34 4291.24,643.34 "/>
   <path class="fil0" d="M4072.1 1170.77l-243.8 0c-72.49,0 -151.59,-11.46 -212.59,-53.34 -49.33,-33.87 -77.85,-79.79 -77.85,-140.6 0,-59.04 27.33,-104.7 73.91,-139.43 61.73,-46.01 142.34,-59 217.6,-59l242.72 0 0 93.52 -220.53 0c-37.59,0 -72.74,9.58 -102.88,32.59 -24.34,18.58 -42.56,42.8 -42.56,74.56 0,31.31 16.19,55.26 40.39,73.83 29.29,22.49 64.15,31.06 100.64,31.06l224.95 0 0 86.8z"/>
   <path class="fil0" d="M3325.98 937.58l0 -19.31c0,-5.8 -1.37,-11.28 -4.71,-16.06 -4.25,-6.06 -10.09,-11.61 -15.66,-16.45 -9.26,-7.12 -19.55,-12.68 -31.08,-15.01 -14.75,-2.99 -30.89,-3.33 -45.92,-3.33l-288.56 0 0 -89 295.95 0c39.34,0 83.09,0.43 121.42,9.44 24.45,5.75 48.27,14.66 69.39,28.41l0.33 0.22c20.28,13.73 39.65,31.68 49.24,54.7 9.72,23.32 12.31,50.53 12.31,75.62l0 224.7 -416.83 0c-42.65,0 -84.29,-8.87 -120.47,-32.26 -29.61,-19.15 -50.16,-45.44 -50.16,-82.07 0,-36.29 16.81,-64.39 45.43,-85.74 33.25,-24.8 72.84,-33.84 113.74,-33.84l265.57 0zm0 150.92l0 -73.17 -193.12 0c-15.9,0 -31.99,2.74 -46,10.6 -10.76,6.03 -18.48,14.65 -18.48,27.49 0,11.72 8.31,19.49 17.93,24.86 12.98,7.24 27.33,10.22 42.11,10.22l197.56 0z"/>
   <polygon class="fil0" points="2424.14,736.03 2424.14,1172.26 2240.36,1172.26 2240.36,736.03 1956.72,736.03 1981.92,643.25 2713.58,643.25 2713.58,736.03 "/>
   <path class="fil0" d="M5428.09 865.92l0 304.84 -157.17 0 0 -392.34 157.17 0 0 49.27c16.39,-21.3 49.75,-36.64 74.5,-42.32 19.56,-4.48 39.54,-7.57 59.66,-7.57 5.91,0 11.83,0.22 17.71,0.68l20.03 1.58 0 85.85 -171.9 0z"/>
   <g>
    <path class="fil1" d="M135.53 538.94l24.75 -181.38 -64.23 0 4.72 -37.11 171.21 0 -4.72 37.11 -63.21 0 -24.8 181.38 -43.71 0zm321.8 -8.85c-7.25,3.95 -15.12,6.99 -23.68,9.01 -8.56,2.03 -17.41,3.04 -26.65,3.04 -20.23,0 -36.27,-6.45 -48.09,-19.3 -11.82,-12.85 -17.75,-30.39 -17.75,-52.57 0,-24.58 6.86,-44.41 20.52,-59.61 13.71,-15.14 31.75,-22.71 54.17,-22.71 18.18,0 32.19,5.7 42.06,17.17 9.87,11.46 14.83,27.72 14.83,48.78 0,2.61 -0.05,5.28 -0.2,8.05 -0.15,2.77 -0.39,5.49 -0.68,8.21l-89.57 0.16c0,0.53 -0.05,1.28 -0.14,2.35 -0.1,1.01 -0.15,1.71 -0.15,2.03 0,10.61 2.87,18.66 8.61,24.26 5.74,5.54 14.1,8.31 25,8.31 6.18,0 13.22,-1.28 21.15,-3.84 7.92,-2.56 17.16,-6.61 27.81,-12.16l-7.25 38.81zm-69.49 -85.52l45.81 0 0 -2.98c0,-7.68 -1.65,-13.54 -4.91,-17.54 -3.26,-4 -8.02,-6.03 -14.3,-6.03 -6.47,0 -11.91,2.24 -16.34,6.72 -4.48,4.48 -7.88,11.09 -10.26,19.83zm177.68 94.37l29.71 -218.49 38.57 0 -29.71 218.49 -38.56 0zm266.81 -8.85c-7.25,3.95 -15.12,6.99 -23.68,9.01 -8.56,2.03 -17.41,3.04 -26.65,3.04 -20.23,0 -36.28,-6.45 -48.09,-19.3 -11.82,-12.85 -17.75,-30.39 -17.75,-52.57 0,-24.58 6.86,-44.41 20.52,-59.61 13.71,-15.14 31.75,-22.71 54.17,-22.71 18.19,0 32.19,5.7 42.06,17.17 9.87,11.46 14.83,27.72 14.83,48.78 0,2.61 -0.05,5.28 -0.2,8.05 -0.15,2.77 -0.39,5.49 -0.68,8.21l-89.57 0.16c0,0.53 -0.05,1.28 -0.14,2.35 -0.1,1.01 -0.15,1.71 -0.15,2.03 0,10.61 2.87,18.66 8.61,24.26 5.74,5.54 14.1,8.31 25,8.31 6.18,0 13.22,-1.28 21.15,-3.84 7.93,-2.56 17.16,-6.61 27.81,-12.16l-7.25 38.81zm-69.48 -85.52l45.81 0 0 -2.98c0,-7.68 -1.66,-13.54 -4.91,-17.54 -3.26,-4 -8.02,-6.03 -14.3,-6.03 -6.47,0 -11.91,2.24 -16.34,6.72 -4.47,4.48 -7.88,11.09 -10.26,19.83zm176.8 94.37l20.09 -148.11 39.14 0 -2.29 17.86c6.56,-6.98 13.52,-12.16 20.95,-15.62 7.39,-3.41 15.46,-5.12 24.22,-5.12 8.41,0 15.32,2.03 20.71,6.02 5.35,4 9.48,10.29 12.45,18.93 9.48,-8.32 18.43,-14.56 26.79,-18.71 8.36,-4.16 16.39,-6.24 24.07,-6.24 12.06,0 21.4,3.62 28.01,10.87 6.61,7.2 9.92,17.49 9.92,30.82 0,3.52 -0.24,8.05 -0.78,13.59 -0.53,5.49 -1.36,12.58 -2.48,21.22l-10.17 74.48 -39.78 0 13.08 -93.99c0.1,-0.22 0.15,-0.53 0.15,-0.96 0.29,-3.09 0.49,-5.33 0.59,-6.72 0,-5.7 -1.12,-9.97 -3.36,-12.8 -2.24,-2.83 -5.59,-4.21 -10.16,-4.21 -4.77,0 -10.07,1.87 -15.9,5.55 -5.84,3.68 -11.48,8.85 -17.02,15.51l-13.08 97.62 -39.43 0 13.08 -93.99c0.1,-0.22 0.15,-0.53 0.15,-0.96 0.29,-3.09 0.49,-5.44 0.58,-7.04 0,-5.49 -1.12,-9.65 -3.35,-12.48 -2.24,-2.83 -5.54,-4.21 -9.87,-4.21 -5.35,0 -10.89,1.92 -16.78,5.7 -5.84,3.79 -11.57,9.28 -17.26,16.48l-13.13 96.5 -39.14 0zm409.67 -42.44l9.29 -70.16c-0.87,-0.11 -1.85,-0.22 -2.92,-0.27 -1.12,-0.05 -2.72,-0.05 -4.91,-0.05 -15.8,0 -28.25,5.01 -37.49,14.98 -9.19,10.03 -13.81,23.46 -13.81,40.36 0,8.32 1.8,14.87 5.35,19.67 3.55,4.8 8.36,7.2 14.44,7.2 4.86,0 9.77,-0.96 14.73,-2.88 5.01,-1.92 10.11,-4.91 15.32,-8.85zm-5.84 42.44l1.46 -11.52c-6.57,5.01 -12.89,8.64 -18.91,10.93 -6.03,2.29 -12.2,3.46 -18.43,3.46 -14.39,0 -25.77,-5.49 -34.23,-16.47 -8.46,-10.98 -12.69,-25.86 -12.69,-44.63 0,-13.17 2.29,-25.43 6.9,-36.84 4.62,-11.41 11.23,-21.11 19.89,-29.16 9.29,-8.64 20.23,-14.77 32.73,-18.39 12.5,-3.68 32.48,-5.49 60.05,-5.49l22.22 0 -19.79 148.11 -39.19 0zm240.17 -6.67c-5.79,3.25 -11.58,5.65 -17.41,7.2 -5.79,1.55 -11.52,2.34 -17.21,2.34 -13.86,0 -24.36,-4.1 -31.56,-12.26 -7.15,-8.21 -10.75,-20.31 -10.75,-36.36 0,-2.19 0.15,-4.91 0.49,-8.21 0.34,-3.25 0.83,-6.93 1.51,-10.98l7.53 -49.9 -27.28 0 4.67 -33.27 27.62 0 4.67 -30.71 39.63 0 -4.28 30.71 30.05 0 -4.42 33.27 -30.05 0 -7.25 53.48c-0.1,0.42 -0.14,0.9 -0.14,1.39 -0.29,2.72 -0.44,4.69 -0.44,5.97 0,5.44 1.02,9.44 3.06,12.05 2.05,2.61 5.2,3.89 9.48,3.89 2.38,0 5.35,-0.64 8.95,-1.87 3.64,-1.28 7.97,-3.31 13.13,-6.13l0 39.4zm117.48 -182.98c0,-6.24 1.94,-11.46 5.79,-15.73 3.84,-4.26 8.61,-6.4 14.3,-6.4 5.69,0 10.45,2.13 14.34,6.45 3.89,4.32 5.83,9.54 5.83,15.67 0,6.08 -1.94,11.25 -5.88,15.57 -3.94,4.32 -8.7,6.45 -14.3,6.45 -5.54,0 -10.26,-2.13 -14.2,-6.45 -3.94,-4.32 -5.88,-9.49 -5.88,-15.57zm-23.05 189.64l20.23 -148.11 38.41 0 -20.08 148.11 -38.56 0zm260.34 -3.84c-7.49,2.29 -14.78,4 -21.88,5.06 -7.05,1.12 -13.96,1.65 -20.71,1.65 -19.55,0 -35.6,-6.5 -48.09,-19.46 -12.5,-12.95 -18.72,-29.59 -18.72,-49.9 0,-24.26 8.17,-44.41 24.51,-60.46 16.33,-16.05 37.15,-24.04 62.43,-24.04 5.79,0 11.67,0.59 17.75,1.7 6.03,1.17 12.16,2.83 18.43,5.01l-5.01 39.35c-6.57,-2.08 -12.5,-3.68 -17.8,-4.74 -5.3,-1.12 -9.97,-1.66 -13.95,-1.66 -13.28,0 -24.17,4.11 -32.73,12.32 -8.51,8.21 -12.79,18.61 -12.79,31.19 0,10.72 2.92,18.93 8.8,24.53 5.89,5.6 14.44,8.42 25.62,8.42 5.89,0 12.11,-1.01 18.72,-2.99 6.57,-1.97 13.57,-4.9 20.96,-8.85l-5.54 42.87z"/>
    <path class="fil2" d="M2122.31 484.88l5.25 -38.71 76.15 0 -5.25 38.71 -76.15 0zm258.01 -2.88c11.76,7.57 22.12,13.06 31.02,16.53 8.95,3.47 17.21,5.22 24.8,5.22 8.76,0 15.9,-2.29 21.4,-6.93 5.5,-4.64 8.27,-10.56 8.27,-17.7 0,-9.49 -9.43,-20.63 -28.35,-33.53 -4.08,-2.93 -7.29,-5.17 -9.58,-6.72 -12.45,-8.74 -21.69,-17.75 -27.72,-27.03 -6.03,-9.28 -9.05,-19.03 -9.05,-29.27 0,-18.82 6.76,-34.49 20.23,-46.97 13.47,-12.42 30.59,-18.66 51.25,-18.66 9.04,0 18.09,1.28 27.23,3.84 9.09,2.56 18.43,6.5 27.91,11.84l-6.66 39.35c-9.09,-5.49 -17.56,-9.59 -25.43,-12.26 -7.83,-2.72 -15.12,-4.05 -21.83,-4.05 -8.56,0 -15.51,2.08 -20.86,6.24 -5.4,4.16 -8.08,9.49 -8.08,15.94 0,7.78 7.49,16.95 22.51,27.46 6.76,4.69 12.01,8.53 15.8,11.51 13.61,10.61 22.85,20.15 27.81,28.58 4.91,8.42 7.39,18.07 7.39,28.9 0,20.15 -6.27,36.63 -18.87,49.37 -12.6,12.74 -28.93,19.14 -49.11,19.14 -11.48,0 -22.66,-1.86 -33.56,-5.55 -10.84,-3.68 -21.83,-9.33 -32.96,-16.95l6.42 -38.28zm344.03 48.09c-7.25,3.95 -15.12,6.99 -23.68,9.01 -8.56,2.03 -17.41,3.04 -26.65,3.04 -20.23,0 -36.27,-6.45 -48.09,-19.3 -11.82,-12.85 -17.75,-30.39 -17.75,-52.57 0,-24.58 6.86,-44.41 20.52,-59.61 13.71,-15.14 31.76,-22.71 54.17,-22.71 18.18,0 32.19,5.7 42.06,17.17 9.87,11.46 14.83,27.72 14.83,48.78 0,2.61 -0.04,5.28 -0.19,8.05 -0.15,2.77 -0.39,5.49 -0.68,8.21l-89.57 0.16c0,0.53 -0.04,1.28 -0.14,2.35 -0.1,1.01 -0.14,1.71 -0.14,2.03 0,10.61 2.87,18.66 8.61,24.26 5.74,5.54 14.1,8.31 25,8.31 6.18,0 13.22,-1.28 21.15,-3.84 7.92,-2.56 17.16,-6.61 27.81,-12.16l-7.25 38.81zm-69.49 -85.52l45.81 0 0 -2.98c0,-7.68 -1.65,-13.54 -4.91,-17.54 -3.26,-4 -8.02,-6.03 -14.3,-6.03 -6.47,0 -11.92,2.24 -16.34,6.72 -4.48,4.48 -7.88,11.09 -10.26,19.83zm178.26 94.37l20.23 -148.11 39 0 -2.57 20.47c7.63,-9.33 13.61,-15.57 18.04,-18.66 4.38,-3.14 8.9,-4.69 13.42,-4.69 3.65,0 7.49,0.8 11.57,2.45 4.09,1.66 8.36,4.16 12.93,7.47l-18.91 45.1c-3.65,-4.27 -6.95,-7.41 -9.97,-9.44 -3.06,-2.03 -5.93,-3.04 -8.7,-3.04 -3.89,0 -7.88,1.71 -11.86,5.06 -4.04,3.41 -8.08,8.42 -12.06,15.09l-11.96 88.29 -39.14 0zm223.19 0l-34.43 -148.11 39.68 0 16.97 79.65 36.71 -79.65 42.31 0 -73.47 148.11 -27.77 0zm193.19 -189.64c0,-6.24 1.94,-11.46 5.79,-15.73 3.84,-4.26 8.61,-6.4 14.3,-6.4 5.69,0 10.46,2.13 14.34,6.45 3.89,4.32 5.84,9.54 5.84,15.67 0,6.08 -1.95,11.25 -5.89,15.57 -3.94,4.32 -8.7,6.45 -14.3,6.45 -5.54,0 -10.26,-2.13 -14.2,-6.45 -3.94,-4.32 -5.88,-9.49 -5.88,-15.57zm-23.05 189.64l20.23 -148.11 38.41 0 -20.08 148.11 -38.56 0zm260.34 -3.84c-7.49,2.29 -14.78,4 -21.88,5.06 -7.05,1.12 -13.95,1.65 -20.71,1.65 -19.55,0 -35.6,-6.5 -48.09,-19.46 -12.5,-12.95 -18.72,-29.59 -18.72,-49.9 0,-24.26 8.17,-44.41 24.51,-60.46 16.34,-16.05 37.15,-24.04 62.44,-24.04 5.79,0 11.67,0.59 17.74,1.7 6.03,1.17 12.16,2.83 18.43,5.01l-5.01 39.35c-6.57,-2.08 -12.5,-3.68 -17.8,-4.74 -5.3,-1.12 -9.97,-1.66 -13.96,-1.66 -13.28,0 -24.17,4.11 -32.73,12.32 -8.51,8.21 -12.79,18.61 -12.79,31.19 0,10.72 2.92,18.93 8.8,24.53 5.88,5.6 14.44,8.42 25.62,8.42 5.89,0 12.11,-1.01 18.72,-2.99 6.57,-1.97 13.57,-4.9 20.96,-8.85l-5.54 42.87zm223.58 -5.01c-7.25,3.95 -15.12,6.99 -23.68,9.01 -8.56,2.03 -17.41,3.04 -26.65,3.04 -20.23,0 -36.28,-6.45 -48.09,-19.3 -11.82,-12.85 -17.75,-30.39 -17.75,-52.57 0,-24.58 6.86,-44.41 20.52,-59.61 13.71,-15.14 31.75,-22.71 54.17,-22.71 18.19,0 32.19,5.7 42.06,17.17 9.87,11.46 14.83,27.72 14.83,48.78 0,2.61 -0.05,5.28 -0.2,8.05 -0.15,2.77 -0.39,5.49 -0.68,8.21l-89.57 0.16c0,0.53 -0.05,1.28 -0.14,2.35 -0.1,1.01 -0.15,1.71 -0.15,2.03 0,10.61 2.87,18.66 8.61,24.26 5.74,5.54 14.1,8.31 25,8.31 6.18,0 13.22,-1.28 21.15,-3.84 7.93,-2.56 17.16,-6.61 27.81,-12.16l-7.25 38.81zm-69.48 -85.52l45.81 0 0 -2.98c0,-7.68 -1.66,-13.54 -4.91,-17.54 -3.26,-4 -8.02,-6.03 -14.3,-6.03 -6.47,0 -11.91,2.24 -16.34,6.72 -4.47,4.48 -7.88,11.09 -10.26,19.83zm171.84 83.81l4.42 -33.59 1.41 0.64c18.67,7.68 32,11.52 39.97,11.52 3.11,0 5.74,-0.85 7.88,-2.56 2.14,-1.71 3.21,-3.84 3.21,-6.34 0,-4.37 -4.09,-9.86 -12.2,-16.53 -4.86,-3.95 -8.66,-7.31 -11.38,-9.97 -8.66,-8.58 -14.44,-15.62 -17.46,-21.17 -2.97,-5.6 -4.48,-11.68 -4.48,-18.23 0,-13.01 4.52,-23.62 13.61,-31.88 9.04,-8.21 20.76,-12.31 35.11,-12.31 6.9,0 13.86,1.06 20.81,3.14 6.9,2.08 14.1,5.17 21.49,9.38l-2.28 35.14c-7.98,-4.27 -15.17,-7.57 -21.64,-9.92 -6.47,-2.35 -11.62,-3.52 -15.41,-3.52 -2.92,0 -5.4,0.75 -7.34,2.19 -1.95,1.44 -2.92,3.31 -2.92,5.6 0,4.48 4.72,10.61 14.1,18.29 4.86,4.05 8.6,7.36 11.28,9.86 7.2,6.56 12.2,12.53 14.88,17.97 2.72,5.39 4.08,11.62 4.08,18.71 0,13.54 -4.62,24.79 -13.91,33.7 -9.24,8.9 -21.05,13.33 -35.4,13.33 -7.58,0 -15.41,-1.12 -23.53,-3.36 -8.12,-2.24 -16.24,-5.6 -24.31,-10.08z"/>
   </g>
   <path class="fil0" d="M5197.5 641.91c-0.26,-128.25 -34.86,-258 -107.23,-375.48 -72.47,-117.56 -173.3,-207.48 -288.63,-266.43l-22.44 42.81 -27.61 52.36c98.21,50.32 184.18,126.81 246.04,227.06 61.55,100.1 91.05,210.7 91.32,319.99l59.68 -0.15 48.87 -0.15zm-217.22 0.54c-0.12,-90.28 -24.39,-181.81 -75.47,-264.45 -50.96,-82.76 -122.04,-146.09 -203.18,-187.63l-50.11 95.11c64.14,32.84 120.33,82.87 160.67,148.27 40.2,65.45 59.49,137.72 59.62,209.01l108.48 -0.31zm-423.81 -176.05l45 -85.65c47.15,24.1 88.33,60.88 117.97,108.82 29.61,47.99 43.72,101.08 43.75,153.43l-96.4 0.24c-1.07,-52.19 -22.19,-104.01 -63.21,-143.13 -14.39,-13.72 -30.28,-24.92 -47.11,-33.71z"/>
   <g>
    <path class="fil3" d="M1799.37 1007.68c-12.99,47.89 -32.55,87.15 -71.51,118.29 -38.9,31.09 -83.46,48.26 -133.59,48.26l-762.09 0 23.96 -90.47 691.07 0c16.2,0 31.52,-3.52 45.55,-11.55 13.59,-7.78 32.06,-48.49 36.16,-63.61 11.06,-40.8 -25.52,-44.27 -58.38,-44.27l-140.76 0c-43.28,0 -82.84,-12.53 -113.04,-43.94 -30.96,-32.19 -36.41,-72.15 -25,-114.23 13.2,-48.65 33.65,-87.62 74.96,-117.03 42.92,-30.56 91.8,-44.54 144.64,-44.54l396.6 0 -24.86 91.43 -347.89 0c-12.6,0 -34.61,8.93 -42.31,19.67 -11.26,7.51 -22.13,36.61 -25.74,49.92 -2.88,10.63 -2.51,20.44 4.92,29.03 8.01,9.26 19.3,12.03 31.29,12.03l155.87 0c44.16,0 91.49,9.28 121.32,44.27 28.58,33.54 29.9,75.89 18.82,116.75z"/>
    <path class="fil3" d="M799.34 999.91l-47.08 173.61 -156.18 0 143.44 -528.93 356.9 0c52.07,0 99.2,16.33 126.16,62.57 21.93,38.16 23.28,80.07 11.93,121.92 -13.77,50.79 -45.57,90.45 -88.02,121.22 -42.98,31.24 -91.31,49.6 -144.9,49.6l-202.25 0zm72.04 -264.1l-40.32 147.14 166.6 0c21.15,0 39.77,-7.21 56.56,-19.67 16.89,-12.54 28.73,-28.36 34.22,-48.59 3.99,-14.68 10.95,-41.84 -1.5,-62.24 -9.18,-12.23 -27.24,-16.64 -44.19,-16.64l-171.36 0z"/>
    <path class="fil3" d="M384.12 1084.72l32.72 -121.81 -149.56 0 22.04 -81.26 304.31 0 -79.15 291.87 -347.54 0c-65.09,0 -114.99,-27.41 -144.37,-85.4 -29.09,-57.87 -27.16,-121.9 -10.57,-183.06 19.39,-71.52 57.82,-131.81 113.68,-181.13 54.89,-48.55 119.13,-79.35 193.61,-79.35l332.87 0 -24.82 91.51 -294.97 0c-36.83,0 -77.97,34.53 -102.96,60.27 -27.72,28.52 -43.29,77.12 -53.63,115.25 -8.99,33.15 -20.27,97.05 -8.95,130.14 10.13,28.96 28.9,42.96 60.06,42.96l157.25 0z"/>
   </g>
   <path class="fil3" d="M4502.73 687.66c28.84,-29.81 27.77,-77.07 -2.4,-105.57 -30.17,-28.5 -78,-27.44 -106.84,2.36 -28.84,29.81 -27.77,77.07 2.39,105.57 30.17,28.5 78,27.44 106.84,-2.36z"/>
  </g>
 </g>
</svg>
