<?xml version="1.0" encoding="UTF-8"?>
<!DOCTYPE svg PUBLIC "-//W3C//DTD SVG 1.1//EN" "http://www.w3.org/Graphics/SVG/1.1/DTD/svg11.dtd">
<!-- Creator: CorelDRAW 2019 (64-Bit) -->
<svg xmlns="http://www.w3.org/2000/svg" xml:space="preserve" width="133.367mm" height="27.965mm" version="1.1" style="shape-rendering:geometricPrecision; text-rendering:geometricPrecision; image-rendering:optimizeQuality; fill-rule:evenodd; clip-rule:evenodd"
viewBox="0 0 12443.93 2609.3"
 xmlns:xlink="http://www.w3.org/1999/xlink">
 <defs>
  <style type="text/css">
   <![CDATA[
    .fil0 {fill:#2F365E}
    .fil2 {fill:#FF6600}
    .fil1 {fill:#2F365E;fill-rule:nonzero}
   ]]>
  </style>
 </defs>
 <g id="Capa_x0020_1">
  <metadata id="CorelCorpID_0Corel-Layer"/>
  <g id="_824098576784">
   <path class="fil0" d="M6035.23 1924.18l0 677.39 -349.25 0 0 -871.84 349.25 0 0 109.49c36.42,-47.32 110.55,-81.43 165.55,-94.03 43.47,-9.97 87.88,-16.81 132.57,-16.81 13.13,0 26.27,0.49 39.37,1.52l44.5 3.51 0 190.77 -381.98 0z"/>
   <path class="fil0" d="M10812.42 2088.44l739.21 0 0 187.8 -739.21 0c0.35,21.21 3.71,43.2 13.14,62.34 10.87,22.08 34.3,40.35 54.49,53.51 29.53,19.24 63.1,30.46 97.78,35.92 46.65,7.34 94.51,9.11 141.68,9.11l437.11 0 0 169.46 -605.9 0c-142.16,0 -271.79,-39.99 -383.88,-128.7 -95.09,-75.25 -162.85,-171.94 -162.85,-297.23 0,-135.51 72.91,-238.25 177.75,-317.19 117.25,-88.27 249.15,-133.73 396.06,-133.73l576.39 0 0 186.18 -423.6 0c-44.41,0 -89.49,1.75 -133.37,9.06 -35.32,5.89 -69.42,17.29 -100.5,35.19 -49.89,28.75 -82.91,69.69 -84.28,128.28z"/>
   <polygon class="fil0" points="9991.43,2168.99 10575.7,2601.61 10076.44,2601.61 9541.94,2177.43 10078.82,1726.38 10573,1726.38 "/>
   <polygon class="fil0" points="9535.72,2601.61 9181.6,2601.61 9181.6,1429.58 9535.72,1429.58 "/>
   <path class="fil0" d="M9048.77 2601.61l-541.75 0c-161.09,0 -336.85,-25.45 -472.4,-118.53 -109.62,-75.27 -172.98,-177.29 -172.98,-312.43 0,-131.2 60.72,-232.64 164.24,-309.82 137.17,-102.25 316.29,-131.11 483.52,-131.11l539.37 0 0 207.82 -490.06 0c-83.52,0 -161.64,21.28 -228.62,72.41 -54.09,41.3 -94.57,95.11 -94.57,165.69 0,69.58 35.99,122.79 89.74,164.06 65.09,49.99 142.54,69.02 223.63,69.02l499.88 0 0 192.88z"/>
   <path class="fil0" d="M7390.76 2083.43l0 -42.91c0,-12.89 -3.03,-25.08 -10.46,-35.7 -9.44,-13.47 -22.41,-25.81 -34.81,-36.56 -20.58,-15.82 -43.44,-28.16 -69.05,-33.35 -32.79,-6.64 -68.65,-7.41 -102.04,-7.41l-641.23 0 0 -197.78 657.64 0c87.41,0 184.63,0.95 269.82,20.98 54.34,12.77 107.26,32.58 154.2,63.14l0.73 0.48c45.09,30.51 88.1,70.41 109.43,121.55 21.6,51.81 27.36,112.29 27.36,168.03l0 499.32 -926.25 0c-94.77,0 -187.31,-19.71 -267.7,-71.69 -65.79,-42.56 -111.46,-100.98 -111.46,-182.36 0,-80.65 37.35,-143.1 100.96,-190.54 73.9,-55.11 161.85,-75.2 252.76,-75.2l590.12 0zm0 335.36l0 -162.59 -429.12 0c-35.34,0 -71.08,6.09 -102.22,23.55 -23.9,13.4 -41.06,32.55 -41.06,61.09 0,26.04 18.47,43.31 39.84,55.24 28.84,16.09 60.72,22.72 93.58,22.72l438.99 0z"/>
   <polygon class="fil0" points="5386.77,1635.56 5386.77,2604.91 4978.38,2604.91 4978.38,1635.56 4348.11,1635.56 4404.1,1429.39 6029.95,1429.39 6029.95,1635.56 "/>
   <path class="fil0" d="M12061.95 1924.18l0 677.39 -349.25 0 0 -871.84 349.25 0 0 109.49c36.42,-47.32 110.55,-81.43 165.55,-94.03 43.47,-9.97 87.88,-16.81 132.57,-16.81 13.13,0 26.27,0.49 39.37,1.52l44.5 3.51 0 190.77 -381.98 0z"/>
   <polygon class="fil1" points="309.96,1051.33 370.48,603.28 213.41,603.28 224.95,511.61 643.6,511.61 632.06,603.28 477.49,603.28 416.85,1051.33 "/>
   <path id="1" class="fil1" d="M1096.84 1029.47c-17.72,9.74 -36.98,17.25 -57.91,22.25 -20.93,5.01 -42.57,7.51 -65.16,7.51 -49.46,0 -88.7,-15.94 -117.59,-47.68 -28.89,-31.74 -43.4,-75.07 -43.4,-129.86 0,-60.71 16.76,-109.71 50.18,-147.24 33.52,-37.41 77.64,-56.11 132.45,-56.11 44.47,0 78.71,14.1 102.85,42.42 24.13,28.31 36.26,68.48 36.26,120.5 0,6.46 -0.11,13.03 -0.47,19.88 -0.36,6.85 -0.95,13.57 -1.67,20.28l-219.01 0.4c0,1.32 -0.13,3.15 -0.36,5.79 -0.23,2.5 -0.35,4.21 -0.35,5 0,26.21 7.02,46.09 21.04,59.92 14.03,13.7 34.49,20.55 61.12,20.55 15.09,0 32.33,-3.15 51.72,-9.48 19.38,-6.32 41.96,-16.33 68.01,-30.03l-17.72 95.88zm-169.91 -211.25l112 0 0 -7.38c0,-18.96 -4.05,-33.45 -12.01,-43.33 -7.97,-9.87 -19.61,-14.88 -34.95,-14.88 -15.82,0 -29.13,5.53 -39.95,16.6 -10.94,11.07 -19.27,27.39 -25.09,48.99z"/>
   <polygon id="2" class="fil1" points="1361.39,1051.33 1434.04,511.61 1528.32,511.61 1455.67,1051.33 "/>
   <path id="3" class="fil1" d="M2013.79 1029.47c-17.73,9.74 -36.98,17.25 -57.91,22.25 -20.92,5.01 -42.56,7.51 -65.16,7.51 -49.46,0 -88.7,-15.94 -117.58,-47.68 -28.9,-31.74 -43.4,-75.07 -43.4,-129.86 0,-60.71 16.76,-109.71 50.18,-147.24 33.52,-37.41 77.63,-56.11 132.45,-56.11 44.46,0 78.71,14.1 102.84,42.42 24.14,28.31 36.27,68.48 36.27,120.5 0,6.46 -0.12,13.03 -0.48,19.88 -0.35,6.85 -0.95,13.57 -1.66,20.28l-219.01 0.4c0,1.32 -0.13,3.15 -0.36,5.79 -0.24,2.5 -0.35,4.21 -0.35,5 0,26.21 7.02,46.09 21.04,59.92 14.03,13.7 34.49,20.55 61.12,20.55 15.1,0 32.34,-3.15 51.72,-9.48 19.39,-6.32 41.97,-16.33 68.01,-30.03l-17.71 95.88zm-169.91 -211.25l111.99 0 0 -7.38c0,-18.96 -4.04,-33.45 -12,-43.33 -7.97,-9.87 -19.62,-14.88 -34.96,-14.88 -15.82,0 -29.12,5.53 -39.94,16.6 -10.94,11.07 -19.27,27.39 -25.09,48.99z"/>
   <path id="4" class="fil1" d="M2276.19 1051.33l49.11 -365.87 95.71 0 -5.59 44.11c16.06,-17.25 33.05,-30.03 51.24,-38.59 18.07,-8.43 37.82,-12.64 59.21,-12.64 20.56,0 37.46,5.01 50.65,14.88 13.08,9.88 23.2,25.43 30.45,46.76 23.18,-20.55 45.07,-35.95 65.51,-46.22 20.45,-10.27 40.07,-15.41 58.86,-15.41 29.48,0 52.32,8.96 68.49,26.87 16.17,17.77 24.26,43.2 24.26,76.13 0,8.69 -0.6,19.88 -1.9,33.58 -1.32,13.57 -3.34,31.08 -6.06,52.42l-24.85 183.99 -97.27 0 31.99 -232.19c0.24,-0.53 0.36,-1.32 0.36,-2.37 0.71,-7.64 1.18,-13.17 1.43,-16.6 0,-14.09 -2.74,-24.63 -8.21,-31.61 -5.47,-6.98 -13.67,-10.4 -24.85,-10.4 -11.64,0 -24.61,4.61 -38.88,13.7 -14.27,9.09 -28.06,21.86 -41.61,38.33l-31.99 241.15 -96.43 0 31.99 -232.19c0.24,-0.53 0.36,-1.32 0.36,-2.37 0.71,-7.64 1.18,-13.44 1.43,-17.39 0,-13.57 -2.73,-23.84 -8.21,-30.82 -5.47,-6.98 -13.55,-10.4 -24.13,-10.4 -13.08,0 -26.64,4.74 -41.03,14.1 -14.27,9.35 -28.29,22.92 -42.2,40.69l-32.11 238.39 -95.71 0z"/>
   <path id="5" class="fil1" d="M3277.92 946.49l22.71 -173.32c-2.14,-0.26 -4.53,-0.52 -7.14,-0.65 -2.73,-0.13 -6.66,-0.13 -12.01,-0.13 -38.64,0 -69.07,12.38 -91.67,37.01 -22.47,24.76 -33.77,57.95 -33.77,99.7 0,20.55 4.4,36.75 13.08,48.6 8.68,11.85 20.45,17.78 35.31,17.78 11.9,0 23.9,-2.38 36.03,-7.12 12.24,-4.74 24.73,-12.11 37.45,-21.86zm-14.27 104.84l3.56 -28.45c-16.05,12.38 -31.51,21.34 -46.25,27 -14.74,5.66 -29.85,8.56 -45.06,8.56 -35.2,0 -63.03,-13.57 -83.71,-40.69 -20.69,-27.13 -31.03,-63.88 -31.03,-110.24 0,-32.53 5.6,-62.82 16.89,-91.01 11.3,-28.18 27.46,-52.15 48.63,-72.04 22.71,-21.33 49.46,-36.48 80.01,-45.44 30.57,-9.08 79.44,-13.56 146.84,-13.56l54.34 0 -48.39 365.87 -95.83 0z"/>
   <path id="6" class="fil1" d="M3850.89 1034.87c-14.15,8.03 -28.3,13.96 -42.57,17.77 -14.15,3.82 -28.18,5.79 -42.09,5.79 -33.89,0 -59.58,-10.14 -77.17,-30.29 -17.48,-20.28 -26.27,-50.18 -26.27,-89.83 0,-5.4 0.35,-12.12 1.18,-20.28 0.83,-8.03 2.02,-17.12 3.69,-27.12l18.43 -123.28 -66.69 0 11.41 -82.18 67.53 0 11.42 -75.87 96.9 0 -10.46 75.87 73.48 0 -10.81 82.18 -73.48 0 -17.73 132.09c-0.23,1.05 -0.35,2.24 -0.35,3.42 -0.71,6.72 -1.06,11.59 -1.06,14.75 0,13.44 2.5,23.32 7.48,29.76 5,6.46 12.73,9.62 23.2,9.62 5.82,0 13.08,-1.59 21.87,-4.61 8.92,-3.16 19.5,-8.17 32.11,-15.15l0 97.34z"/>
   <path id="7" class="fil1" d="M4138.15 582.86c0,-15.41 4.75,-28.32 14.15,-38.85 9.4,-10.53 21.05,-15.81 34.95,-15.81 13.91,0 25.57,5.27 35.07,15.94 9.52,10.66 14.27,23.57 14.27,38.72 0,15.01 -4.75,27.79 -14.38,38.45 -9.63,10.67 -21.28,15.94 -34.96,15.94 -13.56,0 -25.08,-5.26 -34.71,-15.94 -9.64,-10.66 -14.39,-23.44 -14.39,-38.45zm-56.37 468.47l49.46 -365.87 93.93 0 -49.1 365.87 -94.29 0z"/>
   <path id="8" class="fil1" d="M4718.37 1041.85c-18.31,5.66 -36.14,9.87 -53.5,12.51 -17.23,2.76 -34.12,4.08 -50.65,4.08 -47.8,0 -87.04,-16.07 -117.59,-48.07 -30.56,-32 -45.78,-73.1 -45.78,-123.28 0,-59.92 19.98,-109.71 59.93,-149.35 39.94,-39.64 90.83,-59.4 152.66,-59.4 14.15,0 28.54,1.46 43.4,4.22 14.74,2.9 29.73,6.98 45.07,12.38l-12.24 97.2c-16.06,-5.13 -30.57,-9.09 -43.52,-11.72 -12.96,-2.77 -24.38,-4.09 -34.12,-4.09 -32.47,0 -59.1,10.14 -80.03,30.43 -20.8,20.28 -31.27,45.96 -31.27,77.04 0,26.47 7.13,46.76 21.52,60.58 14.39,13.83 35.32,20.82 62.66,20.82 14.39,0 29.61,-2.51 45.78,-7.38 16.05,-4.87 33.17,-12.11 51.24,-21.86l-13.56 105.89z"/>
   <polygon id="9" class="fil1" points="5168.06,917.78 5180.89,822.16 5367.09,822.16 5354.25,917.78 "/>
   <path id="10" class="fil1" d="M5798.93 910.67c28.78,18.7 54.1,32.27 75.86,40.83 21.87,8.56 42.09,12.9 60.64,12.9 21.4,0 38.87,-5.66 52.32,-17.12 13.44,-11.46 20.21,-26.08 20.21,-43.72 0,-23.45 -23.07,-50.97 -69.32,-82.85 -9.99,-7.24 -17.83,-12.77 -23.43,-16.59 -30.43,-21.6 -53.03,-43.86 -67.77,-66.78 -14.74,-22.92 -22.11,-47.02 -22.11,-72.3 0,-46.49 16.52,-85.22 49.46,-116.04 32.94,-30.69 74.79,-46.09 125.32,-46.09 22.11,0 44.23,3.16 66.58,9.48 22.23,6.33 45.07,16.07 68.24,29.24l-16.28 97.2c-22.23,-13.57 -42.92,-23.71 -62.19,-30.3 -19.14,-6.72 -36.98,-10.01 -53.39,-10.01 -20.92,0 -37.92,5.14 -51,15.41 -13.2,10.27 -19.73,23.45 -19.73,39.38 0,19.23 18.31,41.88 55.04,67.83 16.53,11.59 29.37,21.07 38.65,28.45 33.29,26.21 55.88,49.78 68.01,70.6 12.01,20.81 18.07,44.65 18.07,71.38 0,49.79 -15.34,90.48 -46.14,121.96 -30.78,31.47 -70.74,47.28 -120.08,47.28 -28.06,0 -55.4,-4.61 -82.04,-13.7 -26.51,-9.09 -53.38,-23.05 -80.61,-41.88l15.69 -94.57z"/>
   <path id="11" class="fil1" d="M6640.14 1029.47c-17.73,9.74 -36.99,17.25 -57.91,22.25 -20.92,5.01 -42.57,7.51 -65.16,7.51 -49.46,0 -88.7,-15.94 -117.59,-47.68 -28.89,-31.74 -43.4,-75.07 -43.4,-129.86 0,-60.71 16.77,-109.71 50.18,-147.24 33.52,-37.41 77.64,-56.11 132.45,-56.11 44.47,0 78.72,14.1 102.85,42.42 24.14,28.31 36.27,68.48 36.27,120.5 0,6.46 -0.12,13.03 -0.48,19.88 -0.36,6.85 -0.95,13.57 -1.67,20.28l-219.01 0.4c0,1.32 -0.12,3.15 -0.36,5.79 -0.23,2.5 -0.35,4.21 -0.35,5 0,26.21 7.02,46.09 21.04,59.92 14.03,13.7 34.49,20.55 61.12,20.55 15.1,0 32.34,-3.15 51.72,-9.48 19.38,-6.32 41.97,-16.33 68.01,-30.03l-17.71 95.88zm-169.91 -211.25l111.99 0 0 -7.38c0,-18.96 -4.04,-33.45 -12,-43.33 -7.97,-9.87 -19.62,-14.88 -34.96,-14.88 -15.82,0 -29.13,5.53 -39.95,16.6 -10.94,11.07 -19.26,27.39 -25.08,48.99z"/>
   <path id="12" class="fil1" d="M6906.11 1051.33l49.47 -365.87 95.35 0 -6.3 50.57c18.66,-23.05 33.28,-38.46 44.11,-46.09 10.7,-7.77 21.76,-11.6 32.82,-11.6 8.91,0 18.3,1.98 28.29,6.06 9.99,4.08 20.45,10.27 31.63,18.44l-46.25 111.42c-8.92,-10.53 -17.01,-18.31 -24.38,-23.31 -7.48,-5 -14.5,-7.51 -21.28,-7.51 -9.51,0 -19.26,4.22 -29.01,12.51 -9.86,8.43 -19.73,20.82 -29.48,37.28l-29.25 218.1 -95.71 0z"/>
   <polygon id="13" class="fil1" points="7451.86,1051.33 7367.68,685.46 7464.7,685.46 7506.19,882.22 7595.96,685.46 7699.41,685.46 7519.75,1051.33 "/>
   <path id="14" class="fil1" d="M7924.24 582.86c0,-15.41 4.76,-28.32 14.15,-38.85 9.4,-10.53 21.04,-15.81 34.95,-15.81 13.91,0 25.57,5.27 35.07,15.94 9.52,10.66 14.27,23.57 14.27,38.72 0,15.01 -4.75,27.79 -14.39,38.45 -9.63,10.67 -21.27,15.94 -34.95,15.94 -13.56,0 -25.09,-5.26 -34.72,-15.94 -9.63,-10.66 -14.39,-23.44 -14.39,-38.45zm-56.36 468.47l49.46 -365.87 93.93 0 -49.1 365.87 -94.29 0z"/>
   <path id="15" class="fil1" d="M8504.47 1041.85c-18.32,5.66 -36.15,9.87 -53.5,12.51 -17.24,2.76 -34.13,4.08 -50.66,4.08 -47.79,0 -87.03,-16.07 -117.58,-48.07 -30.57,-32 -45.78,-73.1 -45.78,-123.28 0,-59.92 19.97,-109.71 59.92,-149.35 39.95,-39.64 90.84,-59.4 152.67,-59.4 14.15,0 28.54,1.46 43.4,4.22 14.74,2.9 29.73,6.98 45.07,12.38l-12.25 97.2c-16.05,-5.13 -30.56,-9.09 -43.51,-11.72 -12.97,-2.77 -24.38,-4.09 -34.13,-4.09 -32.46,0 -59.09,10.14 -80.02,30.43 -20.81,20.28 -31.27,45.96 -31.27,77.04 0,26.47 7.13,46.76 21.52,60.58 14.39,13.83 35.32,20.82 62.65,20.82 14.39,0 29.62,-2.51 45.79,-7.38 16.05,-4.87 33.17,-12.11 51.24,-21.86l-13.56 105.89z"/>
   <path id="16" class="fil1" d="M9051.17 1029.47c-17.72,9.74 -36.98,17.25 -57.91,22.25 -20.93,5.01 -42.57,7.51 -65.16,7.51 -49.46,0 -88.7,-15.94 -117.59,-47.68 -28.89,-31.74 -43.4,-75.07 -43.4,-129.86 0,-60.71 16.77,-109.71 50.18,-147.24 33.52,-37.41 77.64,-56.11 132.45,-56.11 44.47,0 78.72,14.1 102.85,42.42 24.13,28.31 36.26,68.48 36.26,120.5 0,6.46 -0.11,13.03 -0.47,19.88 -0.36,6.85 -0.95,13.57 -1.67,20.28l-219.01 0.4c0,1.32 -0.12,3.15 -0.36,5.79 -0.23,2.5 -0.35,4.21 -0.35,5 0,26.21 7.02,46.09 21.04,59.92 14.04,13.7 34.49,20.55 61.12,20.55 15.1,0 32.34,-3.15 51.72,-9.48 19.38,-6.32 41.97,-16.33 68.01,-30.03l-17.72 95.88zm-169.9 -211.25l111.99 0 0 -7.38c0,-18.96 -4.04,-33.45 -12.01,-43.33 -7.97,-9.87 -19.61,-14.88 -34.95,-14.88 -15.82,0 -29.13,5.53 -39.95,16.6 -10.94,11.07 -19.27,27.39 -25.08,48.99z"/>
   <path id="17" class="fil1" d="M9301.45 1025.25l10.82 -82.97 3.44 1.58c45.65,18.96 78.24,28.45 97.74,28.45 7.6,0 14.03,-2.11 19.26,-6.33 5.23,-4.21 7.85,-9.48 7.85,-15.67 0,-10.8 -9.98,-24.37 -29.85,-40.83 -11.89,-9.75 -21.15,-18.05 -27.82,-24.63 -21.15,-21.2 -35.31,-38.59 -42.68,-52.29 -7.25,-13.83 -10.94,-28.84 -10.94,-45.04 0,-32.13 11.07,-58.34 33.3,-78.76 22.11,-20.28 50.77,-30.43 85.84,-30.43 16.88,0 33.89,2.64 50.89,7.77 16.89,5.14 34.49,12.77 52.55,23.18l-5.58 86.79c-19.5,-10.53 -37.1,-18.7 -52.92,-24.49 -15.81,-5.79 -28.41,-8.7 -37.69,-8.7 -7.13,0 -13.19,1.85 -17.95,5.4 -4.75,3.55 -7.13,8.16 -7.13,13.83 0,11.07 11.53,26.21 34.48,45.18 11.9,10.01 21.04,18.18 27.59,24.36 17.6,16.2 29.84,30.95 36.38,44.39 6.66,13.31 9.98,28.71 9.98,46.23 0,33.45 -11.29,61.24 -34,83.23 -22.59,22 -51.49,32.93 -86.56,32.93 -18.55,0 -37.7,-2.76 -57.55,-8.29 -19.86,-5.53 -39.71,-13.83 -59.45,-24.89z"/>
   <path class="fil0" d="M11595.98 1426.41c-0.57,-284.99 -77.47,-573.31 -238.28,-834.37 -161.04,-261.25 -385.09,-461.04 -641.37,-592.04l-49.86 95.13 -61.36 116.35c218.24,111.82 409.28,281.8 546.73,504.55 136.76,222.43 202.33,468.2 202.93,711.06l132.62 -0.33 108.59 -0.35zm-482.69 1.2c-0.27,-200.61 -54.19,-404 -167.72,-587.64 -113.24,-183.9 -271.19,-324.63 -451.5,-416.94l-111.34 211.36c142.53,72.98 267.38,184.15 357.03,329.47 89.32,145.44 132.2,306.03 132.48,464.44l241.05 -0.69zm-941.75 -391.2l100 -190.32c104.77,53.56 196.28,135.28 262.15,241.81 65.79,106.63 97.14,224.61 97.21,340.94l-214.21 0.54c-2.37,-115.99 -49.31,-231.14 -140.46,-318.07 -31.99,-30.48 -67.29,-55.36 -104.68,-74.91z"/>
   <g>
    <path class="fil2" d="M3998.45 2239.21c-28.86,106.41 -72.34,193.66 -158.9,262.85 -86.43,69.07 -185.46,107.24 -296.85,107.24l-1693.46 0 53.24 -201.04 1535.65 0c36.01,0 70.04,-7.83 101.21,-25.68 30.19,-17.3 71.25,-107.77 80.35,-141.35 24.57,-90.66 -56.71,-98.37 -129.73,-98.37l-312.78 0c-96.17,0 -184.08,-27.85 -251.19,-97.64 -68.79,-71.54 -80.91,-160.32 -55.54,-253.84 29.33,-108.09 74.78,-194.7 166.57,-260.05 95.39,-67.91 203.99,-98.97 321.4,-98.97l881.3 0 -55.25 203.17 -773.06 0c-27.99,0 -76.91,19.85 -94.02,43.7 -25.02,16.7 -49.17,81.36 -57.2,110.93 -6.41,23.62 -5.57,45.41 10.93,64.5 17.8,20.58 42.9,26.73 69.53,26.73l346.37 0c98.12,0 203.31,20.62 269.6,98.37 63.5,74.51 66.44,168.63 41.83,259.43z"/>
    <path class="fil2" d="M1776.24 2221.93l-104.61 385.79 -347.06 0 318.73 -1175.35 793.08 0c115.7,0 220.43,36.3 280.35,139.05 48.74,84.79 51.75,177.92 26.53,270.91 -30.6,112.87 -101.26,200.99 -195.6,269.37 -95.51,69.42 -202.91,110.22 -322,110.22l-449.43 0zm160.08 -586.86l-89.59 326.97 370.21 0c46.99,0 88.37,-16.01 125.67,-43.71 37.54,-27.88 63.86,-63.02 76.03,-107.97 8.86,-32.62 24.32,-92.98 -3.33,-138.31 -20.4,-27.17 -60.53,-36.98 -98.2,-36.98l-380.79 0z"/>
    <path class="fil2" d="M853.56 2410.4l72.72 -270.69 -332.36 0 48.97 -180.56 676.23 0 -175.88 648.57 -772.29 0c-144.63,0 -255.52,-60.91 -320.79,-189.76 -64.64,-128.6 -60.35,-270.89 -23.5,-406.79 43.1,-158.92 128.49,-292.91 252.63,-402.49 121.97,-107.89 264.72,-176.32 430.21,-176.32l739.67 0 -55.15 203.35 -655.47 0c-81.83,0 -173.25,76.74 -228.79,133.93 -61.6,63.36 -96.21,171.36 -119.18,256.1 -19.98,73.66 -45.05,215.67 -19.88,289.19 22.5,64.36 64.22,95.46 133.46,95.46l349.41 0z"/>
   </g>
   <circle class="fil2" transform="matrix(1.22867 -1.26969 -1.28496 -1.21406 9930.73 1413.4)" r="123.14"/>
  </g>
 </g>
</svg>
