<svg xmlns="http://www.w3.org/2000/svg" width="70" height="70"><path fill="#222d55" d="M0 0h70v70H0z"/><path d="M-37.394 21.819c0 2.05 1.02 4.358 1.912 5.575 1.53 1.987 2.103 2.18 4.27 3.397 0-5.32-1.338-12.433 4.015-12.561 4.462-.192 3.952 4.678 4.334 7.883.128 1.153.383 2.691.383 4.037.573-.192 1.466-.897 1.975-1.282.638-.512 1.084-1.217 1.53-1.858 3.187-4.486 1.657-11.536-3.442-14.42-1.147-.64-2.485-1.025-3.824-1.153h-2.167c-2.485.256-4.907 1.346-6.5 3.332-.447.577-.574.577-.956 1.282-1.02 1.923-1.53 3.397-1.53 5.768z" class="fil5" clip-rule="evenodd" fill="#f16136" fill-rule="evenodd" image-rendering="optimizeQuality" shape-rendering="geometricPrecision" text-rendering="geometricPrecision"/><path d="M44.24 40.233l-2.116 2.044c-2.256-1.762-5.146-4.935-7.331-7.12-2.397-2.397-5.076-4.723-7.262-7.261l2.045-1.974 14.663 14.31zm-22.7-4.794c.634 7.261 7.401 13.606 15.579 12.971 19.034-1.55 16.285-30.172-2.467-28.621-7.403.564-13.818 7.331-13.113 15.65z" class="fil3" clip-rule="evenodd" fill="#222d55" fill-rule="evenodd" image-rendering="optimizeQuality" shape-rendering="geometricPrecision" text-rendering="geometricPrecision"/><path d="M62.075 38.047C59.96 51.371 47.623 62.721 31.761 60.254 18.72 58.21 7.158 45.802 9.696 29.87 11.88 16.757 24.006 5.478 40.009 7.945c13.042 1.974 24.463 14.381 22.066 30.102zM31.973 5.337c-9.8 1.41-14.1 5.569-18.682 10.574-4.512 4.865-7.473 13.606-6.204 22.277C9.132 52.711 22.808 65.4 39.94 62.862c14.663-2.115 27.212-15.509 24.744-32.851-2.114-14.523-15.58-27.142-32.71-24.674z" class="fil4" clip-rule="evenodd" fill="#fefefe" fill-rule="evenodd" image-rendering="optimizeQuality" shape-rendering="geometricPrecision" text-rendering="geometricPrecision"/><path d="M21.54 35.439c-.706-8.319 5.71-15.086 13.112-15.65 18.752-1.551 21.501 27.07 2.467 28.621-8.178.635-14.945-5.71-15.58-12.971zm10.433-16.426c-20.444 5.71-11.703 35.037 7.684 30.314 7.19-1.763 13.747-9.517 11.42-19.034-1.762-7.262-9.728-13.888-19.104-11.28z" class="fil4" clip-rule="evenodd" fill="#fefefe" fill-rule="evenodd" image-rendering="optimizeQuality" shape-rendering="geometricPrecision" text-rendering="geometricPrecision"/><path d="M27.531 27.896c2.186 2.538 4.865 4.864 7.262 7.261 2.185 2.185 5.075 5.358 7.331 7.12l2.115-2.044-14.663-14.311-2.045 1.974zm-7.825-10.575c1.058 0 1.974.917 1.974 1.974 0 1.058-.916 1.974-1.974 1.974a1.97 1.97 0 01-1.974-1.974 1.97 1.97 0 011.974-1.974zm-5.851 15.016a1.97 1.97 0 011.974 1.974 1.97 1.97 0 01-1.974 1.974c-1.058 0-1.904-.916-1.904-1.974 0-1.057.846-1.974 1.904-1.974zm6.697 15.439c1.058 0 1.904.917 1.904 1.974s-.846 1.974-1.904 1.974a1.97 1.97 0 01-1.974-1.974 1.97 1.97 0 011.974-1.974zM34.229 9.99c1.128 0 1.974.845 1.974 1.973 0 1.058-.846 1.904-1.974 1.904a1.896 1.896 0 01-1.904-1.904c0-1.128.846-1.973 1.904-1.973z" class="fil5" clip-rule="evenodd" fill="#f16136" fill-rule="evenodd" image-rendering="optimizeQuality" shape-rendering="geometricPrecision" text-rendering="geometricPrecision"/></svg>