<svg xmlns="http://www.w3.org/2000/svg" width="100" height="100"><path fill="#222d55" d="M0 0h100v100H0z"/><path d="M74.763 25.396c-6.947-7.125-18.144-7.183-25.009-.084-4.627 4.747-6.1 11.514-4.467 17.612L20.224 68.742l.04 8.857c.007 1.6.577 2.148 2.116 2.182h10.427l.001-6.294h6.108l.002-6.207h5.866l-.001-6.297h7.985l5.041-5.193c5.912 1.668 12.465.15 17.077-4.585 6.867-7.096 6.81-18.632-.123-25.806zm-3.706 10.62c-1.826 1.844-4.8 1.825-6.642-.043-1.84-1.924-1.858-4.988-.04-6.84 1.83-1.904 4.803-1.886 6.64.042 1.845 1.865 1.863 4.93.042 6.841z" fill="#fff"/><text style="line-height:125%" x="53.541" y="1032.379" font-weight="400" font-size="22.762" font-family="sans-serif" letter-spacing="0" word-spacing="0" fill="#fff" transform="translate(0 -952.362)"><tspan x="53.541" y="1032.379">x2</tspan></text></svg>