<svg xmlns="http://www.w3.org/2000/svg" width="70" height="70"><path fill="#222d55" d="M0 0h70v70H0z"/><path class="fil4" d="M96.59 36.901c-.933.22-1.426 1.042-1.426 2.14 0 3.016 4.99 3.838 4.99-.22 0-1.097-.548-1.7-1.425-1.92l4.552-10.695c2.413-5.814 6.527-12.505 1.7-17.496-1.7-1.81-3.784-2.797-5.814-3.071h-2.029c-2.633.329-5.155 1.974-6.8 4.771-1.701 2.962-1.098 6.088.164 9.215l4.607 12.779c.439 1.152 1.426 3.18 1.48 4.497z" clip-rule="evenodd" fill="#f16136" fill-rule="evenodd" image-rendering="optimizeQuality" shape-rendering="geometricPrecision" text-rendering="geometricPrecision"/><path d="M32.563 12.68c0 1.066.387 1.743.871 2.324.581.58 1.356.871 2.13.968h.678c.58-.096 1.161-.288 1.645-.58.678-.679 1.259-1.453 1.259-2.711 0-2.614-2.42-3.582-3.098-7.358 0-.288 0-.389-.194-.484-.29.192-.193.389-.29.968-.29 1.259-.678 2.033-1.258 3.001-.775 1.162-1.743 2.42-1.743 3.873zM43.6 21.103c0 1.452.677 2.517 1.935 3.098 1.162.581 2.711.288 3.68-.58.58-.582.87-1.55.87-2.324 0-2.227-1.645-3.582-2.517-5.712-.193-.484-.58-1.549-.58-2.227h-.291c-.097 1.55-.774 2.905-1.452 3.97-.581.968-1.646 2.323-1.646 3.775zm-22.073.097c0 1.936 1.452 3.195 3.194 3.291 1.743.096 3.389-1.258 3.389-3.388 0-2.42-2.808-4.066-3.098-7.745h-.387c0 .678-.29 1.743-.484 2.227-.581 1.549-2.033 3.194-2.324 4.356-.097.288-.29.968-.29 1.259z" fill="#f16136" fill-rule="evenodd"/><path d="M34.886 26.911c-6.195.39-10.455 2.518-14.715 6.874-2.13 2.13-4.162 5.808-4.84 8.713-.097.58-.387 1.258-.194 1.936 1.162-1.259.097-.58 2.324-2.033 1.84-1.065 5.324-.484 7.067 2.324.29.388.193.58.387.87.968-.87.29-1.451 2.71-2.903 1.84-1.26 4.163-.872 5.906.388 1.936 1.356 1.259 2.033 1.259 5.905.096.775 0 1.453 0 2.13v6.1c0 .774.096 1.355 0 2.129 0 .678.096 1.452-.097 2.033-.581 2.42-3.776 2.71-5.228 1.065-.678-.678-.58-1.452-.774-2.033-.581 0-.969-.096-1.55.096.388 1.065-.193.871.872 2.517 1.936 3.098 7.26 2.323 8.325-1.259.485-1.742-.193-17.134.29-17.812 1.356-2.13 6.487-3.195 8.907.678.388.58.194.58.484 1.161.484-.484 1.162-3.388 4.84-3.679 1.84-.288 3.97.485 5.229 2.518.29-.485.096-.289-.194-1.55-.097-.58-.29-1.064-.387-1.645-.388-1.065-.775-2.13-1.356-3.195L52.7 35.916a21.459 21.459 0 00-3.679-4.066c-6.099-5.035-11.617-4.647-12.488-4.938-.29-.774-.097-3.582-.484-4.26-.58.193-.194-.095-.871.193.193.484-.29 3.388-.29 4.066z" fill="#fefefe" fill-rule="evenodd"/></svg>