<svg xmlns="http://www.w3.org/2000/svg" width="668.578" height="668.578" viewBox="0 0 626.79229 626.79229"><g transform="translate(-58.651 -212.785)"><circle cx="372.047" cy="526.181" r="312.857" fill="#2e3c6e" stroke="#fff" stroke-width="1.078" stroke-linecap="round"/><g style="line-height:125%"><path d="M155.7 638.57q3.908-42.978 6.42-97.676l5.302-111.63q2.79-56.931 3.628-97.955-12.559 7.814-19.256 12.279-6.42 4.186-32.373 22.047 1.395-17.582 2.233-39.35 1.116-21.768 1.116-33.489 9.767-5.581 25.396-15.07 15.628-9.488 19.535-12 3.907-2.79 10.605-8.093 16.465.558 39.907.558 22.885 0 43.257-.558l-3.07 37.954q-1.116 13.117-2.511 37.675l-11.163 221.865-.838 33.21q-.279 10.325-.279 20.93l.28 29.303q-18.978-.558-41.304-.558-25.954 0-46.884.558zm179.035 0q.838-10.605.838-17.024l1.674-40.744q34.884-31.257 63.629-60.28 29.024-29.304 59.164-62.513 30.14-33.49 45.49-53.862 12.557-16.465 16.744-24.558 4.186-8.373 5.581-13.954 1.395-5.86 1.395-11.721 0-15.35-9.209-24.838-9.21-9.768-25.396-15.07-15.907-5.582-37.117-5.582-19.535 0-42.42 3.628-22.883 3.35-58.884 12.559l5.302-28.187q1.675-10.046 5.024-33.768 64.466-11.721 123.91-11.721 27.07 0 52.186 5.302 25.117 5.024 44.652 17.582 19.814 12.28 28.745 28.745 9.21 16.186 9.21 34.047 0 10.605-2.233 21.21-1.954 10.325-5.861 18.977-7.535 17.302-19.256 34.884-11.442 17.582-36.28 46.885-24.558 29.303-53.861 60-29.024 30.7-64.746 64.467h25.396l62.234-.279q30.977 0 45.489-.558 14.512-.837 34.884-2.79-.558 8.65-1.953 22.604-1.116 13.675-2.79 36.559-63.35-.558-131.724-.558-83.723 0-139.817.558z" style="-inkscape-font-specification:'Eras Demi ITC'" font-weight="400" font-size="571.545" font-family="Eras Demi ITC" letter-spacing="-54.83" word-spacing="0" fill="#fff" stroke="#2e3c6e" stroke-width="7.1"/></g><g style="line-height:68.00000072%;text-align:center"><path d="M185.487 719.552q4.89-8.653 11.475-21.398l12.369-23.75q5.784-11.005 9.594-19.047 6.114.094 8.653.094 4.468 0 8.748-.094l6.725 19.235 14.626 39.787 2.022 5.173-7.054-.094q-2.446 0-8.23.094-1.129-4.185-3.575-11.287-2.398-7.101-4.091-11.522H212.01q-5.502 11.193-10.722 22.81l-7.666-.095q-2.164 0-8.136.094zm30.71-32.591h18.012l-7.383-21.728-3.81 7.9-6.82 13.828zm49.24 32.591q1.082-10.676 1.787-23.985.753-13.31.847-23.844 4.326.094 6.913.094 3.057 0 6.49-.094l-.517 7.995q1.458-2.07 2.54-3.292 1.128-1.223 2.821-2.399 1.74-1.175 3.668-1.88 1.976-.706 4.374-1.13 2.446-.423 5.08-.423 4.185 0 7.994 1.082 3.857 1.035 6.208 3.34 2.352 2.304 3.104 5.031.753 2.728.753 5.785 0 1.27-.141 4.044l-.988 20.552q-.188 4.28-.235 9.124-3.715-.094-6.349-.094-3.574 0-7.196.094.377-4.091.941-14.25.564-10.205.564-13.497 0-3.716-1.175-5.973-1.176-2.258-3.669-3.433-2.445-1.176-5.314-1.176-2.822 0-5.267 1.082-2.446 1.081-4.233 3.15-1.881 2.117-2.916 5.221-1.082 3.292-1.599 10.864-.47 6.725-.752 18.012-3.622-.094-6.537-.094-2.963 0-7.196.094zm14.955-55.072q.047-3.668.8-6.113.8-2.446 2.21-3.434 1.411-1.034 3.198-1.034.612 0 1.27.14.659.095 1.317.377.658.235 1.129.517.517.283 1.928 1.176l2.445 1.552q.847.517 1.6.894.752.376 1.551.376.612 0 1.082-.235.517-.235.847-.753.329-.564.423-1.222.141-.659.282-1.929 1.975.094 2.963.094t3.057-.094q0 3.198-.659 5.409-.61 2.21-2.022 3.715-1.41 1.458-3.81 1.458-.893 0-1.786-.235-.847-.235-1.787-.753-.941-.517-3.293-2.022-2.351-1.505-3.103-1.834-.753-.33-1.458-.33-.8 0-1.411.518-.565.517-.753 1.27-.14.752-.235 2.492-1.834-.094-2.963-.094t-2.822.094zm72.802 6.114q5.409 0 10.347 1.646 4.985 1.6 8.418 4.797 3.48 3.151 5.22 7.76 1.74 4.562 1.74 9.641 0 5.362-1.834 10.347-1.834 4.985-5.314 8.653-3.48 3.622-8.7 5.456-5.174 1.787-11.052 1.787-5.456 0-10.394-1.6-4.891-1.645-8.371-4.89-3.48-3.245-5.315-7.901-1.787-4.656-1.787-9.735 0-5.174 1.646-9.877t5.127-8.37q3.527-3.67 8.982-5.691 5.456-2.023 11.287-2.023zm0 9.688q-4.091 0-7.336 2.023-3.198 1.975-4.797 5.925-1.552 3.95-1.552 8.607 0 4.091 1.27 7.29 1.316 3.197 4.232 5.173 2.963 1.975 7.008 1.975 4.138 0 7.242-2.022 3.151-2.07 4.703-6.02 1.6-3.998 1.6-8.795 0-3.903-1.224-7.101-1.222-3.198-4.138-5.126-2.87-1.929-7.008-1.929zm32.451 38.377l-1.035-10.347q4.609 1.881 7.807 2.634 3.198.705 5.879.705 2.68 0 4.515-.611 1.834-.659 2.727-1.881.894-1.27.894-2.634 0-.611-.141-1.129-.094-.517-.423-1.081-.283-.565-.706-1.035-.376-.517-1.082-1.129-.705-.658-2.022-1.646l-2.54-2.022q-3.668-2.869-5.596-4.515-1.928-1.646-3.245-3.34-1.317-1.74-2.022-3.62-.659-1.929-.659-3.904 0-3.433 2.07-6.537 2.116-3.104 6.113-4.515 3.998-1.458 9.406-1.458 6.161 0 14.203 1.458l.612 9.83q-5.456-2.211-10.488-2.211-2.728 0-4.797.564-2.022.518-2.916 1.646-.893 1.082-.893 2.446 0 .8.282 1.599.282.752.987 1.599.706.847 1.6 1.599.94.752 3.856 2.963 2.916 2.21 5.08 3.997 2.21 1.788 3.62 3.622 1.411 1.787 2.164 3.856.752 2.07.752 4.186 0 3.527-2.163 6.537-2.164 3.01-6.537 4.703-4.374 1.693-9.782 1.693-2.822 0-6.867-.47-4.044-.424-8.653-1.552zm116.305.893q-3.904-.094-6.068-.094-2.351 0-6.49.094l.423-8.183q-2.069 2.68-3.574 4.139-1.458 1.458-3.668 2.727-2.163 1.223-4.703 1.835-2.54.61-5.267.61-4.515 0-8.466-1.645-3.95-1.646-6.725-4.609-2.775-3.01-4.092-7.102-1.316-4.138-1.316-8.606 0-6.16 2.351-11.993 2.352-5.878 6.443-9.5 4.092-3.62 9.265-5.126 5.173-1.505 11.099-1.505 4.28 0 9.688.8.33-6.114.33-12.84v-3.197q4.42.094 6.772.094 3.057 0 6.866-.094-1.035 11.945-1.975 32.544-.894 20.552-.894 31.651zm-11.617-39.223q-3.527-.94-6.772-.94-3.716 0-7.102 1.035-3.386 1.034-6.02 3.527-2.586 2.492-3.997 6.396-1.411 3.903-1.411 7.525 0 3.62 1.27 6.63 1.316 3.01 4.044 4.75 2.728 1.74 6.161 1.74 2.587 0 4.703-.893 2.116-.94 3.856-2.822 1.74-1.928 2.916-4.938 1.223-3.01 1.74-7.995.33-3.668.612-14.015zm65.888 28.547q-.611 2.775-1.74 9.97-5.079 1.082-8.56 1.459-3.48.376-7.007.376-6.16 0-11.052-1.223-4.844-1.223-8.512-4.468-3.668-3.292-5.408-8.042-1.74-4.75-1.74-9.97 0-5.785 2.022-11.193 2.022-5.456 5.643-8.889 3.669-3.48 8.325-4.89 4.656-1.459 9.735-1.459 4.797 0 9.124 1.223 4.326 1.176 7.242 3.904 2.963 2.727 4.515 6.584 1.599 3.81 1.599 8.512 0 2.21-.47 4.562l-34.473.047q-.094 1.74-.094 2.775 0 3.15 1.082 5.784 1.081 2.634 3.15 4.468 2.07 1.834 4.939 2.728 2.868.846 5.643.846 3.245 0 7.008-.705 3.809-.706 9.03-2.399zm-30.38-19l22.009.047q0-2.257-.141-3.339-.141-1.081-.658-2.445-.47-1.411-1.317-2.446-.847-1.081-1.976-1.787-1.128-.705-2.633-1.082-1.458-.376-3.151-.376-1.975 0-3.857.612-1.834.611-3.386 1.787-1.552 1.175-2.54 2.633-.94 1.458-1.41 2.822-.47 1.317-.94 3.574zm-366.644 84.496q-.611 2.775-1.74 9.97-5.08 1.082-8.56 1.458-3.48.376-7.007.376-6.16 0-11.052-1.222-4.844-1.223-8.512-4.468-3.669-3.292-5.409-8.042-1.74-4.75-1.74-9.97 0-5.785 2.023-11.194 2.022-5.455 5.643-8.888 3.668-3.48 8.324-4.891 4.656-1.458 9.735-1.458 4.797 0 9.124 1.222 4.327 1.176 7.243 3.904 2.963 2.728 4.515 6.584 1.599 3.81 1.599 8.512 0 2.21-.47 4.562l-34.473.047q-.095 1.74-.095 2.775 0 3.151 1.082 5.785 1.082 2.633 3.151 4.468 2.07 1.834 4.938 2.727 2.87.847 5.644.847 3.245 0 7.007-.706 3.81-.705 9.03-2.398zm-30.381-19l22.01.047q0-2.258-.141-3.34-.141-1.08-.659-2.445-.47-1.41-1.317-2.445-.846-1.082-1.975-1.787-1.129-.706-2.634-1.082-1.457-.376-3.15-.376-1.976 0-3.857.611-1.834.611-3.386 1.787t-2.54 2.634q-.94 1.458-1.41 2.822-.47 1.316-.941 3.574zm35.884 29.676q9.264-12.228 18.811-25.443l-3.95-6.35q-1.928-3.103-5.126-7.947l-5.315-8.09q5.174.095 8.277.095 4.092 0 7.29-.095 2.116 4.186 4.844 9.171l3.433 6.49 10.347-15.66q3.339.094 7.148.094 3.575 0 7.384-.095l-7.337 9.641q-2.492 3.34-9.312 12.604l6.867 11.146 9.265 14.439q-4.045-.095-7.478-.095-4.139 0-8.042.095-2.869-5.832-5.738-10.723-2.822-4.891-4.185-7.619-1.929 3.057-5.174 7.76-3.198 4.703-6.913 10.582-3.95-.095-7.149-.095-3.574 0-7.948.095zm58.222 21.586q1.176-13.121 2.117-34.002.94-20.881.94-33.909 8.936-1.599 13.827-2.116 4.89-.517 9.735-.517 6.349 0 11.616 1.505 5.315 1.505 8.466 5.032 3.198 3.527 4.703 8.183 1.552 4.656 1.552 9.735 0 5.126-1.458 9.876-1.458 4.75-4.468 8.56-3.01 3.762-7.008 5.502-3.95 1.693-8.653 1.693-2.775 0-5.503-.658-2.68-.659-4.75-1.74-2.022-1.082-3.339-2.164-1.316-1.128-3.339-3.339l-.705 20.458-.047 3.198q-.047.612-.047 4.703-4.327-.047-6.678-.047l-6.96.047zm16.037-59.257q-.329 2.54-.47 4.374l-.282 5.22q-.188 3.386-.188 4.985 0 2.869.564 5.502.611 2.634 2.352 4.845 1.787 2.21 4.185 3.386 2.446 1.128 5.032 1.128 3.575 0 6.49-2.022 2.963-2.07 4.562-6.02 1.6-3.95 1.6-8.418 0-4.938-1.788-8.324-1.74-3.433-4.703-4.985-2.963-1.552-6.725-1.552-4.891 0-10.629 1.88zm87.664 26.995q-.612 2.775-1.74 9.97-5.08 1.082-8.56 1.458-3.48.376-7.007.376-6.161 0-11.052-1.222-4.844-1.223-8.513-4.468-3.668-3.292-5.408-8.042-1.74-4.75-1.74-9.97 0-5.785 2.022-11.194 2.022-5.455 5.644-8.888 3.668-3.48 8.324-4.891 4.656-1.458 9.735-1.458 4.797 0 9.124 1.222 4.327 1.176 7.242 3.904 2.963 2.728 4.515 6.584 1.6 3.81 1.6 8.512 0 2.21-.471 4.562l-34.473.047q-.094 1.74-.094 2.775 0 3.151 1.082 5.785 1.081 2.633 3.15 4.468 2.07 1.834 4.939 2.727 2.869.847 5.643.847 3.245 0 7.008-.706 3.81-.705 9.03-2.398zm-30.382-19l22.01.047q0-2.258-.14-3.34-.142-1.08-.66-2.445-.47-1.41-1.316-2.445-.847-1.082-1.975-1.787-1.129-.706-2.634-1.082-1.458-.376-3.15-.376-1.976 0-3.857.611-1.835.611-3.387 1.787-1.551 1.176-2.54 2.634-.94 1.458-1.41 2.822-.47 1.316-.94 3.574zm41.622 29.676l1.364-22.34.376-12.98q.094-3.997.094-8.042 0-.705-.094-4.468 4.374.095 6.443.095 2.398 0 6.349-.095l-.235 6.632q1.787-2.54 3.057-3.763 1.27-1.27 2.821-2.163 1.6-.894 3.528-1.364 1.928-.47 3.95-.47 1.881 0 3.857.47 0 4.374.423 11.099-2.775-.752-5.032-.752-2.728 0-4.844.846-2.07.8-3.763 2.493-1.646 1.646-2.728 4.091-.893 1.975-1.316 5.126-.377 2.446-.659 8.372-.235 5.925-.235 11.663 0 2.21.141 5.55-3.574-.095-6.537-.095-2.916 0-6.96.095zm40.022-56.013q.188-4.844.188-7.43V720.1q4.28.094 6.96.094 3.669 0 6.82-.094-.141 1.175-.188 2.68l-.236 6.255q-3.574-.094-6.584-.094t-6.96.094zm-2.54 56.013q.706-7.055.988-11.805.47-7.525.8-17.354.376-9.829.517-18.67 4.609.094 6.913.094 2.116 0 6.866-.095-.658 8.184-1.081 15.614-.376 7.43-.565 17.025-.188 9.594-.188 15.19-4.28-.094-6.866-.094-2.446 0-7.384.095zm68.475-10.676q-.61 2.775-1.74 9.97-5.079 1.082-8.559 1.458-3.48.376-7.007.376-6.161 0-11.052-1.222-4.844-1.223-8.513-4.468-3.668-3.292-5.408-8.042-1.74-4.75-1.74-9.97 0-5.785 2.022-11.194 2.022-5.455 5.644-8.888 3.668-3.48 8.324-4.891 4.656-1.458 9.735-1.458 4.797 0 9.124 1.222 4.326 1.176 7.242 3.904 2.963 2.728 4.515 6.584 1.6 3.81 1.6 8.512 0 2.21-.471 4.562l-34.473.047q-.094 1.74-.094 2.775 0 3.151 1.082 5.785 1.081 2.633 3.15 4.468 2.07 1.834 4.939 2.727 2.869.847 5.643.847 3.245 0 7.008-.706 3.81-.705 9.03-2.398zm-30.38-19l22.01.047q0-2.258-.142-3.34-.141-1.08-.658-2.445-.47-1.41-1.317-2.445-.847-1.082-1.975-1.787-1.13-.706-2.634-1.082-1.458-.376-3.151-.376-1.975 0-3.856.611-1.835.611-3.387 1.787t-2.54 2.634q-.94 1.458-1.41 2.822-.47 1.316-.94 3.574zm41.338 29.676q1.082-10.676 1.788-23.986.752-13.309.846-23.844 4.327.095 6.913.095 3.057 0 6.49-.095l-.517 7.995q1.458-2.069 2.54-3.292 1.128-1.222 2.822-2.398 1.74-1.176 3.668-1.881 1.975-.706 4.374-1.129 2.445-.423 5.079-.423 4.185 0 7.995 1.081 3.856 1.035 6.208 3.34 2.351 2.304 3.104 5.032.752 2.727.752 5.784 0 1.27-.14 4.045l-.988 20.552q-.189 4.28-.236 9.124-3.715-.095-6.349-.095-3.574 0-7.195.095.376-4.092.94-14.25.565-10.206.565-13.498 0-3.715-1.176-5.973-1.176-2.257-3.668-3.433-2.446-1.176-5.315-1.176-2.821 0-5.267 1.082t-4.233 3.151q-1.88 2.116-2.915 5.22-1.082 3.292-1.6 10.864-.47 6.725-.752 18.013-3.621-.095-6.537-.095-2.963 0-7.196.095zm99.515-10.864q-.235 1.928-.705 4.373-.47 2.446-.988 6.067-6.725 1.552-13.262 1.552-3.81 0-7.337-.705-3.527-.706-6.584-2.493-3.01-1.834-5.314-4.797-2.305-2.963-3.48-7.148-1.13-4.233-1.13-8.7 0-5.927 1.882-11.382 1.928-5.455 5.596-8.889 3.669-3.48 8.136-4.703 4.515-1.27 10.018-1.27 3.057 0 6.302.377 3.245.33 7.666 1.41l.705 10.3q-7.007-2.398-12.228-2.398-3.198 0-6.066 1.081-2.822 1.082-4.892 3.434-2.022 2.304-2.915 5.361-.847 3.057-.847 6.255 0 4.468 1.364 7.76 1.41 3.245 4.797 5.032 3.386 1.787 7.713 1.787 2.116 0 5.126-.517 3.057-.565 6.443-1.787zm12.087-45.149q.188-4.844.188-7.43V720.1q4.28.094 6.96.094 3.669 0 6.82-.094-.142 1.175-.189 2.68l-.235 6.255q-3.574-.094-6.584-.094t-6.96.094zm-2.54 56.013q.706-7.055.988-11.805.47-7.525.8-17.354.376-9.829.517-18.67 4.609.094 6.913.094 2.116 0 6.866-.095-.658 8.184-1.081 15.614-.377 7.43-.565 17.025-.188 9.594-.188 15.19-4.28-.094-6.866-.094-2.446 0-7.384.095zm29.394-37.342q.658-3.386.8-4.75.187-1.364.61-4.139 6.397-1.505 11.288-2.116 4.89-.611 9.453-.611 5.173 0 9.5 1.222 4.326 1.176 6.772 3.81 2.445 2.634 2.445 7.572 0 2.68-.752 13.685-.753 10.958-.894 22.669-3.574-.095-6.584-.095-2.869 0-6.725.095.611-5.691.988-13.169l.611-11.71q-1.787 1.176-2.728 1.646-.94.47-2.116.893-1.176.377-4.139 1.223-2.963.8-4.75 1.411-1.787.612-3.245 1.411-1.41.752-2.398 1.74-.988.94-1.458 2.022-.423 1.035-.423 2.258 0 1.975 1.128 3.433 1.176 1.41 2.916 1.975 1.74.565 4.092.565 1.505 0 3.15-.236 1.694-.235 4.516-1.175-.988 2.68-2.305 7.995-3.339.564-5.314.705-1.975.141-3.669.141-5.925 0-9.735-1.599-3.81-1.599-5.643-5.079-1.787-3.48-1.787-7.007 0-2.023.705-3.998.706-1.975 2.07-3.621 1.363-1.646 3.527-3.151 2.163-1.552 6.255-2.963 4.091-1.458 10.816-2.916 1.788-.376 3.716-.893 1.928-.565 3.057-1.082 1.175-.517 2.022-1.317.846-.846 1.223-1.74.423-.894.423-1.834 0-1.834-1.223-3.104-1.176-1.27-3.104-1.74-1.88-.518-4.185-.518-8.56 0-18.906 4.092z" style="line-height:68.00000072%;-inkscape-font-specification:'Eras Demi ITC';text-align:center" font-weight="400" font-size="96.317" font-family="Eras Demi ITC" letter-spacing="0" word-spacing="0" text-anchor="middle" fill="#e85026" stroke="#2e3c6e" stroke-width="2.571"/></g></g></svg>