<svg xmlns="http://www.w3.org/2000/svg" width="77" height="76" viewBox="0 0 302 299" shape-rendering="geometricPrecision" text-rendering="geometricPrecision" image-rendering="optimizeQuality" fill-rule="evenodd" clip-rule="evenodd"><circle transform="matrix(1.69714 1.7538 -1.77489 1.67696 151.222 149.421)" r="62" fill="#f16136"/><path d="M85 82c6-10 9-18 11-22 1-5 4-11 8-20 22-5 41-8 58-10 16-2 32-3 47-3 16 0 31 2 44 6 13 3 23 10 28 18 6 9 6 21 2 37-2 9-10 31-22 66-12 36-23 73-34 111-12-1-22-1-32-1s-21 0-33 1c7-19 14-40 22-64l19-57c-7 4-12 6-16 8-3 1-7 3-11 4s-12 3-22 6-19 5-25 7-12 4-18 7c-5 2-10 5-14 8s-7 7-10 10c-2 3-4 7-5 11-2 7-1 12 1 17 3 4 7 8 12 9 5 2 11 3 19 3 5 0 10 0 16-1s13-3 23-6c-5 9-12 22-21 39-12 2-21 3-27 4H87c-20 0-35-2-46-8-11-5-18-13-20-24-3-11-3-23 0-34 2-7 5-13 9-20 4-6 9-12 15-17 6-6 13-11 21-16 9-5 20-9 35-14 14-5 33-9 56-14 6-1 13-3 20-5 6-1 12-3 16-5 4-1 8-4 12-6 3-3 6-6 8-9s3-6 4-9c2-6 1-11-1-15-3-4-7-7-13-9-6-1-12-2-20-2-28 0-60 6-98 19z" fill="#fefefe" fill-rule="nonzero"/></svg>