<svg xmlns="http://www.w3.org/2000/svg" width="77" height="76" viewBox="0 0 302 301" shape-rendering="geometricPrecision" text-rendering="geometricPrecision" image-rendering="optimizeQuality" fill-rule="evenodd" clip-rule="evenodd"><defs><style>.fil0{fill:#283b6e}.fil1{fill:#fefefe;fill-rule:nonzero}</style></defs><g id="Capa_x0020_1"><circle class="fil0" transform="matrix(1.69714 1.7538 -1.77489 1.67696 151.224 151.686)" r="62"/><path class="fil1" d="M37 272c9-25 24-69 44-132 20-62 34-109 43-140h58c-7 19-15 43-24 71 13-2 24-4 32-5s16-1 23-1c21 0 38 3 50 10 13 6 21 17 26 32 4 16 3 34-3 56-4 15-10 29-18 44-8 14-18 27-30 38-11 11-24 19-38 24-13 5-27 8-42 8-7 0-13-1-18-2-6-1-11-3-15-6-5-2-8-5-11-8s-6-6-7-9c-2-4-4-8-6-14l-10 34H37zm106-160l-11 34c-3 7-5 14-7 21-4 17-6 30-5 39s4 17 11 22 15 8 25 8c11 0 21-3 31-9s18-15 26-26c7-11 13-23 16-36 5-18 4-33-2-44-7-11-20-16-39-16-6 0-12 0-19 1s-16 3-26 6z"/></g></svg>