<?xml version="1.0" encoding="UTF-8"?>
<!DOCTYPE svg PUBLIC "-//W3C//DTD SVG 1.1//EN" "http://www.w3.org/Graphics/SVG/1.1/DTD/svg11.dtd">
<!-- Creator: CorelDRAW X7 -->
<svg xmlns="http://www.w3.org/2000/svg" xml:space="preserve" width="18px" height="18px" version="1.1" style="shape-rendering:geometricPrecision; text-rendering:geometricPrecision; image-rendering:optimizeQuality; fill-rule:evenodd; clip-rule:evenodd"
viewBox="0 0 18 18"
 xmlns:xlink="http://www.w3.org/1999/xlink">
 <defs>
  <style type="text/css">
   <![CDATA[
    .fil0 {fill:#283B6E}
    .fil1 {fill:#FEFEFE;fill-rule:nonzero}
   ]]>
  </style>
 </defs>
 <g id="Capa_x0020_1">
  <metadata id="CorelCorpID_0Corel-Layer"/>
  <g id="_2427405784416">
   <path class="fil0" d="M16 3c3,3 3,9 -1,12 -3,4 -9,4 -13,0 -3,-3 -3,-9 1,-12 3,-4 9,-4 13,0z"/>
   <path class="fil1" d="M2 16c1,-1 2,-4 3,-8 1,-3 2,-6 2,-8 1,0 2,0 2,0 1,0 1,0 2,0 -1,1 -1,3 -2,4 1,0 2,0 2,0 1,0 1,0 2,0 1,0 2,0 3,0 0,1 1,1 1,2 0,1 0,2 0,4 0,1 -1,1 -1,2 -1,1 -1,2 -2,3 -1,0 -1,1 -2,1 -1,0 -2,0 -3,0 0,0 0,0 -1,0 0,0 0,0 -1,0 0,0 0,0 0,0 0,-1 -1,-1 -1,-1 0,0 0,0 0,-1l-1 2c0,0 -1,0 -1,0 0,0 -1,0 -2,0zm6 -9l0 2c0,0 0,1 -1,1 0,1 0,2 0,2 0,1 0,1 1,2 0,0 1,0 1,0 1,0 2,0 2,-1 1,0 1,0 2,-1 0,-1 0,-1 1,-2 0,-1 0,-2 -1,-3 0,0 -1,-1 -2,-1 0,0 -1,0 -1,0 0,0 -1,1 -2,1z"/>
  </g>
 </g>
</svg>
