<?xml version="1.0" encoding="UTF-8"?>
<!DOCTYPE svg PUBLIC "-//W3C//DTD SVG 1.1//EN" "http://www.w3.org/Graphics/SVG/1.1/DTD/svg11.dtd">
<!-- Creator: CorelDRAW X7 -->
<svg xmlns="http://www.w3.org/2000/svg" xml:space="preserve" width="77px" height="76px" version="1.1" style="shape-rendering:geometricPrecision; text-rendering:geometricPrecision; image-rendering:optimizeQuality; fill-rule:evenodd; clip-rule:evenodd"
viewBox="0 0 302 301"
 xmlns:xlink="http://www.w3.org/1999/xlink">
 <defs>
  <style type="text/css">
   <![CDATA[
    .fil0 {fill:#283B6E}
    .fil1 {fill:#FEFEFE;fill-rule:nonzero}
   ]]>
  </style>
 </defs>
 <g id="Capa_x0020_1">
  <metadata id="CorelCorpID_0Corel-Layer"/>
  <circle class="fil0" transform="matrix(1.69714 1.7538 -1.77489 1.67696 151.224 151.686)" r="62"/>
  <path class="fil1" d="M37 272c9,-25 24,-69 44,-132 20,-62 34,-109 43,-140 12,0 22,0 30,0 9,0 18,0 28,0 -7,19 -15,43 -24,71 13,-2 24,-4 32,-5 8,-1 16,-1 23,-1 21,0 38,3 50,10 13,6 21,17 26,32 4,16 3,34 -3,56 -4,15 -10,29 -18,44 -8,14 -18,27 -30,38 -11,11 -24,19 -38,24 -13,5 -27,8 -42,8 -7,0 -13,-1 -18,-2 -6,-1 -11,-3 -15,-6 -5,-2 -8,-5 -11,-8 -3,-3 -6,-6 -7,-9 -2,-4 -4,-8 -6,-14l-10 34c-11,0 -19,0 -26,0 -4,0 -14,0 -28,0zm106 -160l-11 34c-3,7 -5,14 -7,21 -4,17 -6,30 -5,39 1,9 4,17 11,22 7,5 15,8 25,8 11,0 21,-3 31,-9 10,-6 18,-15 26,-26 7,-11 13,-23 16,-36 5,-18 4,-33 -2,-44 -7,-11 -20,-16 -39,-16 -6,0 -12,0 -19,1 -7,1 -16,3 -26,6z"/>
 </g>
</svg>
