<?xml version="1.0" encoding="UTF-8"?>
<!DOCTYPE svg PUBLIC "-//W3C//DTD SVG 1.1//EN" "http://www.w3.org/Graphics/SVG/1.1/DTD/svg11.dtd">
<!-- Creator: CorelDRAW X7 -->
<svg xmlns="http://www.w3.org/2000/svg" xml:space="preserve" width="2550px" height="1089px" version="1.1" style="shape-rendering:geometricPrecision; text-rendering:geometricPrecision; image-rendering:optimizeQuality; fill-rule:evenodd; clip-rule:evenodd"
viewBox="0 0 25500 10888"
 xmlns:xlink="http://www.w3.org/1999/xlink">
 <defs>
  <style type="text/css">
   <![CDATA[
    .fil19 {fill:#F6AB5C}
    .fil9 {fill:#F39430}
    .fil20 {fill:#E85222}
    .fil8 {fill:#E85222;fill-rule:nonzero}
    .fil14 {fill:url(#id0)}
    .fil11 {fill:url(#id1)}
    .fil13 {fill:url(#id2)}
    .fil15 {fill:url(#id3)}
    .fil18 {fill:url(#id4)}
    .fil17 {fill:url(#id5)}
    .fil12 {fill:url(#id6)}
    .fil16 {fill:url(#id7)}
    .fil7 {fill:url(#id8)}
    .fil3 {fill:url(#id9)}
    .fil4 {fill:url(#id10)}
    .fil5 {fill:url(#id11)}
    .fil1 {fill:url(#id12)}
    .fil10 {fill:url(#id13)}
    .fil6 {fill:url(#id14)}
    .fil2 {fill:url(#id15)}
    .fil0 {fill:url(#id16);fill-rule:nonzero}
   ]]>
  </style>
  <linearGradient id="id0" gradientUnits="userSpaceOnUse" x1="17456.7" y1="4905.9" x2="17456.7" y2="7882.4">
   <stop offset="0" style="stop-opacity:1; stop-color:#2B417B"/>
   <stop offset="1" style="stop-opacity:1; stop-color:#FEFEFE"/>
  </linearGradient>
  <linearGradient id="id1" gradientUnits="userSpaceOnUse" x1="13726.1" y1="8130.21" x2="13726.1" y2="4674.01">
   <stop offset="0" style="stop-opacity:1; stop-color:#212748"/>
   <stop offset="1" style="stop-opacity:1; stop-color:#FEFEFE"/>
  </linearGradient>
  <linearGradient id="id2" gradientUnits="userSpaceOnUse" xlink:href="#id0" x1="21167.3" y1="5825.97" x2="21167.3" y2="7929.66">
  </linearGradient>
  <linearGradient id="id3" gradientUnits="userSpaceOnUse" xlink:href="#id0" x1="13416.6" y1="5800.54" x2="13416.6" y2="7939.51">
  </linearGradient>
  <linearGradient id="id4" gradientUnits="userSpaceOnUse" xlink:href="#id0" x1="2686" y1="7585.68" x2="2686" y2="8062.98">
  </linearGradient>
  <linearGradient id="id5" gradientUnits="userSpaceOnUse" xlink:href="#id0" x1="5737.61" y1="6980.21" x2="5737.61" y2="8002.15">
  </linearGradient>
  <linearGradient id="id6" gradientUnits="userSpaceOnUse" xlink:href="#id0" x1="24334.2" y1="5786.11" x2="24334.2" y2="7912.25">
  </linearGradient>
  <linearGradient id="id7" gradientUnits="userSpaceOnUse" xlink:href="#id0" x1="9410.04" y1="5917.2" x2="9410.04" y2="7951.7">
  </linearGradient>
  <linearGradient id="id8" gradientUnits="userSpaceOnUse" x1="2701.94" y1="4916.24" x2="2701.94" y2="7892.71">
   <stop offset="0" style="stop-opacity:1; stop-color:#274B8B"/>
   <stop offset="1" style="stop-opacity:1; stop-color:#FEFEFE"/>
  </linearGradient>
  <linearGradient id="id9" gradientUnits="userSpaceOnUse" xlink:href="#id8" x1="17456.6" y1="4939.58" x2="17456.6" y2="7848.44">
  </linearGradient>
  <linearGradient id="id10" gradientUnits="userSpaceOnUse" xlink:href="#id8" x1="13416.6" y1="5824.99" x2="13416.6" y2="7915.13">
  </linearGradient>
  <linearGradient id="id11" gradientUnits="userSpaceOnUse" xlink:href="#id8" x1="9409.97" y1="5825.31" x2="9409.97" y2="7919.92">
  </linearGradient>
  <linearGradient id="id12" gradientUnits="userSpaceOnUse" xlink:href="#id8" x1="24334.3" y1="5786.02" x2="24334.3" y2="7912.15">
  </linearGradient>
  <linearGradient id="id13" gradientUnits="userSpaceOnUse" x1="5174.23" y1="1777.73" x2="8712.57" y2="4316.69">
   <stop offset="0" style="stop-opacity:1; stop-color:#2C3567"/>
   <stop offset="0.109804" style="stop-opacity:1; stop-color:#9599B2"/>
   <stop offset="1" style="stop-opacity:1; stop-color:#FEFEFE"/>
  </linearGradient>
  <linearGradient id="id14" gradientUnits="userSpaceOnUse" xlink:href="#id8" x1="6354.48" y1="5786.02" x2="6354.48" y2="7912.15">
  </linearGradient>
  <linearGradient id="id15" gradientUnits="userSpaceOnUse" xlink:href="#id8" x1="21167.3" y1="5801.6" x2="21167.3" y2="7954.15">
  </linearGradient>
  <linearGradient id="id16" gradientUnits="objectBoundingBox" x1="50%" y1="94.9998%" x2="50%" y2="4.99986%">
   <stop offset="0" style="stop-opacity:1; stop-color:#222D55"/>
   <stop offset="0.4" style="stop-opacity:1; stop-color:#9095A9"/>
   <stop offset="1" style="stop-opacity:1; stop-color:#FEFEFE"/>
  </linearGradient>
 </defs>
 <g id="Capa_x0020_1">
  <metadata id="CorelCorpID_0Corel-Layer"/>
  <g id="_2709553821824">
   <polygon class="fil0" points="5411,5192 3334,5192 3334,8236 2045,8236 2045,5192 0,5192 0,4570 5411,4570 "/>
   <path id="1" class="fil0" d="M7523 6102l-1233 0 0 2123 -1098 0 0 -2709 1098 0 0 377c58,-94 131,-171 216,-230 85,-60 198,-105 337,-136 64,-14 131,-27 204,-37 72,-10 145,-16 220,-16 91,0 177,7 256,21l0 607z"/>
   <path id="2" class="fil0" d="M11505 8225l-2976 0c-334,0 -619,-74 -855,-221 -236,-148 -354,-335 -354,-561 0,-236 107,-431 321,-586 214,-155 482,-232 806,-232l1921 0 0 -147c0,-45 -12,-84 -36,-117 -24,-33 -63,-73 -116,-118 -74,-56 -150,-91 -229,-107 -80,-16 -191,-24 -333,-24l-2056 0 0 -596 1767 0 342 0c387,0 676,22 867,65 191,44 356,109 494,196 175,115 292,240 350,376 58,135 87,310 87,522l0 1550zm-1137 -554l0 -528 -1401 0c-133,0 -245,25 -338,75 -93,50 -140,116 -140,199 0,72 46,133 136,181 90,48 193,73 310,73l1433 0z"/>
   <path id="3" class="fil0" d="M15320 8225l-1734 0c-642,0 -1148,-123 -1516,-369 -369,-245 -553,-569 -553,-970 0,-387 175,-707 525,-962 377,-272 894,-408 1552,-408l1726 0 0 628 -1567 0c-292,0 -541,76 -748,230 -207,153 -311,329 -311,528 0,202 99,377 295,523 196,146 440,220 732,220l1599 0 0 580z"/>
   <path id="4" class="fil0" d="M16501 8225l-1122 0 0 -3655 1122 0 0 3655zm3327 0l-1564 0 -1707 -1318 1715 -1401 1548 0 -1862 1375 1870 1344z"/>
   <path id="5" class="fil0" d="M23014 8241l-1942 0c-472,0 -882,-134 -1229,-400 -348,-267 -521,-575 -521,-923 0,-380 189,-709 569,-986 379,-277 802,-416 1269,-416l1846 0 0 560 -1353 0c-169,0 -314,9 -433,28 -120,20 -230,57 -331,113 -185,105 -278,246 -278,424l2387 0 0 564 -2387 0c0,84 14,155 44,212 29,58 89,115 180,173 90,57 198,96 322,115 126,19 279,29 461,29l1396 0 0 507z"/>
   <path id="6" class="fil0" d="M25500 6102l-1233 0 0 2123 -1098 0 0 -2709 1098 0 0 377c58,-94 131,-171 216,-230 85,-60 198,-105 337,-136 63,-14 131,-27 204,-37 72,-10 145,-16 220,-16 90,0 177,7 256,21l0 607z"/>
   <g>
    <path class="fil1" d="M25359 5962l0 -345c-38,-3 -76,-4 -115,-4 -67,0 -133,4 -200,14 -65,9 -129,21 -193,35 -97,22 -204,56 -287,114 -71,49 -129,113 -175,186l970 0zm-1234 425l0 -732 -816 0 0 2430 816 0 0 -1698z"/>
    <path class="fil2" d="M22873 8101l0 -228 -1256 0c-160,0 -324,-7 -482,-31 -134,-20 -263,-63 -377,-135 -90,-57 -181,-131 -230,-228 -43,-85 -59,-180 -59,-274l0 -140 2388 0 0 -286 -2388 0 0 -139c0,-246 139,-426 351,-545 117,-65 244,-108 376,-129 150,-24 306,-31 457,-31l1212 0 0 -280 -1706 0c-439,0 -832,130 -1185,388 -298,218 -512,497 -512,874 0,346 199,608 467,813 335,257 720,371 1143,371l1801 0z"/>
    <path class="fil3" d="M16351 8085l0 -3382 -832 0 0 3382 832 0zm3042 0l-1674 -1203 1675 -1238 -1076 0 -1545 1259 1535 1182 1085 0z"/>
    <path class="fil4" d="M15178 8085l0 -301 -1459 0c-296,0 -579,-70 -817,-248 -212,-158 -351,-368 -351,-635 0,-271 154,-481 367,-640 244,-181 529,-258 833,-258l1427 0 0 -348 -1586 0c-503,0 -1053,81 -1469,381 -293,213 -467,485 -467,850 0,375 181,648 491,854 410,274 953,345 1437,345l1594 0z"/>
    <path class="fil5" d="M11362 8090l0 -1414c0,-152 -15,-326 -76,-468 -57,-132 -180,-237 -297,-314 -137,-86 -292,-142 -449,-177 -254,-58 -576,-62 -836,-62l-1968 0 0 317 1915 0c118,0 246,4 361,26 106,21 201,69 287,133l4 3 3 3c49,42 100,90 138,142 43,59 62,127 62,199l0 286 -2062 0c-258,0 -511,53 -723,205 -165,120 -263,271 -263,476 0,203 122,340 289,445 234,147 505,200 779,200l2836 0zm-856 -275l-1574 0c-132,0 -261,-27 -378,-90 -119,-65 -208,-166 -208,-306 0,-146 85,-255 212,-323 125,-68 265,-94 406,-94l1542 0 0 813z"/>
    <path class="fil6" d="M7379 5962l0 -345c-38,-3 -76,-4 -115,-4 -66,0 -133,4 -199,14 -65,9 -130,21 -194,35 -97,22 -204,56 -287,114 -71,49 -129,113 -175,186l970 0zm-1233 425l0 -732 -816 0 0 2430 816 0 0 -1698z"/>
    <polygon class="fil7" points="5267,5057 5267,4713 137,4713 137,5057 2183,5057 2183,8096 3190,8096 3190,5057 "/>
   </g>
   <path class="fil8" d="M3384 10861l-556 0c-162,0 -293,-18 -391,-54 -124,-46 -214,-124 -268,-235 -21,-43 -35,-84 -43,-123 -8,-39 -12,-84 -12,-136l0 -949 396 0 0 936c0,43 5,80 15,113 10,32 29,63 55,95 37,45 79,75 127,89 49,15 110,22 185,22l492 0 0 242z"/>
   <path id="1" class="fil8" d="M4845 10303c0,193 -63,341 -189,444 -115,94 -273,141 -472,141 -199,0 -354,-42 -464,-128 -127,-99 -191,-253 -191,-461 0,-175 69,-312 207,-412 123,-90 274,-135 455,-135 197,0 356,48 475,145 120,96 179,232 179,406zm-340 -2c0,-90 -29,-166 -87,-227 -58,-61 -137,-91 -236,-91 -91,0 -166,31 -225,93 -60,63 -89,141 -89,236 0,108 30,195 90,259 60,65 137,97 233,97 108,0 189,-34 241,-101 49,-61 73,-150 73,-266z"/>
   <path id="2" class="fil8" d="M6028 10861l-479 0c-178,0 -317,-51 -419,-151 -102,-101 -153,-233 -153,-397 0,-159 49,-290 145,-394 104,-112 247,-167 429,-167l477 0 0 257 -433 0c-81,0 -150,31 -207,94 -57,63 -85,135 -85,216 0,83 27,154 81,214 54,60 121,90 202,90l442 0 0 238z"/>
   <path id="3" class="fil8" d="M7329 10861l-822 0c-93,0 -171,-31 -237,-91 -65,-61 -97,-137 -97,-229 0,-97 29,-177 88,-241 60,-63 134,-94 223,-94l530 0 0 -60c0,-19 -3,-35 -10,-48 -6,-14 -17,-30 -31,-49 -21,-22 -42,-37 -64,-44 -22,-6 -53,-9 -92,-9l-567 0 0 -244 487 0 95 0c107,0 187,9 239,27 53,17 99,44 137,79 48,48 80,99 96,155 16,55 25,126 25,213l0 635zm-315 -227l0 -217 -386 0c-37,0 -68,11 -94,31 -25,21 -38,48 -38,82 0,29 12,54 37,74 25,20 54,30 86,30l395 0z"/>
   <polygon id="4" class="fil8" points="7858,10861 7548,10861 7548,9364 7858,9364 "/>
   <path id="5" class="fil8" d="M8379 9628l-303 0 0 -264 303 0 0 264zm0 1233l-303 0 0 -1109 303 0 0 1109z"/>
   <polygon id="6" class="fil8" points="9697,9992 9049,10627 9686,10627 9686,10861 8592,10861 8592,10632 9243,9987 8592,9987 8592,9752 9697,9752 "/>
   <path id="7" class="fil8" d="M11020 10861l-822 0c-92,0 -171,-31 -236,-91 -65,-61 -98,-137 -98,-229 0,-97 30,-177 89,-241 59,-63 133,-94 223,-94l530 0 0 -60c0,-19 -3,-35 -10,-48 -6,-14 -17,-30 -32,-49 -20,-22 -41,-37 -63,-44 -22,-6 -53,-9 -92,-9l-568 0 0 -244 488 0 95 0c107,0 186,9 239,27 53,17 98,44 136,79 49,48 81,99 97,155 16,55 24,126 24,213l0 635zm-314 -227l0 -217 -387 0c-36,0 -67,11 -93,31 -26,21 -39,48 -39,82 0,29 13,54 38,74 25,20 53,30 85,30l396 0z"/>
   <path id="8" class="fil8" d="M12378 10861l-714 0c-138,0 -252,-60 -343,-180 -83,-112 -125,-242 -125,-392 0,-144 47,-270 141,-377 93,-107 211,-160 351,-160l394 0 0 -388 296 0 0 1497zm-305 -242l0 -632 -284 0c-79,0 -144,31 -195,92 -51,62 -77,134 -77,219 0,84 23,158 70,223 47,65 110,98 189,98l297 0z"/>
   <path id="9" class="fil8" d="M13870 10303c0,193 -63,341 -189,444 -115,94 -273,141 -472,141 -199,0 -354,-42 -464,-128 -127,-99 -191,-253 -191,-461 0,-175 69,-312 207,-412 123,-90 274,-135 454,-135 198,0 357,48 476,145 120,96 179,232 179,406zm-340 -2c0,-90 -29,-166 -87,-227 -58,-61 -137,-91 -236,-91 -91,0 -166,31 -226,93 -59,63 -89,141 -89,236 0,108 31,195 91,259 60,65 137,97 232,97 109,0 189,-34 242,-101 49,-61 73,-150 73,-266z"/>
   <path id="10" class="fil8" d="M14690 9992l-341 0 0 869 -303 0 0 -1109 303 0 0 154c16,-39 37,-70 60,-94 24,-24 55,-43 93,-56 18,-6 36,-11 56,-15 20,-4 40,-6 61,-6 25,0 49,3 71,8l0 249z"/>
   <path id="11" class="fil8" d="M17333 10395c0,131 -44,241 -134,331 -89,90 -202,135 -340,135l-1088 0 0 -268 897 0c60,0 110,-14 151,-41 47,-31 71,-75 71,-129 0,-128 -93,-192 -277,-192l-453 0c-130,0 -245,-39 -343,-117 -98,-79 -147,-178 -147,-299 0,-134 48,-242 144,-326 96,-83 222,-125 379,-125l1039 0 0 257 -916 0c-41,0 -82,17 -124,50 -42,34 -63,73 -63,118 0,51 20,94 61,129 40,35 89,52 146,52l499 0c155,0 277,39 366,116 88,78 132,181 132,309z"/>
   <path id="12" class="fil8" d="M18619 10861l-822 0c-92,0 -171,-31 -236,-91 -65,-61 -98,-137 -98,-229 0,-97 30,-177 89,-241 59,-63 133,-94 222,-94l531 0 0 -60c0,-19 -4,-35 -10,-48 -7,-14 -17,-30 -32,-49 -20,-22 -41,-37 -63,-44 -22,-6 -53,-9 -92,-9l-568 0 0 -244 488 0 94 0c107,0 187,9 240,27 53,17 98,44 136,79 48,48 81,99 97,155 16,55 24,126 24,213l0 635zm-314 -227l0 -217 -387 0c-37,0 -68,11 -93,31 -26,21 -39,48 -39,82 0,29 13,54 38,74 24,20 53,30 85,30l396 0z"/>
   <path id="13" class="fil8" d="M19516 9983l-297 0 0 503c0,46 16,83 48,113 37,30 85,45 145,45l90 0 0 217 -283 0c-85,0 -158,-30 -218,-90 -35,-36 -58,-75 -68,-118 -10,-43 -15,-94 -15,-152l0 -518 -194 0 0 -231 194 0 0 -388 301 0 0 388 297 0 0 231z"/>
   <path id="14" class="fil8" d="M20652 10867l-537 0c-130,0 -243,-55 -339,-164 -96,-109 -144,-235 -144,-378 0,-155 52,-290 157,-403 105,-113 222,-170 351,-170l509 0 0 229 -373 0c-47,0 -87,4 -120,12 -33,7 -63,23 -91,46 -51,42 -77,100 -77,173l659 0 0 231 -659 0c0,34 4,63 12,87 8,23 25,47 50,71 25,23 54,39 89,47 35,7 77,11 127,11l386 0 0 208z"/>
   <polygon id="15" class="fil8" points="21177,10861 20867,10861 20867,9364 21177,9364 "/>
   <path id="16" class="fil8" d="M21698 9628l-304 0 0 -264 304 0 0 264zm0 1233l-304 0 0 -1109 304 0 0 1109z"/>
   <path id="17" class="fil8" d="M22599 9983l-297 0 0 503c0,46 16,83 48,113 37,30 85,45 145,45l90 0 0 217 -283 0c-85,0 -158,-30 -218,-90 -35,-36 -57,-75 -68,-118 -10,-43 -15,-94 -15,-152l0 -518 -194 0 0 -231 194 0 0 -388 301 0 0 388 297 0 0 231z"/>
   <path id="18" class="fil8" d="M23871 10861l-822 0c-92,0 -171,-31 -236,-91 -65,-61 -98,-137 -98,-229 0,-97 30,-177 89,-241 59,-63 133,-94 222,-94l531 0 0 -60c0,-19 -4,-35 -10,-48 -7,-14 -17,-30 -32,-49 -21,-22 -41,-37 -63,-44 -22,-6 -53,-9 -92,-9l-568 0 0 -244 488 0 94 0c107,0 187,9 240,27 53,17 98,44 136,79 48,48 81,99 97,155 16,55 24,126 24,213l0 635zm-314 -227l0 -217 -387 0c-37,0 -68,11 -93,31 -26,21 -39,48 -39,82 0,29 13,54 37,74 25,20 54,30 86,30l396 0z"/>
   <polygon id="19" class="fil8" points="24400,10861 24091,10861 24091,9364 24400,9364 "/>
   <path class="fil9" d="M14158 3694l183 -674 -1060 0 156 -577 2158 0 -561 2070 -2465 0c-462,0 -815,-194 -1024,-605 -206,-411 -192,-865 -75,-1299 138,-507 410,-934 806,-1284 390,-345 845,-563 1373,-563l2361 0 -236 870 -2092 0c-261,0 -474,127 -651,309 -197,202 -326,444 -399,715 -64,235 -95,499 -15,733 72,206 205,305 426,305l1115 0zm2665 -412l-334 1231 -1107 0 1017 -3751 2531 0c369,0 703,116 895,444 155,270 165,568 84,864 -97,361 -323,642 -624,860 -305,222 -648,352 -1028,352l-1434 0zm6915 55c-92,340 -285,618 -561,839 -276,220 -592,342 -947,342l-5485 0 232 -854 4981 0c115,0 223,-25 323,-82 96,-56 165,-131 194,-238 79,-290 -181,-314 -414,-314l-1052 0c-307,0 -587,-89 -801,-312 -220,-228 -258,-512 -178,-810 94,-345 293,-621 586,-830 304,-217 651,-316 1026,-316l2559 0 -223 824 -2215 0c-89,0 -186,52 -258,100 -80,53 -151,124 -177,218 -20,75 -18,145 35,206 57,66 137,85 222,85l1159 0c313,0 649,66 861,314 202,238 212,538 133,828zm-6452 -1761l-238 877 1020 0c150,0 282,-52 401,-140 120,-89 204,-201 243,-345 28,-104 18,-195 -59,-274 -85,-86 -193,-118 -314,-118l-1053 0z"/>
   <path class="fil10" d="M9411 680c-7,954 -269,1919 -812,2792 -543,872 -1297,1538 -2157,1973l-285 -548c762,-386 1430,-976 1911,-1748 481,-773 713,-1628 718,-2474l625 5zm-4935 983l256 493c272,-137 509,-348 681,-622 171,-275 254,-580 255,-880l-554 -4c-7,300 -130,597 -366,820 -84,79 -175,143 -272,193zm2439 -1000c-3,518 -145,1043 -440,1517 -295,474 -705,836 -1172,1072l-286 -548c369,-187 694,-473 927,-847 233,-375 345,-790 348,-1199l623 5zm1248 8c-5,737 -207,1482 -626,2154 -419,674 -1001,1188 -1665,1523l-128 -246 -157 -302c565,-286 1061,-723 1419,-1298 356,-573 529,-1207 533,-1835l343 2 281 2z"/>
   <circle class="fil9" transform="matrix(2.78591 2.87892 -2.91355 2.75279 3925.63 620.896)" r="156"/>
   <g>
    <path class="fil11" d="M3332 7502l0 733 -1289 0c43,-55 90,-102 139,-139 348,-265 737,-452 1150,-594zm22009 -2025c6,48 11,95 18,140 22,154 39,316 50,484l-1142 0 0 2124 -1099 0 0 -2709 1099 0 0 376c58,-94 131,-171 216,-230 85,-59 197,-105 337,-136 63,-14 131,-26 204,-37 72,-10 145,-15 220,-15 33,0 66,1 97,3zm-20151 1602c371,-65 741,-130 1098,-214l0 1360 -1098 0 0 -1146zm4738 -953c79,-24 157,-50 235,-78 273,-95 513,-220 738,-359 59,26 114,56 165,88 176,115 292,241 351,377 58,136 87,310 87,523l0 1553 -2976 0c-335,0 -620,-74 -856,-222 -236,-148 -354,-336 -354,-562 0,-238 107,-434 321,-589 215,-155 483,-233 806,-233l1921 0 0 -146c0,-45 -12,-85 -36,-118 -24,-33 -62,-72 -115,-117 -74,-56 -150,-92 -230,-108 -17,-3 -36,-6 -57,-9zm438 1550l0 -534 -1401 0c-132,0 -245,25 -338,76 -93,51 -139,118 -139,201 0,74 45,135 135,183 90,49 194,74 310,74l1433 0zm4954 549l-1735 0c-642,0 -1148,-123 -1517,-369 -368,-246 -553,-569 -553,-970 0,-387 175,-708 526,-963 376,-271 894,-407 1551,-407l1728 0 0 627 -1568 0c-292,0 -542,77 -748,230 -207,154 -311,330 -311,529 0,202 98,376 295,523 196,146 440,219 732,219l1600 0 0 581zm1173 0l-1115 0 0 -3661 1115 0 0 3661zm3334 0l-1568 0 -1711 -1318 1719 -1402 1552 0 -1862 1376 1870 1344zm3187 16l-1942 0c-472,0 -882,-134 -1230,-401 -347,-266 -521,-574 -521,-923 0,-380 190,-708 569,-986 379,-277 803,-415 1270,-415l1846 0 0 559 -1353 0c-170,0 -314,10 -434,29 -119,19 -229,57 -330,112 -186,105 -279,246 -279,424l2388 0 0 565 -2388 0c0,84 15,154 44,212 29,57 89,115 181,172 90,58 197,96 322,115 126,20 278,29 460,29l1397 0 0 508z"/>
    <g>
     <path class="fil12" d="M25359 5962l0 -345c-38,-3 -77,-4 -115,-4 -66,0 -133,4 -199,14 -66,10 -130,21 -194,35 -97,22 -204,56 -287,114 -71,49 -129,113 -175,186l970 0zm-1234 425l0 -732 -816 0 0 2430 816 0 0 -1698z"/>
     <path class="fil13" d="M22873 8101l0 -229 -1256 0c-160,0 -324,-6 -482,-30 -134,-20 -263,-63 -377,-135 -90,-57 -181,-131 -230,-228 -43,-85 -59,-180 -59,-274l0 -140 2388 0 0 -286 -2388 0 0 -139c0,-246 139,-426 350,-545 118,-65 245,-108 377,-129 150,-24 305,-30 457,-30l1212 0 0 -281 -1706 0c-439,0 -832,130 -1185,389 -298,217 -512,496 -512,873 0,346 199,608 467,813 335,257 719,371 1143,371l1801 0z"/>
     <path class="fil14" d="M16351 8085l0 -3382 -832 0 0 3382 832 0zm3042 0l-1674 -1203 1675 -1238 -1076 0 -1545 1260 1535 1181 1085 0z"/>
     <path class="fil15" d="M15178 8085l0 -302 -1459 0c-296,0 -579,-69 -817,-247 -212,-158 -351,-368 -351,-635 0,-271 154,-481 367,-639 244,-182 529,-259 833,-259l1427 0 0 -348 -1586 0c-503,0 -1053,81 -1469,381 -293,213 -467,485 -467,850 0,375 181,648 491,854 410,274 953,345 1437,345l1594 0z"/>
     <path class="fil16" d="M11362 8090l0 -1414c0,-152 -15,-326 -76,-468 -57,-132 -180,-237 -297,-314 -75,-47 -155,-85 -238,-116 -181,104 -375,196 -588,270l0 0c48,23 93,51 136,83l4 3 3 3c49,42 100,90 138,142 43,59 62,127 62,199l0 286 -2062 0c-258,0 -511,53 -723,205 -165,120 -263,271 -263,476 0,202 122,340 289,445 234,147 505,200 780,200l2835 0zm-856 -275l-1574 0c-132,0 -261,-27 -378,-90 -119,-65 -209,-166 -209,-306 0,-146 86,-255 213,-323 125,-68 265,-94 406,-94l1542 0 0 813z"/>
     <path class="fil17" d="M5330 7054c275,-49 548,-98 816,-157l0 1188 -816 0 0 -1031z"/>
     <path class="fil18" d="M2182 8096l1007 0 0 -543c-359,135 -699,309 -1007,543z"/>
    </g>
    <path class="fil19" d="M15267 3652l-233 861 -2348 0c854,-396 1694,-652 2581,-861zm371 -84c379,-83 768,-161 1172,-239l-321 1184 -1107 0 256 -945zm1417 -286c740,-143 1532,-293 2403,-492 -55,49 -112,96 -173,140 -305,222 -648,352 -1028,352l-1202 0zm3052 -691c410,-155 818,-359 1212,-575 5,33 19,65 44,94 57,66 137,85 222,85l1159 0c313,0 649,66 861,314 202,238 212,538 133,828 -92,340 -285,618 -561,839 -276,220 -592,342 -947,342l-5485 0 232 -854 4981 0c115,0 223,-25 323,-82 96,-56 165,-131 194,-238 79,-290 -181,-314 -414,-314l-1052 0c-307,0 -587,-89 -801,-312 -40,-41 -73,-83 -101,-127zm1966 -1005c663,-385 1255,-730 1711,-824l417 0 -223 824 -1905 0z"/>
   </g>
   <path class="fil20" d="M12686 4513c854,-396 1694,-652 2581,-861l-233 861 -2348 0zm2952 -945c379,-84 768,-161 1172,-239l-321 1184 -1107 0 256 -945zm1415 -286c741,-143 1533,-293 2405,-492 -55,49 -112,96 -173,140 -305,222 -648,352 -1028,352l-1204 0zm3054 -692c411,-155 818,-358 1212,-574 5,33 19,65 44,94 57,66 137,85 222,85l1159 0c313,0 649,66 861,314 202,238 212,538 133,828 -92,340 -285,618 -561,839 -276,220 -592,342 -947,342l-5485 0 232 -854 4981 0c115,0 223,-25 323,-82 96,-56 165,-131 194,-238 79,-290 -181,-314 -414,-314l-1052 0c-307,0 -587,-89 -801,-312 -39,-41 -73,-83 -101,-128zm1966 -1004c663,-385 1255,-730 1711,-824l417 0 -223 824 -1905 0z"/>
  </g>
 </g>
</svg>
