<svg xmlns="http://www.w3.org/2000/svg" width="253.285" height="54.205" viewBox="0 0 2101 450" xmlns:xlink="http://www.w3.org/1999/xlink" shape-rendering="geometricPrecision" text-rendering="geometricPrecision" image-rendering="optimizeQuality" fill-rule="evenodd" clip-rule="evenodd"><defs><linearGradient id="id0" gradientUnits="userSpaceOnUse" x1="1747" y1="221" x2="1982" y2="73"><stop offset="0" stop-color="#2b3167"/><stop offset=".341" stop-color="#9497b2"/><stop offset="1" stop-color="#fefefe"/></linearGradient><linearGradient id="id1" gradientUnits="userSpaceOnUse" x1="1563" y1="440" x2="1561" y2="209"><stop offset="0" stop-color="#2c3370"/><stop offset=".459" stop-color="#9398b7"/><stop offset="1" stop-color="#fbfdfe"/></linearGradient><linearGradient id="id2" gradientUnits="userSpaceOnUse" x1="1582" y1="290" x2="1582" y2="430"><stop offset="0" stop-color="#274b8b"/><stop offset="1" stop-color="#fefefe"/></linearGradient><linearGradient id="id3" gradientUnits="userSpaceOnUse" xlink:href="#id2" x1="1572" y1="289" x2="1572" y2="431"/><linearGradient id="id4" gradientUnits="userSpaceOnUse" xlink:href="#id2" x1="1588" y1="262" x2="1588" y2="458"/><linearGradient id="id5" gradientUnits="userSpaceOnUse" x1="1422" y1="298" x2="1421" y2="475"><stop offset="0" stop-color="#274b8b"/><stop offset=".529" stop-color="#92a4c4"/><stop offset="1" stop-color="#fefefe"/></linearGradient><style>.fil1{fill:#e85222}</style></defs><g id="Capa_x0020_1"><g id="_2518699253152"><path d="M152 400l10-37h-58l9-32h118l-31 114H65c-25 0-45-11-56-33-11-23-11-47-4-71 8-28 22-51 44-70 21-19 46-31 75-31h129l-13 48H125c-14 0-26 7-36 17-11 11-18 24-22 39-3 13-5 27-1 40 4 11 11 17 23 17h61zm146-23l-18 68h-61l56-206h139c20 0 39 6 49 24 9 15 9 31 5 47-5 20-18 35-34 47-17 12-36 19-56 19h-79zm379 3c-5 19-16 34-31 46s-32 19-52 19H298l13-47h269c6 0 12-1 18-4 5-3 9-7 11-13 4-16-10-17-23-17h-58c-17 0-32-5-44-17-12-13-14-28-10-44 5-19 16-34 32-46 17-12 36-17 56-17h140l-12 45H569c-5 0-10 3-14 5-4 3-8 7-10 12-1 4-1 8 2 11 3 4 8 5 12 5h64c17 0 36 4 47 17s12 30 7 45zm-354-97l-13 48h56c8 0 15-3 22-8s11-11 13-19c2-6 1-11-3-15-5-5-11-6-17-6h-58z" fill="#f39430"/><path class="fil1" d="M71 445c47-22 93-36 142-47l-13 47H71zm162-52c21-5 42-9 64-13l-18 65h-61l14-52zm78-16c41-8 84-16 132-27-3 3-6 5-9 8-17 12-36 19-56 19h-66zm167-38c23-9 45-20 66-31 0 2 1 4 2 5 3 4 8 5 12 5h64c17 0 36 4 47 17s12 30 7 45c-5 19-16 34-31 46s-32 19-52 19H297l13-47h269c6 0 12-1 18-4 5-3 9-7 11-13 4-16-10-17-23-17h-58c-17 0-32-5-44-17-2-2-4-5-6-7zm108-55c36-21 69-40 94-45h23l-12 45H587z"/><path d="M1832 415l-1-1 1 1zm-2-2l-1-1 1 1zm-3-3l-1-1 1 1zm126-28v-16 16zm-128-40c3-6 8-11 14-14-6 4-11 9-14 14zm-2-34c-10 4-20 9-29 16-10 7-18 16-23 25 5-10 13-18 23-25 9-7 19-12 29-16zm-52 43c0 1-1 2-1 2 0-1 1-2 1-2zm-2 6c0 1-1 2-1 3 0-1 1-2 1-3zm-3 17c0 19 10 33 23 44-13-11-23-26-23-44zm23 44l2 2-2-2z" fill="url(#id3)"/><path d="M1609 440V247h-46v193-193h46v193zm169 0l-93-69 93 69zm-20-124l20-15-20 15zm-94 30l-32 27 32-27z" fill="url(#id4)"/><path d="M1538 440v-17 17zm-135-40l-1-1 1 1zm-1-2c0-1-1-1-1-2 0 1 1 1 1 2zm-2-2c-5-7-8-15-8-24 0-4 1-8 2-12-1 4-2 8-2 12 0 9 3 17 8 24zm-6-36c2-6 5-11 8-15-4 4-7 9-8 15zm9-16c2-2 4-5 7-7-2 2-5 4-7 7zm7-7c1 0 1-1 2-1-1 0-1 1-2 1zm49-17h1-1zm80 0v-20 20zm-139-13c-11 3-21 8-30 15-1 0-1 1-2 1 0 0 1-1 2-1 9-7 19-11 30-15z" fill="url(#id2)"/><path d="M2033 328v121h-63V293h63v20c7-8 20-15 30-17 8-2 16-3 24-3h7l8 1v34h-68zm-1000 0v121h-63V293h63v20c7-8 20-15 30-17 8-2 16-3 24-3h7l8 1v34h-68zm-130-52v174h-73V276H717v-37h302v37H904zm361 80v-8c0-2-1-4-2-6-2-2-4-5-6-7-4-3-8-5-12-6-6-1-12-1-18-1h-115v-35h118c16 0 33 0 48 4 10 2 19 6 28 11 8 5 16 13 20 22s5 20 5 30v89h-166c-17 0-34-4-48-13-12-8-20-18-20-33 0-14 7-26 18-34 13-10 29-13 45-13h106zm283 93h-97c-29 0-60-5-85-21-20-13-31-32-31-56 0-23 11-42 29-55 25-18 57-23 87-23h97v37h-88c-15 0-29 4-41 13-10 7-17 17-17 30 0 12 6 22 16 29 12 9 26 12 40 12h89v35zm71 0h-63V239h63v210zm82-77l105 77h-89l-96-76 96-81h88l-104 79zm131-14h132v34h-132c0 4 1 8 2 11 2 4 6 7 10 10 5 3 11 5 18 6 8 1 17 2 25 2h78v30h-108c-25 0-49-7-69-23-17-13-29-31-29-53 0-24 13-43 32-57 21-16 45-24 71-24h103v33h-76c-8 0-16 0-24 2-6 1-12 3-18 6-9 5-15 12-15 23zm-567 59v-29h-77c-6 0-13 1-18 4-4 2-7 6-7 11s3 8 7 10c5 3 11 4 17 4h79z" fill="url(#id1)"/><path d="M2093 319v-18h-6c-7 0-15 1-22 3-8 2-21 8-26 15h54zm-1083-52v-20H726v20h113v174h56V267h115zm84 52v-18h-6c-7 0-15 1-22 3-8 2-21 8-26 15h54zm-68 24v-42h-45v139h45v-97zm295 97v-81c0-9-1-19-4-27s-10-14-16-18c-8-5-16-8-25-10-14-3-32-4-46-4h-109v18h106c6 0 14 0 20 1s11 4 16 8c3 2 6 5 8 8s3 7 3 11v16h-114c-14 0-28 3-40 12-9 7-15 15-15 27s7 19 16 25c13 8 28 11 43 11h157zm-47-16h-87c-7 0-14-2-21-5-7-4-12-9-12-17s5-15 12-18c7-4 15-5 23-5h85v46zm266 15v-17h-81c-16 0-32-4-45-14-12-9-19-21-19-36s9-28 20-37c14-10 29-15 46-15h79v-20h-88c-28 0-58 5-81 22-16 12-26 28-26 49s10 37 27 49c23 16 53 20 80 20h88zm71 0V246h-46v193h46zm169 0l-93-69 93-71h-60l-86 72 85 67h60zm177 1v-13h-70c-9 0-18 0-27-2-7-1-15-4-21-8-5-3-10-7-13-13-2-5-3-10-3-16v-8h132v-16h-132v-8c0-14 8-24 19-31 6-4 14-6 21-7 8-1 17-2 25-2h67v-16h-95c-24 0-46 7-66 22-16 12-28 28-28 50 0 20 11 35 26 46 19 15 40 21 63 21h100zm70-98v-42h-45v139h45v-97z" fill="url(#id5)"/><path d="M1959 260c0-52-15-105-44-152-30-48-71-84-118-108l-9 17-11 21c40 20 75 51 100 92s37 85 38 130h44zm-88 1c0-37-10-74-31-107s-50-59-83-76l-20 39c26 13 49 33 65 60 16 26 24 56 25 85h44zm-172-71l18-35c19 10 36 25 48 44s18 41 18 62h-39c-1-21-9-42-26-58-6-6-12-10-19-14z" fill="url(#id0)"/><circle class="fil1" transform="matrix(.56473 -.58358 -.5906 -.55802 1669.31 262.806)" r="41"/><path d="M104 127v77H89v-77H66v-15h61v15h-23zm33 49c0 4 2 8 4 11 3 3 7 5 11 5 6 0 11-2 15-6l5-4v17l-1 1c-6 5-14 7-21 7-8 0-16-3-21-9-6-7-7-16-7-25s2-18 8-25c5-7 12-10 21-10 8 0 15 3 19 9 5 7 7 15 7 23v8h-39zm67 28h-15v-97h15v97zm29-28c0 4 2 8 4 11 3 3 7 5 11 5 6 0 11-2 15-6l5-4v17l-1 1c-6 5-14 7-21 7-8 0-16-3-21-9-6-7-7-16-7-25s2-18 8-25c5-7 12-10 21-10 8 0 15 3 19 9 5 7 7 15 7 23v8h-39zm67-35c4-4 9-6 15-6 4 0 8 1 12 4 2 1 3 3 4 5 4-6 10-9 18-9 17 0 22 13 22 28v41h-15v-38c0-4 0-10-2-13s-4-3-7-3-6 2-7 4c-3 4-3 8-3 12v38h-15v-39c0-7-1-15-10-15-3 0-5 2-7 4-3 4-3 8-3 12v38h-15v-67h15v4zm118 59c-4 3-9 5-14 5-6 0-11-2-15-6s-6-9-6-15c0-14 8-21 21-23l14-2c0-5-2-10-8-10s-12 2-16 7l-5 5v-19l1-1c6-4 13-6 21-6 16 0 23 11 23 26v43h-15v-4zm34-49h-10v-14h10v-14l15-5v19h14v14h-14v32c0 2 0 5 1 7 1 1 3 1 4 1s3 0 4-1l5-4v17l-1 1c-3 2-7 2-10 2-13 0-18-9-18-21v-33zm48-24c-2 0-5-1-6-3-2-2-3-4-3-7s1-5 3-7 4-3 6-3 5 1 6 3c2 2 3 4 3 7 0 2-1 5-3 7s-4 3-6 3zm7 77h-15v-67h15v67zm60-3c-5 3-11 5-17 5-9 0-16-3-22-10s-8-15-8-24c0-10 2-19 9-26 6-7 14-10 23-10 5 0 10 1 14 3l2 1v18l-5-4c-3-3-7-4-12-4s-9 2-12 6c-4 4-5 10-5 16 0 5 1 11 4 15s7 5 12 5 8-2 12-5l5-4v17l-1 1zm74-2v-20l5 5c1 1 2 2 4 3s3 2 5 2c2 1 4 1 5 1h5c3 0 8 0 11-3 2-2 3-5 3-8 0-2 0-3-1-5-1-1-2-3-3-4-2-1-3-3-5-4s-5-3-7-4c-3-1-5-3-8-5-2-2-5-3-7-6-2-2-4-5-5-7-1-3-2-6-2-10s1-8 3-12c2-3 4-6 7-8s6-4 10-5 7-2 11-2c6 0 13 1 18 3l2 1v19l-5-4c-5-4-10-5-16-5-2 0-4 0-5 1-2 0-3 1-4 2l-3 3c-1 1-1 3-1 4s0 3 1 4l3 3c1 1 3 2 5 3s5 3 7 4c3 2 6 3 8 5 3 2 5 4 7 6s4 5 5 8 2 6 2 10-1 8-3 12c-2 3-4 6-7 8s-6 4-10 4c-4 1-8 1-11 1h-5c-2 0-4-1-6-1s-4-1-6-2-3-1-5-2l-1-1zm79-23c0 4 2 8 4 11 3 3 7 5 11 5 6 0 11-2 15-6l5-4v17l-1 1c-6 5-14 7-21 7-8 0-16-3-21-9-6-7-7-16-7-25s2-18 8-25c5-7 12-10 21-10 8 0 15 3 19 9 5 7 7 15 7 23v8h-39zm67-35l1-1c3-3 7-4 11-4 2 0 5 0 7 1l2 1v19l-5-4c-1-1-3-1-5-1-3 0-5 2-7 5-3 4-3 10-3 15v34h-15v-67h15v4zm54 40l15-44h16l-25 67h-13l-23-67h16l14 44zm45-54c-2 0-5-1-6-3-2-2-3-4-3-7s1-5 3-7 4-3 6-3 5 1 6 3c2 2 3 4 3 7 0 2-1 5-3 7s-4 3-6 3zm7 77h-15v-67h15v67zm60-3c-5 3-11 5-17 5-9 0-16-3-22-10s-8-15-8-24c0-10 2-19 9-26 6-7 14-10 23-10 5 0 10 1 14 3l2 1v18l-5-4c-3-3-7-4-12-4s-9 2-12 6c-4 4-5 10-5 16 0 5 1 11 4 15s7 5 12 5 8-2 12-5l5-4v17l-1 1zm26-25c0 4 2 8 4 11 3 3 7 5 11 5 6 0 11-2 15-6l5-4v17l-1 1c-6 5-14 7-21 7-8 0-16-3-21-9-6-7-7-16-7-25s2-18 8-25c5-7 12-10 21-10 8 0 15 3 19 9 5 7 7 15 7 23v8h-39zm-818-14c0-3-1-6-3-8-2-3-5-4-8-4s-6 1-9 4c-2 2-3 5-4 8h24zm96 0c0-3-1-6-3-8-2-3-5-4-8-4s-6 1-9 4c-2 2-3 5-4 8h24zm161 12l-10 2c-3 0-6 1-8 3-2 1-2 4-2 6s1 4 2 5c2 2 4 2 6 2 4 0 6-1 9-4s4-7 4-11v-3zm326-12c0-3-1-6-3-8-2-3-5-4-8-4s-6 1-9 4c-2 2-3 5-4 8h24zm260 0c0-3-1-6-3-8-2-3-5-4-8-4s-6 1-9 4c-2 2-3 5-4 8h24z" fill="#2b3167"/></g></g></svg>