<svg xmlns="http://www.w3.org/2000/svg" width="2550" height="1089" viewBox="0 0 25500 10888" xmlns:xlink="http://www.w3.org/1999/xlink" shape-rendering="geometricPrecision" text-rendering="geometricPrecision" image-rendering="optimizeQuality" fill-rule="evenodd" clip-rule="evenodd"><defs><style>.fil19{fill:#f6ab5c}.fil9{fill:#f39430}.fil20,.fil8{fill:#e85222}.fil8{fill-rule:nonzero}.fil14{fill:url(#id0)}.fil11{fill:url(#id1)}.fil13{fill:url(#id2)}.fil15{fill:url(#id3)}.fil18{fill:url(#id4)}.fil17{fill:url(#id5)}.fil12{fill:url(#id6)}.fil16{fill:url(#id7)}.fil7{fill:url(#id8)}.fil3{fill:url(#id9)}.fil4{fill:url(#id10)}.fil5{fill:url(#id11)}.fil1{fill:url(#id12)}.fil10{fill:url(#id13)}.fil6{fill:url(#id14)}.fil2{fill:url(#id15)}.fil0{fill:url(#id16);fill-rule:nonzero}</style><linearGradient id="id0" gradientUnits="userSpaceOnUse" x1="17456.7" y1="4905.9" x2="17456.7" y2="7882.4"><stop offset="0" stop-color="#2b417b"/><stop offset="1" stop-color="#fefefe"/></linearGradient><linearGradient id="id1" gradientUnits="userSpaceOnUse" x1="13726.1" y1="8130.21" x2="13726.1" y2="4674.01"><stop offset="0" stop-color="#212748"/><stop offset="1" stop-color="#fefefe"/></linearGradient><linearGradient id="id2" gradientUnits="userSpaceOnUse" xlink:href="#id0" x1="21167.3" y1="5825.97" x2="21167.3" y2="7929.66"/><linearGradient id="id3" gradientUnits="userSpaceOnUse" xlink:href="#id0" x1="13416.6" y1="5800.54" x2="13416.6" y2="7939.51"/><linearGradient id="id4" gradientUnits="userSpaceOnUse" xlink:href="#id0" x1="2686" y1="7585.68" x2="2686" y2="8062.98"/><linearGradient id="id5" gradientUnits="userSpaceOnUse" xlink:href="#id0" x1="5737.61" y1="6980.21" x2="5737.61" y2="8002.15"/><linearGradient id="id6" gradientUnits="userSpaceOnUse" xlink:href="#id0" x1="24334.2" y1="5786.11" x2="24334.2" y2="7912.25"/><linearGradient id="id7" gradientUnits="userSpaceOnUse" xlink:href="#id0" x1="9410.04" y1="5917.2" x2="9410.04" y2="7951.7"/><linearGradient id="id8" gradientUnits="userSpaceOnUse" x1="2701.94" y1="4916.24" x2="2701.94" y2="7892.71"><stop offset="0" stop-color="#274b8b"/><stop offset="1" stop-color="#fefefe"/></linearGradient><linearGradient id="id9" gradientUnits="userSpaceOnUse" xlink:href="#id8" x1="17456.6" y1="4939.58" x2="17456.6" y2="7848.44"/><linearGradient id="id10" gradientUnits="userSpaceOnUse" xlink:href="#id8" x1="13416.6" y1="5824.99" x2="13416.6" y2="7915.13"/><linearGradient id="id11" gradientUnits="userSpaceOnUse" xlink:href="#id8" x1="9409.97" y1="5825.31" x2="9409.97" y2="7919.92"/><linearGradient id="id12" gradientUnits="userSpaceOnUse" xlink:href="#id8" x1="24334.3" y1="5786.02" x2="24334.3" y2="7912.15"/><linearGradient id="id13" gradientUnits="userSpaceOnUse" x1="5174.23" y1="1777.73" x2="8712.57" y2="4316.69"><stop offset="0" stop-color="#2c3567"/><stop offset=".11" stop-color="#9599b2"/><stop offset="1" stop-color="#fefefe"/></linearGradient><linearGradient id="id14" gradientUnits="userSpaceOnUse" xlink:href="#id8" x1="6354.48" y1="5786.02" x2="6354.48" y2="7912.15"/><linearGradient id="id15" gradientUnits="userSpaceOnUse" xlink:href="#id8" x1="21167.3" y1="5801.6" x2="21167.3" y2="7954.15"/><linearGradient id="id16" gradientUnits="objectBoundingBox" x1="50%" y1="95%" x2="50%" y2="5%"><stop offset="0" stop-color="#222d55"/><stop offset=".4" stop-color="#9095a9"/><stop offset="1" stop-color="#fefefe"/></linearGradient></defs><g id="Capa_x0020_1"><g id="_2709553821824"><path class="fil0" d="M5411 5192H3334v3044H2045V5192H0v-622h5411z"/><path id="1" class="fil0" d="M7523 6102H6290v2123H5192V5516h1098v377c58-94 131-171 216-230 85-60 198-105 337-136 64-14 131-27 204-37 72-10 145-16 220-16 91 0 177 7 256 21v607z"/><path id="2" class="fil0" d="M11505 8225H8529c-334 0-619-74-855-221-236-148-354-335-354-561 0-236 107-431 321-586s482-232 806-232h1921v-147c0-45-12-84-36-117s-63-73-116-118c-74-56-150-91-229-107-80-16-191-24-333-24H7598v-596h2109c387 0 676 22 867 65 191 44 356 109 494 196 175 115 292 240 350 376 58 135 87 310 87 522v1550zm-1137-554v-528H8967c-133 0-245 25-338 75s-140 116-140 199c0 72 46 133 136 181s193 73 310 73h1433z"/><path id="3" class="fil0" d="M15320 8225h-1734c-642 0-1148-123-1516-369-369-245-553-569-553-970 0-387 175-707 525-962 377-272 894-408 1552-408h1726v628h-1567c-292 0-541 76-748 230-207 153-311 329-311 528 0 202 99 377 295 523s440 220 732 220h1599v580z"/><path id="4" class="fil0" d="M16501 8225h-1122V4570h1122v3655zm3327 0h-1564l-1707-1318 1715-1401h1548l-1862 1375 1870 1344z"/><path id="5" class="fil0" d="M23014 8241h-1942c-472 0-882-134-1229-400-348-267-521-575-521-923 0-380 189-709 569-986 379-277 802-416 1269-416h1846v560h-1353c-169 0-314 9-433 28-120 20-230 57-331 113-185 105-278 246-278 424h2387v564h-2387c0 84 14 155 44 212 29 58 89 115 180 173 90 57 198 96 322 115 126 19 279 29 461 29h1396v507z"/><path id="6" class="fil0" d="M25500 6102h-1233v2123h-1098V5516h1098v377c58-94 131-171 216-230 85-60 198-105 337-136 63-14 131-27 204-37 72-10 145-16 220-16 90 0 177 7 256 21v607z"/><path class="fil1" d="M25359 5962v-345c-38-3-76-4-115-4-67 0-133 4-200 14-65 9-129 21-193 35-97 22-204 56-287 114-71 49-129 113-175 186h970zm-1234 425v-732h-816v2430h816V6387z"/><path class="fil2" d="M22873 8101v-228h-1256c-160 0-324-7-482-31-134-20-263-63-377-135-90-57-181-131-230-228-43-85-59-180-59-274v-140h2388v-286h-2388v-139c0-246 139-426 351-545 117-65 244-108 376-129 150-24 306-31 457-31h1212v-280h-1706c-439 0-832 130-1185 388-298 218-512 497-512 874 0 346 199 608 467 813 335 257 720 371 1143 371h1801z"/><path class="fil3" d="M16351 8085V4703h-832v3382h832zm3042 0l-1674-1203 1675-1238h-1076l-1545 1259 1535 1182h1085z"/><path class="fil4" d="M15178 8085v-301h-1459c-296 0-579-70-817-248-212-158-351-368-351-635 0-271 154-481 367-640 244-181 529-258 833-258h1427v-348h-1586c-503 0-1053 81-1469 381-293 213-467 485-467 850 0 375 181 648 491 854 410 274 953 345 1437 345h1594z"/><path class="fil5" d="M11362 8090V6676c0-152-15-326-76-468-57-132-180-237-297-314-137-86-292-142-449-177-254-58-576-62-836-62H7736v317h1915c118 0 246 4 361 26 106 21 201 69 287 133l4 3 3 3c49 42 100 90 138 142 43 59 62 127 62 199v286H8444c-258 0-511 53-723 205-165 120-263 271-263 476 0 203 122 340 289 445 234 147 505 200 779 200h2836zm-856-275H8932c-132 0-261-27-378-90-119-65-208-166-208-306 0-146 85-255 212-323 125-68 265-94 406-94h1542v813z"/><path class="fil6" d="M7379 5962v-345c-38-3-76-4-115-4-66 0-133 4-199 14-65 9-130 21-194 35-97 22-204 56-287 114-71 49-129 113-175 186h970zm-1233 425v-732h-816v2430h816V6387z"/><path class="fil7" d="M5267 5057v-344H137v344h2046v3039h1007V5057z"/><path class="fil8" d="M3384 10861h-556c-162 0-293-18-391-54-124-46-214-124-268-235-21-43-35-84-43-123s-12-84-12-136v-949h396v936c0 43 5 80 15 113 10 32 29 63 55 95 37 45 79 75 127 89 49 15 110 22 185 22h492v242z"/><path id="1" class="fil8" d="M4845 10303c0 193-63 341-189 444-115 94-273 141-472 141s-354-42-464-128c-127-99-191-253-191-461 0-175 69-312 207-412 123-90 274-135 455-135 197 0 356 48 475 145 120 96 179 232 179 406zm-340-2c0-90-29-166-87-227s-137-91-236-91c-91 0-166 31-225 93-60 63-89 141-89 236 0 108 30 195 90 259 60 65 137 97 233 97 108 0 189-34 241-101 49-61 73-150 73-266z"/><path id="2" class="fil8" d="M6028 10861h-479c-178 0-317-51-419-151-102-101-153-233-153-397 0-159 49-290 145-394 104-112 247-167 429-167h477v257h-433c-81 0-150 31-207 94s-85 135-85 216c0 83 27 154 81 214s121 90 202 90h442v238z"/><path id="3" class="fil8" d="M7329 10861h-822c-93 0-171-31-237-91-65-61-97-137-97-229 0-97 29-177 88-241 60-63 134-94 223-94h530v-60c0-19-3-35-10-48-6-14-17-30-31-49-21-22-42-37-64-44-22-6-53-9-92-9h-567v-244h582c107 0 187 9 239 27 53 17 99 44 137 79 48 48 80 99 96 155 16 55 25 126 25 213v635zm-315-227v-217h-386c-37 0-68 11-94 31-25 21-38 48-38 82 0 29 12 54 37 74s54 30 86 30h395z"/><path id="4" class="fil8" d="M7858 10861h-310V9364h310z"/><path id="5" class="fil8" d="M8379 9628h-303v-264h303v264zm0 1233h-303V9752h303v1109z"/><path id="6" class="fil8" d="M9697 9992l-648 635h637v234H8592v-229l651-645h-651v-235h1105z"/><path id="7" class="fil8" d="M11020 10861h-822c-92 0-171-31-236-91-65-61-98-137-98-229 0-97 30-177 89-241 59-63 133-94 223-94h530v-60c0-19-3-35-10-48-6-14-17-30-32-49-20-22-41-37-63-44-22-6-53-9-92-9h-568v-244h583c107 0 186 9 239 27 53 17 98 44 136 79 49 48 81 99 97 155 16 55 24 126 24 213v635zm-314-227v-217h-387c-36 0-67 11-93 31-26 21-39 48-39 82 0 29 13 54 38 74s53 30 85 30h396z"/><path id="8" class="fil8" d="M12378 10861h-714c-138 0-252-60-343-180-83-112-125-242-125-392 0-144 47-270 141-377 93-107 211-160 351-160h394v-388h296v1497zm-305-242v-632h-284c-79 0-144 31-195 92-51 62-77 134-77 219 0 84 23 158 70 223s110 98 189 98h297z"/><path id="9" class="fil8" d="M13870 10303c0 193-63 341-189 444-115 94-273 141-472 141s-354-42-464-128c-127-99-191-253-191-461 0-175 69-312 207-412 123-90 274-135 454-135 198 0 357 48 476 145 120 96 179 232 179 406zm-340-2c0-90-29-166-87-227s-137-91-236-91c-91 0-166 31-226 93-59 63-89 141-89 236 0 108 31 195 91 259 60 65 137 97 232 97 109 0 189-34 242-101 49-61 73-150 73-266z"/><path id="10" class="fil8" d="M14690 9992h-341v869h-303V9752h303v154c16-39 37-70 60-94 24-24 55-43 93-56 18-6 36-11 56-15s40-6 61-6c25 0 49 3 71 8v249z"/><path id="11" class="fil8" d="M17333 10395c0 131-44 241-134 331-89 90-202 135-340 135h-1088v-268h897c60 0 110-14 151-41 47-31 71-75 71-129 0-128-93-192-277-192h-453c-130 0-245-39-343-117-98-79-147-178-147-299 0-134 48-242 144-326 96-83 222-125 379-125h1039v257h-916c-41 0-82 17-124 50-42 34-63 73-63 118 0 51 20 94 61 129 40 35 89 52 146 52h499c155 0 277 39 366 116 88 78 132 181 132 309z"/><path id="12" class="fil8" d="M18619 10861h-822c-92 0-171-31-236-91-65-61-98-137-98-229 0-97 30-177 89-241 59-63 133-94 222-94h531v-60c0-19-4-35-10-48-7-14-17-30-32-49-20-22-41-37-63-44-22-6-53-9-92-9h-568v-244h582c107 0 187 9 240 27 53 17 98 44 136 79 48 48 81 99 97 155 16 55 24 126 24 213v635zm-314-227v-217h-387c-37 0-68 11-93 31-26 21-39 48-39 82 0 29 13 54 38 74 24 20 53 30 85 30h396z"/><path id="13" class="fil8" d="M19516 9983h-297v503c0 46 16 83 48 113 37 30 85 45 145 45h90v217h-283c-85 0-158-30-218-90-35-36-58-75-68-118s-15-94-15-152v-518h-194v-231h194v-388h301v388h297v231z"/><path id="14" class="fil8" d="M20652 10867h-537c-130 0-243-55-339-164s-144-235-144-378c0-155 52-290 157-403s222-170 351-170h509v229h-373c-47 0-87 4-120 12-33 7-63 23-91 46-51 42-77 100-77 173h659v231h-659c0 34 4 63 12 87 8 23 25 47 50 71 25 23 54 39 89 47 35 7 77 11 127 11h386v208z"/><path id="15" class="fil8" d="M21177 10861h-310V9364h310z"/><path id="16" class="fil8" d="M21698 9628h-304v-264h304v264zm0 1233h-304V9752h304v1109z"/><path id="17" class="fil8" d="M22599 9983h-297v503c0 46 16 83 48 113 37 30 85 45 145 45h90v217h-283c-85 0-158-30-218-90-35-36-57-75-68-118-10-43-15-94-15-152v-518h-194v-231h194v-388h301v388h297v231z"/><path id="18" class="fil8" d="M23871 10861h-822c-92 0-171-31-236-91-65-61-98-137-98-229 0-97 30-177 89-241 59-63 133-94 222-94h531v-60c0-19-4-35-10-48-7-14-17-30-32-49-21-22-41-37-63-44-22-6-53-9-92-9h-568v-244h582c107 0 187 9 240 27 53 17 98 44 136 79 48 48 81 99 97 155 16 55 24 126 24 213v635zm-314-227v-217h-387c-37 0-68 11-93 31-26 21-39 48-39 82 0 29 13 54 37 74 25 20 54 30 86 30h396z"/><path id="19" class="fil8" d="M24400 10861h-309V9364h309z"/><path class="fil9" d="M14158 3694l183-674h-1060l156-577h2158l-561 2070h-2465c-462 0-815-194-1024-605-206-411-192-865-75-1299 138-507 410-934 806-1284 390-345 845-563 1373-563h2361l-236 870h-2092c-261 0-474 127-651 309-197 202-326 444-399 715-64 235-95 499-15 733 72 206 205 305 426 305h1115zm2665-412l-334 1231h-1107l1017-3751h2531c369 0 703 116 895 444 155 270 165 568 84 864-97 361-323 642-624 860-305 222-648 352-1028 352h-1434zm6915 55c-92 340-285 618-561 839-276 220-592 342-947 342h-5485l232-854h4981c115 0 223-25 323-82 96-56 165-131 194-238 79-290-181-314-414-314h-1052c-307 0-587-89-801-312-220-228-258-512-178-810 94-345 293-621 586-830 304-217 651-316 1026-316h2559l-223 824h-2215c-89 0-186 52-258 100-80 53-151 124-177 218-20 75-18 145 35 206 57 66 137 85 222 85h1159c313 0 649 66 861 314 202 238 212 538 133 828zm-6452-1761l-238 877h1020c150 0 282-52 401-140 120-89 204-201 243-345 28-104 18-195-59-274-85-86-193-118-314-118h-1053z"/><path class="fil10" d="M9411 680c-7 954-269 1919-812 2792-543 872-1297 1538-2157 1973l-285-548c762-386 1430-976 1911-1748 481-773 713-1628 718-2474l625 5zm-4935 983l256 493c272-137 509-348 681-622 171-275 254-580 255-880l-554-4c-7 300-130 597-366 820-84 79-175 143-272 193zM6915 663c-3 518-145 1043-440 1517s-705 836-1172 1072l-286-548c369-187 694-473 927-847 233-375 345-790 348-1199l623 5zm1248 8c-5 737-207 1482-626 2154-419 674-1001 1188-1665 1523l-128-246-157-302c565-286 1061-723 1419-1298 356-573 529-1207 533-1835l343 2 281 2z"/><circle class="fil9" transform="matrix(2.78591 2.87892 -2.91355 2.75279 3925.63 620.896)" r="156"/><path class="fil11" d="M3332 7502v733H2043c43-55 90-102 139-139 348-265 737-452 1150-594zm22009-2025c6 48 11 95 18 140 22 154 39 316 50 484h-1142v2124h-1099V5516h1099v376c58-94 131-171 216-230s197-105 337-136c63-14 131-26 204-37 72-10 145-15 220-15 33 0 66 1 97 3zM5190 7079c371-65 741-130 1098-214v1360H5190V7079zm4738-953c79-24 157-50 235-78 273-95 513-220 738-359 59 26 114 56 165 88 176 115 292 241 351 377 58 136 87 310 87 523v1553H8528c-335 0-620-74-856-222s-354-336-354-562c0-238 107-434 321-589 215-155 483-233 806-233h1921v-146c0-45-12-85-36-118s-62-72-115-117c-74-56-150-92-230-108-17-3-36-6-57-9zm438 1550v-534H8965c-132 0-245 25-338 76s-139 118-139 201c0 74 45 135 135 183 90 49 194 74 310 74h1433zm4954 549h-1735c-642 0-1148-123-1517-369-368-246-553-569-553-970 0-387 175-708 526-963 376-271 894-407 1551-407h1728v627h-1568c-292 0-542 77-748 230-207 154-311 330-311 529 0 202 98 376 295 523 196 146 440 219 732 219h1600v581zm1173 0h-1115V4564h1115v3661zm3334 0h-1568l-1711-1318 1719-1402h1552l-1862 1376 1870 1344zm3187 16h-1942c-472 0-882-134-1230-401-347-266-521-574-521-923 0-380 190-708 569-986 379-277 803-415 1270-415h1846v559h-1353c-170 0-314 10-434 29-119 19-229 57-330 112-186 105-279 246-279 424h2388v565h-2388c0 84 15 154 44 212 29 57 89 115 181 172 90 58 197 96 322 115 126 20 278 29 460 29h1397v508z"/><path class="fil12" d="M25359 5962v-345c-38-3-77-4-115-4-66 0-133 4-199 14s-130 21-194 35c-97 22-204 56-287 114-71 49-129 113-175 186h970zm-1234 425v-732h-816v2430h816V6387z"/><path class="fil13" d="M22873 8101v-229h-1256c-160 0-324-6-482-30-134-20-263-63-377-135-90-57-181-131-230-228-43-85-59-180-59-274v-140h2388v-286h-2388v-139c0-246 139-426 350-545 118-65 245-108 377-129 150-24 305-30 457-30h1212v-281h-1706c-439 0-832 130-1185 389-298 217-512 496-512 873 0 346 199 608 467 813 335 257 719 371 1143 371h1801z"/><path class="fil14" d="M16351 8085V4703h-832v3382h832zm3042 0l-1674-1203 1675-1238h-1076l-1545 1260 1535 1181h1085z"/><path class="fil15" d="M15178 8085v-302h-1459c-296 0-579-69-817-247-212-158-351-368-351-635 0-271 154-481 367-639 244-182 529-259 833-259h1427v-348h-1586c-503 0-1053 81-1469 381-293 213-467 485-467 850 0 375 181 648 491 854 410 274 953 345 1437 345h1594z"/><path class="fil16" d="M11362 8090V6676c0-152-15-326-76-468-57-132-180-237-297-314-75-47-155-85-238-116-181 104-375 196-588 270 48 23 93 51 136 83l4 3 3 3c49 42 100 90 138 142 43 59 62 127 62 199v286H8444c-258 0-511 53-723 205-165 120-263 271-263 476 0 202 122 340 289 445 234 147 505 200 780 200h2835zm-856-275H8932c-132 0-261-27-378-90-119-65-209-166-209-306 0-146 86-255 213-323 125-68 265-94 406-94h1542v813z"/><path class="fil17" d="M5330 7054c275-49 548-98 816-157v1188h-816V7054z"/><path class="fil18" d="M2182 8096h1007v-543c-359 135-699 309-1007 543z"/><path class="fil19" d="M15267 3652l-233 861h-2348c854-396 1694-652 2581-861zm371-84c379-83 768-161 1172-239l-321 1184h-1107l256-945zm1417-286c740-143 1532-293 2403-492-55 49-112 96-173 140-305 222-648 352-1028 352h-1202zm3052-691c410-155 818-359 1212-575 5 33 19 65 44 94 57 66 137 85 222 85h1159c313 0 649 66 861 314 202 238 212 538 133 828-92 340-285 618-561 839-276 220-592 342-947 342h-5485l232-854h4981c115 0 223-25 323-82 96-56 165-131 194-238 79-290-181-314-414-314h-1052c-307 0-587-89-801-312-40-41-73-83-101-127zm1966-1005c663-385 1255-730 1711-824h417l-223 824h-1905z"/><path class="fil20" d="M12686 4513c854-396 1694-652 2581-861l-233 861h-2348zm2952-945c379-84 768-161 1172-239l-321 1184h-1107l256-945zm1415-286c741-143 1533-293 2405-492-55 49-112 96-173 140-305 222-648 352-1028 352h-1204zm3054-692c411-155 818-358 1212-574 5 33 19 65 44 94 57 66 137 85 222 85h1159c313 0 649 66 861 314 202 238 212 538 133 828-92 340-285 618-561 839-276 220-592 342-947 342h-5485l232-854h4981c115 0 223-25 323-82 96-56 165-131 194-238 79-290-181-314-414-314h-1052c-307 0-587-89-801-312-39-41-73-83-101-128zm1966-1004c663-385 1255-730 1711-824h417l-223 824h-1905z"/></g></g></svg>