<svg xmlns="http://www.w3.org/2000/svg" width="2550" height="1089" viewBox="0 0 2550021 1088840" xmlns:xlink="http://www.w3.org/1999/xlink" shape-rendering="geometricPrecision" text-rendering="geometricPrecision" image-rendering="optimizeQuality" fill-rule="evenodd" clip-rule="evenodd"><defs><linearGradient id="id16" gradientUnits="objectBoundingBox" x1="50%" y1="95%" x2="50%" y2="5%"><stop offset="0" stop-color="#222d55"/><stop offset=".4" stop-color="#9095a9"/><stop offset="1" stop-color="#fefefe"/></linearGradient><linearGradient id="id0" gradientUnits="userSpaceOnUse" x1="1745670" y1="490590" x2="1745670" y2="788240"><stop offset="0" stop-color="#2b417b"/><stop offset="1" stop-color="#fefefe"/></linearGradient><linearGradient id="id1" gradientUnits="userSpaceOnUse" x1="1372610" y1="813021" x2="1372610" y2="467401"><stop offset="0" stop-color="#212748"/><stop offset="1" stop-color="#fefefe"/></linearGradient><linearGradient id="id2" gradientUnits="userSpaceOnUse" xlink:href="#id0" x1="2116730" y1="582597" x2="2116730" y2="792966"/><linearGradient id="id3" gradientUnits="userSpaceOnUse" xlink:href="#id0" x1="1341660" y1="580054" x2="1341660" y2="793951"/><linearGradient id="id4" gradientUnits="userSpaceOnUse" xlink:href="#id0" x1="268600" y1="758568" x2="268600" y2="806298"/><linearGradient id="id5" gradientUnits="userSpaceOnUse" xlink:href="#id0" x1="573761" y1="698021" x2="573761" y2="800215"/><linearGradient id="id6" gradientUnits="userSpaceOnUse" xlink:href="#id0" x1="2433420" y1="578611" x2="2433420" y2="791225"/><linearGradient id="id7" gradientUnits="userSpaceOnUse" xlink:href="#id0" x1="941004" y1="591720" x2="941004" y2="795170"/><linearGradient id="id8" gradientUnits="userSpaceOnUse" x1="270194" y1="491624" x2="270194" y2="789271"><stop offset="0" stop-color="#274b8b"/><stop offset="1" stop-color="#fefefe"/></linearGradient><linearGradient id="id9" gradientUnits="userSpaceOnUse" xlink:href="#id8" x1="1745660" y1="493958" x2="1745660" y2="784844"/><linearGradient id="id10" gradientUnits="userSpaceOnUse" xlink:href="#id8" x1="1341660" y1="582499" x2="1341660" y2="791513"/><linearGradient id="id11" gradientUnits="userSpaceOnUse" xlink:href="#id8" x1="940997" y1="582531" x2="940997" y2="791992"/><linearGradient id="id12" gradientUnits="userSpaceOnUse" xlink:href="#id8" x1="2433430" y1="578602" x2="2433430" y2="791215"/><linearGradient id="id13" gradientUnits="userSpaceOnUse" x1="517423" y1="177773" x2="871257" y2="431669"><stop offset="0" stop-color="#2c3567"/><stop offset=".11" stop-color="#9599b2"/><stop offset="1" stop-color="#fefefe"/></linearGradient><linearGradient id="id14" gradientUnits="userSpaceOnUse" xlink:href="#id8" x1="635448" y1="578602" x2="635448" y2="791215"/><linearGradient id="id15" gradientUnits="userSpaceOnUse" xlink:href="#id8" x1="2116730" y1="580160" x2="2116730" y2="795415"/><style>.fil9{fill:#f39430}.fil0,.fil8{fill-rule:nonzero}.fil8{fill:#e85222}.fil0{fill:url(#id16)}</style></defs><g id="Capa_x0020_1"><g id="_2709552193296"><path class="fil0" d="M541134 519188H333433v304371H204517V519188H0v-62234h541134z"/><path id="1" class="fil0" d="M752337 610186H628989v212327H519171V551612h109818v37654c5836-9414 13131-17084 21620-23011 8488-5926 19760-10458 33688-13597 6365-1395 13130-2615 20425-3660 7162-1046 14455-1570 22017-1570 9018 0 17640 698 25598 2092v60666z"/><path id="2" class="fil0" d="M1150548 822513H852923c-33422 0-61938-7410-85546-22139-23610-14819-35414-33471-35414-56046 0-23621 10745-43145 32097-58660 21487-15428 48278-23186 80640-23186h192050v-14643c0-4532-1193-8455-3582-11766-2386-3312-6233-7235-11539-11767-7425-5578-14987-9152-22945-10721-7956-1569-19098-2354-33289-2354H759817v-59619h210883c38728 0 67641 2179 86740 6537 19100 4359 35545 10896 49339 19525 17506 11506 29178 24056 35014 37655 5837 13509 8755 30941 8755 52122v155062zm-113798-55435v-52821H896692c-13263 0-24537 2528-33822 7496-9285 5056-13925 11679-13925 19960 0 7235 4509 13249 13528 18130 9019 4793 19364 7235 31036 7235h143241z"/><path id="3" class="fil0" d="M1532049 822513h-173482c-64194 0-114725-12290-151598-36870-36871-24579-55308-56917-55308-97012 0-38699 17508-70775 52524-96227 37667-27194 89392-40792 155178-40792h172686v62758h-156771c-29179 0-54113 7670-74802 23010-20692 15341-31038 32947-31038 52820 0 20222 9815 37654 29444 52298 19630 14643 44034 21965 73214 21965h159953v58050z"/><path id="4" class="fil0" d="M1650143 822513h-112204V456954h112204v365559zm332639 0h-156371l-170697-131790 171492-140156h154780l-186212 137541 187008 134405z"/><path id="5" class="fil0" d="M2301417 824081h-194172c-47216 0-88199-13335-122950-40007-34747-26672-52124-57440-52124-92304 0-38003 18966-70864 56899-98582 37934-27717 80243-41576 126929-41576h184621v55959h-135283c-16976 0-31434 958-43369 2876-11938 1917-22946 5666-33027 11244-18567 10459-27852 24579-27852 42361h238735v56480h-238735c0 8368 1459 15428 4376 21181 2919 5752 8888 11506 18039 17259 9020 5752 19762 9587 32229 11505 12601 1917 27852 2876 46022 2876h139662v50728z"/><path id="6" class="fil0" d="M2550021 610186h-123348v212327h-109818V551612h109818v37654c5836-9414 13132-17084 21619-23011 8489-5926 19762-10458 33688-13597 6367-1395 13132-2615 20427-3660 7162-1046 14455-1570 22016-1570 9019 0 17640 698 25598 2092v60666z"/><path d="M2535916 596159v-34434c-3825-293-7662-428-11484-428-6684 0-13352 450-19984 1422-6505 931-12973 2066-19349 3466-9743 2189-20433 5636-28664 11384-7122 4972-12948 11284-17532 18590h97013zm-123371 42507v-73184h-81600v243039h81600V638666z" fill="url(#id12)"/><path d="M2287262 810088v-22831h-125560c-15975 0-32378-632-48192-3041-13381-2060-26287-6269-37667-13533-9070-5698-18164-13111-23074-22766-4311-8501-5869-18003-5869-27439v-13953h238771v-28588h-238771v-13952c0-24608 13857-42587 35056-54530 11719-6483 24428-10720 37686-12854 14949-2400 30510-3056 45641-3056h121189v-28063h-170539c-43898 0-83256 13055-118546 38848-29752 21742-51191 49707-51191 87378 0 34569 19914 60757 46676 81305 33508 25713 71985 37075 114307 37075h180083z" fill="url(#id15)"/><path d="M1635088 808521V470281h-83191v338240h83191zm304195 0l-167418-120320 167568-123766h-107661l-154427 125915 153410 118171h108528z" fill="url(#id9)"/><path d="M1517769 808521v-30155h-145860c-29567 0-57869-6987-81727-24785-21171-15784-35070-36740-35070-63440 0-27133 15354-48177 36694-63995 24422-18110 52917-25802 83289-25802h142674v-34862h-158596c-50239 0-105313 8107-146844 38090-29323 21314-46770 48567-46770 84997 0 37555 18147 64831 49099 85462 41047 27365 95301 34490 143723 34490h159388z" fill="url(#id10)"/><path d="M1136202 809042V667645c0-15268-1539-32653-7634-46851-5667-13199-17975-23701-29685-31393-13649-8627-29139-14153-44865-17743-25387-5790-57590-6176-83576-6176H773641v31722h191501c11710 0 24550 359 36058 2624 10623 2093 20145 6850 28730 13306l343 260 334 279c4920 4200 10035 8986 13815 14226 4236 5870 6203 12688 6203 19874v28597H844425c-25859 0-51138 5293-72304 20571-16502 11989-26334 27080-26334 47595 0 20226 12223 34006 28870 44456 23444 14711 50513 20050 77991 20050h283554zm-85577-27537H893238c-13264 0-26136-2712-37818-9041-11932-6450-20869-16548-20869-30542 0-14631 8598-25481 21231-32360 12468-6786 26527-9316 40643-9316h154200v81259z" fill="url(#id11)"/><path d="M737931 596159v-34434c-3827-293-7663-428-11484-428-6684 0-13353 450-19984 1422-6506 931-12973 2066-19349 3466-9743 2189-20433 5636-28670 11384-7121 4972-12942 11284-17528 18590h97015zm-123371 42507v-73184h-81600v243039h81600V638666z" fill="url(#id14)"/><path fill="url(#id8)" d="M526685 505669v-34341H13703v34341h204548v303898h100700V505669z"/><path class="fil8" d="M338415 1086057h-55594c-16263 0-29300-1783-39117-5351-12451-4567-21388-12379-26808-23508-2051-4282-3479-8384-4285-12272-805-3925-1208-8456-1208-13592v-94893h39554v93573c0 4281 512 8026 1537 11237 1027 3211 2857 6386 5495 9525 3661 4531 7911 7527 12744 8954 4834 1427 10987 2140 18459 2140h49223v24187z"/><path id="1" class="fil8" d="M484544 1030299c0 19299-6300 34105-18899 44378-11572 9454-27320 14163-47244 14163-19923 0-35378-4282-46366-12879-12745-9846-19117-25220-19117-46090 0-17445 6886-31179 20655-41168 12306-9025 27468-13520 45488-13520 19777 0 35635 4816 47574 14484 11939 9631 17909 23188 17909 40632zm-34061-214c0-9025-2892-16589-8679-22653-5786-6100-13661-9132-23622-9132-9083 0-16591 3103-22524 9346-5933 6207-8900 14056-8900 23509 0 10881 3004 19549 9011 25971 6005 6457 13769 9667 23292 9667 10840 0 18897-3353 24171-10095 4835-6136 7251-15019 7251-26613z"/><path id="2" class="fil8" d="M602767 1086057h-47905c-17726 0-31680-5030-41861-15090-10181-10059-15272-23295-15272-39704 0-15840 4833-28967 14503-39385 10401-11129 24684-16695 42850-16695h47685v25685h-43290c-8057 0-14944 3139-20656 9418-5714 6279-8570 13485-8570 21618 0 8277 2710 15411 8130 21404s12160 8991 20217 8991h44169v23758z"/><path id="3" class="fil8" d="M732855 1086057h-82184c-9229 0-17104-3032-23622-9061-6519-6064-9779-13699-9779-22938 0-9667 2966-17659 8863-24008 5933-6315 13332-9489 22267-9489h53032v-5993c0-1856-329-3461-989-4817-658-1356-1721-2961-3186-4815-2052-2284-4139-3747-6335-4388-2199-643-5275-964-9194-964h-56767v-24401h58232c10694 0 18678 892 23952 2675 5274 1784 9816 4460 13625 7992 4834 4709 8057 9846 9668 15411 1611 5529 2417 12664 2417 21332v63464zm-31423-22688v-21619h-38675c-3662 0-6775 1035-9340 3068-2563 2070-3844 4780-3844 8170 0 2960 1245 5422 3736 7420 2490 1962 5345 2961 8569 2961h39554z"/><path id="4" class="fil8" d="M785813 1086057h-30983V936441h30983z"/><path id="5" class="fil8" d="M837892 962768h-30324v-26327h30324v26327zm0 123289h-30324V975183h30324v110874z"/><path id="6" class="fil8" d="M969740 999156l-64824 63571h63724v23330H859209v-22903l65043-64426h-65043v-23545h110531z"/><path id="7" class="fil8" d="M1102025 1086057h-82184c-9229 0-17104-3032-23622-9061-6519-6064-9779-13699-9779-22938 0-9667 2967-17659 8863-24008 5933-6315 13332-9489 22267-9489h53032v-5993c0-1856-329-3461-989-4817-658-1356-1720-2961-3186-4815-2052-2284-4139-3747-6336-4388-2198-643-5274-964-9193-964h-56767v-24401h58232c10694 0 18679 892 23954 2675 5272 1784 9813 4460 13623 7992 4834 4709 8057 9846 9668 15411 1612 5529 2417 12664 2417 21332v63464zm-31423-22688v-21619h-38674c-3663 0-6775 1035-9341 3068-2563 2070-3844 4780-3844 8170 0 2960 1245 5422 3736 7420 2491 1962 5345 2961 8569 2961h39554z"/><path id="8" class="fil8" d="M1237827 1086057h-71417c-13771 0-25197-5993-34280-17979-8350-11131-12525-24187-12525-39170 0-14412 4688-26969 14063-37671 9376-10702 21096-16054 35160-16054h39334v-38742h29665v149616zm-30545-24187v-63142h-28346c-7911 0-14430 3068-19558 9204-5126 6136-7691 13413-7691 21832s2345 15875 7033 22368 10987 9738 18898 9738h29664z"/><path id="9" class="fil8" d="M1387033 1030299c0 19299-6300 34105-18898 44378-11574 9454-27321 14163-47245 14163-19923 0-35378-4282-46366-12879-12745-9846-19116-25220-19116-46090 0-17445 6884-31179 20654-41168 12307-9025 27469-13520 45487-13520 19778 0 35636 4816 47575 14484 11939 9631 17909 23188 17909 40632zm-34060-214c0-9025-2894-16589-8680-22653-5786-6100-13661-9132-23623-9132-9081 0-16590 3103-22524 9346-5932 6207-8899 14056-8899 23509 0 10881 3003 19549 9010 25971 6006 6457 13770 9667 23292 9667 10842 0 18899-3353 24172-10095 4835-6136 7252-15019 7252-26613z"/><path id="10" class="fil8" d="M1468997 999156h-34060v86901h-30324V975183h30324v15411c1611-3852 3626-6992 5970-9418 2345-2426 5457-4280 9303-5565 1757-571 3625-1070 5639-1498 1978-429 3993-643 6080-643 2491 0 4871 286 7068 857v24829z"/><path id="11" class="fil8" d="M1733349 1039503c0 13092-4468 24115-13403 33105-8938 8954-20290 13449-34061 13449h-108773v-26756h89655c6006 0 11060-1354 15163-4102 4688-3139 7032-7455 7032-12913 0-12771-9231-19158-27688-19158h-45267c-13039 0-24465-3923-34282-11736-9814-7848-14721-17801-14721-29895 0-13377 4796-24222 14393-32570 9595-8312 22231-12486 37906-12486h103938v25686h-91633c-4101 0-8240 1676-12416 4994-4174 3353-6261 7278-6261 11807 0 5102 2013 9383 6042 12879 4028 3461 8900 5208 14613 5208h49881c15528 0 27725 3889 36588 11630 8864 7777 13294 18051 13294 30858z"/><path id="12" class="fil8" d="M1861900 1086057h-82183c-9230 0-17104-3032-23623-9061-6520-6064-9778-13699-9778-22938 0-9667 2965-17659 8863-24008 5933-6315 13330-9489 22266-9489h53033v-5993c0-1856-331-3461-990-4817s-1721-2961-3186-4815c-2051-2284-4138-3747-6335-4388-2199-643-5275-964-9194-964h-56767v-24401h58233c10694 0 18677 892 23952 2675 5273 1784 9815 4460 13623 7992 4835 4709 8057 9846 9670 15411 1611 5529 2416 12664 2416 21332v63464zm-31422-22688v-21619h-38676c-3662 0-6775 1035-9339 3068-2563 2070-3846 4780-3846 8170 0 2960 1246 5422 3737 7420 2490 1962 5346 2961 8569 2961h39555z"/><path id="13" class="fil8" d="M1951556 998300h-29665v50299c0 4568 1611 8348 4834 11345 3661 2996 8496 4495 14502 4495h9009v21618h-28345c-8497 0-15748-2996-21756-8989-3515-3568-5786-7492-6812-11772-1024-4282-1538-9348-1538-15198v-51798h-19336v-23117h19336v-38742h30106v38742h29665v23117z"/><path id="14" class="fil8" d="M2065164 1086700h-53618c-13037 0-24355-5458-33950-16375-9597-10916-14393-23509-14393-37778 0-15555 5237-29003 15711-40348 10474-11344 22158-17016 35048-17016h50981v22903h-37356c-4688 0-8679 392-11976 1177-3296 785-6336 2319-9119 4602-5129 4281-7692 10060-7692 17337h65923v23117h-65923c0 3425 403 6314 1210 8669 804 2354 2453 4708 4981 7063 2489 2354 5456 3924 8898 4709 3480 785 7692 1177 12710 1177h38565v20763z"/><path id="15" class="fil8" d="M2117681 1086057h-30983V936441h30983z"/><path id="16" class="fil8" d="M2169761 962768h-30325v-26327h30325v26327zm0 123289h-30325V975183h30325v110874z"/><path id="17" class="fil8" d="M2259856 998300h-29665v50299c0 4568 1611 8348 4835 11345 3661 2996 8497 4495 14503 4495h9008v21618h-28346c-8497 0-15747-2996-21755-8989-3515-3568-5786-7492-6812-11772-1024-4282-1537-9348-1537-15198v-51798h-19337v-23117h19337v-38742h30104v38742h29665v23117z"/><path id="18" class="fil8" d="M2387088 1086057h-82184c-9229 0-17103-3032-23622-9061-6519-6064-9779-13699-9779-22938 0-9667 2966-17659 8864-24008 5932-6315 13331-9489 22266-9489h53032v-5993c0-1856-329-3461-989-4817-658-1356-1721-2961-3186-4815-2051-2284-4138-3747-6335-4388-2198-643-5275-964-9194-964h-56767v-24401h58233c10693 0 18678 892 23952 2675 5273 1784 9815 4460 13624 7992 4834 4709 8057 9846 9668 15411 1613 5529 2417 12664 2417 21332v63464zm-31423-22688v-21619h-38675c-3662 0-6774 1035-9339 3068-2564 2070-3845 4780-3845 8170 0 2960 1245 5422 3736 7420 2491 1962 5346 2961 8569 2961h39554z"/><path id="19" class="fil8" d="M2440047 1086057h-30984V936441h30984z"/><path class="fil9" d="M1415847 369387l18283-67436h-106072l15630-57627h215813l-56131 206991h-246472c-46158 0-81548-19440-102381-60561-20630-41042-19261-86451-7500-129825 13752-50715 41008-93478 80622-128451 38929-34436 84486-56272 137303-56272h236064l-23587 86974h-209192c-26119 0-47440 12695-65162 30950-19664 20219-32573 44407-39907 71452-6373 23507-9448 49873-1417 73343 7182 20539 20498 30462 42590 30462h111516zm266457-41197l-33386 123125h-110763l101720-375109h253111c36925 0 70351 11582 89472 44377 15557 27058 16512 56787 8467 86460-9769 36023-32319 64147-62427 85969-30481 22155-64756 35178-102763 35178h-143431zm691502 5513c-9208 33959-28462 61802-56094 83891-27591 22051-59180 34225-94738 34225h-548447l23174-85462h498083c11494 0 22343-2488 32301-8195 9640-5529 16553-13085 19461-23809 7846-28934-18099-31395-41406-31395h-105201c-30695 0-58751-8891-80167-31158-21956-22836-25821-51168-17727-81014 9360-34498 29233-62129 58541-82996 30451-21684 65099-31584 102574-31584h255982l-22358 82434h-221449c-8965 0-18653 5168-25872 9982-7982 5328-15094 12340-17651 21775-2049 7541-1779 14496 3487 20589 5684 6572 13692 8530 22191 8530h115927c31315 0 64885 6579 86040 31395 20265 23780 21206 53819 13349 82792zm-645252-176073l-23756 87622h102005c14999 0 28204-5114 40110-13953 11980-8899 20379-20112 24266-34459 2826-10411 1834-19499-5898-27413-8474-8672-19316-11797-31340-11797h-105387z"/><path d="M941071 68038c-647 95398-26847 191881-81174 279125-54338 87200-129670 153828-215656 197313l-28516-54797c76212-38625 142965-97553 191060-174812 48080-77276 71293-162749 71849-247341l62437 512zm-493467 98222l25622 49316c27150-13720 50898-34737 68053-62199 17134-27485 25379-57946 25530-88011l-55369-395c-750 29980-13025 59689-36686 82050-8305 7845-17457 14234-27150 19239zm243913-99998c-314 51849-14494 104362-44063 151701-29488 47399-70482 83588-117202 107239l-28532-54770c36929-18694 69339-47285 92681-84739 23269-37489 34538-78954 34802-119901l62314 470zm124766 880c-486 73675-20708 148110-62588 215396-41935 67347-100096 118725-166497 152279l-12781-24644-15718-30153c56546-28645 106132-72351 141927-129777 35622-57329 52863-120783 53306-183559l34283 242 28068 216z" fill="url(#id13)"/><circle class="fil9" transform="matrix(2.78591 2.87892 -2.91355 2.75279 392563 62089.6)" r="15587"/><path d="M333220 750219v73312H204294c4334-5487 9012-10211 13956-13974 34747-26442 73668-45141 114970-59338zm2200927-202552c522 4794 1102 9484 1756 14066 2185 15337 3848 31585 5026 48400h-114269v212350h-109829V551556h109829v37656c5836-9410 13133-17084 21620-23012 8491-5927 19763-10458 33691-13596 6370-1397 13134-2617 20431-3659 7159-1049 14456-1570 22020-1570 3303 0 6537 103 9725 292zM518977 707872c37101-6495 74073-12995 109829-21374v135985H518977V707872zm473860-95242c7825-2451 15662-5052 23492-7789 27305-9552 51312-21992 73771-35955 5877 2647 11402 5572 16543 8820 17509 11506 29183 24060 35025 37662 5831 13595 8746 31029 8746 52300v155336H852765c-33426 0-61942-7406-85550-22226-23618-14818-35420-33562-35420-56224 0-23710 10746-43326 32100-58840 21491-15521 48280-23275 80645-23275h192070v-14645c0-4535-1194-8459-3583-11769-2388-3310-6236-7233-11533-11769-7437-5578-14990-9152-22959-10722-1744-343-3652-641-5698-904zm43773 154936v-53348H896542c-13267 0-24540 2525-33825 7582-9291 5057-13934 11769-13934 20136 0 7326 4515 13425 13533 18304 9019 4885 19365 7326 31033 7326h143261zm495345 54917h-173498c-64202 0-114738-12291-151612-36871-36881-24587-55312-56922-55312-97023 0-38704 17510-70782 52523-96239 37674-27192 89404-40794 155190-40794h172709v62764h-156788c-29183 0-54117 7668-74815 23011-20687 15342-31032 32954-31032 52826 0 20223 9813 37657 29450 52300 19624 14645 44032 21970 73209 21970h159976v58056zm117312 0h-111429V456365h111429v366118zm333457 0h-156788l-171105-131804 171911-140166h155188l-186232 137555 187026 134415zm318661 1569h-194191c-47220 0-88209-13339-122963-40010-34747-26677-52124-57448-52124-92315 0-38005 18965-70867 56901-98592 37934-27719 80251-41579 126944-41579h184638v55965h-135291c-16988 0-31443 957-43383 2875-11928 1918-22946 5665-33020 11248-18570 10458-27861 24582-27861 42363h238755v56487h-238755c0 8367 1466 15429 4376 21179 2915 5756 8885 11511 18049 17262 9019 5756 19753 9587 32225 11505 12600 1919 27850 2881 46032 2881h139668v50731z" fill="url(#id1)"/><path d="M2535903 596165v-34432c-3814-298-7656-430-11470-430-6682 0-13354 442-19979 1421-6508 927-12971 2050-19359 3476-9719 2193-20425 5607-28661 11362-7117 4955-12931 11300-17539 18603h97008zm-123356 42494v-73187h-81602v243060h81602V638659z" fill="url(#id6)"/><path d="M2287271 810090v-22841h-125576c-15957 0-32359-630-48183-3040-13383-2051-26291-6272-37674-13533-9077-5688-18165-13116-23075-22771-4294-8488-5859-17990-5859-27439v-13940h238755v-28590h-238755v-13951c0-24615 13846-42593 35043-54528 11725-6483 24453-10715 37686-12846 14964-2422 30515-3053 45637-3053h121212v-28086h-170559c-43899 0-83232 13065-118535 38888-29756 21723-51190 49682-51190 87345 0 34563 19921 60747 46676 81307 33501 25720 71975 37078 114302 37078h180095z" fill="url(#id2)"/><path d="M1635073 808532V470294h-83173v338238h83173zm304205 0l-167408-120315 167564-123786h-107668l-154423 125927 153410 118174h108525z" fill="url(#id0)"/><path d="M1517766 808532v-30183h-145844c-29596 0-57886-6970-81730-24775-21191-15767-35084-36740-35084-63433 0-27135 15359-48183 36677-63984 24442-18109 52953-25812 83307-25812h142674v-34873h-158602c-50228 0-105308 8128-146843 38109-29316 21293-46767 48555-46767 84990 0 37553 18158 64832 49098 85460 41065 27370 95315 34501 143741 34501h159373z" fill="url(#id3)"/><path d="M1136214 809041V667627c0-15257-1548-32633-7645-46830-5674-13195-17980-23693-29675-31402-7484-4731-15499-8500-23805-11546-18130 10332-37454 19535-58760 26992l-12 5c4788 2263 9314 5058 13610 8300l341 246 349 285c4914 4193 10020 8976 13794 14210 4248 5887 6213 12686 6213 19891v28594H844437c-25886 0-51151 5298-72306 20566-16502 11993-26344 27084-26344 47599 0 20210 12225 34007 28876 44454 23433 14702 50513 20050 77992 20050h283559zm-85590-27542H893232c-13260 0-26133-2702-37818-9048-11928-6431-20866-16545-20866-30520 0-14638 8595-25491 21225-32375 12478-6776 26528-9307 40642-9307h154209v81250z" fill="url(#id7)"/><path d="M532957 705391c27497-4845 54842-9821 81603-15686v118827h-81603V705391z" fill="url(#id5)"/><path d="M218250 809557h100694v-54242c-35992 13516-69986 30875-100694 54242z" fill="url(#id4)"/><path d="M1526716 365224l-23346 86091h-234758c85435-39597 169344-65170 258104-86091zm37072-8430c37911-8328 76832-16048 117235-23882l-32104 118403h-110762l25631-94521zm141683-28607c74039-14260 153218-29300 240304-49185-5426 4943-11186 9593-17278 14009-30482 22158-64753 35176-102758 35176h-120268zm305224-69115c41043-15508 81818-35868 121167-57425 522 3299 1907 6413 4440 9340 5680 6570 13690 8528 22187 8528h115926c31316 0 64887 6580 86042 31396 20264 23779 21208 53818 13349 82791-9210 33962-28465 61801-56095 83890-27588 22057-59176 34226-94735 34226h-548450l23172-85460h498089c11493 0 22343-2491 32301-8195 9639-5528 16547-13087 19458-23808 7847-28934-18102-31396-41408-31396h-105198c-30696 0-58755-8894-80171-31162-3923-4077-7273-8321-10074-12725zm196637-100431c66249-38520 125495-73055 171094-82435h41713l-22355 82435h-190452z" fill="#f6ab5c"/><path d="M1268612 451315c85429-39593 169356-65181 258110-86108l-23352 86108h-234758zm295182-94539c37911-8332 76843-16070 117241-23898l-32116 118437h-110762l25637-94539zm141532-28589c74074-14260 153294-29289 240443-49179-5420 4925-11198 9605-17272 14003-30482 22158-64753 35176-102758 35176h-120413zm305399-69144c41036-15509 81811-35869 121161-57420 520 3293 1883 6437 4416 9364 5680 6570 13690 8528 22187 8528h115926c31316 0 64887 6580 86042 31396 20264 23779 21208 53818 13349 82791-9210 33962-28465 61801-56095 83890-27588 22057-59176 34226-94735 34226h-548450l23172-85460h498089c11493 0 22343-2491 32301-8195 9639-5528 16547-13087 19458-23808 7847-28934-18102-31396-41408-31396h-105198c-30696 0-58755-8894-80171-31162-3918-4077-7239-8343-10044-12754zm196595-100402c66237-38514 125491-73037 171088-82435h41731l-22355 82435h-190464z" fill="#e85222"/></g></g></svg>