<svg xmlns="http://www.w3.org/2000/svg" width="2550" height="3300" viewBox="0 0 2550 3300" shape-rendering="geometricPrecision" text-rendering="geometricPrecision" image-rendering="optimizeQuality" fill-rule="evenodd" clip-rule="evenodd"><defs><style>.fil0{fill:#283b6e}.fil1{fill:#fefefe;fill-rule:nonzero}</style></defs><g id="Capa_x0020_1"><g id="_2427409764176"><path class="fil0" d="M1286 1640c6 6 6 15 0 21s-16 6-22 0-6-16 0-22 16-6 22 1z"/><path class="fil1" d="M1263 1662c1-2 3-7 5-13s3-11 4-14h6c-1 2-1 4-2 7 1 0 2-1 3-1h2c2 0 4 1 5 1 2 1 3 2 3 4v5c-1 2-1 3-2 5-1 1-2 2-3 4-1 1-3 2-4 2-1 1-3 1-4 1h-2c-1 0-1-1-2-1 0 0-1 0-1-1l-1-1v-1l-1 3h-6zm11-16l-1 4s0 1-1 2v4c0 1 0 1 1 2 1 0 1 1 2 1 2 0 3-1 4-1 1-1 2-2 2-3 1-1 2-2 2-4v-4c-1-1-2-2-4-2h-2c-1 1-2 1-3 1z"/></g></g></svg>