<?xml version="1.0" encoding="UTF-8"?>
<!DOCTYPE svg PUBLIC "-//W3C//DTD SVG 1.1//EN" "http://www.w3.org/Graphics/SVG/1.1/DTD/svg11.dtd">
<!-- Creator: CorelDRAW X7 -->
<svg xmlns="http://www.w3.org/2000/svg" xml:space="preserve" width="408px" height="277px" version="1.1" style="shape-rendering:geometricPrecision; text-rendering:geometricPrecision; image-rendering:optimizeQuality; fill-rule:evenodd; clip-rule:evenodd"
viewBox="0 0 408 277"
 xmlns:xlink="http://www.w3.org/1999/xlink">
 <defs>
  <style type="text/css">
   <![CDATA[
    .fil1 {fill:#283B6E}
    .fil2 {fill:#FEFEFE;fill-rule:nonzero}
    .fil0 {fill:#F16136;fill-rule:nonzero}
    .fil3 {fill:#FEFEFE;fill-opacity:0.501961}
   ]]>
  </style>
 </defs>
 <g id="Capa_x0020_1">
  <metadata id="CorelCorpID_0Corel-Layer"/>
  <g id="_2427466237072">
   <path class="fil0" d="M0 107l2 -6 4 -14 3 -10c0,0 0,-1 0,-2 1,-1 1,-2 1,-3 2,0 4,0 6,0 1,0 3,0 5,0 2,0 4,0 5,0 2,0 4,0 5,0 1,0 2,1 3,2 1,1 1,2 2,3 0,1 0,2 0,4 -1,2 -2,4 -4,6 -1,2 -3,3 -6,4 -2,1 -4,1 -7,1 -1,0 -3,0 -4,0 0,-2 0,-3 0,-5 1,0 2,0 3,0 2,0 3,0 4,0 2,-1 3,-1 4,-2 0,-1 1,-2 1,-4 0,0 1,-1 0,-2 0,0 0,-1 0,-1 -1,-1 -1,-1 -2,-1 -1,0 -2,0 -3,0 -1,0 -2,0 -3,0 -1,0 -2,0 -3,0 -1,3 -2,7 -2,10l-3 10c-1,3 -2,6 -2,7 0,1 -1,2 -1,3l-4 0c0,0 -2,0 -4,0z"/>
   <path id="1" class="fil0" d="M58 80c2,0 4,0 6,1 2,1 3,1 4,3 1,1 2,2 2,4 0,2 0,3 0,5 -1,2 -1,4 -3,6 -1,2 -2,3 -4,5 -1,1 -3,2 -6,3 -2,0 -4,1 -6,1 -3,0 -4,-1 -6,-1 -2,-1 -3,-2 -5,-3 -1,-1 -1,-2 -2,-4 0,-2 0,-4 1,-6 0,-1 1,-3 2,-5 1,-2 2,-3 4,-5 2,-1 4,-2 6,-3 2,-1 5,-1 7,-1zm-1 5c-2,0 -3,1 -5,2 -1,0 -3,1 -3,3 -1,1 -2,3 -3,5 0,1 0,2 0,4 0,1 1,2 2,2 1,1 2,2 4,2 1,0 3,-1 4,-2 2,0 3,-1 4,-3 1,-1 2,-3 2,-5 0,-1 0,-2 0,-4 0,-1 0,-2 -1,-2 -1,-1 -3,-2 -4,-2z"/>
   <path id="2" class="fil0" d="M75 107l4 -12 2 -7c0,-2 0,-3 1,-5 0,0 0,-1 0,-2 2,0 3,0 4,0 1,0 2,0 4,0l-1 3c1,-1 1,-1 2,-2 1,0 1,-1 2,-1 1,0 1,0 2,-1 1,0 2,0 3,0 0,0 1,0 2,0 -1,2 -1,4 -1,7 -1,-1 -2,-1 -3,-1 -1,0 -2,0 -3,1 -1,0 -2,0 -3,1 -1,1 -1,1 -2,2 0,1 -1,2 -1,3 -1,1 -1,2 -2,5 -1,2 -1,4 -2,6 0,1 0,2 0,3 -2,0 -3,0 -4,0 -1,0 -3,0 -4,0z"/>
   <path id="3" class="fil0" d="M119 102c0,1 -1,2 -2,5 -2,0 -3,1 -4,1 -1,0 -2,0 -3,0 -1,0 -2,0 -3,-1 -1,0 -2,0 -3,-1 0,-1 0,-1 -1,-2 0,-1 1,-2 1,-3 0,0 0,0 0,-1 0,0 0,-1 1,-3l3 -11 -4 0c1,-1 1,-3 2,-5l4 0c0,-1 1,-3 2,-5l3 -1c1,0 2,0 4,-1 -1,3 -1,5 -2,7l7 0c0,2 -1,4 -1,5l-7 0c-2,7 -3,11 -4,12 0,1 0,2 0,3 0,0 1,1 1,1 1,0 1,0 2,0 0,0 1,0 1,0 1,0 2,0 3,0z"/>
   <path id="4" class="fil0" d="M132 86c1,-1 1,-2 1,-2 0,-1 1,-1 1,-2 3,-1 5,-1 7,-2 2,0 4,0 6,0 2,0 4,0 5,1 2,0 3,1 4,2 0,1 0,2 0,4 0,1 -1,4 -2,8 -1,4 -3,8 -4,12 -1,0 -2,0 -4,0 -1,0 -2,0 -4,0 1,-2 2,-4 3,-7l2 -7c-1,1 -2,1 -2,1 -1,0 -1,1 -2,1 0,0 -1,0 -2,0 -1,1 -2,1 -3,1 -1,0 -2,1 -2,1 -1,0 -1,1 -2,1 0,0 -1,1 -1,1 0,0 0,1 -1,1 0,1 0,2 1,2 0,1 0,1 1,1 1,1 2,1 2,1 1,0 2,0 2,0 1,-1 2,-1 3,-1 0,1 -1,2 -2,4 -2,0 -3,1 -3,1 -1,0 -2,0 -3,0 -2,0 -4,-1 -5,-1 -2,-1 -2,-2 -3,-3 0,-1 0,-3 0,-4 0,-1 1,-1 1,-2 0,-1 1,-1 2,-2 0,-1 1,-1 2,-2 1,0 3,-1 4,-1 2,-1 4,-1 7,-2 1,0 2,0 2,0 1,-1 2,-1 2,-1 1,0 1,-1 2,-1 0,0 0,0 1,-1 0,0 0,0 0,-1 0,0 0,-1 0,-2 -1,0 -1,0 -2,-1 0,0 -1,0 -2,0 -4,0 -7,1 -12,2z"/>
   <path id="5" class="fil0" d="M161 107c1,-3 2,-8 4,-16 3,-7 5,-14 6,-19 2,0 3,0 4,0 1,0 2,0 4,0l-3 9 -6 21 -1 5c-2,0 -3,0 -4,0 0,0 -2,0 -4,0z"/>
   <circle class="fil1" transform="matrix(1.69714 1.7538 -1.77489 1.67696 144.827 38.3945)" r="16"/>
   <path class="fil2" d="M116 69c2,-7 6,-18 11,-33 5,-16 9,-28 11,-36 3,0 5,0 8,0 2,0 4,0 7,0 -2,5 -4,11 -7,18 4,-1 7,-1 9,-1 2,0 4,-1 6,-1 5,0 9,1 12,3 3,2 5,4 7,8 1,4 1,9 -1,14 -1,4 -3,8 -5,11 -2,4 -4,7 -7,10 -3,3 -6,5 -10,6 -3,1 -7,2 -10,2 -2,0 -4,0 -5,0 -2,-1 -3,-1 -4,-2 -1,0 -2,-1 -3,-2 0,-1 -1,-2 -1,-2 -1,-1 -1,-2 -2,-4l-2 9c-3,0 -5,0 -7,0 -1,0 -3,0 -7,0zm27 -41l-3 9c-1,2 -1,4 -2,5 -1,4 -1,8 -1,10 0,3 1,4 3,6 1,1 4,2 6,2 3,0 5,-1 8,-3 2,-1 5,-3 6,-6 2,-3 4,-6 5,-9 1,-5 1,-9 -1,-11 -2,-3 -5,-4 -10,-4 -1,0 -3,0 -5,0 -1,0 -4,1 -6,1z"/>
   <g>
    <path class="fil3" d="M408 41c0,48 -13,95 -39,138 -25,44 -61,76 -102,98l-14 -27c37,-19 68,-48 91,-87 23,-38 34,-80 34,-122l30 0z"/>
    <path class="fil3" d="M349 41c-1,36 -10,73 -30,106 -20,34 -48,59 -79,76l-6 -12 -8 -15c27,-15 51,-36 68,-65 17,-28 25,-59 25,-90l16 0 14 0z"/>
    <path class="fil3" d="M289 41c0,25 -6,51 -21,75 -14,23 -33,41 -55,53l-14 -28c18,-9 33,-23 44,-41 11,-19 17,-39 17,-60l29 1z"/>
    <path class="fil3" d="M174 90l12 24c13,-6 24,-17 32,-30 8,-14 12,-29 12,-44l-26 0c-1,15 -6,29 -18,40 -4,4 -8,7 -12,10z"/>
   </g>
  </g>
 </g>
</svg>
