<svg xmlns="http://www.w3.org/2000/svg" width="408" height="276" viewBox="0 0 4080 2764" shape-rendering="geometricPrecision" text-rendering="geometricPrecision" image-rendering="optimizeQuality" fill-rule="evenodd" clip-rule="evenodd"><defs><style>.fil3{fill:#fefefe;fill-opacity:.501961}</style></defs><g id="Capa_x0020_1"><path d="M0 1065l20-61 40-137 27-99c2-9 5-18 7-27 2-7 4-17 7-30h107c21-1 38-1 50-1 25 0 44 1 55 5 12 4 21 10 29 18s13 18 15 29c2 13 2 27-2 41-5 23-16 43-33 61-16 18-36 32-59 41s-48 14-73 14c-13 0-26-2-40-4 1-18 0-35-1-51 11 3 22 4 33 4 15 0 29-3 41-7 13-4 23-11 32-21s15-21 18-33c2-7 2-14 1-20s-4-11-9-14c-4-4-9-6-15-8-6-1-15-2-27-2-10 0-21 1-31 1h-28c-10 34-20 67-29 98l-27 99c-9 35-16 61-20 77-2 7-4 16-6 27H0zm580-270c21 0 41 3 59 9s32 15 43 27c11 11 17 26 20 43 3 16 2 34-3 53-4 20-13 39-24 57-12 18-26 34-43 48-17 13-36 23-58 30-22 6-45 10-68 10-21 0-41-3-59-9s-32-15-43-27c-10-12-17-27-20-44s-2-35 2-53c5-19 12-38 23-55s24-33 41-46c17-14 38-24 61-32 23-7 46-11 69-11zm-13 54c-16 0-31 4-46 11-14 7-26 18-36 33-9 14-16 30-21 47-3 15-4 29-2 40 3 12 9 21 18 29 10 7 23 11 39 11s31-4 45-12c14-7 26-18 36-33 9-14 16-30 21-48 3-14 4-27 2-39s-8-21-17-28c-10-7-23-11-39-11zm181 216l38-123 20-72c3-14 7-29 11-44 0-3 2-11 5-25 17 1 30 1 38 1 10 0 22 0 38-1l-11 37c10-9 17-16 23-21 6-4 13-8 20-12 7-3 15-5 23-7s16-3 24-3c7 0 14 1 22 3-4 16-8 37-13 62-10-4-20-5-28-5-11 0-21 1-30 4s-17 8-25 14c-9 6-16 14-22 23-6 7-10 17-15 28-4 9-8 25-15 46-6 22-12 44-17 65-2 8-4 18-6 30h-80zm442-54c-5 10-12 27-24 53-16 4-28 6-38 7-9 0-17 1-25 1-13 0-25-1-36-4-10-2-18-7-23-13-6-6-9-13-9-21-1-9 0-17 2-26 1-2 2-5 3-9s5-16 11-37l33-108h-41c4-11 9-27 15-50h42c4-10 9-27 16-51l34-6c7-1 21-4 41-9-7 24-13 45-18 66h71c-7 23-12 40-14 50h-71c-21 70-33 111-35 122-3 11-4 19-3 25s4 11 9 13c5 3 11 4 17 4 5 0 10 0 15-1s15-3 28-6zm131-152c6-13 9-21 11-26s5-13 9-23c27-5 50-9 69-11 20-3 39-4 57-4 20 0 38 3 54 7s28 11 35 21 9 24 4 42c-2 10-10 35-22 75-13 41-25 82-36 125h-78c8-21 15-45 23-72l20-65c-8 5-14 8-19 9-4 2-8 4-13 5-5 2-14 4-26 7-13 3-23 6-30 8-8 2-15 5-21 7-7 3-12 6-17 10s-8 7-11 11-5 8-6 13c-2 7-1 13 2 19 4 5 9 9 15 11s14 3 23 3c6 0 13-1 19-2 7 0 17-3 29-6-7 10-15 24-25 44-13 2-24 3-32 4-8 0-15 1-22 1-23 0-41-3-55-9s-22-15-26-28-5-26-2-39c2-7 5-15 10-22 4-7 10-14 17-20s15-12 25-17c10-6 23-11 41-17 17-5 40-10 67-16 8-1 15-3 23-5s15-4 20-5c5-2 9-5 14-8 4-3 7-6 9-9 3-4 4-7 5-10 2-7 1-13-3-18-3-5-9-8-16-10s-15-3-24-3c-34 0-73 8-117 23zm286 206c9-29 26-82 48-157 22-76 41-142 55-197h80l-29 95-61 211-13 48h-80z" fill="#283b6e" fill-rule="nonzero"/><path d="M1725 117c146 151 141 390-12 535-153 144-395 139-541-12s-141-391 12-535 395-139 541 12z" fill="#f16136"/><path d="M1282 209c13-28 21-47 26-58 4-11 11-28 21-50 56-13 104-21 146-26s81-8 119-8c42 0 80 5 112 15 33 10 57 26 71 47 14 22 16 53 5 94-6 22-25 77-55 168-31 90-60 183-88 279-29-1-56-1-81-1-23 0-51 0-83 1 18-47 37-101 57-162l47-144c-17 10-30 16-39 20s-19 8-29 11c-11 3-29 8-56 15-26 7-47 13-63 18s-31 10-45 17c-13 6-25 13-36 21-10 8-18 16-24 25s-11 18-13 28c-5 16-4 30 2 42 7 12 16 20 29 25 13 4 30 7 49 7 13 0 26-1 40-3s34-7 60-15c-14 22-33 55-56 98-28 5-51 8-68 9-16 1-31 2-45 2-49 0-87-6-115-20-28-13-45-33-52-62s-7-57 1-86c5-17 12-33 22-50 11-16 23-31 38-44 15-14 33-27 54-39 21-13 50-25 87-36 37-12 85-24 144-36 15-3 31-7 49-11 17-5 30-9 41-13 11-5 20-10 29-17s16-14 21-21c6-7 9-15 11-23 5-15 3-28-4-39-7-10-17-18-32-22-14-4-31-6-50-6-71 0-153 16-247 50z" fill="#fefefe" fill-rule="nonzero"/><path class="fil3" d="M4080 408c-3 472-128 949-386 1380s-616 761-1025 976l-135-271c362-191 679-482 908-864 228-383 339-805 341-1223l297 2z"/><path class="fil3" d="M3487 404c-2 364-98 732-297 1065-200 333-476 587-792 753l-60-122-75-149c269-142 504-358 674-642 170-283 252-597 254-908l163 2 133 1zm-593-5c-1 257-69 516-209 750-140 235-335 414-557 531l-136-271c176-93 330-234 441-419 110-185 164-390 165-593l296 2zM1735 894l122 244c129-68 242-172 323-308 82-136 121-286 121-435l-263-2c-3 148-62 295-174 406-39 38-83 70-129 95z"/></g></svg>