<?xml version="1.0" encoding="UTF-8"?>
<!DOCTYPE svg PUBLIC "-//W3C//DTD SVG 1.1//EN" "http://www.w3.org/Graphics/SVG/1.1/DTD/svg11.dtd">
<!-- Creator: CorelDRAW X7 -->
<svg xmlns="http://www.w3.org/2000/svg" xml:space="preserve" width="408px" height="276px" version="1.1" style="shape-rendering:geometricPrecision; text-rendering:geometricPrecision; image-rendering:optimizeQuality; fill-rule:evenodd; clip-rule:evenodd"
viewBox="0 0 408 276"
 xmlns:xlink="http://www.w3.org/1999/xlink">
 <defs>
  <style type="text/css">
   <![CDATA[
    .fil1 {fill:#F16136}
    .fil2 {fill:#FEFEFE;fill-rule:nonzero}
    .fil0 {fill:#283B6E;fill-rule:nonzero}
    .fil3 {fill:#FEFEFE;fill-opacity:0.501961}
   ]]>
  </style>
 </defs>
 <g id="Capa_x0020_1">
  <metadata id="CorelCorpID_0Corel-Layer"/>
  <g id="_2427462960960">
   <path class="fil0" d="M0 107l2 -7 4 -13 3 -10c0,-1 0,-2 0,-3 1,-1 1,-2 1,-3 2,0 4,0 6,0 1,0 3,0 5,0 2,0 4,0 5,0 2,0 4,0 5,0 1,1 2,1 3,2 1,1 1,2 2,3 0,1 0,3 0,4 -1,3 -2,5 -4,6 -1,2 -3,4 -6,5 -2,0 -4,1 -7,1 -1,0 -3,0 -4,-1 0,-1 0,-3 0,-5 1,1 2,1 3,1 2,0 3,0 4,-1 2,0 3,-1 4,-2 0,-1 1,-2 1,-3 0,-1 1,-2 0,-2 0,-1 0,-1 0,-2 -1,0 -1,0 -2,0 -1,-1 -2,-1 -3,-1 -1,0 -2,0 -3,0 -1,0 -2,0 -3,0 -1,4 -2,7 -2,10l-3 10c-1,4 -2,6 -2,8 0,0 -1,1 -1,3l-4 -1c0,0 -2,1 -4,1z"/>
   <path id="1" class="fil0" d="M58 80c2,0 4,0 6,0 2,1 3,2 4,3 1,1 2,3 2,4 0,2 0,4 0,6 -1,2 -1,4 -3,5 -1,2 -2,4 -4,5 -1,2 -3,3 -6,3 -2,1 -4,1 -6,1 -3,0 -4,0 -6,-1 -2,0 -3,-1 -5,-2 -1,-2 -1,-3 -2,-5 0,-1 0,-3 1,-5 0,-2 1,-4 2,-6 1,-1 2,-3 4,-4 2,-2 4,-3 6,-3 2,-1 5,-1 7,-1zm-1 5c-2,0 -3,0 -5,1 -1,1 -3,2 -3,3 -1,2 -2,3 -3,5 0,2 0,3 0,4 0,1 1,2 2,3 1,1 2,1 4,1 1,0 3,0 4,-1 2,-1 3,-2 4,-3 1,-2 2,-4 2,-5 0,-2 0,-3 0,-4 0,-1 0,-2 -1,-3 -1,-1 -3,-1 -4,-1z"/>
   <path id="2" class="fil0" d="M75 107l4 -13 2 -7c0,-1 0,-3 1,-4 0,-1 0,-2 0,-3 2,0 3,0 4,0 1,0 2,0 4,0l-1 4c1,-1 1,-2 2,-2 1,-1 1,-1 2,-1 1,-1 1,-1 2,-1 1,0 2,0 3,0 0,0 1,0 2,0 -1,1 -1,3 -1,6 -1,0 -2,-1 -3,-1 -1,0 -2,1 -3,1 -1,0 -2,1 -3,1 -1,1 -1,2 -2,3 0,0 -1,1 -1,2 -1,1 -1,3 -2,5 -1,2 -1,4 -2,6 0,1 0,2 0,4 -2,0 -3,-1 -4,-1 -1,0 -3,1 -4,1z"/>
   <path id="3" class="fil0" d="M119 101c0,1 -1,3 -2,5 -2,1 -3,1 -4,1 -1,0 -2,0 -3,0 -1,0 -2,0 -3,0 -1,0 -2,-1 -3,-1 0,-1 0,-2 -1,-3 0,0 1,-1 1,-2 0,0 0,-1 0,-1 0,0 0,-2 1,-4l3 -11 -4 0c1,-1 1,-2 2,-5l4 0c0,-1 1,-2 2,-5l3 0c1,0 2,-1 4,-1 -1,2 -1,4 -2,6l7 0c0,3 -1,4 -1,5l-7 0c-2,7 -3,12 -4,13 0,1 0,2 0,2 0,1 1,1 1,1 1,1 1,1 2,1 0,0 1,0 1,0 1,0 2,-1 3,-1z"/>
   <path id="4" class="fil0" d="M132 86c1,-1 1,-2 1,-3 0,0 1,-1 1,-2 3,-1 5,-1 7,-1 2,0 4,0 6,0 2,0 4,0 5,0 2,1 3,1 4,2 0,1 0,3 0,4 0,1 -1,4 -2,8 -1,4 -3,8 -4,13 -1,0 -2,-1 -4,-1 -1,0 -2,1 -4,1 1,-3 2,-5 3,-8l2 -6c-1,0 -2,1 -2,1 -1,0 -1,0 -2,0 0,0 -1,1 -2,1 -1,0 -2,0 -3,1 -1,0 -2,0 -2,0 -1,1 -1,1 -2,1 0,1 -1,1 -1,2 0,0 0,0 -1,1 0,1 0,1 1,2 0,0 0,1 1,1 1,0 2,0 2,0 1,0 2,0 2,0 1,0 2,0 3,-1 0,1 -1,3 -2,5 -2,0 -3,0 -3,0 -1,0 -2,0 -3,0 -2,0 -4,0 -5,-1 -2,0 -2,-1 -3,-3 0,-1 0,-2 0,-3 0,-1 1,-2 1,-3 0,0 1,-1 2,-2 0,0 1,-1 2,-1 1,-1 3,-1 4,-2 2,0 4,-1 7,-2 1,0 2,0 2,0 1,0 2,0 2,-1 1,0 1,0 2,0 0,-1 0,-1 1,-1 0,-1 0,-1 0,-1 0,-1 0,-2 0,-2 -1,-1 -1,-1 -2,-1 0,0 -1,0 -2,0 -4,0 -7,0 -12,2z"/>
   <path id="5" class="fil0" d="M161 107c1,-3 2,-9 4,-16 3,-8 5,-14 6,-20 2,0 3,0 4,0 1,0 2,0 4,0l-3 10 -6 21 -1 5c-2,0 -3,-1 -4,-1 0,0 -2,1 -4,1z"/>
   <circle class="fil1" transform="matrix(1.69714 1.7538 -1.77489 1.67696 144.826 37.8215)" r="16"/>
   <path class="fil2" d="M128 21c1,-3 2,-5 3,-6 0,-1 1,-3 2,-5 5,-1 10,-2 15,-3 4,0 8,0 11,0 5,0 8,0 12,1 3,1 5,3 7,5 1,2 1,5 0,9 0,2 -2,8 -5,17 -3,9 -6,18 -9,28 -3,0 -6,0 -8,0 -3,0 -5,0 -8,0 1,-5 3,-10 5,-16l5 -15c-2,1 -3,2 -4,2 -1,1 -2,1 -3,1 -1,1 -3,1 -5,2 -3,1 -5,1 -7,2 -1,0 -3,1 -4,1 -2,1 -3,2 -4,3 -1,0 -2,1 -2,2 -1,1 -1,2 -2,3 0,2 0,3 1,4 0,1 1,2 3,3 1,0 2,0 4,0 2,0 3,0 4,0 2,0 4,-1 6,-2 -1,3 -3,6 -5,10 -3,1 -5,1 -7,1 -2,0 -3,0 -5,0 -4,0 -8,0 -11,-2 -3,-1 -5,-3 -5,-6 -1,-3 -1,-6 0,-8 0,-2 1,-4 2,-5 1,-2 2,-3 4,-5 1,-1 3,-2 5,-4 2,-1 5,-2 9,-3 4,-2 9,-3 14,-4 2,0 4,-1 5,-1 2,0 3,-1 4,-1 1,-1 2,-1 3,-2 1,-1 2,-1 2,-2 1,-1 1,-2 2,-2 0,-2 0,-3 -1,-4 -1,-1 -2,-2 -3,-3 -2,0 -3,0 -5,0 -7,0 -15,2 -25,5z"/>
   <g>
    <path class="fil3" d="M408 41c0,47 -13,95 -39,138 -25,43 -61,76 -102,97l-14 -27c37,-19 68,-48 91,-86 23,-38 34,-81 34,-122l30 0z"/>
    <path class="fil3" d="M349 40c-1,37 -10,74 -30,107 -20,33 -48,59 -79,75l-6 -12 -8 -15c27,-14 51,-36 68,-64 17,-28 25,-60 25,-91l16 0 14 0z"/>
    <path class="fil3" d="M289 40c0,26 -6,52 -21,75 -14,23 -33,41 -55,53l-14 -27c18,-9 33,-23 44,-42 11,-19 17,-39 17,-59l29 0z"/>
    <path class="fil3" d="M174 89l12 25c13,-7 24,-17 32,-31 8,-14 12,-29 12,-44l-26 0c-1,15 -6,30 -18,41 -4,4 -8,7 -12,9z"/>
   </g>
  </g>
 </g>
</svg>
