<svg xmlns="http://www.w3.org/2000/svg" width="408" height="277" viewBox="0 0 4080 2770" shape-rendering="geometricPrecision" text-rendering="geometricPrecision" image-rendering="optimizeQuality" fill-rule="evenodd" clip-rule="evenodd"><defs><style>.fil0{fill:#f16136;fill-rule:nonzero}.fil3{fill:#fefefe;fill-opacity:.501961}</style></defs><g id="Capa_x0020_1"><g id="_2709553000336"><path class="fil0" d="M0 1071l20-61 40-137 27-99c2-9 5-18 7-27 2-7 4-17 7-30h57c12 0 29 0 50-1 21 0 38-1 50-1 25 0 44 2 55 6 12 3 21 9 29 18 8 8 13 17 15 29 2 13 2 26-2 41-5 22-16 43-33 61-16 18-36 32-59 41s-48 13-73 13c-13 0-26-1-40-3 1-18 0-35-1-51 11 2 22 3 33 3 15 0 29-2 41-6 13-4 23-11 32-21s15-21 18-33c2-7 2-14 1-20s-4-11-9-15c-4-3-9-6-15-7s-15-2-27-2c-10 0-21 0-31 1h-28c-10 34-20 67-29 98l-27 99c-9 35-16 61-20 77-2 6-4 15-6 27H0z"/><path id="1" class="fil0" d="M580 801c21 0 41 3 59 9s32 15 43 26c11 12 17 26 20 43s2 35-3 54c-4 19-13 38-24 57-12 18-26 34-43 47-17 14-36 24-58 30-22 7-45 10-68 10-21 0-41-3-59-8-18-6-32-15-43-27-10-12-17-27-20-44s-2-35 2-54c5-19 12-37 23-54s24-33 41-46c17-14 38-24 61-32 23-7 46-11 69-11zm-13 54c-16 0-31 3-46 11-14 7-26 18-36 32-9 15-16 31-21 48-3 15-4 28-2 40 3 12 9 21 18 28 10 8 23 11 39 11s31-3 45-11c14-7 26-18 36-33 9-15 16-31 21-48 3-15 4-28 2-39-2-12-8-22-17-29-10-7-23-10-39-10z"/><path id="2" class="fil0" d="M748 1071l38-123 20-72c4-15 7-30 11-44 0-3 2-11 5-25h76l-11 37c10-9 17-16 23-21s13-9 20-12 15-6 23-7c8-2 16-3 24-3 7 0 14 1 22 3-4 16-8 36-13 61-10-3-20-4-28-4-11 0-21 1-30 4s-17 8-25 14c-9 6-16 14-22 23-6 7-10 16-15 28-4 9-8 24-15 46-6 22-12 43-17 65-2 8-4 18-6 30h-80z"/><path id="3" class="fil0" d="M1190 1017c-5 9-12 27-24 53-16 3-28 5-38 6-9 1-17 1-25 1-13 0-25-1-36-3-10-3-18-7-23-13-6-6-9-13-9-22-1-8 0-16 2-25l3-9c1-4 5-16 11-37l33-108h-41c4-11 9-28 15-50h42c4-10 9-27 16-51l34-6c7-2 21-4 41-9-7 23-13 45-18 66h71c-7 23-12 40-14 50h-71c-21 70-33 111-35 122-3 11-4 19-3 25s4 10 9 13c5 2 11 4 17 4 5 0 10-1 15-1 5-1 15-3 28-6z"/><path id="4" class="fil0" d="M1321 864c6-12 9-21 11-26s5-12 9-22c27-6 50-9 69-12 20-2 39-3 57-3 20 0 38 2 54 7 16 4 28 11 35 21s9 23 4 42c-2 9-10 34-22 75-13 40-25 82-36 125h-78c8-21 15-45 23-72l20-65c-8 4-14 7-19 9-4 2-8 3-13 5-5 1-14 4-26 7-13 3-23 5-30 7-8 3-15 5-21 8-7 3-12 6-17 10-5 3-8 7-11 11s-5 8-6 13c-2 7-1 13 2 18 4 6 9 9 15 11s14 4 23 4c6 0 13-1 19-2 7-1 17-3 29-6-7 9-15 24-25 44-13 2-24 3-32 4h-22c-23 0-41-2-55-8s-22-16-26-28c-4-13-5-26-2-39 2-7 5-15 10-22 4-7 10-14 17-20s15-12 25-18c10-5 23-11 41-16 17-5 40-10 67-16 8-1 15-3 23-5s15-4 20-6 9-4 14-7c4-3 7-6 9-10 3-3 4-6 5-10 2-7 1-12-3-17-3-5-9-8-16-10s-15-3-24-3c-34 0-73 7-117 22z"/><path id="5" class="fil0" d="M1607 1071c9-29 26-82 48-158s41-141 55-196h80l-29 94-61 212-13 48h-80z"/><circle transform="matrix(1.69714 1.7538 -1.77489 1.67696 1448.27 383.945)" r="156" fill="#283b6e"/><path d="M1160 688c23-63 60-175 110-333 51-158 87-276 109-355 30 1 55 1 77 1s46 0 71-1c-19 48-40 108-63 181 35-7 62-11 82-14 20-2 40-3 59-3 53 0 95 8 127 25 31 17 53 44 64 83 11 38 10 85-5 139-11 39-27 76-47 112-21 36-46 68-76 96-29 28-61 49-96 62-34 13-69 20-106 20-17 0-33-2-47-5s-27-8-38-14-20-13-28-21c-7-8-13-16-18-24-4-8-9-20-14-34l-25 85c-27 0-49-1-65-1-12 0-36 1-71 1zm266-404l-27 85c-6 19-11 37-16 54-12 42-16 74-14 98s11 43 28 56 38 19 64 19c27 0 54-7 78-22 25-15 46-37 65-66 19-28 33-59 42-90 12-46 10-83-7-111s-49-42-97-42c-15 0-32 1-49 4-18 3-40 8-67 15z" fill="#fefefe" fill-rule="nonzero"/><path class="fil3" d="M4080 414c-3 472-128 949-386 1380s-616 761-1025 976l-135-271c362-191 679-483 908-865 228-382 339-804 341-1223l297 3z"/><path class="fil3" d="M3487 409c-2 365-98 733-297 1065-200 333-476 587-792 753l-60-121-75-150c269-141 504-357 674-641s252-597 254-908l163 1 133 1zm-593-4c-1 256-69 516-209 750-140 235-335 413-557 530l-136-270c176-93 330-234 441-419 110-186 164-391 165-593l296 2zM1735 900l122 243c129-67 242-171 323-307 82-136 121-287 121-435l-263-2c-3 148-62 295-174 405-39 39-83 71-129 96z"/></g></g></svg>