<?xml version="1.0" encoding="UTF-8"?>
<!DOCTYPE svg PUBLIC "-//W3C//DTD SVG 1.1//EN" "http://www.w3.org/Graphics/SVG/1.1/DTD/svg11.dtd">
<!-- Creator: CorelDRAW X7 -->
<svg xmlns="http://www.w3.org/2000/svg" xml:space="preserve" width="2550px" height="3300px" version="1.1" style="shape-rendering:geometricPrecision; text-rendering:geometricPrecision; image-rendering:optimizeQuality; fill-rule:evenodd; clip-rule:evenodd"
viewBox="0 0 2550 3300"
 xmlns:xlink="http://www.w3.org/1999/xlink">
 <defs>
  <style type="text/css">
   <![CDATA[
    .fil0 {fill:#283B6E}
    .fil1 {fill:#FEFEFE;fill-rule:nonzero}
   ]]>
  </style>
 </defs>
 <g id="Capa_x0020_1">
  <metadata id="CorelCorpID_0Corel-Layer"/>
  <g id="_2427409764176">
   <path class="fil0" d="M1286 1640c6,6 6,15 0,21 -6,6 -16,6 -22,0 -6,-6 -6,-16 0,-22 6,-6 16,-6 22,1z"/>
   <path class="fil1" d="M1263 1662c1,-2 3,-7 5,-13 2,-6 3,-11 4,-14 1,0 2,0 3,0 1,0 2,0 3,0 -1,2 -1,4 -2,7 1,0 2,-1 3,-1 1,0 2,0 2,0 2,0 4,1 5,1 2,1 3,2 3,4 0,1 0,3 0,5 -1,2 -1,3 -2,5 -1,1 -2,2 -3,4 -1,1 -3,2 -4,2 -1,1 -3,1 -4,1 -1,0 -2,0 -2,0 -1,0 -1,-1 -2,-1 0,0 -1,0 -1,-1 0,0 0,0 -1,-1 0,0 0,0 0,-1l-1 3c-1,0 -2,0 -3,0 0,0 -1,0 -3,0zm11 -16l-1 4c0,0 0,1 -1,2 0,1 0,3 0,4 0,1 0,1 1,2 1,0 1,1 2,1 2,0 3,-1 4,-1 1,-1 2,-2 2,-3 1,-1 2,-2 2,-4 0,-1 0,-3 0,-4 -1,-1 -2,-2 -4,-2 -1,0 -1,0 -2,0 -1,1 -2,1 -3,1z"/>
  </g>
 </g>
</svg>
