<?xml version="1.0" encoding="UTF-8" standalone="no"?>
<!-- Created with Inkscape (http://www.inkscape.org/) -->

<svg
   xmlns:dc="http://purl.org/dc/elements/1.1/"
   xmlns:cc="http://creativecommons.org/ns#"
   xmlns:rdf="http://www.w3.org/1999/02/22-rdf-syntax-ns#"
   xmlns:svg="http://www.w3.org/2000/svg"
   xmlns="http://www.w3.org/2000/svg"
   xmlns:sodipodi="http://sodipodi.sourceforge.net/DTD/sodipodi-0.dtd"
   xmlns:inkscape="http://www.inkscape.org/namespaces/inkscape"
   width="70"
   height="70"
   viewBox="0 0 70.000001 70.000001"
   id="svg4748"
   version="1.1"
   inkscape:version="0.91 r13725"
   inkscape:export-filename="C:\Users\Fabian Gutierrez\Desktop\path374.png"
   inkscape:export-xdpi="90"
   inkscape:export-ydpi="90"
   sodipodi:docname="alarma-antena.svg">
  <defs
     id="defs4750" />
  <sodipodi:namedview
     id="base"
     pagecolor="#ffffff"
     bordercolor="#666666"
     borderopacity="1.0"
     inkscape:pageopacity="0.0"
     inkscape:pageshadow="2"
     inkscape:zoom="3.959798"
     inkscape:cx="19.644654"
     inkscape:cy="29.764426"
     inkscape:document-units="px"
     inkscape:current-layer="layer1"
     showgrid="false"
     units="px"
     inkscape:window-width="1280"
     inkscape:window-height="1001"
     inkscape:window-x="-8"
     inkscape:window-y="-8"
     inkscape:window-maximized="1"
     showguides="true"
     inkscape:guide-bbox="true">
    <sodipodi:guide
       position="76.140249,65.000001"
       orientation="0,1"
       id="guide5628"
       inkscape:label=""
       inkscape:color="rgb(0,0,255)" />
    <sodipodi:guide
       position="28.663079,5.0000001"
       orientation="0,1"
       id="guide5630"
       inkscape:label=""
       inkscape:color="rgb(0,0,255)" />
    <sodipodi:guide
       position="5.0000001,72.730984"
       orientation="1,0"
       id="guide5632"
       inkscape:label=""
       inkscape:color="rgb(0,0,255)" />
    <sodipodi:guide
       position="65.000001,46.593287"
       orientation="1,0"
       id="guide5634"
       inkscape:label=""
       inkscape:color="rgb(0,0,255)" />
  </sodipodi:namedview>
  <metadata
     id="metadata4753">
    <rdf:RDF>
      <cc:Work
         rdf:about="">
        <dc:format>image/svg+xml</dc:format>
        <dc:type
           rdf:resource="http://purl.org/dc/dcmitype/StillImage" />
        <dc:title></dc:title>
      </cc:Work>
    </rdf:RDF>
  </metadata>
  <g
     inkscape:label="Capa 1"
     inkscape:groupmode="layer"
     id="layer1"
     transform="translate(0,-982.36213)">
    <rect
       style="opacity:1;fill:#222d55;fill-opacity:1"
       id="rect5505"
       width="70"
       height="70"
       x="0"
       y="982.36212" />
    <path
       class="fil4"
       d="m 96.589619,1019.2634 c -0.932387,0.2193 -1.426006,1.042 -1.426006,2.139 0,3.0165 4.991037,3.8392 4.991037,-0.2195 0,-1.0968 -0.548471,-1.7002 -1.426011,-1.9195 l 4.552261,-10.6952 c 2.41324,-5.8137 6.52673,-12.50496 1.70024,-17.49598 -1.70024,-1.80994 -3.78441,-2.79719 -5.813731,-3.07148 l -2.02932,0 c -2.632634,0.32909 -5.155573,1.97449 -6.800968,4.77169 -1.700241,2.96173 -1.096929,6.088 0.164539,9.21427 l 4.607106,12.7791 c 0.438773,1.152 1.426013,3.1812 1.480853,4.4976 z"
       id="path4431"
       inkscape:connector-curvature="0"
       style="clip-rule:evenodd;fill:#f16136;fill-opacity:1;fill-rule:evenodd;image-rendering:optimizeQuality;shape-rendering:geometricPrecision;text-rendering:geometricPrecision" />
    <g
       id="g4288"
       transform="translate(-1.0682837,0.5816487)">
      <path
         style="clip-rule:evenodd;fill:#fefefe;fill-rule:evenodd;image-rendering:optimizeQuality;shape-rendering:geometricPrecision;text-rendering:geometricPrecision"
         inkscape:connector-curvature="0"
         id="path4515"
         d="m 16.577461,1043.037 c 0,1.876 0.86931,3.4316 2.745186,3.4316 l 33.033743,0 c 1.875878,0 2.790939,-1.5556 2.790939,-3.4316 0,-1.7385 0.09151,-5.4445 0.09151,-7.6864 0,-3.0654 0.183012,-17.0202 0,-18.8045 -0.183012,-1.6929 -0.411779,-2.425 -1.281087,-3.523 -0.503285,-0.6406 -2.013137,-1.6014 -3.111212,-1.6014 l -29.785272,0 c -2.104642,0 -4.300791,1.9674 -4.255038,5.0787 0,3.3399 0.137259,16.5168 -0.04575,18.8502 -0.13726,1.7844 -0.183013,6.1309 -0.183013,7.6864 z"
         class="fil3" />
      <path
         style="clip-rule:evenodd;fill:#fefefe;fill-rule:evenodd;stroke:#f16136;stroke-width:0.91506207;stroke-opacity:1;image-rendering:optimizeQuality;shape-rendering:geometricPrecision;text-rendering:geometricPrecision"
         inkscape:connector-curvature="0"
         id="path4517"
         d="m 21.930574,1014.8074 27.817889,0 c 0.823556,0 1.464099,0.6406 1.464099,1.4184 l 0,18.896 c 0,0.7778 -0.640543,1.4184 -1.464099,1.4184 l -27.817889,0 c -0.823556,0 -1.464099,-0.6406 -1.464099,-1.4184 l 0,-18.896 c 0,-0.7778 0.640543,-1.4184 1.464099,-1.4184 z"
         class="fil3 str1" />
      <g
         id="g4519"
         style="clip-rule:evenodd;fill-rule:evenodd;image-rendering:optimizeQuality;shape-rendering:geometricPrecision;text-rendering:geometricPrecision"
         transform="matrix(0.04575311,0,0,0.04575311,-30.136463,689.86889)">
        <path
           style="fill:#fefefe"
           inkscape:connector-curvature="0"
           id="path4521"
           d="m 1146,6627 c 0,31 24,50 54,50 22,0 104,-82 219,-82 89,0 146,5 224,59 19,12 36,28 54,28 9,0 101,-35 38,-82 -39,-29 -47,-39 -100,-64 -115,-53 -259,-52 -376,-3 -26,11 -44,23 -67,37 -21,12 -46,28 -46,57 z"
           class="fil3" />
        <path
           style="fill:#fefefe"
           inkscape:connector-curvature="0"
           id="path4523"
           d="m 1320,6802 c 42,0 56,-33 126,-33 67,0 82,39 136,39 19,0 98,-71 -45,-119 -118,-39 -282,8 -262,76 7,22 19,37 45,37 z"
           class="fil3" />
        <path
           style="fill:#fefefe"
           inkscape:connector-curvature="0"
           id="path4525"
           d="m 1364,6917 c 0,58 24,92 87,92 98,0 119,-163 -11,-163 -48,0 -76,42 -76,71 z"
           class="fil3" />
      </g>
      <path
         style="clip-rule:evenodd;fill:#f16136;fill-opacity:1;fill-rule:evenodd;image-rendering:optimizeQuality;shape-rendering:geometricPrecision;text-rendering:geometricPrecision"
         inkscape:connector-curvature="0"
         id="path4527"
         d="m 9.4399764,996.64346 c 0,3.56874 1.7386176,4.30074 4.4380516,7.00024 2.013136,2.0131 14.869759,14.641 15.556056,15.6933 -0.686297,1.0065 -13.54292,13.6345 -15.556056,15.6475 -2.699434,2.6995 -4.4380516,3.4315 -4.4380516,7.0003 0,2.0131 1.9673836,3.9806 3.9805196,3.9806 3.568743,0 4.300793,-1.7387 7.000226,-4.4381 2.013136,-2.0132 14.640993,-14.8698 15.647562,-15.5561 1.006568,0.6863 13.634426,13.5429 15.647563,15.5561 2.699433,2.6994 3.431482,4.4381 7.045977,4.4381 1.967384,0 3.934767,-1.9675 3.934767,-3.9806 0,-3.5688 -1.692864,-4.3008 -4.392297,-7.0003 -2.013137,-2.013 -14.86976,-14.641 -15.556056,-15.6475 0.686296,-1.0523 13.542919,-13.6802 15.556056,-15.6933 2.699433,-2.6995 4.392297,-3.4315 4.392297,-7.00024 0,-2.01313 -1.967383,-3.98051 -3.934767,-3.98051 -3.614495,0 -4.346544,1.73861 -7.045977,4.43804 -2.013137,2.01315 -14.640995,14.86981 -15.647563,15.55611 -1.006569,-0.6863 -13.634426,-13.54296 -15.647562,-15.55611 -2.699433,-2.69943 -3.431483,-4.43804 -7.000226,-4.43804 -2.013136,0 -3.9805196,1.96738 -3.9805196,3.98051 z"
         class="fil4" />
      <path
         style="clip-rule:evenodd;fill:#f16136;fill-opacity:1;fill-rule:nonzero;image-rendering:optimizeQuality;shape-rendering:geometricPrecision;text-rendering:geometricPrecision"
         inkscape:connector-curvature="0"
         id="path4529"
         d="m 29.662849,1042.4423 0,-1.0981 2.928198,0 0,2.6537 c -0.274518,0.2745 -0.686296,0.5033 -1.235332,0.7321 -0.549038,0.2287 -1.098075,0.3202 -1.647113,0.3202 -0.686296,0 -1.281087,-0.1372 -1.830124,-0.4574 -0.503285,-0.2746 -0.915062,-0.7322 -1.143828,-1.2354 -0.274518,-0.549 -0.411778,-1.1438 -0.411778,-1.7844 0,-0.732 0.13726,-1.3269 0.457532,-1.8759 0.274518,-0.5491 0.686296,-0.9608 1.281086,-1.2354 0.411778,-0.2286 0.960816,-0.3659 1.601359,-0.3659 0.823556,0 1.464099,0.183 1.921631,0.549 0.457531,0.3203 0.777802,0.8236 0.915061,1.4184 l -1.372593,0.2745 c -0.09151,-0.3202 -0.228765,-0.5948 -0.503284,-0.7779 -0.274518,-0.1829 -0.594791,-0.2745 -0.960815,-0.2745 -0.59479,0 -1.052322,0.1831 -1.418346,0.5491 -0.366025,0.366 -0.503284,0.9151 -0.503284,1.6471 0,0.8235 0.137259,1.4183 0.503284,1.7844 0.366024,0.4117 0.823556,0.5947 1.372593,0.5947 0.320271,0 0.594791,-0.045 0.869309,-0.1372 0.274519,-0.1373 0.503284,-0.2746 0.732049,-0.4118 l 0,-0.8693 -1.555605,0 z m 4.163532,2.4707 0,-6.6799 2.150397,0 c 0.823556,0 1.372593,0.045 1.601358,0.092 0.411779,0.092 0.73205,0.3204 0.960816,0.6406 0.274518,0.3661 0.411777,0.7779 0.411777,1.3269 0,0.4118 -0.09151,0.732 -0.228765,1.0523 -0.137259,0.2745 -0.320272,0.4576 -0.549037,0.6406 -0.228765,0.1372 -0.457532,0.2745 -0.73205,0.3202 -0.320272,0.045 -0.777802,0.092 -1.372593,0.092 l -0.86931,0 0,2.5164 -1.372593,0 z m 1.372593,-5.5361 0,1.8759 0.732051,0 c 0.503283,0 0.869309,-0.045 1.052321,-0.092 0.183012,-0.092 0.320272,-0.183 0.411778,-0.3202 0.09151,-0.1831 0.183012,-0.3204 0.183012,-0.5491 0,-0.2288 -0.09151,-0.4117 -0.228765,-0.5948 -0.13726,-0.1373 -0.320272,-0.2746 -0.549037,-0.2746 -0.137259,-0.045 -0.503285,-0.045 -0.960816,-0.045 l -0.640544,0 z m 4.529558,3.3856 1.281087,-0.1372 c 0.09151,0.4576 0.274519,0.7778 0.503284,0.9608 0.228766,0.2288 0.549038,0.3204 0.960816,0.3204 0.457531,0 0.777803,-0.092 1.006568,-0.2746 0.183012,-0.1831 0.320272,-0.4118 0.320272,-0.6406 0,-0.1829 -0.04575,-0.3202 -0.13726,-0.4117 -0.09151,-0.1373 -0.274518,-0.2287 -0.503283,-0.2746 -0.13726,-0.092 -0.503285,-0.1829 -1.052322,-0.3202 -0.73205,-0.183 -1.235334,-0.4118 -1.555605,-0.6406 -0.411779,-0.3659 -0.594791,-0.8235 -0.594791,-1.3726 0,-0.3202 0.09151,-0.6405 0.274518,-0.9608 0.228766,-0.2745 0.503285,-0.5032 0.869309,-0.6863 0.320272,-0.1373 0.777804,-0.2287 1.281087,-0.2287 0.86931,0 1.4641,0.183 1.921631,0.549 0.411778,0.4118 0.640543,0.8693 0.640543,1.5099 l -1.372593,0.045 c -0.04575,-0.3661 -0.137259,-0.5947 -0.366024,-0.732 -0.183013,-0.1831 -0.457531,-0.2288 -0.823557,-0.2288 -0.411777,0 -0.686296,0.092 -0.915062,0.2288 -0.137259,0.092 -0.228765,0.2287 -0.228765,0.4118 0,0.1829 0.09151,0.3202 0.228765,0.4118 0.13726,0.1372 0.549038,0.2745 1.235334,0.4574 0.640544,0.1373 1.143828,0.3203 1.418347,0.4575 0.320272,0.1831 0.59479,0.4118 0.777802,0.6863 0.137259,0.3203 0.228767,0.6406 0.228767,1.0981 0,0.3661 -0.09151,0.732 -0.320273,1.0524 -0.183012,0.3202 -0.503284,0.5947 -0.869308,0.732 -0.411779,0.183 -0.86931,0.2745 -1.4641,0.2745 -0.869309,0 -1.509853,-0.1829 -1.967383,-0.5947 -0.457532,-0.4118 -0.732051,-0.9608 -0.777804,-1.693 z"
         class="fil6" />
    </g>
  </g>
</svg>
