<?xml version="1.0" encoding="UTF-8" standalone="no"?>
<!-- Created with Inkscape (http://www.inkscape.org/) -->

<svg
   xmlns:dc="http://purl.org/dc/elements/1.1/"
   xmlns:cc="http://creativecommons.org/ns#"
   xmlns:rdf="http://www.w3.org/1999/02/22-rdf-syntax-ns#"
   xmlns:svg="http://www.w3.org/2000/svg"
   xmlns="http://www.w3.org/2000/svg"
   xmlns:sodipodi="http://sodipodi.sourceforge.net/DTD/sodipodi-0.dtd"
   xmlns:inkscape="http://www.inkscape.org/namespaces/inkscape"
   width="70"
   height="70"
   viewBox="0 0 70.000001 70.000001"
   id="svg4748"
   version="1.1"
   inkscape:version="0.91 r13725"
   inkscape:export-filename="C:\Users\Fabian Gutierrez\Desktop\path374.png"
   inkscape:export-xdpi="90"
   inkscape:export-ydpi="90"
   sodipodi:docname="alarma-corriente.svg">
  <defs
     id="defs4750">
    <pattern
       y="0"
       x="0"
       height="6"
       width="6"
       patternUnits="userSpaceOnUse"
       id="EMFhbasepattern" />
  </defs>
  <sodipodi:namedview
     id="base"
     pagecolor="#ffffff"
     bordercolor="#666666"
     borderopacity="1.0"
     inkscape:pageopacity="0.0"
     inkscape:pageshadow="2"
     inkscape:zoom="5.6"
     inkscape:cx="21.364943"
     inkscape:cy="41.432381"
     inkscape:document-units="px"
     inkscape:current-layer="layer1"
     showgrid="false"
     units="px"
     inkscape:window-width="1280"
     inkscape:window-height="1001"
     inkscape:window-x="-8"
     inkscape:window-y="-8"
     inkscape:window-maximized="1"
     showguides="true"
     inkscape:guide-bbox="true">
    <sodipodi:guide
       position="76.140249,65.000001"
       orientation="0,1"
       id="guide5628"
       inkscape:label=""
       inkscape:color="rgb(0,0,255)" />
    <sodipodi:guide
       position="28.663079,5.0000001"
       orientation="0,1"
       id="guide5630"
       inkscape:label=""
       inkscape:color="rgb(0,0,255)" />
    <sodipodi:guide
       position="5.0000001,72.730984"
       orientation="1,0"
       id="guide5632"
       inkscape:label=""
       inkscape:color="rgb(0,0,255)" />
    <sodipodi:guide
       position="65.000001,46.593287"
       orientation="1,0"
       id="guide5634"
       inkscape:label=""
       inkscape:color="rgb(0,0,255)" />
  </sodipodi:namedview>
  <metadata
     id="metadata4753">
    <rdf:RDF>
      <cc:Work
         rdf:about="">
        <dc:format>image/svg+xml</dc:format>
        <dc:type
           rdf:resource="http://purl.org/dc/dcmitype/StillImage" />
        <dc:title></dc:title>
      </cc:Work>
    </rdf:RDF>
  </metadata>
  <g
     inkscape:label="Capa 1"
     inkscape:groupmode="layer"
     id="layer1"
     transform="translate(0,-982.36213)">
    <rect
       style="opacity:1;fill:#222d55;fill-opacity:1"
       id="rect5505"
       width="70"
       height="70"
       x="0"
       y="982.36212" />
    <path
       class="fil4"
       d="m 96.589619,1019.2634 c -0.932387,0.2193 -1.426006,1.042 -1.426006,2.139 0,3.0165 4.991037,3.8392 4.991037,-0.2195 0,-1.0968 -0.548471,-1.7002 -1.426011,-1.9195 l 4.552261,-10.6952 c 2.41324,-5.8137 6.52673,-12.50496 1.70024,-17.49598 -1.70024,-1.80994 -3.78441,-2.79719 -5.813731,-3.07148 l -2.02932,0 c -2.632634,0.32909 -5.155573,1.97449 -6.800968,4.77169 -1.700241,2.96173 -1.096929,6.088 0.164539,9.21427 l 4.607106,12.7791 c 0.438773,1.152 1.426013,3.1812 1.480853,4.4976 z"
       id="path4431"
       inkscape:connector-curvature="0"
       style="clip-rule:evenodd;fill:#f16136;fill-opacity:1;fill-rule:evenodd;image-rendering:optimizeQuality;shape-rendering:geometricPrecision;text-rendering:geometricPrecision" />
    <g
       style="clip-rule:evenodd;fill-rule:evenodd;image-rendering:optimizeQuality;shape-rendering:geometricPrecision;text-rendering:geometricPrecision"
       id="g4414"
       transform="matrix(0.0465369,0,0,0.0465369,-521.32537,682.78509)">
      <path
         style="fill:#fefefe"
         inkscape:connector-curvature="0"
         id="path4416"
         d="m 11399,7650 c 0,15 5,30 20,30 l 1071,0 c 15,0 20,-15 20,-30 l 0,-630 -1111,0 0,630 z"
         class="fil3" />
      <path
         style="fill:#fefefe"
         inkscape:connector-curvature="0"
         id="path4418"
         d="m 11529,6724 0,55 -195,0 c -12,0 -20,9 -20,20 l 0,140 c 0,12 3,15 15,15 l 1251,0 c 12,0 15,-3 15,-15 l 0,-140 c 0,-11 -8,-20 -20,-20 l -195,0 c 0,-42 3,-44 -5,-80 l -175,0 c -9,36 -5,38 -5,80 l -481,0 c 0,-42 4,-44 -5,-80 l -175,0 c -3,11 -5,12 -5,25 z"
         class="fil3" />
    </g>
    <polygon
       style="clip-rule:evenodd;fill:#f16136;fill-rule:evenodd;image-rendering:optimizeQuality;shape-rendering:geometricPrecision;text-rendering:geometricPrecision;fill-opacity:1"
       id="polygon4420"
       points="11642,7288 11565,7288 11565,7222 11500,7222 11500,7145 11565,7145 11565,7080 11642,7080 11642,7145 11708,7145 11708,7222 11642,7222 "
       class="fil4"
       transform="matrix(0.0465369,0,0,0.0465369,-521.32537,682.78509)" />
    <polygon
       style="clip-rule:evenodd;fill:#f16136;fill-rule:evenodd;image-rendering:optimizeQuality;shape-rendering:geometricPrecision;text-rendering:geometricPrecision;fill-opacity:1"
       id="polygon4422"
       points="12198,7227 12198,7151 12406,7151 12406,7227 "
       class="fil4"
       transform="matrix(0.0465369,0,0,0.0465369,-521.32537,682.78509)" />
    <path
       class="fil4"
       d="m 14.733176,1000.1202 c 0,2.7457 1.303033,3.2575 3.350658,5.3517 1.535718,1.5358 11.355003,11.1224 11.866909,11.9135 -0.511906,0.7446 -10.331191,10.3776 -11.866909,11.9134 -2.047625,2.0476 -3.350658,2.6062 -3.350658,5.3517 0,1.4892 1.489182,2.9785 3.024899,2.9785 2.699141,0 3.257583,-1.3031 5.305207,-3.3506 1.535718,-1.5358 11.168856,-11.3086 11.913446,-11.8205 0.791128,0.5119 10.424265,10.2847 11.913447,11.8205 2.09416,2.0475 2.652604,3.3506 5.351743,3.3506 1.535717,0 3.024898,-1.4893 3.024898,-2.9785 0,-2.7455 -1.303033,-3.3041 -3.350657,-5.3517 -1.535716,-1.5358 -11.355003,-11.1688 -11.866909,-11.9134 0.511906,-0.7911 10.331193,-10.3777 11.866909,-11.9135 2.047624,-2.0942 3.350657,-2.606 3.350657,-5.3517 0,-1.53565 -1.489181,-3.02493 -3.024898,-3.02493 -2.699139,0 -3.257583,1.30314 -5.351743,3.35063 -1.489182,1.5358 -11.122319,11.3551 -11.913447,11.8669 -0.74459,-0.5118 -10.377728,-10.3311 -11.913446,-11.8669 -2.047624,-2.04749 -2.606066,-3.35063 -5.305207,-3.35063 -1.535717,0 -3.024899,1.48928 -3.024899,3.02493 z"
       id="path4424"
       inkscape:connector-curvature="0"
       style="clip-rule:evenodd;fill:#f16136;fill-rule:evenodd;image-rendering:optimizeQuality;shape-rendering:geometricPrecision;text-rendering:geometricPrecision;fill-opacity:1" />
  </g>
</svg>
