<?xml version="1.0" encoding="UTF-8" standalone="no"?>
<!-- Created with Inkscape (http://www.inkscape.org/) -->

<svg
   xmlns:dc="http://purl.org/dc/elements/1.1/"
   xmlns:cc="http://creativecommons.org/ns#"
   xmlns:rdf="http://www.w3.org/1999/02/22-rdf-syntax-ns#"
   xmlns:svg="http://www.w3.org/2000/svg"
   xmlns="http://www.w3.org/2000/svg"
   xmlns:sodipodi="http://sodipodi.sourceforge.net/DTD/sodipodi-0.dtd"
   xmlns:inkscape="http://www.inkscape.org/namespaces/inkscape"
   width="70"
   height="70"
   viewBox="0 0 70.000001 70.000001"
   id="svg4748"
   version="1.1"
   inkscape:version="0.91 r13725"
   inkscape:export-filename="C:\Users\Fabian Gutierrez\Desktop\path374.png"
   inkscape:export-xdpi="90"
   inkscape:export-ydpi="90"
   sodipodi:docname="alarma-antena.svg">
  <defs
     id="defs4750">
    <pattern
       y="0"
       x="0"
       height="6"
       width="6"
       patternUnits="userSpaceOnUse"
       id="EMFhbasepattern" />
    <pattern
       y="0"
       x="0"
       height="6"
       width="6"
       patternUnits="userSpaceOnUse"
       id="EMFhbasepattern-3" />
    <pattern
       y="0"
       x="0"
       height="6"
       width="6"
       patternUnits="userSpaceOnUse"
       id="EMFhbasepattern-9" />
  </defs>
  <sodipodi:namedview
     id="base"
     pagecolor="#ffffff"
     bordercolor="#666666"
     borderopacity="1.0"
     inkscape:pageopacity="0.0"
     inkscape:pageshadow="2"
     inkscape:zoom="3.959798"
     inkscape:cx="36.56521"
     inkscape:cy="33.762194"
     inkscape:document-units="px"
     inkscape:current-layer="layer1"
     showgrid="false"
     units="px"
     inkscape:window-width="1280"
     inkscape:window-height="1001"
     inkscape:window-x="-8"
     inkscape:window-y="-8"
     inkscape:window-maximized="1"
     showguides="true"
     inkscape:guide-bbox="true">
    <sodipodi:guide
       position="76.140249,65.000001"
       orientation="0,1"
       id="guide5628"
       inkscape:label=""
       inkscape:color="rgb(0,0,255)" />
    <sodipodi:guide
       position="28.663079,5.0000001"
       orientation="0,1"
       id="guide5630"
       inkscape:label=""
       inkscape:color="rgb(0,0,255)" />
    <sodipodi:guide
       position="5.0000001,72.730984"
       orientation="1,0"
       id="guide5632"
       inkscape:label=""
       inkscape:color="rgb(0,0,255)" />
    <sodipodi:guide
       position="65.000001,46.593287"
       orientation="1,0"
       id="guide5634"
       inkscape:label=""
       inkscape:color="rgb(0,0,255)" />
  </sodipodi:namedview>
  <metadata
     id="metadata4753">
    <rdf:RDF>
      <cc:Work
         rdf:about="">
        <dc:format>image/svg+xml</dc:format>
        <dc:type
           rdf:resource="http://purl.org/dc/dcmitype/StillImage" />
        <dc:title></dc:title>
      </cc:Work>
    </rdf:RDF>
  </metadata>
  <g
     inkscape:label="Capa 1"
     inkscape:groupmode="layer"
     id="layer1"
     transform="translate(0,-982.36213)">
    <rect
       style="opacity:1;fill:#222d55;fill-opacity:1"
       id="rect5505"
       width="70"
       height="70"
       x="0"
       y="982.36212" />
    <path
       class="fil4"
       d="m 96.589619,1019.2634 c -0.932387,0.2193 -1.426006,1.042 -1.426006,2.139 0,3.0165 4.991037,3.8392 4.991037,-0.2195 0,-1.0968 -0.548471,-1.7002 -1.426011,-1.9195 l 4.552261,-10.6952 c 2.41324,-5.8137 6.52673,-12.50496 1.70024,-17.49598 -1.70024,-1.80994 -3.78441,-2.79719 -5.813731,-3.07148 l -2.02932,0 c -2.632634,0.32909 -5.155573,1.97449 -6.800968,4.77169 -1.700241,2.96173 -1.096929,6.088 0.164539,9.21427 l 4.607106,12.7791 c 0.438773,1.152 1.426013,3.1812 1.480853,4.4976 z"
       id="path4431"
       inkscape:connector-curvature="0"
       style="clip-rule:evenodd;fill:#f16136;fill-opacity:1;fill-rule:evenodd;image-rendering:optimizeQuality;shape-rendering:geometricPrecision;text-rendering:geometricPrecision" />
    <g
       id="g7269"
       transform="matrix(1.308855,0,0,1.308855,-1.4609605,-315.1523)">
      <path
         style="clip-rule:evenodd;fill:#fefefe;fill-rule:evenodd;image-rendering:optimizeQuality;shape-rendering:geometricPrecision;text-rendering:geometricPrecision"
         inkscape:connector-curvature="0"
         id="path4926"
         d="m 12.815805,1038.3489 c 0,1.4527 0.708661,2.622 2.161417,2.622 l 25.476378,0 c 1.417322,0 2.125984,-1.1693 2.125984,-2.622 0,-1.3465 0.07087,-4.1811 0.106299,-5.9528 0,-2.3385 0.106299,-13.1102 -0.03543,-14.4921 -0.141732,-1.2756 -0.283465,-1.8425 -0.956693,-2.6929 -0.389764,-0.4961 -1.559055,-1.2402 -2.444882,-1.2402 l -22.960629,0 c -1.594488,0 -3.295276,1.4882 -3.295276,3.8977 0.03543,2.5512 0.141732,12.7559 0,14.5275 -0.106302,1.3819 -0.177168,4.7481 -0.177168,5.9528 z"
         class="fil2" />
      <path
         style="clip-rule:evenodd;fill:#fefefe;fill-rule:evenodd;stroke:#222d55;stroke-width:1.77165353;stroke-opacity:1;image-rendering:optimizeQuality;shape-rendering:geometricPrecision;text-rendering:geometricPrecision"
         inkscape:connector-curvature="0"
         id="path4928"
         d="m 16.961474,1016.5576 21.472441,0 c 0.602362,0 1.098425,0.496 1.098425,1.0984 l 0,14.563 c 0,0.6023 -0.496063,1.1338 -1.098425,1.1338 l -21.472441,0 c -0.602362,0 -1.098425,-0.5315 -1.098425,-1.1338 l 0,-14.563 c 0,-0.6024 0.496063,-1.0984 1.098425,-1.0984 z"
         class="fil2 str2" />
      <g
         id="g4930"
         style="clip-rule:evenodd;fill-rule:evenodd;image-rendering:optimizeQuality;shape-rendering:geometricPrecision;text-rendering:geometricPrecision"
         transform="matrix(0.03543307,0,0,0.03543307,-23.396793,764.91184)">
        <path
           style="fill:#fefefe"
           inkscape:connector-curvature="0"
           id="path4932"
           d="m 1147,6630 c 0,30 24,48 54,48 22,0 104,-81 218,-81 88,0 145,6 224,59 18,12 35,28 53,28 9,0 100,-35 38,-82 -39,-29 -47,-39 -100,-63 -114,-53 -258,-53 -375,-4 -25,11 -43,23 -66,37 -21,12 -46,28 -46,58 z"
           class="fil2" />
        <path
           style="fill:#fefefe"
           inkscape:connector-curvature="0"
           id="path4934"
           d="m 1321,6803 c 42,0 56,-32 125,-32 67,0 82,38 136,38 18,0 97,-70 -46,-118 -117,-39 -280,7 -260,75 6,22 19,37 45,37 z"
           class="fil2" />
        <path
           style="fill:#fefefe"
           inkscape:connector-curvature="0"
           id="path4936"
           d="m 1364,6918 c 0,58 24,92 87,92 98,0 119,-163 -11,-163 -47,0 -76,42 -76,71 z"
           class="fil2" />
      </g>
      <path
         style="clip-rule:evenodd;fill:#f16136;fill-opacity:1;fill-rule:evenodd;image-rendering:optimizeQuality;shape-rendering:geometricPrecision;text-rendering:geometricPrecision"
         inkscape:connector-curvature="0"
         id="path4938"
         d="m 12.886671,1007.2741 c 0,2.0196 0.956693,2.4094 2.480315,3.933 1.133858,1.1339 8.397638,8.256 8.751968,8.8229 -0.35433,0.5669 -7.61811,7.689 -8.751968,8.8228 -1.523622,1.5236 -2.480315,1.9488 -2.480315,3.9685 0,1.1339 1.098425,2.2323 2.19685,2.2323 2.055118,0 2.444882,-0.9567 3.968504,-2.4803 1.133858,-1.1339 8.255906,-8.3976 8.822835,-8.7874 0.566929,0.3898 7.688976,7.6535 8.822834,8.7874 1.523622,1.5236 1.948819,2.4803 3.968504,2.4803 1.133858,0 2.232283,-1.0984 2.232283,-2.2323 0,-2.0197 -0.992126,-2.4449 -2.480314,-3.9685 -1.169292,-1.1338 -8.397638,-8.2559 -8.787402,-8.8228 0.389764,-0.5669 7.61811,-7.689 8.787402,-8.8229 1.488188,-1.5236 2.480314,-1.9134 2.480314,-3.933 0,-1.1339 -1.098425,-2.2323 -2.232283,-2.2323 -2.019685,0 -2.444882,0.9567 -3.968504,2.4803 -1.133858,1.1339 -8.255905,8.3977 -8.822834,8.752 -0.566929,-0.3543 -7.688977,-7.6181 -8.822835,-8.752 -1.523622,-1.5236 -1.913386,-2.4803 -3.968504,-2.4803 -1.098425,0 -2.19685,1.0984 -2.19685,2.2323 z"
         class="fil3" />
      <path
         style="clip-rule:evenodd;fill:#222d55;fill-opacity:1;fill-rule:nonzero;image-rendering:optimizeQuality;shape-rendering:geometricPrecision;text-rendering:geometricPrecision"
         inkscape:connector-curvature="0"
         id="path4940"
         d="m 22.949663,1038.1009 0,-0.8859 2.232283,0 0,2.0906 c -0.212598,0.2126 -0.531496,0.3897 -0.956692,0.5315 -0.389764,0.1771 -0.814961,0.248 -1.240158,0.248 -0.531496,0 -1.027559,-0.1063 -1.417323,-0.3189 -0.389764,-0.248 -0.708661,-0.5669 -0.92126,-0.9921 -0.177165,-0.4252 -0.283464,-0.8858 -0.283464,-1.3819 0,-0.5315 0.106299,-0.9921 0.318897,-1.4173 0.248032,-0.4252 0.56693,-0.7441 0.992126,-0.9567 0.354331,-0.1772 0.744095,-0.2835 1.240158,-0.2835 0.637795,0 1.133858,0.1417 1.523622,0.4252 0.354331,0.248 0.566929,0.6378 0.673228,1.0984 l -1.027559,0.2126 c -0.07087,-0.248 -0.212598,-0.4606 -0.425197,-0.6023 -0.177165,-0.1418 -0.425196,-0.2481 -0.744094,-0.2481 -0.46063,0 -0.814961,0.1772 -1.062992,0.4607 -0.283465,0.2834 -0.425197,0.7086 -0.425197,1.2756 0,0.6023 0.141732,1.063 0.425197,1.3819 0.248031,0.3189 0.602362,0.4606 1.062992,0.4606 0.212598,0 0.425197,-0.035 0.637795,-0.1417 0.248032,-0.071 0.425197,-0.1772 0.566929,-0.2835 l 0,-0.6732 -1.169291,0 z m 3.188976,1.9133 0,-5.1732 1.665355,0 c 0.637795,0 1.062992,0.035 1.240157,0.071 0.318898,0.071 0.566929,0.248 0.744095,0.496 0.212598,0.2835 0.318897,0.6024 0.318897,1.0276 0,0.3189 -0.07087,0.5669 -0.177165,0.7795 -0.106299,0.2126 -0.248032,0.3898 -0.425197,0.5315 -0.177165,0.1063 -0.389764,0.1772 -0.566929,0.2481 -0.248032,0.035 -0.602362,0.071 -1.062992,0.071 l -0.673229,0 0,1.9489 -1.062992,0 z m 1.062992,-4.2874 0,1.4528 0.56693,0 c 0.389763,0 0.673228,-0.035 0.81496,-0.071 0.141732,-0.071 0.248032,-0.1417 0.318898,-0.248 0.07087,-0.1417 0.106299,-0.2835 0.106299,-0.4252 0,-0.1772 -0.03543,-0.3543 -0.141732,-0.4606 -0.1063,-0.1063 -0.248032,-0.2126 -0.425197,-0.2481 -0.141732,0 -0.389764,0 -0.744095,0 l -0.496063,0 z m 3.472441,2.5867 1.027559,-0.071 c 0.07087,0.3189 0.177166,0.5669 0.354331,0.7441 0.212598,0.1417 0.46063,0.2126 0.779528,0.2126 0.318897,0 0.566929,-0.071 0.744094,-0.2126 0.177165,-0.1418 0.248032,-0.2835 0.248032,-0.4961 0,-0.1063 -0.03543,-0.2126 -0.1063,-0.2834 -0.07087,-0.1063 -0.177165,-0.1772 -0.35433,-0.2481 -0.141733,-0.035 -0.425197,-0.1063 -0.850394,-0.2126 -0.566929,-0.1417 -0.956693,-0.3189 -1.169291,-0.5315 -0.318898,-0.2834 -0.46063,-0.6023 -0.46063,-1.0275 0,-0.2481 0.07087,-0.4961 0.212598,-0.7441 0.141732,-0.2126 0.354331,-0.3898 0.637795,-0.5315 0.283465,-0.1063 0.637796,-0.1772 1.027559,-0.1772 0.637796,0 1.133859,0.1417 1.452756,0.4252 0.318898,0.2835 0.496063,0.6732 0.496063,1.1693 l -1.027559,0.035 c -0.03543,-0.2834 -0.141732,-0.4606 -0.283464,-0.5669 -0.141733,-0.1417 -0.354331,-0.1772 -0.673229,-0.1772 -0.283464,0 -0.531496,0.035 -0.708661,0.1772 -0.106299,0.071 -0.141732,0.1772 -0.141732,0.3189 0,0.1063 0.03543,0.2126 0.141732,0.3189 0.141732,0.1063 0.46063,0.2126 0.956693,0.3543 0.496063,0.1063 0.885827,0.2481 1.133858,0.3544 0.248032,0.1417 0.425197,0.3189 0.566929,0.5315 0.141732,0.2126 0.212599,0.496 0.212599,0.8149 0,0.3189 -0.1063,0.5669 -0.248032,0.8504 -0.177165,0.248 -0.425197,0.4252 -0.708661,0.5669 -0.283465,0.1063 -0.673229,0.1772 -1.133859,0.1772 -0.637795,0 -1.133858,-0.1417 -1.488188,-0.4606 -0.354331,-0.2835 -0.56693,-0.7087 -0.637796,-1.3111 z"
         class="fil6" />
    </g>
  </g>
</svg>
