<?xml version="1.0" encoding="UTF-8" standalone="no"?>
<!-- Created with Inkscape (http://www.inkscape.org/) -->

<svg
   xmlns:dc="http://purl.org/dc/elements/1.1/"
   xmlns:cc="http://creativecommons.org/ns#"
   xmlns:rdf="http://www.w3.org/1999/02/22-rdf-syntax-ns#"
   xmlns:svg="http://www.w3.org/2000/svg"
   xmlns="http://www.w3.org/2000/svg"
   xmlns:sodipodi="http://sodipodi.sourceforge.net/DTD/sodipodi-0.dtd"
   xmlns:inkscape="http://www.inkscape.org/namespaces/inkscape"
   width="70"
   height="70"
   viewBox="0 0 70.000001 70.000001"
   id="svg4748"
   version="1.1"
   inkscape:version="0.91 r13725"
   inkscape:export-filename="C:\Users\Fabian Gutierrez\Desktop\path374.png"
   inkscape:export-xdpi="90"
   inkscape:export-ydpi="90"
   sodipodi:docname="alarma-corriente.svg">
  <defs
     id="defs4750">
    <pattern
       y="0"
       x="0"
       height="6"
       width="6"
       patternUnits="userSpaceOnUse"
       id="EMFhbasepattern" />
    <pattern
       y="0"
       x="0"
       height="6"
       width="6"
       patternUnits="userSpaceOnUse"
       id="EMFhbasepattern-3" />
    <pattern
       y="0"
       x="0"
       height="6"
       width="6"
       patternUnits="userSpaceOnUse"
       id="EMFhbasepattern-9" />
  </defs>
  <sodipodi:namedview
     id="base"
     pagecolor="#ffffff"
     bordercolor="#666666"
     borderopacity="1.0"
     inkscape:pageopacity="0.0"
     inkscape:pageshadow="2"
     inkscape:zoom="7.919596"
     inkscape:cx="35.333174"
     inkscape:cy="30.636618"
     inkscape:document-units="px"
     inkscape:current-layer="layer1"
     showgrid="false"
     units="px"
     inkscape:window-width="1280"
     inkscape:window-height="1001"
     inkscape:window-x="-8"
     inkscape:window-y="-8"
     inkscape:window-maximized="1"
     showguides="true"
     inkscape:guide-bbox="true">
    <sodipodi:guide
       position="76.140249,65.000001"
       orientation="0,1"
       id="guide5628"
       inkscape:label=""
       inkscape:color="rgb(0,0,255)" />
    <sodipodi:guide
       position="28.663079,5.0000001"
       orientation="0,1"
       id="guide5630"
       inkscape:label=""
       inkscape:color="rgb(0,0,255)" />
    <sodipodi:guide
       position="5.0000001,72.730984"
       orientation="1,0"
       id="guide5632"
       inkscape:label=""
       inkscape:color="rgb(0,0,255)" />
    <sodipodi:guide
       position="65.000001,46.593287"
       orientation="1,0"
       id="guide5634"
       inkscape:label=""
       inkscape:color="rgb(0,0,255)" />
  </sodipodi:namedview>
  <metadata
     id="metadata4753">
    <rdf:RDF>
      <cc:Work
         rdf:about="">
        <dc:format>image/svg+xml</dc:format>
        <dc:type
           rdf:resource="http://purl.org/dc/dcmitype/StillImage" />
        <dc:title></dc:title>
      </cc:Work>
    </rdf:RDF>
  </metadata>
  <g
     inkscape:label="Capa 1"
     inkscape:groupmode="layer"
     id="layer1"
     transform="translate(0,-982.36213)">
    <rect
       style="opacity:1;fill:#222d55;fill-opacity:1"
       id="rect5505"
       width="70"
       height="70"
       x="0"
       y="982.36212" />
    <path
       class="fil4"
       d="m 96.589619,1019.2634 c -0.932387,0.2193 -1.426006,1.042 -1.426006,2.139 0,3.0165 4.991037,3.8392 4.991037,-0.2195 0,-1.0968 -0.548471,-1.7002 -1.426011,-1.9195 l 4.552261,-10.6952 c 2.41324,-5.8137 6.52673,-12.50496 1.70024,-17.49598 -1.70024,-1.80994 -3.78441,-2.79719 -5.813731,-3.07148 l -2.02932,0 c -2.632634,0.32909 -5.155573,1.97449 -6.800968,4.77169 -1.700241,2.96173 -1.096929,6.088 0.164539,9.21427 l 4.607106,12.7791 c 0.438773,1.152 1.426013,3.1812 1.480853,4.4976 z"
       id="path4431"
       inkscape:connector-curvature="0"
       style="clip-rule:evenodd;fill:#f16136;fill-opacity:1;fill-rule:evenodd;image-rendering:optimizeQuality;shape-rendering:geometricPrecision;text-rendering:geometricPrecision" />
    <g
       style="clip-rule:evenodd;fill-rule:evenodd;image-rendering:optimizeQuality;shape-rendering:geometricPrecision;text-rendering:geometricPrecision"
       id="g4372"
       transform="matrix(0.04632687,0,0,0.04632687,-518.71179,684.21545)">
      <path
         style="fill:#fefefe"
         inkscape:connector-curvature="0"
         id="path4374"
         d="m 11402,7647 c 0,15 4,30 20,30 l 1065,0 c 15,0 20,-15 20,-30 l 0,-628 -1105,0 0,628 z"
         class="fil2" />
      <path
         style="fill:#fefefe"
         inkscape:connector-curvature="0"
         id="path4376"
         d="m 11531,6726 0,54 -194,0 c -12,0 -20,9 -20,20 l 0,140 c 0,11 4,15 15,15 l 1245,0 c 11,0 15,-4 15,-15 l 0,-140 c 0,-11 -9,-20 -20,-20 l -194,0 c 0,-42 3,-44 -5,-79 l -175,0 c -8,35 -5,37 -5,79 l -478,0 c 0,-42 4,-44 -5,-79 l -174,0 c -2,11 -5,11 -5,25 z"
         class="fil2" />
    </g>
    <polygon
       style="clip-rule:evenodd;fill:#222d55;fill-opacity:1;fill-rule:evenodd;image-rendering:optimizeQuality;shape-rendering:geometricPrecision;text-rendering:geometricPrecision"
       id="polygon4378"
       points="11643,7079 11643,7145 11709,7145 11709,7221 11643,7221 11643,7286 11567,7286 11567,7221 11502,7221 11502,7145 11567,7145 11567,7079 "
       class="fil1"
       transform="matrix(0.04632687,0,0,0.04632687,-518.71179,684.21545)" />
    <polygon
       style="clip-rule:evenodd;fill:#222d55;fill-opacity:1;fill-rule:evenodd;image-rendering:optimizeQuality;shape-rendering:geometricPrecision;text-rendering:geometricPrecision"
       id="polygon4380"
       points="12403,7226 12196,7226 12196,7150 12403,7150 "
       class="fil1"
       transform="matrix(0.04632687,0,0,0.04632687,-518.71179,684.21545)" />
    <path
       class="fil3"
       d="m 15.020098,1000.1647 c 0,2.6869 1.297153,3.2428 3.335535,5.2813 1.528788,1.5288 11.211103,11.0258 11.720699,11.8133 -0.509596,0.7413 -10.191911,10.2846 -11.720699,11.7671 -2.038382,2.0384 -3.335535,2.5943 -3.335535,5.3276 0,1.4824 1.48246,2.9649 2.964921,2.9649 2.733285,0 3.289208,-1.2971 5.32759,-3.3355 1.48246,-1.5288 11.025795,-11.2111 11.767026,-11.7208 0.787556,0.5097 10.284565,10.192 11.813351,11.7208 2.038384,2.0384 2.594305,3.3355 5.281263,3.3355 1.528788,0 3.011248,-1.4825 3.011248,-2.9649 0,-2.7333 -1.297153,-3.2892 -3.335535,-5.3276 -1.528786,-1.4825 -11.211103,-11.0258 -11.720699,-11.7671 0.509596,-0.7875 10.191913,-10.2845 11.720699,-11.8133 2.038382,-2.0385 3.335535,-2.5944 3.335535,-5.2813 0,-1.52882 -1.48246,-3.0112 -3.011248,-3.0112 -2.686958,0 -3.242879,1.29712 -5.281263,3.3356 -1.528786,1.5286 -11.025795,11.2111 -11.813351,11.7206 -0.741231,-0.5095 -10.284566,-10.192 -11.767026,-11.7206 -2.038382,-2.03848 -2.594305,-3.3356 -5.32759,-3.3356 -1.482461,0 -2.964921,1.48238 -2.964921,3.0112 z"
       id="path4382"
       inkscape:connector-curvature="0"
       style="clip-rule:evenodd;fill:#f16136;fill-opacity:1;fill-rule:evenodd;image-rendering:optimizeQuality;shape-rendering:geometricPrecision;text-rendering:geometricPrecision" />
  </g>
</svg>
