<?xml version="1.0" encoding="UTF-8" standalone="no"?>
<!-- Created with Inkscape (http://www.inkscape.org/) -->

<svg
   xmlns:dc="http://purl.org/dc/elements/1.1/"
   xmlns:cc="http://creativecommons.org/ns#"
   xmlns:rdf="http://www.w3.org/1999/02/22-rdf-syntax-ns#"
   xmlns:svg="http://www.w3.org/2000/svg"
   xmlns="http://www.w3.org/2000/svg"
   xmlns:sodipodi="http://sodipodi.sourceforge.net/DTD/sodipodi-0.dtd"
   xmlns:inkscape="http://www.inkscape.org/namespaces/inkscape"
   width="70"
   height="70"
   viewBox="0 0 70.000001 70.000001"
   id="svg4748"
   version="1.1"
   inkscape:version="0.91 r13725"
   inkscape:export-filename="C:\Users\Fabian Gutierrez\Desktop\path374.png"
   inkscape:export-xdpi="90"
   inkscape:export-ydpi="90"
   sodipodi:docname="bateria.svg">
  <defs
     id="defs4750">
    <pattern
       y="0"
       x="0"
       height="6"
       width="6"
       patternUnits="userSpaceOnUse"
       id="EMFhbasepattern" />
  </defs>
  <sodipodi:namedview
     id="base"
     pagecolor="#ffffff"
     bordercolor="#666666"
     borderopacity="1.0"
     inkscape:pageopacity="0.0"
     inkscape:pageshadow="2"
     inkscape:zoom="5.6"
     inkscape:cx="21.364943"
     inkscape:cy="41.432381"
     inkscape:document-units="px"
     inkscape:current-layer="layer1"
     showgrid="false"
     units="px"
     inkscape:window-width="1280"
     inkscape:window-height="1001"
     inkscape:window-x="-8"
     inkscape:window-y="-8"
     inkscape:window-maximized="1"
     showguides="true"
     inkscape:guide-bbox="true">
    <sodipodi:guide
       position="76.140249,65.000001"
       orientation="0,1"
       id="guide5628"
       inkscape:label=""
       inkscape:color="rgb(0,0,255)" />
    <sodipodi:guide
       position="28.663079,5.0000001"
       orientation="0,1"
       id="guide5630"
       inkscape:label=""
       inkscape:color="rgb(0,0,255)" />
    <sodipodi:guide
       position="5.0000001,72.730984"
       orientation="1,0"
       id="guide5632"
       inkscape:label=""
       inkscape:color="rgb(0,0,255)" />
    <sodipodi:guide
       position="65.000001,46.593287"
       orientation="1,0"
       id="guide5634"
       inkscape:label=""
       inkscape:color="rgb(0,0,255)" />
  </sodipodi:namedview>
  <metadata
     id="metadata4753">
    <rdf:RDF>
      <cc:Work
         rdf:about="">
        <dc:format>image/svg+xml</dc:format>
        <dc:type
           rdf:resource="http://purl.org/dc/dcmitype/StillImage" />
        <dc:title></dc:title>
      </cc:Work>
    </rdf:RDF>
  </metadata>
  <g
     inkscape:label="Capa 1"
     inkscape:groupmode="layer"
     id="layer1"
     transform="translate(0,-982.36213)">
    <rect
       style="opacity:1;fill:#222d55;fill-opacity:1"
       id="rect5505"
       width="70"
       height="70"
       x="0"
       y="982.36212" />
    <path
       class="fil4"
       d="m 96.589619,1019.2634 c -0.932387,0.2193 -1.426006,1.042 -1.426006,2.139 0,3.0165 4.991037,3.8392 4.991037,-0.2195 0,-1.0968 -0.548471,-1.7002 -1.426011,-1.9195 l 4.552261,-10.6952 c 2.41324,-5.8137 6.52673,-12.50496 1.70024,-17.49598 -1.70024,-1.80994 -3.78441,-2.79719 -5.813731,-3.07148 l -2.02932,0 c -2.632634,0.32909 -5.155573,1.97449 -6.800968,4.77169 -1.700241,2.96173 -1.096929,6.088 0.164539,9.21427 l 4.607106,12.7791 c 0.438773,1.152 1.426013,3.1812 1.480853,4.4976 z"
       id="path4431"
       inkscape:connector-curvature="0"
       style="clip-rule:evenodd;fill:#f16136;fill-opacity:1;fill-rule:evenodd;image-rendering:optimizeQuality;shape-rendering:geometricPrecision;text-rendering:geometricPrecision" />
    <g
       id="g4317"
       transform="translate(0,0.21048)">
      <path
         style="fill:#f16136;fill-opacity:1;fill-rule:evenodd;stroke:none"
         d="m 28.695282,990.53161 c -4.003012,0 -9.607225,-0.7007 -9.607225,6.10431 l 0,44.83378 c 0,1.7015 0.500378,2.9025 1.300979,3.9029 0.600452,0.801 2.001503,1.7016 3.402551,1.7016 l 22.416788,0 c 2.601973,0 4.703568,-2.5021 4.703568,-5.6045 l 0,-44.83378 c 0,-6.80501 -5.704197,-6.10431 -9.807309,-6.10431 l 0,-3.30251 -12.409352,0 0,3.30251 z"
         id="path4303"
         inkscape:connector-curvature="0" />
      <path
         style="fill:#fefefe;fill-opacity:1;fill-rule:evenodd;stroke:none"
         d="m 31.397313,993.23366 -2.702026,0 c -1.000757,0 -1.901431,0 -2.802114,0 -0.90067,0 -2.401794,0.0993 -3.2024,0.60045 -0.800611,0.50023 -0.90067,1.90113 -0.90067,2.80181 l 0,44.83378 c 0,0.8008 0.200137,1.5011 0.700514,2.1015 0.200137,0.2979 0.900684,0.801 1.300975,0.801 l 22.416788,0 c 1.300984,0 2.001517,-1.9016 2.001517,-2.9025 l 0,-44.83378 c 0,-0.90068 -0.100092,-2.20135 -1.000761,-2.80181 -1.300851,-0.80045 -4.603358,-0.60045 -6.104497,-0.60045 l -2.802128,0 -6.905198,0 z"
         id="path4305"
         inkscape:connector-curvature="0" />
      <path
         style="fill:#f16136;fill-opacity:1;fill-rule:evenodd;stroke:none"
         d="m 24.492073,1033.964 0,7.7061 21.015854,0 0,-7.7061 z"
         id="path4307"
         inkscape:connector-curvature="0" />
    </g>
  </g>
</svg>
