<?xml version="1.0" encoding="UTF-8" standalone="no"?>
<!-- Created with Inkscape (http://www.inkscape.org/) -->

<svg
   xmlns:dc="http://purl.org/dc/elements/1.1/"
   xmlns:cc="http://creativecommons.org/ns#"
   xmlns:rdf="http://www.w3.org/1999/02/22-rdf-syntax-ns#"
   xmlns:svg="http://www.w3.org/2000/svg"
   xmlns="http://www.w3.org/2000/svg"
   xmlns:sodipodi="http://sodipodi.sourceforge.net/DTD/sodipodi-0.dtd"
   xmlns:inkscape="http://www.inkscape.org/namespaces/inkscape"
   width="70"
   height="70"
   viewBox="0 0 70.000001 70.000001"
   id="svg4748"
   version="1.1"
   inkscape:version="0.91 r13725"
   inkscape:export-filename="C:\Users\Fabian Gutierrez\Desktop\path374.png"
   inkscape:export-xdpi="90"
   inkscape:export-ydpi="90"
   sodipodi:docname="brazo.svg">
  <defs
     id="defs4750">
    <pattern
       y="0"
       x="0"
       height="6"
       width="6"
       patternUnits="userSpaceOnUse"
       id="EMFhbasepattern" />
    <pattern
       y="0"
       x="0"
       height="6"
       width="6"
       patternUnits="userSpaceOnUse"
       id="EMFhbasepattern-3" />
    <pattern
       y="0"
       x="0"
       height="6"
       width="6"
       patternUnits="userSpaceOnUse"
       id="EMFhbasepattern-9" />
  </defs>
  <sodipodi:namedview
     id="base"
     pagecolor="#ffffff"
     bordercolor="#666666"
     borderopacity="1.0"
     inkscape:pageopacity="0.0"
     inkscape:pageshadow="2"
     inkscape:zoom="3.959798"
     inkscape:cx="27.369688"
     inkscape:cy="34.594087"
     inkscape:document-units="px"
     inkscape:current-layer="layer1"
     showgrid="false"
     units="px"
     inkscape:window-width="1280"
     inkscape:window-height="1001"
     inkscape:window-x="-8"
     inkscape:window-y="-8"
     inkscape:window-maximized="1"
     showguides="true"
     inkscape:guide-bbox="true">
    <sodipodi:guide
       position="76.140249,65.000001"
       orientation="0,1"
       id="guide5628"
       inkscape:label=""
       inkscape:color="rgb(0,0,255)" />
    <sodipodi:guide
       position="28.663079,5.0000001"
       orientation="0,1"
       id="guide5630"
       inkscape:label=""
       inkscape:color="rgb(0,0,255)" />
    <sodipodi:guide
       position="5.0000001,72.730984"
       orientation="1,0"
       id="guide5632"
       inkscape:label=""
       inkscape:color="rgb(0,0,255)" />
    <sodipodi:guide
       position="65.000001,46.593287"
       orientation="1,0"
       id="guide5634"
       inkscape:label=""
       inkscape:color="rgb(0,0,255)" />
  </sodipodi:namedview>
  <metadata
     id="metadata4753">
    <rdf:RDF>
      <cc:Work
         rdf:about="">
        <dc:format>image/svg+xml</dc:format>
        <dc:type
           rdf:resource="http://purl.org/dc/dcmitype/StillImage" />
        <dc:title></dc:title>
      </cc:Work>
    </rdf:RDF>
  </metadata>
  <g
     inkscape:label="Capa 1"
     inkscape:groupmode="layer"
     id="layer1"
     transform="translate(0,-982.36213)">
    <rect
       style="opacity:1;fill:#222d55;fill-opacity:1"
       id="rect5505"
       width="70"
       height="70"
       x="0"
       y="982.36212" />
    <path
       class="fil4"
       d="m 96.589619,1019.2634 c -0.932387,0.2193 -1.426006,1.042 -1.426006,2.139 0,3.0165 4.991037,3.8392 4.991037,-0.2195 0,-1.0968 -0.548471,-1.7002 -1.426011,-1.9195 l 4.552261,-10.6952 c 2.41324,-5.8137 6.52673,-12.50496 1.70024,-17.49598 -1.70024,-1.80994 -3.78441,-2.79719 -5.813731,-3.07148 l -2.02932,0 c -2.632634,0.32909 -5.155573,1.97449 -6.800968,4.77169 -1.700241,2.96173 -1.096929,6.088 0.164539,9.21427 l 4.607106,12.7791 c 0.438773,1.152 1.426013,3.1812 1.480853,4.4976 z"
       id="path4431"
       inkscape:connector-curvature="0"
       style="clip-rule:evenodd;fill:#f16136;fill-opacity:1;fill-rule:evenodd;image-rendering:optimizeQuality;shape-rendering:geometricPrecision;text-rendering:geometricPrecision" />
    <path
       inkscape:connector-curvature="0"
       id="path4507"
       d="m 35.61333,998.207 c 8.383094,11.2455 15.232564,22.2866 24.126825,33.3278 l 5.520576,-0.2029 -0.613398,-10.0187 c 0,-10.0191 1.431259,-6.6454 -9.200959,-14.2105 -4.293782,-3.067 -10.529854,-6.9517 -14.108004,-9.71196 -1.533493,-1.32918 -2.964752,-1.22679 -4.089317,-0.61339 -0.204449,0.41054 -1.635723,0.8177 -1.635723,1.4311 z"
       style="fill:#fefefe;fill-opacity:1;fill-rule:evenodd;stroke:none" />
    <path
       inkscape:connector-curvature="0"
       id="path4509"
       d="m 20.074068,1027.4453 c 2.351355,0 4.191547,1.8402 4.191547,4.1914 0,2.3516 -1.840192,4.1918 -4.191547,4.1918 -2.351316,0 -4.191498,-1.8402 -4.191498,-4.1918 0,-2.3512 1.840182,-4.1914 4.191498,-4.1914 z"
       style="fill:#f16136;fill-opacity:1;fill-rule:evenodd;stroke:none" />
    <path
       inkscape:connector-curvature="0"
       id="path4511"
       d="m 36.328957,997.38881 -28.3182649,21.46889 -0.4089476,4.4981 4.3959865,-0.511 31.283046,-20.1397 z"
       style="fill:#fefefe;fill-opacity:1;fill-rule:evenodd;stroke:none" />
    <path
       inkscape:connector-curvature="0"
       id="path4513"
       d="m 14.349091,1032.8635 -1.737943,-5.9292 -1.737948,-5.9297 -2.1468761,0.3043 -0.8178615,4.0895 -3.1691921,3.3737 1.6357133,7.2583 13.4946154,2.3512 z"
       style="fill:#fefefe;fill-opacity:1;fill-rule:evenodd;stroke:none" />
  </g>
</svg>
