<?xml version="1.0" encoding="UTF-8" standalone="no"?>
<!-- Created with Inkscape (http://www.inkscape.org/) -->

<svg
   xmlns:dc="http://purl.org/dc/elements/1.1/"
   xmlns:cc="http://creativecommons.org/ns#"
   xmlns:rdf="http://www.w3.org/1999/02/22-rdf-syntax-ns#"
   xmlns:svg="http://www.w3.org/2000/svg"
   xmlns="http://www.w3.org/2000/svg"
   xmlns:sodipodi="http://sodipodi.sourceforge.net/DTD/sodipodi-0.dtd"
   xmlns:inkscape="http://www.inkscape.org/namespaces/inkscape"
   width="100"
   height="100"
   viewBox="0 0 100 100"
   id="svg2"
   version="1.1"
   inkscape:version="0.91 r13725"
   inkscape:export-filename="C:\Users\Fabian Gutierrez\Desktop\path4485.png"
   inkscape:export-xdpi="135"
   inkscape:export-ydpi="135"
   sodipodi:docname="candado.svg">
  <defs
     id="defs4" />
  <sodipodi:namedview
     id="base"
     pagecolor="#ffffff"
     bordercolor="#666666"
     borderopacity="1.0"
     inkscape:pageopacity="0.0"
     inkscape:pageshadow="2"
     inkscape:zoom="5.6"
     inkscape:cx="67.498539"
     inkscape:cy="58.317675"
     inkscape:document-units="px"
     inkscape:current-layer="layer1"
     showgrid="false"
     units="px"
     showguides="true"
     inkscape:guide-bbox="true"
     inkscape:window-width="1280"
     inkscape:window-height="971"
     inkscape:window-x="-8"
     inkscape:window-y="-8"
     inkscape:window-maximized="1">
    <sodipodi:guide
       position="20,20"
       orientation="0,1"
       id="guide4489"
       inkscape:label=""
       inkscape:color="rgb(0,0,255)" />
    <sodipodi:guide
       position="80,23.233509"
       orientation="1,0"
       id="guide4491"
       inkscape:label=""
       inkscape:color="rgb(0,0,255)" />
    <sodipodi:guide
       position="80,80"
       orientation="0,1"
       id="guide4499"
       inkscape:label=""
       inkscape:color="rgb(0,0,255)" />
    <sodipodi:guide
       position="20,20"
       orientation="1,0"
       id="guide4501"
       inkscape:label=""
       inkscape:color="rgb(0,0,255)" />
  </sodipodi:namedview>
  <metadata
     id="metadata7">
    <rdf:RDF>
      <cc:Work
         rdf:about="">
        <dc:format>image/svg+xml</dc:format>
        <dc:type
           rdf:resource="http://purl.org/dc/dcmitype/StillImage" />
        <dc:title></dc:title>
      </cc:Work>
    </rdf:RDF>
  </metadata>
  <g
     inkscape:label="Capa 1"
     inkscape:groupmode="layer"
     id="layer1"
     transform="translate(0,-952.36212)">
    <rect
       style="opacity:1;fill:#222d55;fill-opacity:1"
       id="rect3336"
       width="100"
       height="100"
       x="0"
       y="952.36212" />
    <text
       xml:space="preserve"
       style="font-style:normal;font-weight:normal;font-size:22.76220131px;line-height:125%;font-family:sans-serif;letter-spacing:0px;word-spacing:0px;fill:#ffffff;fill-opacity:1;stroke:none;stroke-width:1px;stroke-linecap:butt;stroke-linejoin:miter;stroke-opacity:1"
       x="59.611938"
       y="1015.0575"
       id="text4503"
       sodipodi:linespacing="125%"><tspan
         sodipodi:role="line"
         id="tspan4505"
         x="59.611938"
         y="1015.0575">x2</tspan></text>
    <path
       inkscape:connector-curvature="0"
       id="path4520"
       d="m 38.665147,1032.4971 c -4.140037,-0.4487 -7.653066,-1.8083 -10.719582,-4.1489 -0.780553,-0.5957 -2.529613,-2.3029 -3.264722,-3.1865 -2.333528,-2.8051 -3.892998,-6.3773 -4.432911,-10.1539 -0.179157,-1.2532 -0.201074,-3.7482 -0.04467,-5.0844 0.292068,-2.4948 1.121364,-5.08 2.341654,-7.2995 0.531168,-0.966 1.310995,-2.1599 1.529038,-2.341 0.10885,-0.09 3.020875,-0.1225 12.773949,-0.1413 l 12.632953,-0.024 0,-7.6432 c 0,-7.19918 -0.01064,-7.68494 -0.183116,-8.36418 -0.882593,-3.47527 -3.488567,-6.02901 -7.027363,-6.88641 -0.920489,-0.2231 -3.021242,-0.2231 -3.94173,0 -3.498764,0.8477 -5.990871,3.24858 -6.998491,6.74221 -0.171755,0.59558 -0.198474,1.02164 -0.232128,3.70144 -0.03346,2.66408 -0.05699,3.04288 -0.195567,3.14857 -0.114319,0.0875 -0.704184,0.12015 -2.150229,0.12015 -1.095985,0 -2.06113,-0.0264 -2.14477,-0.058 -0.133988,-0.0517 -0.152074,-0.40085 -0.152074,-2.93792 0,-2.92125 0.0577,-3.65281 0.396859,-5.03142 1.086423,-4.41612 4.393057,-8.10647 8.640279,-9.64321 4.544847,-1.64434 9.262425,-0.94411 13.171143,1.95499 2.473454,1.83453 4.33609,4.65177 5.083108,7.68822 0.37932,1.5419 0.396858,1.96396 0.396858,9.55238 0,4.07033 0.02626,7.46904 0.05835,7.55268 0.04842,0.1261 0.2421,0.152 1.136918,0.152 1.227938,0 1.155194,-0.04 1.852603,1.0095 0.899272,1.3528 1.916681,3.4768 2.417575,5.0474 1.039189,3.2582 1.18973,7.3012 0.396936,10.6604 -0.711126,3.0131 -2.176747,5.9813 -4.087925,8.2792 -0.734845,0.8834 -2.483894,2.5906 -3.264627,3.1865 -2.867876,2.1889 -6.169273,3.5381 -9.854324,4.0271 -1.268927,0.1685 -3.183079,0.2248 -4.134009,0.1219 z m 2.665211,-6.7152 c 0.270462,-0.1348 0.605101,-0.3937 0.743648,-0.5753 0.504934,-0.6621 0.532871,-0.8797 0.532871,-4.1503 l 0,-3.0235 0.260277,-0.2091 c 0.143154,-0.115 0.486752,-0.4326 0.763552,-0.706 1.982673,-1.9577 1.601132,-5.3188 -0.783463,-6.9016 -0.840201,-0.5576 -1.488516,-0.748 -2.547721,-0.748 -1.059203,0 -1.70752,0.1904 -2.54772,0.748 -1.417504,0.9409 -2.165631,2.5053 -2.036417,4.2582 0.09036,1.226 0.762422,2.3422 2.016507,3.3494 l 0.260277,0.2091 0,3.0235 c 0,3.2706 0.02793,3.4882 0.532871,4.1503 0.363177,0.4761 1.107717,0.8203 1.774482,0.8203 0.385071,0 0.679577,-0.069 1.030836,-0.245 z"
       style="fill:#ffffff" />
  </g>
</svg>
