<?xml version="1.0" encoding="UTF-8" standalone="no"?>
<!-- Created with Inkscape (http://www.inkscape.org/) -->

<svg
   xmlns:dc="http://purl.org/dc/elements/1.1/"
   xmlns:cc="http://creativecommons.org/ns#"
   xmlns:rdf="http://www.w3.org/1999/02/22-rdf-syntax-ns#"
   xmlns:svg="http://www.w3.org/2000/svg"
   xmlns="http://www.w3.org/2000/svg"
   xmlns:sodipodi="http://sodipodi.sourceforge.net/DTD/sodipodi-0.dtd"
   xmlns:inkscape="http://www.inkscape.org/namespaces/inkscape"
   width="70"
   height="70"
   viewBox="0 0 70.000001 70.000001"
   id="svg4748"
   version="1.1"
   inkscape:version="0.91 r13725"
   inkscape:export-filename="C:\Users\Fabian Gutierrez\Desktop\path374.png"
   inkscape:export-xdpi="90"
   inkscape:export-ydpi="90"
   sodipodi:docname="control.svg">
  <defs
     id="defs4750">
    <pattern
       y="0"
       x="0"
       height="6"
       width="6"
       patternUnits="userSpaceOnUse"
       id="EMFhbasepattern" />
    <pattern
       y="0"
       x="0"
       height="6"
       width="6"
       patternUnits="userSpaceOnUse"
       id="EMFhbasepattern-3" />
    <pattern
       y="0"
       x="0"
       height="6"
       width="6"
       patternUnits="userSpaceOnUse"
       id="EMFhbasepattern-9" />
    <pattern
       y="0"
       x="0"
       height="6"
       width="6"
       patternUnits="userSpaceOnUse"
       id="EMFhbasepattern-33" />
  </defs>
  <sodipodi:namedview
     id="base"
     pagecolor="#ffffff"
     bordercolor="#666666"
     borderopacity="1.0"
     inkscape:pageopacity="0.0"
     inkscape:pageshadow="2"
     inkscape:zoom="2.8"
     inkscape:cx="65.427692"
     inkscape:cy="40.741668"
     inkscape:document-units="px"
     inkscape:current-layer="layer1"
     showgrid="false"
     units="px"
     inkscape:window-width="1280"
     inkscape:window-height="1001"
     inkscape:window-x="-8"
     inkscape:window-y="-8"
     inkscape:window-maximized="1"
     showguides="true"
     inkscape:guide-bbox="true">
    <sodipodi:guide
       position="76.140249,65.000001"
       orientation="0,1"
       id="guide5628"
       inkscape:label=""
       inkscape:color="rgb(0,0,255)" />
    <sodipodi:guide
       position="28.663079,5.0000001"
       orientation="0,1"
       id="guide5630"
       inkscape:label=""
       inkscape:color="rgb(0,0,255)" />
    <sodipodi:guide
       position="5.0000001,72.730984"
       orientation="1,0"
       id="guide5632"
       inkscape:label=""
       inkscape:color="rgb(0,0,255)" />
    <sodipodi:guide
       position="65.000001,46.593287"
       orientation="1,0"
       id="guide5634"
       inkscape:label=""
       inkscape:color="rgb(0,0,255)" />
  </sodipodi:namedview>
  <metadata
     id="metadata4753">
    <rdf:RDF>
      <cc:Work
         rdf:about="">
        <dc:format>image/svg+xml</dc:format>
        <dc:type
           rdf:resource="http://purl.org/dc/dcmitype/StillImage" />
        <dc:title></dc:title>
      </cc:Work>
    </rdf:RDF>
  </metadata>
  <g
     inkscape:label="Capa 1"
     inkscape:groupmode="layer"
     id="layer1"
     transform="translate(0,-982.36213)">
    <rect
       style="opacity:1;fill:#222d55;fill-opacity:1"
       id="rect5505"
       width="70"
       height="70"
       x="0"
       y="982.36212" />
    <path
       class="fil4"
       d="m 96.589619,1019.2634 c -0.932387,0.2193 -1.426006,1.042 -1.426006,2.139 0,3.0165 4.991037,3.8392 4.991037,-0.2195 0,-1.0968 -0.548471,-1.7002 -1.426011,-1.9195 l 4.552261,-10.6952 c 2.41324,-5.8137 6.52673,-12.50496 1.70024,-17.49598 -1.70024,-1.80994 -3.78441,-2.79719 -5.813731,-3.07148 l -2.02932,0 c -2.632634,0.32909 -5.155573,1.97449 -6.800968,4.77169 -1.700241,2.96173 -1.096929,6.088 0.164539,9.21427 l 4.607106,12.7791 c 0.438773,1.152 1.426013,3.1812 1.480853,4.4976 z"
       id="path4431"
       inkscape:connector-curvature="0"
       style="clip-rule:evenodd;fill:#f16136;fill-opacity:1;fill-rule:evenodd;image-rendering:optimizeQuality;shape-rendering:geometricPrecision;text-rendering:geometricPrecision" />
    <path
       inkscape:connector-curvature="0"
       id="path4612"
       d="m 15.848116,987.38528 38.184796,0 c 1.546439,0 2.736003,1.18919 2.736003,2.61667 l 0,54.60055 c 0,1.5466 -1.189564,2.7364 -2.736003,2.7364 l -38.184796,0 c -1.546434,0 -2.617033,-1.1898 -2.617033,-2.7364 l 0,-54.60055 c 0,-1.42748 1.070599,-2.61667 2.617033,-2.61667 z m 19.151886,5.11476 c 9.754445,0 17.60543,2.73638 17.60543,6.18594 0,3.44952 -7.850985,6.18542 -17.60543,6.18542 -9.754389,0 -17.724423,-2.7359 -17.724423,-6.18542 0,-3.44956 7.970034,-6.18594 17.724423,-6.18594 z"
       style="fill:#fefefe;fill-opacity:1;fill-rule:evenodd;stroke:none" />
    <path
       inkscape:connector-curvature="0"
       id="path4614"
       d="m 24.769801,1010.1058 c 3.806584,0 6.780453,2.9736 6.780453,6.6614 0,3.6873 -2.973869,6.6614 -6.780453,6.6614 -3.687643,0 -6.661529,-2.9741 -6.661529,-6.6614 0,-3.6878 2.973886,-6.6614 6.661529,-6.6614 z"
       style="fill:#f16136;fill-opacity:1;fill-rule:evenodd;stroke:none" />
    <path
       inkscape:connector-curvature="0"
       id="path4616"
       d="m 45.111317,1010.1058 c 3.687503,0 6.661416,2.9736 6.661416,6.6614 0,3.6873 -2.973913,6.6614 -6.661416,6.6614 -3.687653,0 -6.661573,-2.9741 -6.661573,-6.6614 0,-3.6878 2.97392,-6.6614 6.661573,-6.6614 z"
       style="fill:#f16136;fill-opacity:1;fill-rule:evenodd;stroke:none" />
    <path
       inkscape:connector-curvature="0"
       id="path4618"
       d="m 24.769801,1027.4733 c 3.806584,0 6.780453,2.9736 6.780453,6.6614 0,3.6878 -2.973869,6.6614 -6.780453,6.6614 -3.687643,0 -6.661529,-2.9736 -6.661529,-6.6614 0,-3.6878 2.973886,-6.6614 6.661529,-6.6614 z"
       style="fill:#f16136;fill-opacity:1;fill-rule:evenodd;stroke:none" />
    <path
       inkscape:connector-curvature="0"
       id="path4620"
       d="m 45.111317,1027.4733 c 3.687503,0 6.661416,2.9736 6.661416,6.6614 0,3.6878 -2.973913,6.6614 -6.661416,6.6614 -3.687653,0 -6.661573,-2.9736 -6.661573,-6.6614 0,-3.6878 2.97392,-6.6614 6.661573,-6.6614 z"
       style="fill:#f16136;fill-opacity:1;fill-rule:evenodd;stroke:none" />
    <path
       inkscape:connector-curvature="0"
       id="path4622"
       d="m 49.86943,1014.0314 c 0.118975,0.118 0.118975,0.236 0.118975,0.3541 0,0.4777 -0.118975,0.7137 -0.475845,1.0706 -0.237895,0.236 -0.594787,0.354 -0.951658,0.354 -0.118975,0 -0.237894,0 -0.475845,0 l -1.308522,1.1892 3.092878,2.9741 -1.189569,1.1892 -2.973919,-2.9735 -1.189406,1.1897 c 0,0.2361 0,0.3541 0,0.4777 0,0.3541 -0.118975,0.7138 -0.35687,0.9515 -0.35687,0.236 -0.594782,0.3541 -1.07061,0.3541 -0.118976,0 -0.237895,0 -0.35687,0 l 1.07061,-1.0707 -0.951652,-1.0706 -1.07061,1.0706 c -0.118976,-0.118 -0.118976,-0.236 -0.118976,-0.354 0,-0.3541 0.118976,-0.7138 0.35687,-0.9515 0.356871,-0.236 0.713741,-0.4777 0.951652,-0.4777 0.237895,0 0.35687,0.118 0.475846,0.118 l 1.308522,-1.3083 -1.903304,-2.0226 0.951652,-0.9515 2.022104,1.9035 1.308522,-1.3089 c 0,-0.118 -0.118975,-0.2361 -0.118975,-0.3541 0,-0.4777 0.237894,-0.7137 0.475845,-1.0706 0.237895,-0.236 0.594788,-0.354 0.951658,-0.354 0.118975,0 0.237894,0 0.475845,0 l -1.07061,1.0706 0.951652,1.0706 1.07061,-1.0706 z m -7.018286,-0.8329 -1.07061,0.9515 -0.118976,-0.2361 0.951652,-0.9514 0.237895,0.236 z m 3.092715,0.118 c -0.237895,0 -0.475846,-0.118 -0.713583,-0.118 -0.35687,0 -0.71374,0.118 -0.951652,0.3541 l -2.022267,2.1412 0.237894,0.236 -0.832698,0.7138 -1.308522,-1.3084 0.71374,-0.7137 0.237895,0.236 2.14122,-2.1412 c 0.237895,-0.236 0.594782,-0.4777 0.832699,-0.4777 0.594782,0 1.189406,0.4777 1.665235,1.0706 z"
       style="fill:#fefefe;fill-opacity:1;fill-rule:nonzero;stroke:none" />
    <path
       inkscape:connector-curvature="0"
       id="path4624"
       d="m 50.94004,1033.6587 c 0,1.1897 -0.35687,2.1412 -0.951657,3.0932 0.237895,-0.7137 0.475845,-1.4274 0.475845,-2.3795 0,-0.8323 -0.118975,-1.546 -0.475845,-2.1412 -0.237895,-0.9515 -0.71374,-1.4275 -1.308522,-1.7843 0.71374,0.236 1.308522,0.5951 1.665392,1.1897 0.475845,0.5946 0.594787,1.3083 0.594787,2.0221 z m -0.951657,0.236 c 0,0.8329 -0.237895,1.6658 -0.832693,2.3795 0.237894,-0.4777 0.35687,-1.0706 0.35687,-1.9035 0,-0.5946 -0.118976,-1.1897 -0.237895,-1.7843 -0.35687,-0.5946 -0.71374,-1.0706 -1.189569,-1.3083 0.594782,0.118 1.070611,0.4777 1.427481,0.9514 0.35687,0.4777 0.475845,1.0706 0.475845,1.6652 z m -0.951652,0.2361 c 0,0.5951 -0.237895,1.3089 -0.594781,1.9035 0.237894,-0.4777 0.237894,-0.9515 0.237894,-1.5467 0,-0.4777 0,-0.9514 -0.237894,-1.4274 -0.237895,-0.4777 -0.475846,-0.8324 -0.832699,-1.0707 0.35687,0.1181 0.832699,0.3597 1.07061,0.8329 0.237895,0.3541 0.35687,0.7138 0.35687,1.3084 z m -1.07061,1.0706 c 0,0.3597 0,0.7137 -0.118976,1.0706 0,0.4777 -0.237894,0.7137 -0.475845,0.7137 -0.118976,0 -0.237895,-0.118 -0.475846,-0.236 -0.237894,-0.2361 -0.832698,-0.4777 -1.665234,-0.4777 -0.594782,-0.118 -1.308522,-0.2361 -1.784351,-0.2361 -0.118975,0 -0.237894,0.1181 -0.237894,0.3541 0,0.118 0.118975,0.236 0.118975,0.3541 0.118976,0.118 0.118976,0.236 0.118976,0.354 0,0 0,0.118 0.118975,0.2361 0.118975,0.118 0.237895,0.118 0.237895,0.236 0,0 0,0 -0.118976,0 l 0,0.118 c 0,0 0.118976,0.118 0.118976,0.2361 0.118975,0.118 0.118975,0.236 0.118975,0.236 0,0 0,0.118 0,0.118 0,0.118 -0.118975,0.118 -0.118975,0.118 0,0 0.118975,0.1181 0.118975,0.1181 l 0.118976,0.118 c 0,0.118 -0.118976,0.118 -0.237895,0.118 -0.475846,0 -0.71374,-0.118 -0.951652,-0.3597 0,-0.118 -0.118975,-0.354 -0.237895,-0.8323 -0.118975,-0.8329 -0.475845,-1.3089 -0.832704,-1.3089 l -0.118975,0 0,0 c -0.475846,0 -0.713741,-0.3541 -0.713741,-1.1892 0,-0.5951 0.237895,-0.8329 0.713741,-1.0706 0.237894,-0.118 0.594781,-0.236 1.07061,-0.4777 0.594782,-0.236 1.07061,-0.5946 1.78435,-1.0706 0.475846,-0.3541 0.951495,-0.7137 1.189406,-1.0706 0.118976,-0.4777 0.237895,-0.7138 0.594782,-0.7138 0.35687,0 0.71374,0.3541 1.07061,1.1898 0.237895,0.4777 0.35687,1.0706 0.475846,1.6652 0.118975,0.5946 0.118975,1.0706 0.118975,1.6652 z m -6.780375,1.0706 c -0.35687,0 -0.594781,0 -0.832693,-0.118 -0.237894,-0.1181 -0.35687,-0.3541 -0.35687,-0.7138 0,-0.354 0.118976,-0.5946 0.35687,-0.8323 0,0 0.237895,-0.118 0.71374,-0.3541 -0.237894,0.2361 -0.35687,0.4777 -0.35687,0.9515 0,0.4777 0.237895,0.8329 0.475846,1.0706 z m 5.471853,-1.5461 c 0,-0.354 -0.118975,-0.7137 -0.237895,-1.0706 -0.118975,-0.354 -0.35687,-0.5951 -0.594787,-0.8329 0.118976,1.4275 0.35687,2.379 0.594787,2.9741 0.118976,-0.354 0.237895,-0.5951 0.237895,-1.0706 z m 0,1.6652 c -0.35687,-0.4777 -0.594787,-1.0706 -0.832699,-1.9035 -0.118975,-0.7137 -0.237894,-1.3083 -0.237894,-2.022 l 0.118975,-0.5946 c -0.356701,0.354 -0.713583,0.5946 -1.070453,0.9514 l -1.189569,0.5946 c -0.475845,0.3541 -0.594781,0.7138 -0.594781,1.0706 0,0.3541 0,0.5952 0.118975,0.8329 0.118976,0.2361 0.35687,0.4777 0.71374,0.4777 0,0 0.118976,0 0.475846,0.118 0.951652,0 1.784187,0.1181 2.497927,0.4777 z m -5.828723,-0.354 c -0.118975,-0.3541 -0.237894,-0.7138 -0.237894,-0.9515 0,-0.118 0,-0.236 0.118975,-0.3541 l -0.118975,0 c -0.118976,0.1181 -0.118976,0.3541 -0.118976,0.5946 0,0.1181 0.118976,0.3541 0.237895,0.7138 l 0.118975,0 z m -0.237894,0 c -0.237895,-0.3541 -0.237895,-0.5946 -0.237895,-0.7138 0,-0.118 0,-0.236 0,-0.4777 l -0.118975,0.118 c 0,0.1181 -0.118976,0.2361 -0.118976,0.3541 0,0.118 0.118976,0.3541 0.237895,0.5946 l 0.237894,0.118 z"
       style="fill:#fefefe;fill-opacity:1;fill-rule:nonzero;stroke:none" />
    <path
       inkscape:connector-curvature="0"
       id="path4626"
       d="m 25.483524,1016.2912 3.806556,-3.8064 -3.925509,7.256 -1.070593,-2.1407 -3.925543,3.8064 4.044496,-6.8997 z"
       style="fill:#fefefe;fill-opacity:1;fill-rule:nonzero;stroke:none" />
    <path
       inkscape:connector-curvature="0"
       id="path4628"
       d="m 28.219515,1034.0156 c 0,0.4777 -0.118975,1.0706 -0.35687,1.5466 -0.237895,0.5946 -0.594782,0.9514 -1.070594,1.3083 l 0.594765,0.4777 -1.903292,0.4777 0.237895,-1.9029 0.475845,0.354 c 0.594787,-0.354 0.832699,-1.0706 0.832699,-2.0226 0,-0.9515 -0.594782,-1.9029 -1.546439,-2.4981 l 0.594787,-1.3083 c 0.71374,0.354 1.189552,0.8329 1.546422,1.4275 0.35687,0.5946 0.594782,1.3083 0.594782,2.1412 z m -4.044496,2.498 -0.71374,1.3089 c -0.59477,-0.354 -1.070594,-0.8328 -1.546422,-1.5466 -0.35687,-0.5946 -0.475846,-1.1897 -0.475846,-2.0221 0,-0.4777 0.118976,-1.0706 0.35687,-1.5466 0.237895,-0.4777 0.594782,-0.9514 0.951652,-1.3083 l -0.475845,-0.4777 1.784339,-0.4777 -0.118976,1.9029 -0.475845,-0.4777 c -0.594771,0.4777 -0.951641,1.1898 -0.951641,2.0227 0,1.1891 0.594771,2.022 1.665381,2.6166 z"
       style="fill:#fefefe;fill-opacity:1;fill-rule:nonzero;stroke:none" />
    <path
       inkscape:connector-curvature="0"
       id="path4630"
       d="m 35.000002,997.13935 c 0.71374,0 1.42748,0.71374 1.42748,1.54663 0,0.83232 -0.71374,1.42752 -1.42748,1.42752 -0.832699,0 -1.546439,-0.5952 -1.546439,-1.42752 0,-0.83289 0.71374,-1.54663 1.546439,-1.54663 z"
       style="fill:#fefefe;fill-opacity:1;fill-rule:evenodd;stroke:none" />
    <path
       inkscape:connector-curvature="0"
       id="path4632"
       d="m 29.171122,997.13935 c 0.832699,0 1.42748,0.71374 1.42748,1.54663 0,0.83232 -0.594781,1.42752 -1.42748,1.42752 -0.832648,0 -1.546389,-0.5952 -1.546389,-1.42752 0,-0.83289 0.713741,-1.54663 1.546389,-1.54663 z"
       style="fill:#fefefe;fill-opacity:1;fill-rule:evenodd;stroke:none" />
    <path
       inkscape:connector-curvature="0"
       id="path4634"
       d="m 23.34232,997.13935 c 0.832699,0 1.427481,0.71374 1.427481,1.54663 0,0.83232 -0.594782,1.42752 -1.427481,1.42752 -0.832682,0 -1.546422,-0.5952 -1.546422,-1.42752 0,-0.83289 0.71374,-1.54663 1.546422,-1.54663 z"
       style="fill:#fefefe;fill-opacity:1;fill-rule:evenodd;stroke:none" />
    <path
       inkscape:connector-curvature="0"
       id="path4636"
       d="m 46.895511,997.13935 c 0.832698,0 1.546439,0.71374 1.546439,1.54663 0,0.83232 -0.713741,1.42752 -1.546439,1.42752 -0.832699,0 -1.427481,-0.5952 -1.427481,-1.42752 0,-0.83289 0.594782,-1.54663 1.427481,-1.54663 z"
       style="fill:#fefefe;fill-opacity:1;fill-rule:evenodd;stroke:none" />
    <path
       inkscape:connector-curvature="0"
       id="path4638"
       d="m 41.066793,997.13935 c 0.832694,0 1.546434,0.71374 1.546434,1.54663 0,0.83232 -0.71374,1.42752 -1.546434,1.42752 -0.832698,0 -1.42748,-0.5952 -1.42748,-1.42752 0,-0.83289 0.594782,-1.54663 1.42748,-1.54663 z"
       style="fill:#fefefe;fill-opacity:1;fill-rule:evenodd;stroke:none" />
    <path
       inkscape:connector-curvature="0"
       id="path4640"
       d="m 32.026083,1000.5889 c 0.832698,0 1.546438,0.7138 1.546438,1.5466 0,0.8329 -0.71374,1.5467 -1.546438,1.5467 -0.832699,0 -1.427481,-0.7138 -1.427481,-1.5467 0,-0.8328 0.594782,-1.5466 1.427481,-1.5466 z"
       style="fill:#fefefe;fill-opacity:1;fill-rule:evenodd;stroke:none" />
    <path
       inkscape:connector-curvature="0"
       id="path4642"
       d="m 38.330786,1000.5889 c 0.832698,0 1.42748,0.7138 1.42748,1.5466 0,0.8329 -0.594782,1.5467 -1.42748,1.5467 -0.832693,0 -1.546434,-0.7138 -1.546434,-1.5467 0,-0.8328 0.713741,-1.5466 1.546434,-1.5466 z"
       style="fill:#fefefe;fill-opacity:1;fill-rule:evenodd;stroke:none" />
    <path
       inkscape:connector-curvature="0"
       id="path4644"
       d="m 32.026083,993.6898 c 0.832698,0 1.546438,0.71374 1.546438,1.54662 0,0.83232 -0.71374,1.42748 -1.546438,1.42748 -0.832699,0 -1.427481,-0.59516 -1.427481,-1.42748 0,-0.83288 0.594782,-1.54662 1.427481,-1.54662 z"
       style="fill:#fefefe;fill-opacity:1;fill-rule:evenodd;stroke:none" />
    <path
       inkscape:connector-curvature="0"
       id="path4646"
       d="m 38.330786,993.6898 c 0.832698,0 1.42748,0.71374 1.42748,1.54662 0,0.83232 -0.594782,1.42748 -1.42748,1.42748 -0.832693,0 -1.546434,-0.59516 -1.546434,-1.42748 0,-0.83288 0.713741,-1.54662 1.546434,-1.54662 z"
       style="fill:#fefefe;fill-opacity:1;fill-rule:evenodd;stroke:none" />
  </g>
</svg>
