<?xml version="1.0" encoding="UTF-8" standalone="no"?>
<!-- Created with Inkscape (http://www.inkscape.org/) -->

<svg
   xmlns:dc="http://purl.org/dc/elements/1.1/"
   xmlns:cc="http://creativecommons.org/ns#"
   xmlns:rdf="http://www.w3.org/1999/02/22-rdf-syntax-ns#"
   xmlns:svg="http://www.w3.org/2000/svg"
   xmlns="http://www.w3.org/2000/svg"
   xmlns:sodipodi="http://sodipodi.sourceforge.net/DTD/sodipodi-0.dtd"
   xmlns:inkscape="http://www.inkscape.org/namespaces/inkscape"
   width="70"
   height="70"
   viewBox="0 0 70.000001 70.000001"
   id="svg4748"
   version="1.1"
   inkscape:version="0.91 r13725"
   inkscape:export-filename="C:\Users\Fabian Gutierrez\Desktop\path374.png"
   inkscape:export-xdpi="90"
   inkscape:export-ydpi="90"
   sodipodi:docname="email.svg">
  <defs
     id="defs4750">
    <pattern
       y="0"
       x="0"
       height="6"
       width="6"
       patternUnits="userSpaceOnUse"
       id="EMFhbasepattern" />
    <pattern
       y="0"
       x="0"
       height="6"
       width="6"
       patternUnits="userSpaceOnUse"
       id="EMFhbasepattern-3" />
  </defs>
  <sodipodi:namedview
     id="base"
     pagecolor="#ffffff"
     bordercolor="#666666"
     borderopacity="1.0"
     inkscape:pageopacity="0.0"
     inkscape:pageshadow="2"
     inkscape:zoom="3.959798"
     inkscape:cx="14.906084"
     inkscape:cy="49.233864"
     inkscape:document-units="px"
     inkscape:current-layer="layer1"
     showgrid="false"
     units="px"
     inkscape:window-width="1280"
     inkscape:window-height="1001"
     inkscape:window-x="-8"
     inkscape:window-y="-8"
     inkscape:window-maximized="1"
     showguides="true"
     inkscape:guide-bbox="true">
    <sodipodi:guide
       position="76.140249,65.000001"
       orientation="0,1"
       id="guide5628"
       inkscape:label=""
       inkscape:color="rgb(0,0,255)" />
    <sodipodi:guide
       position="28.663079,5.0000001"
       orientation="0,1"
       id="guide5630"
       inkscape:label=""
       inkscape:color="rgb(0,0,255)" />
    <sodipodi:guide
       position="5.0000001,72.730984"
       orientation="1,0"
       id="guide5632"
       inkscape:label=""
       inkscape:color="rgb(0,0,255)" />
    <sodipodi:guide
       position="65.000001,46.593287"
       orientation="1,0"
       id="guide5634"
       inkscape:label=""
       inkscape:color="rgb(0,0,255)" />
  </sodipodi:namedview>
  <metadata
     id="metadata4753">
    <rdf:RDF>
      <cc:Work
         rdf:about="">
        <dc:format>image/svg+xml</dc:format>
        <dc:type
           rdf:resource="http://purl.org/dc/dcmitype/StillImage" />
        <dc:title></dc:title>
      </cc:Work>
    </rdf:RDF>
  </metadata>
  <g
     inkscape:label="Capa 1"
     inkscape:groupmode="layer"
     id="layer1"
     transform="translate(0,-982.36213)">
    <rect
       style="opacity:1;fill:#222d55;fill-opacity:1"
       id="rect5505"
       width="70"
       height="70"
       x="0"
       y="982.36212" />
    <path
       class="fil4"
       d="m 96.589619,1019.2634 c -0.932387,0.2193 -1.426006,1.042 -1.426006,2.139 0,3.0165 4.991037,3.8392 4.991037,-0.2195 0,-1.0968 -0.548471,-1.7002 -1.426011,-1.9195 l 4.552261,-10.6952 c 2.41324,-5.8137 6.52673,-12.50496 1.70024,-17.49598 -1.70024,-1.80994 -3.78441,-2.79719 -5.813731,-3.07148 l -2.02932,0 c -2.632634,0.32909 -5.155573,1.97449 -6.800968,4.77169 -1.700241,2.96173 -1.096929,6.088 0.164539,9.21427 l 4.607106,12.7791 c 0.438773,1.152 1.426013,3.1812 1.480853,4.4976 z"
       id="path4431"
       inkscape:connector-curvature="0"
       style="clip-rule:evenodd;fill:#f16136;fill-opacity:1;fill-rule:evenodd;image-rendering:optimizeQuality;shape-rendering:geometricPrecision;text-rendering:geometricPrecision" />
    <path
       style="clip-rule:evenodd;fill:#fefefe;fill-rule:evenodd;image-rendering:optimizeQuality;shape-rendering:geometricPrecision;text-rendering:geometricPrecision"
       inkscape:connector-curvature="0"
       id="path4801"
       d="m 52.388247,1000.5368 c -2.314264,0 -4.190695,1.8764 -4.190695,4.1907 0,2.3142 1.876431,4.1907 4.190695,4.1907 2.314265,0 4.190696,-1.8765 4.190696,-4.1907 0,-2.3143 -1.876431,-4.1907 -4.190696,-4.1907 z"
       class="fil3" />
    <polygon
       style="clip-rule:evenodd;fill:#f16136;fill-rule:evenodd;image-rendering:optimizeQuality;shape-rendering:geometricPrecision;text-rendering:geometricPrecision;fill-opacity:1"
       id="polygon4803"
       points="7273,16143 6831,16741 6768,16559 6403,16870 6779,16367 6859,16523 "
       class="fil4"
       transform="matrix(0.06254769,0,0,0.06254769,-392.82621,-22.055401)" />
    <path
       style="clip-rule:evenodd;fill:#fefefe;fill-rule:nonzero;image-rendering:optimizeQuality;shape-rendering:geometricPrecision;text-rendering:geometricPrecision"
       inkscape:connector-curvature="0"
       id="path4805"
       d="m 63.834475,1044.5704 -20.390547,-20.1404 20.390547,-21.6415 0,41.7819 z m 0,-44.0962 -21.328763,22.1419 c -2.376812,2.627 -4.878719,3.9405 -7.505722,3.9405 -2.689551,0 -5.191459,-1.3135 -7.505723,-3.9405 l -3.752862,-4.003 6.755151,-4.9413 3.940504,11.3837 24.080861,-33.33794 -22.329525,19.70254 -5.003815,-9.7575 -10.320369,13.9482 -14.6987075,-15.1366 41.2189275,0 14.698707,-12.82224 -8.506485,12.82224 10.257821,0 z m 0,46.5981 -57.6689705,0 21.8291435,-21.2037 c 2.189169,1.5011 4.503434,2.2517 7.005342,2.2517 2.43936,0 4.816172,-0.7506 7.067889,-2.2517 l 21.766596,21.2037 z m -37.278424,-22.6423 -20.3905465,20.1404 0,-41.7819 13.5103015,14.3234 -12.0091569,16.0122 14.5110639,-13.1975 4.378338,4.5034 z"
       class="fil5" />
  </g>
</svg>
