<?xml version="1.0" encoding="UTF-8" standalone="no"?>
<!-- Created with Inkscape (http://www.inkscape.org/) -->

<svg
   xmlns:dc="http://purl.org/dc/elements/1.1/"
   xmlns:cc="http://creativecommons.org/ns#"
   xmlns:rdf="http://www.w3.org/1999/02/22-rdf-syntax-ns#"
   xmlns:svg="http://www.w3.org/2000/svg"
   xmlns="http://www.w3.org/2000/svg"
   xmlns:sodipodi="http://sodipodi.sourceforge.net/DTD/sodipodi-0.dtd"
   xmlns:inkscape="http://www.inkscape.org/namespaces/inkscape"
   width="70"
   height="70"
   viewBox="0 0 70.000001 70.000001"
   id="svg4748"
   version="1.1"
   inkscape:version="0.91 r13725"
   inkscape:export-filename="C:\Users\Fabian Gutierrez\Desktop\path374.png"
   inkscape:export-xdpi="90"
   inkscape:export-ydpi="90"
   sodipodi:docname="GRUA.svg">
  <defs
     id="defs4750">
    <pattern
       y="0"
       x="0"
       height="6"
       width="6"
       patternUnits="userSpaceOnUse"
       id="EMFhbasepattern" />
    <pattern
       y="0"
       x="0"
       height="6"
       width="6"
       patternUnits="userSpaceOnUse"
       id="EMFhbasepattern-3" />
    <pattern
       y="0"
       x="0"
       height="6"
       width="6"
       patternUnits="userSpaceOnUse"
       id="EMFhbasepattern-9" />
  </defs>
  <sodipodi:namedview
     id="base"
     pagecolor="#ffffff"
     bordercolor="#666666"
     borderopacity="1.0"
     inkscape:pageopacity="0.0"
     inkscape:pageshadow="2"
     inkscape:zoom="3.959798"
     inkscape:cx="11.801344"
     inkscape:cy="18.843142"
     inkscape:document-units="px"
     inkscape:current-layer="layer1"
     showgrid="false"
     units="px"
     inkscape:window-width="1280"
     inkscape:window-height="1001"
     inkscape:window-x="-8"
     inkscape:window-y="-8"
     inkscape:window-maximized="1"
     showguides="true"
     inkscape:guide-bbox="true">
    <sodipodi:guide
       position="76.140249,65.000001"
       orientation="0,1"
       id="guide5628"
       inkscape:label=""
       inkscape:color="rgb(0,0,255)" />
    <sodipodi:guide
       position="28.663079,5.0000001"
       orientation="0,1"
       id="guide5630"
       inkscape:label=""
       inkscape:color="rgb(0,0,255)" />
    <sodipodi:guide
       position="5.0000001,72.730984"
       orientation="1,0"
       id="guide5632"
       inkscape:label=""
       inkscape:color="rgb(0,0,255)" />
    <sodipodi:guide
       position="65.000001,46.593287"
       orientation="1,0"
       id="guide5634"
       inkscape:label=""
       inkscape:color="rgb(0,0,255)" />
  </sodipodi:namedview>
  <metadata
     id="metadata4753">
    <rdf:RDF>
      <cc:Work
         rdf:about="">
        <dc:format>image/svg+xml</dc:format>
        <dc:type
           rdf:resource="http://purl.org/dc/dcmitype/StillImage" />
        <dc:title></dc:title>
      </cc:Work>
    </rdf:RDF>
  </metadata>
  <g
     inkscape:label="Capa 1"
     inkscape:groupmode="layer"
     id="layer1"
     transform="translate(0,-982.36213)">
    <rect
       style="opacity:1;fill:#222d55;fill-opacity:1"
       id="rect5505"
       width="70"
       height="70"
       x="0"
       y="982.36212" />
    <path
       class="fil4"
       d="m 96.589619,1019.2634 c -0.932387,0.2193 -1.426006,1.042 -1.426006,2.139 0,3.0165 4.991037,3.8392 4.991037,-0.2195 0,-1.0968 -0.548471,-1.7002 -1.426011,-1.9195 l 4.552261,-10.6952 c 2.41324,-5.8137 6.52673,-12.50496 1.70024,-17.49598 -1.70024,-1.80994 -3.78441,-2.79719 -5.813731,-3.07148 l -2.02932,0 c -2.632634,0.32909 -5.155573,1.97449 -6.800968,4.77169 -1.700241,2.96173 -1.096929,6.088 0.164539,9.21427 l 4.607106,12.7791 c 0.438773,1.152 1.426013,3.1812 1.480853,4.4976 z"
       id="path4431"
       inkscape:connector-curvature="0"
       style="clip-rule:evenodd;fill:#f16136;fill-opacity:1;fill-rule:evenodd;image-rendering:optimizeQuality;shape-rendering:geometricPrecision;text-rendering:geometricPrecision" />
    <g
       id="g7142"
       transform="translate(-0.02142245,2.5504686)">
      <polygon
         transform="matrix(0.04384363,0,0,0.04384363,-711.11536,386.21212)"
         style="clip-rule:evenodd;fill:#fefefe;fill-rule:evenodd;image-rendering:optimizeQuality;shape-rendering:geometricPrecision;text-rendering:geometricPrecision"
         id="polygon4322"
         points="17694,14074 17613,14075 17613,14591 17703,14592 "
         class="fil2" />
      <path
         style="clip-rule:evenodd;fill:#fefefe;fill-rule:evenodd;image-rendering:optimizeQuality;shape-rendering:geometricPrecision;text-rendering:geometricPrecision"
         inkscape:connector-curvature="0"
         id="path4324"
         d="m 45.318772,1014.4475 c -2.323712,0.3507 -3.902083,-0.3508 -5.787359,0.7015 -2.279868,1.3153 -2.849835,0.9207 -5.787358,0.9207 -4.34052,0 -20.2996,-0.087 -24.6401201,0 -0.2192181,0 -3.2444285,0.9207 -3.4636466,0.9207 l 0.087687,3.5075 3.1567412,-0.8768 42.1775715,-0.043 0.131531,-19.77348 c -6.445013,-1.62222 -4.778956,1.49078 -5.875047,14.64378 z"
         class="fil2" />
      <path
         style="clip-rule:evenodd;fill:#fefefe;fill-rule:evenodd;image-rendering:optimizeQuality;shape-rendering:geometricPrecision;text-rendering:geometricPrecision"
         inkscape:connector-curvature="0"
         id="path4326"
         d="m 25.369921,1025.7152 2.718305,0.2632 c 1.315309,-2.0607 0.306906,-3.5952 2.89368,-4.8667 -3.551334,2.8499 -2.060651,9.5579 2.630617,9.0757 4.515894,-0.4823 4.998174,-7.0151 1.44684,-9.3388 2.586774,0.9646 2.060651,2.543 3.112898,4.9982 l 22.184876,0.087 0.04384,-5.612 -24.815493,-0.088 -10.127878,-0.043 -0.08769,5.5242 z"
         class="fil2" />
      <polygon
         transform="matrix(0.04384363,0,0,0.04384363,-711.11536,386.21212)"
         style="clip-rule:evenodd;fill:#222d55;fill-opacity:1;fill-rule:evenodd;image-rendering:optimizeQuality;shape-rendering:geometricPrecision;text-rendering:geometricPrecision"
         id="polygon4328"
         points="17720,14120 17659,14120 17664,14260 17727,14260 "
         class="fil1" />
      <polygon
         transform="matrix(0.04384363,0,0,0.04384363,-711.11536,386.21212)"
         style="clip-rule:evenodd;fill:#f16136;fill-opacity:1;fill-rule:evenodd;image-rendering:optimizeQuality;shape-rendering:geometricPrecision;text-rendering:geometricPrecision"
         id="polygon4330"
         points="17695,14012 17612,14012 17611,14065 17694,14065 "
         class="fil3" />
      <path
         style="clip-rule:evenodd;fill:#f16136;fill-opacity:1;fill-rule:evenodd;image-rendering:optimizeQuality;shape-rendering:geometricPrecision;text-rendering:geometricPrecision"
         inkscape:connector-curvature="0"
         id="path4332"
         d="m 51.719942,1012.2553 1.052247,0.7893 1.052247,0.8329 0,-1.6222 0,-1.6222 -1.052247,0.7892 -1.052247,0.833 z m 2.148338,-0.8769 4.778956,0 0,1.7538 -4.778956,0 0,-1.7538 z m 6.927294,0.8769 -1.096092,0.7893 -1.052246,0.8329 0,-1.6222 0,-1.6222 1.052246,0.7892 1.096092,0.833 z"
         class="fil3" />
      <path
         class="fil2"
         d="m 44.091151,1011.2468 c -0.219218,-0.4822 -0.219218,-0.043 -0.219218,-0.7452 -0.08769,-1.0523 -0.175375,-0.088 0.13153,-1.0961 -1.227621,-1.5345 -0.876871,-2.4115 -5.042016,-3.2006 -2.279869,-0.4384 -4.033614,-0.1754 -5.831204,-1.3154 -4.077456,-2.6306 -7.628791,-3.639 -12.276216,-3.6829 -4.340519,0 -7.365729,1.0523 -10.478626,2.1045 -1.6222151,0.57 -3.5513347,1.0962 -3.9020837,3.5076 -0.5261237,3.9021 -1.9729633,1.666 -1.2714654,5.5681 l 2.2360251,0.7015 c 0.9645599,-6.8395 6.225796,-5.305 7.628791,-3.1128 0.745342,1.1837 0.613812,2.1483 0.83303,3.5513 2.762149,0.1315 15.739863,0.3946 17.142859,-0.2192 -0.83303,-5.5243 7.102668,-8.2426 8.242602,-0.7453 l 0.219218,0.9645 c 2.279868,-0.1755 1.402996,-0.9207 2.586774,-2.28 z"
         id="path4334"
         inkscape:connector-curvature="0"
         style="clip-rule:evenodd;fill:#fefefe;fill-rule:evenodd;image-rendering:optimizeQuality;shape-rendering:geometricPrecision;text-rendering:geometricPrecision" />
      <path
         class="fil1"
         d="m 11.515335,1005.1965 c 1.402996,0.57 18.677386,1.1399 20.474974,0.7891 l -0.789185,-1.0084 c -0.306905,-0.263 -0.876873,-0.6138 -1.227621,-0.7892 -5.43661,-2.7621 -16.441362,-3.0252 -18.458168,1.0085 z"
         id="path4336"
         inkscape:connector-curvature="0"
         style="clip-rule:evenodd;fill:#222d55;fill-opacity:1;fill-rule:evenodd;image-rendering:optimizeQuality;shape-rendering:geometricPrecision;text-rendering:geometricPrecision" />
      <path
         class="fil2"
         d="m 36.506204,1008.8356 c -4.559739,0.6576 -3.288272,7.8479 1.359151,6.8394 4.428207,-0.9644 3.200586,-7.4972 -1.359151,-6.8394 z"
         id="path4338"
         inkscape:connector-curvature="0"
         style="clip-rule:evenodd;fill:#fefefe;fill-rule:evenodd;image-rendering:optimizeQuality;shape-rendering:geometricPrecision;text-rendering:geometricPrecision" />
      <path
         class="fil2"
         d="m 11.383804,1008.967 c -0.263062,0 -1.31531,0 -2.2360254,0.8331 -2.3237123,2.9375 -0.2630618,6.445 3.0252094,6.0066 4.033615,-0.57 4.252833,-7.0589 -0.789184,-6.8397 z"
         id="path4340"
         inkscape:connector-curvature="0"
         style="clip-rule:evenodd;fill:#fefefe;fill-rule:evenodd;image-rendering:optimizeQuality;shape-rendering:geometricPrecision;text-rendering:geometricPrecision" />
      <path
         class="fil1"
         d="m 11.646865,1010.3701 c 1.096092,0 1.972964,0.9206 1.972964,2.0167 0,1.0961 -0.876872,2.0168 -1.972964,2.0168 -1.139934,0 -2.0168065,-0.9207 -2.0168065,-2.0168 0,-1.0961 0.8768725,-2.0167 2.0168065,-2.0167 z"
         id="path4342"
         inkscape:connector-curvature="0"
         style="clip-rule:evenodd;fill:#222d55;fill-opacity:1;fill-rule:evenodd;image-rendering:optimizeQuality;shape-rendering:geometricPrecision;text-rendering:geometricPrecision" />
      <path
         class="fil1"
         d="m 37.120014,1010.3701 c 1.09609,0 2.016807,0.9206 2.016807,2.0167 0,1.0961 -0.920717,2.0168 -2.016807,2.0168 -1.09609,0 -2.016806,-0.9207 -2.016806,-2.0168 0,-1.0961 0.920716,-2.0167 2.016806,-2.0167 z"
         id="path4344"
         inkscape:connector-curvature="0"
         style="clip-rule:evenodd;fill:#222d55;fill-opacity:1;fill-rule:evenodd;image-rendering:optimizeQuality;shape-rendering:geometricPrecision;text-rendering:geometricPrecision" />
      <path
         class="fil1"
         d="m 33.130243,1023.2162 c 1.31531,0 2.4114,1.0522 2.4114,2.3676 0,1.3152 -1.09609,2.4113 -2.4114,2.4113 -1.315307,0 -2.367555,-1.0961 -2.367555,-2.4113 0,-1.3154 1.052248,-2.3676 2.367555,-2.3676 z"
         id="path4346"
         inkscape:connector-curvature="0"
         style="clip-rule:evenodd;fill:#222d55;fill-opacity:1;fill-rule:evenodd;image-rendering:optimizeQuality;shape-rendering:geometricPrecision;text-rendering:geometricPrecision" />
    </g>
  </g>
</svg>
