<?xml version="1.0" encoding="UTF-8" standalone="no"?>
<!-- Created with Inkscape (http://www.inkscape.org/) -->

<svg
   xmlns:dc="http://purl.org/dc/elements/1.1/"
   xmlns:cc="http://creativecommons.org/ns#"
   xmlns:rdf="http://www.w3.org/1999/02/22-rdf-syntax-ns#"
   xmlns:svg="http://www.w3.org/2000/svg"
   xmlns="http://www.w3.org/2000/svg"
   xmlns:sodipodi="http://sodipodi.sourceforge.net/DTD/sodipodi-0.dtd"
   xmlns:inkscape="http://www.inkscape.org/namespaces/inkscape"
   width="70"
   height="70"
   viewBox="0 0 70.000001 70.000001"
   id="svg4748"
   version="1.1"
   inkscape:version="0.91 r13725"
   inkscape:export-filename="C:\Users\Fabian Gutierrez\Desktop\path374.png"
   inkscape:export-xdpi="90"
   inkscape:export-ydpi="90"
   sodipodi:docname="grua.svg">
  <defs
     id="defs4750">
    <pattern
       y="0"
       x="0"
       height="6"
       width="6"
       patternUnits="userSpaceOnUse"
       id="EMFhbasepattern" />
    <pattern
       y="0"
       x="0"
       height="6"
       width="6"
       patternUnits="userSpaceOnUse"
       id="EMFhbasepattern-3" />
  </defs>
  <sodipodi:namedview
     id="base"
     pagecolor="#ffffff"
     bordercolor="#666666"
     borderopacity="1.0"
     inkscape:pageopacity="0.0"
     inkscape:pageshadow="2"
     inkscape:zoom="3.959798"
     inkscape:cx="14.906084"
     inkscape:cy="49.233864"
     inkscape:document-units="px"
     inkscape:current-layer="layer1"
     showgrid="false"
     units="px"
     inkscape:window-width="1280"
     inkscape:window-height="1001"
     inkscape:window-x="-8"
     inkscape:window-y="-8"
     inkscape:window-maximized="1"
     showguides="true"
     inkscape:guide-bbox="true">
    <sodipodi:guide
       position="76.140249,65.000001"
       orientation="0,1"
       id="guide5628"
       inkscape:label=""
       inkscape:color="rgb(0,0,255)" />
    <sodipodi:guide
       position="28.663079,5.0000001"
       orientation="0,1"
       id="guide5630"
       inkscape:label=""
       inkscape:color="rgb(0,0,255)" />
    <sodipodi:guide
       position="5.0000001,72.730984"
       orientation="1,0"
       id="guide5632"
       inkscape:label=""
       inkscape:color="rgb(0,0,255)" />
    <sodipodi:guide
       position="65.000001,46.593287"
       orientation="1,0"
       id="guide5634"
       inkscape:label=""
       inkscape:color="rgb(0,0,255)" />
  </sodipodi:namedview>
  <metadata
     id="metadata4753">
    <rdf:RDF>
      <cc:Work
         rdf:about="">
        <dc:format>image/svg+xml</dc:format>
        <dc:type
           rdf:resource="http://purl.org/dc/dcmitype/StillImage" />
        <dc:title></dc:title>
      </cc:Work>
    </rdf:RDF>
  </metadata>
  <g
     inkscape:label="Capa 1"
     inkscape:groupmode="layer"
     id="layer1"
     transform="translate(0,-982.36213)">
    <rect
       style="opacity:1;fill:#222d55;fill-opacity:1"
       id="rect5505"
       width="70"
       height="70"
       x="0"
       y="982.36212" />
    <path
       class="fil4"
       d="m 96.589619,1019.2634 c -0.932387,0.2193 -1.426006,1.042 -1.426006,2.139 0,3.0165 4.991037,3.8392 4.991037,-0.2195 0,-1.0968 -0.548471,-1.7002 -1.426011,-1.9195 l 4.552261,-10.6952 c 2.41324,-5.8137 6.52673,-12.50496 1.70024,-17.49598 -1.70024,-1.80994 -3.78441,-2.79719 -5.813731,-3.07148 l -2.02932,0 c -2.632634,0.32909 -5.155573,1.97449 -6.800968,4.77169 -1.700241,2.96173 -1.096929,6.088 0.164539,9.21427 l 4.607106,12.7791 c 0.438773,1.152 1.426013,3.1812 1.480853,4.4976 z"
       id="path4431"
       inkscape:connector-curvature="0"
       style="clip-rule:evenodd;fill:#f16136;fill-opacity:1;fill-rule:evenodd;image-rendering:optimizeQuality;shape-rendering:geometricPrecision;text-rendering:geometricPrecision" />
    <g
       id="g4449"
       transform="translate(-0.00796675,1.5485161)">
      <path
         style="clip-rule:evenodd;fill:#fefefe;fill-rule:evenodd;image-rendering:optimizeQuality;shape-rendering:geometricPrecision;text-rendering:geometricPrecision"
         inkscape:connector-curvature="0"
         id="path4741"
         d="m 9.5040854,997.10292 c 0,0.79414 1.3078906,2.10204 1.9618366,2.75604 0.513815,0.51374 2.055258,1.86834 2.055258,2.61574 l 0,10.0895 c 0,3.1762 -2.989465,3.5033 -3.9703844,1.8218 -0.6072353,-1.1212 0.2335529,-1.0278 -0.9809178,-1.3547 -1.1210501,2.7091 4.2973552,4.8579 5.4651162,1.2144 0.420394,-1.4948 0.186842,-8.9684 0.186842,-11.3038 0.373683,0.2802 10.743392,11.2571 10.743392,11.9578 l 0,4.6711 -18.030215,0 c -1.1210489,0 -1.8684165,0.7473 -1.8684165,1.8684 l 0,6.2125 c 0.2802632,2.3823 1.6815752,1.9619 7.5203755,1.9619 0,7.2867 8.501292,9.6222 12.658518,5.4649 1.728285,-1.7282 2.288811,-3.0361 2.288811,-5.4649 l 17.329559,0 c 0.186842,2.4755 0.887498,3.9703 2.33552,5.3716 l 1.774996,1.2612 c 5.324987,2.6157 11.070372,-1.0278 11.070372,-6.6328 2.849325,0 4.904589,0.5137 4.904589,-1.635 l 0,-13.0789 c 0,-1.0276 -4.250647,-7.0066 -5.091441,-8.2677 -0.934207,-1.4014 -1.728281,-2.6159 -2.709199,-4.0639 -0.467105,-0.7006 -0.840787,-1.3079 -1.307892,-1.9618 -0.513815,-0.79414 -1.027628,-1.16774 -2.335519,-1.16774 l -11.724313,0 c -0.840786,0 -1.868416,0.65384 -1.868416,1.40134 l 0,18.7309 -2.33552,0 c 0,-9.7626 1.494733,-6.4461 -8.874977,-13.8264 -4.203936,-2.9427 -11.303917,-7.56704 -14.807197,-10.22958 -1.728286,-1.30785 -2.2421,-1.40127 -3.409858,0 -0.280264,0.32696 -0.9809196,1.12111 -0.9809196,1.5881 z m 33.6314906,5.69878 11.303917,0 7.193403,11.117 -18.49732,0 0,-11.117 z"
         class="fil3" />
      <path
         style="clip-rule:evenodd;fill:#f16136;fill-opacity:1;fill-rule:evenodd;image-rendering:optimizeQuality;shape-rendering:geometricPrecision;text-rendering:geometricPrecision"
         inkscape:connector-curvature="0"
         id="path4743"
         d="m 19.827083,1026.1102 c 2.242099,0 4.063806,1.8217 4.063806,4.0639 0,2.2887 -1.821707,4.1105 -4.063806,4.1105 -2.242099,0 -4.063804,-1.8218 -4.063804,-4.1105 0,-2.2422 1.821705,-4.0639 4.063804,-4.0639 z"
         class="fil4" />
      <path
         style="clip-rule:evenodd;fill:#f16136;fill-opacity:1;fill-rule:evenodd;image-rendering:optimizeQuality;shape-rendering:geometricPrecision;text-rendering:geometricPrecision"
         inkscape:connector-curvature="0"
         id="path4745"
         d="m 52.524366,1026.1102 c 2.242099,0 4.063805,1.8217 4.063805,4.0639 0,2.2887 -1.821706,4.1105 -4.063805,4.1105 -2.288809,0 -4.110515,-1.8218 -4.110515,-4.1105 0,-2.2422 1.821706,-4.0639 4.110515,-4.0639 z"
         class="fil4" />
    </g>
  </g>
</svg>
