<?xml version="1.0" encoding="UTF-8" standalone="no"?>
<!-- Created with Inkscape (http://www.inkscape.org/) -->

<svg
   xmlns:dc="http://purl.org/dc/elements/1.1/"
   xmlns:cc="http://creativecommons.org/ns#"
   xmlns:rdf="http://www.w3.org/1999/02/22-rdf-syntax-ns#"
   xmlns:svg="http://www.w3.org/2000/svg"
   xmlns="http://www.w3.org/2000/svg"
   xmlns:sodipodi="http://sodipodi.sourceforge.net/DTD/sodipodi-0.dtd"
   xmlns:inkscape="http://www.inkscape.org/namespaces/inkscape"
   width="70"
   height="70"
   viewBox="0 0 70.000001 70.000001"
   id="svg4748"
   version="1.1"
   inkscape:version="0.91 r13725"
   inkscape:export-filename="C:\Users\Fabian Gutierrez\Desktop\path374.png"
   inkscape:export-xdpi="90"
   inkscape:export-ydpi="90"
   sodipodi:docname="manos-libres.svg">
  <defs
     id="defs4750" />
  <sodipodi:namedview
     id="base"
     pagecolor="#ffffff"
     bordercolor="#666666"
     borderopacity="1.0"
     inkscape:pageopacity="0.0"
     inkscape:pageshadow="2"
     inkscape:zoom="3.959798"
     inkscape:cx="37.573015"
     inkscape:cy="-4.2061394"
     inkscape:document-units="px"
     inkscape:current-layer="layer1"
     showgrid="false"
     units="px"
     inkscape:window-width="1280"
     inkscape:window-height="971"
     inkscape:window-x="-8"
     inkscape:window-y="-8"
     inkscape:window-maximized="1"
     showguides="true"
     inkscape:guide-bbox="true">
    <sodipodi:guide
       position="76.140249,65.000001"
       orientation="0,1"
       id="guide5628"
       inkscape:label=""
       inkscape:color="rgb(0,0,255)" />
    <sodipodi:guide
       position="28.663079,5.0000001"
       orientation="0,1"
       id="guide5630"
       inkscape:label=""
       inkscape:color="rgb(0,0,255)" />
    <sodipodi:guide
       position="5.0000001,72.730984"
       orientation="1,0"
       id="guide5632"
       inkscape:label=""
       inkscape:color="rgb(0,0,255)" />
    <sodipodi:guide
       position="65.000001,46.593287"
       orientation="1,0"
       id="guide5634"
       inkscape:label=""
       inkscape:color="rgb(0,0,255)" />
  </sodipodi:namedview>
  <metadata
     id="metadata4753">
    <rdf:RDF>
      <cc:Work
         rdf:about="">
        <dc:format>image/svg+xml</dc:format>
        <dc:type
           rdf:resource="http://purl.org/dc/dcmitype/StillImage" />
        <dc:title></dc:title>
      </cc:Work>
    </rdf:RDF>
  </metadata>
  <g
     inkscape:label="Capa 1"
     inkscape:groupmode="layer"
     id="layer1"
     transform="translate(0,-982.36213)">
    <rect
       style="opacity:1;fill:#222d55;fill-opacity:1"
       id="rect5505"
       width="70"
       height="70"
       x="0"
       y="982.36212" />
    <path
       style="clip-rule:evenodd;fill:#f16136;fill-opacity:1;fill-rule:evenodd;image-rendering:optimizeQuality;shape-rendering:geometricPrecision;text-rendering:geometricPrecision"
       inkscape:connector-curvature="0"
       id="path380"
       d="m -37.393981,1004.1809 c 0,2.0508 1.019736,4.3579 1.912005,5.5756 1.529605,1.9866 2.103207,2.1789 4.270146,3.3965 0,-5.3191 -1.338404,-12.4328 4.015212,-12.5609 4.461346,-0.1923 3.951478,4.6783 4.333879,7.8826 0.127467,1.1536 0.382401,2.6917 0.382401,4.0375 0.573602,-0.1923 1.465871,-0.8972 1.97574,-1.2818 0.637335,-0.5126 1.083469,-1.2176 1.529604,-1.8585 3.186676,-4.486 1.657072,-11.53555 -3.44161,-14.41944 -1.147203,-0.64087 -2.485607,-1.02539 -3.824011,-1.15356 l -2.16694,0 c -2.485607,0.25635 -4.907481,1.34582 -6.500819,3.3325 -0.446135,0.57678 -0.573602,0.57678 -0.956003,1.28173 -1.019736,1.92257 -1.529604,3.39657 -1.529604,5.76777 z"
       class="fil5" />
    <path
       class="fil4"
       d="m 9.0210415,1011.9398 c -2.633218,0.6422 -3.7250421,3.4682 -3.9819411,6.6794 l 0,3.5325 c 0.1926742,2.5689 0.706474,5.0093 1.2844966,6.3581 1.7340716,4.3674 3.4681436,4.303 6.679388,4.0461 10.725551,-0.8348 8.991479,0.063 7.963881,-13.2944 -0.128457,-1.6056 -0.321123,-3.4681 -0.513797,-5.1381 -0.38535,-3.9176 -4.174618,-2.6331 -5.137991,-2.6331 0,-8.2209 8.477682,-16.6343 16.634241,-16.6343 5.202214,0 9.633731,1.5414 13.230323,5.07377 2.697444,2.76163 5.202213,7.51433 5.266438,11.56053 -5.073764,-0.4497 -4.945314,-0.7066 -5.587564,8.4134 -0.192674,1.9909 -1.156046,8.8631 -0.578022,10.4045 0.642247,1.5412 2.055195,1.7339 4.110391,1.7983 5.266439,0.1286 6.936285,1.6697 9.376829,-0.8993 0.834924,-0.8348 1.798296,-2.7616 2.055198,-4.0462 1.669846,1.9268 0.834923,3.6609 -0.192677,5.9088 -2.697442,5.5233 -1.862521,7.2574 -9.37683,7.2574 -1.027597,0 -0.706472,-1.6698 -2.568994,-1.6698 l -7.514309,0 c -0.706472,0 -1.862521,1.2203 -1.862521,1.8624 0,6.6794 -0.2569,5.6518 9.37683,5.6518 1.091823,0 1.734071,-0.578 1.862522,-1.6698 2.697443,0 4.688415,0.1928 6.74361,-0.4497 1.798296,-0.5779 3.275467,-1.734 4.367292,-3.211 1.091822,-1.4132 1.734071,-3.2755 2.440543,-5.0097 1.477173,-3.2113 1.862521,-3.4681 1.862521,-7.0004 0,-2.6334 -2.183644,-5.7804 -4.174615,-6.3583 0,-2.8258 -0.06422,-8.2207 -2.63322,-9.9549 -0.706474,-0.4495 -0.642249,-0.1927 -1.348723,-0.578 0,-7.5785 -4.046166,-14.19367 -9.826402,-18.75355 -0.834924,-0.64237 -2.568995,-1.73408 -3.596593,-2.24795 -6.743613,-3.08281 -14.129472,-3.40399 -20.808857,-0.0634 -2.312095,1.15606 -4.88109,2.9543 -6.74361,4.75255 -3.981943,3.98206 -6.8078375,10.276 -6.8078375,16.3132 z"
       id="path391"
       inkscape:connector-curvature="0"
       style="clip-rule:evenodd;fill:#fefefe;fill-rule:evenodd;image-rendering:optimizeQuality;shape-rendering:geometricPrecision;text-rendering:geometricPrecision" />
  </g>
</svg>
