<?xml version="1.0" encoding="UTF-8" standalone="no"?>
<!-- Created with Inkscape (http://www.inkscape.org/) -->

<svg
   xmlns:dc="http://purl.org/dc/elements/1.1/"
   xmlns:cc="http://creativecommons.org/ns#"
   xmlns:rdf="http://www.w3.org/1999/02/22-rdf-syntax-ns#"
   xmlns:svg="http://www.w3.org/2000/svg"
   xmlns="http://www.w3.org/2000/svg"
   xmlns:sodipodi="http://sodipodi.sourceforge.net/DTD/sodipodi-0.dtd"
   xmlns:inkscape="http://www.inkscape.org/namespaces/inkscape"
   width="70"
   height="70"
   viewBox="0 0 70.000001 70.000001"
   id="svg4748"
   version="1.1"
   inkscape:version="0.91 r13725"
   inkscape:export-filename="C:\Users\Fabian Gutierrez\Desktop\path374.png"
   inkscape:export-xdpi="90"
   inkscape:export-ydpi="90"
   sodipodi:docname="moto.svg">
  <defs
     id="defs4750">
    <pattern
       y="0"
       x="0"
       height="6"
       width="6"
       patternUnits="userSpaceOnUse"
       id="EMFhbasepattern" />
    <pattern
       y="0"
       x="0"
       height="6"
       width="6"
       patternUnits="userSpaceOnUse"
       id="EMFhbasepattern-3" />
    <pattern
       y="0"
       x="0"
       height="6"
       width="6"
       patternUnits="userSpaceOnUse"
       id="EMFhbasepattern-9" />
  </defs>
  <sodipodi:namedview
     id="base"
     pagecolor="#ffffff"
     bordercolor="#666666"
     borderopacity="1.0"
     inkscape:pageopacity="0.0"
     inkscape:pageshadow="2"
     inkscape:zoom="5.6"
     inkscape:cx="16.900439"
     inkscape:cy="28.182607"
     inkscape:document-units="px"
     inkscape:current-layer="layer1"
     showgrid="false"
     units="px"
     inkscape:window-width="1280"
     inkscape:window-height="1001"
     inkscape:window-x="-8"
     inkscape:window-y="-8"
     inkscape:window-maximized="1"
     showguides="true"
     inkscape:guide-bbox="true">
    <sodipodi:guide
       position="76.140249,65.000001"
       orientation="0,1"
       id="guide5628"
       inkscape:label=""
       inkscape:color="rgb(0,0,255)" />
    <sodipodi:guide
       position="28.663079,5.0000001"
       orientation="0,1"
       id="guide5630"
       inkscape:label=""
       inkscape:color="rgb(0,0,255)" />
    <sodipodi:guide
       position="5.0000001,72.730984"
       orientation="1,0"
       id="guide5632"
       inkscape:label=""
       inkscape:color="rgb(0,0,255)" />
    <sodipodi:guide
       position="65.000001,46.593287"
       orientation="1,0"
       id="guide5634"
       inkscape:label=""
       inkscape:color="rgb(0,0,255)" />
  </sodipodi:namedview>
  <metadata
     id="metadata4753">
    <rdf:RDF>
      <cc:Work
         rdf:about="">
        <dc:format>image/svg+xml</dc:format>
        <dc:type
           rdf:resource="http://purl.org/dc/dcmitype/StillImage" />
        <dc:title></dc:title>
      </cc:Work>
    </rdf:RDF>
  </metadata>
  <g
     inkscape:label="Capa 1"
     inkscape:groupmode="layer"
     id="layer1"
     transform="translate(0,-982.36213)">
    <rect
       style="opacity:1;fill:#222d55;fill-opacity:1"
       id="rect5505"
       width="70"
       height="70"
       x="0"
       y="982.36212" />
    <path
       class="fil4"
       d="m 96.589619,1019.2634 c -0.932387,0.2193 -1.426006,1.042 -1.426006,2.139 0,3.0165 4.991037,3.8392 4.991037,-0.2195 0,-1.0968 -0.548471,-1.7002 -1.426011,-1.9195 l 4.552261,-10.6952 c 2.41324,-5.8137 6.52673,-12.50496 1.70024,-17.49598 -1.70024,-1.80994 -3.78441,-2.79719 -5.813731,-3.07148 l -2.02932,0 c -2.632634,0.32909 -5.155573,1.97449 -6.800968,4.77169 -1.700241,2.96173 -1.096929,6.088 0.164539,9.21427 l 4.607106,12.7791 c 0.438773,1.152 1.426013,3.1812 1.480853,4.4976 z"
       id="path4431"
       inkscape:connector-curvature="0"
       style="clip-rule:evenodd;fill:#f16136;fill-opacity:1;fill-rule:evenodd;image-rendering:optimizeQuality;shape-rendering:geometricPrecision;text-rendering:geometricPrecision" />
    <g
       id="g4601"
       transform="translate(0.35716477,-1.0713759)">
      <path
         style="clip-rule:evenodd;fill:#fefefe;fill-rule:nonzero;image-rendering:optimizeQuality;shape-rendering:geometricPrecision;text-rendering:geometricPrecision"
         inkscape:connector-curvature="0"
         id="path4875"
         d="m 39.831771,1014.5062 c -0.90449,0.238 -2.047005,0.6664 -3.427542,1.3329 l 1.761375,1.4282 c -3.522752,0.4284 -6.236223,0.6188 -8.140412,0.5236 -2.380238,-0.1429 -3.90359,-0.2857 -4.474848,-0.4285 -1.666167,-0.4284 -2.475447,-1.3329 -2.475447,-2.7133 0,-1.3331 1.237724,-3.142 3.713171,-5.4746 l 3.665566,-3.4276 c 0,-0.3331 -0.999699,-0.714 -3.094308,-1.0949 -0.714072,-0.095 -1.713772,-0.1428 -2.999101,-0.047 -0.09521,-1.3329 -0.142814,-2.3802 -0.142814,-3.142 0.142814,-4.42712 2.094609,-6.71216 5.855386,-6.80742 1.618561,-0.047 2.951494,0.33319 4.046404,1.19008 1.190118,0.95215 1.761375,2.28505 1.761375,3.99883 0,2.52311 -1.094909,3.99881 -3.332333,4.37971 l 0.333234,0.4285 1.856584,-0.8094 c 0.19042,-0.095 0.428444,-0.1428 0.714072,-0.1428 1.570957,0 3.379937,1.1425 5.522152,3.3799 1.9994,2.1899 2.951495,3.9512 2.951495,5.2841 0,0.5713 -0.523653,1.0473 -1.666166,1.4758 -0.761677,0.238 -1.618563,0.4284 -2.427843,0.6665 z m 22.993094,18.3278 c 0.142815,0.7617 0.190416,1.4757 0.190416,2.2374 0,2.285 -0.618862,4.1892 -1.904185,5.7126 -1.285329,1.571 -2.856285,2.3326 -4.760476,2.3326 -2.570657,0 -4.855684,-0.7616 -6.80748,-2.2374 -1.71377,-1.2853 -2.80868,-2.8563 -3.284728,-4.6653 0.0476,0.5237 0.0476,0.8569 0,1.095 -0.142814,1.2376 -2.761076,2.3801 -7.759574,3.4275 -4.046405,0.8092 -7.949995,1.0473 -11.61556,0.6664 0.618862,0 0.952094,-1.1425 0.952094,-3.3323 0,-1.6185 -0.190418,-3.0942 -0.523651,-4.4748 -0.666467,-2.8088 -2.094611,-6.1411 -4.18922,-9.8542 -1.190118,-0.1905 -2.903889,-0.4761 -5.188917,-0.9521 -1.190119,-0.3332 -2.332632,-0.6665 -3.475147,-0.9997 -1.570957,-0.4285 -3.141914,-0.6188 -4.8556848,-0.6188 -1.2853286,0 -2.2850291,0.3807 -2.856285,1.2376 -0.2380247,-0.6664 -0.333234,-1.1901 -0.2856294,-1.6185 0.142814,-3.5704 2.4278431,-7.1407 6.7598752,-10.6635 1.761377,-1.3804 3.808381,-2.5707 6.141013,-3.5702 2.142214,-0.9046 3.80838,-1.3806 5.046104,-1.4282 3.189519,-0.095 4.760475,0.1428 4.760475,0.7141 0,0.047 -1.142513,1.1424 -3.427542,3.2846 -2.285028,2.1899 -3.475147,3.9988 -3.475147,5.427 0,2.6182 2.570657,3.9511 7.616761,3.9987 3.427542,0.047 6.426642,-0.1428 8.949693,-0.5711 0.618862,0.5711 1.190119,1.2376 1.761377,1.9992 1.380538,1.8091 2.523052,3.8085 3.522751,5.9983 0.761676,1.6662 1.285329,3.5704 1.666168,5.5698 0,-0.8093 -0.09522,-1.6662 -0.28563,-2.4754 -0.333232,-2.0471 -0.952094,-3.9513 -1.80898,-5.7602 -1.90419,-3.9988 -3.760776,-6.4743 -5.617362,-7.4264 2.713471,-1.0948 4.760476,-1.6661 6.236224,-1.6661 0.333233,0 0.618861,0.047 0.856886,0.095 0.523652,0.1428 1.237723,1.2376 2.047004,3.2847 0.809281,1.8566 1.380538,3.8084 1.80898,5.8078 0.285629,1.9994 0.809282,5.2842 1.570958,9.759 0.238023,1.2853 0.856885,2.4278 1.951795,3.3323 1.047304,0.9521 2.189818,1.4282 3.332333,1.4282 1.999398,0 2.951494,-1.1901 2.951494,-3.618 0,-1.6185 -0.523653,-3.0944 -1.570956,-4.332 -1.09491,-1.3806 -2.475448,-2.047 -4.094009,-2.047 -1.380538,0 -2.237425,0.6188 -2.570657,1.8566 -0.19042,-1.2378 -0.523653,-3.2372 -0.952096,-5.9982 -0.476047,-2.3803 -1.237723,-4.9033 -2.380237,-7.5215 2.332632,-0.5237 4.760475,-0.8094 7.188317,-0.8094 3.09431,0 4.760475,0.7141 4.9985,2.0947 0.0476,0.4284 0,1.0948 -0.19042,1.9517 l -4.950894,1.4282 4.427243,-0.6666 c 0.666466,-0.095 1.094908,0.3334 1.285328,1.2378 0.142814,0.8569 -0.238024,1.3329 -1.142514,1.4757 l -8.140413,1.1903 0.0476,0.6188 2.665867,-0.476 c 2.237423,0 4.141613,0.714 5.855385,2.1421 1.80898,1.5234 2.951492,3.6656 3.522753,6.3791 z m -35.989192,0.6188 c 0.333233,1.3329 0.476048,2.7611 0.476048,4.2845 0,2.0945 -0.285629,3.1419 -0.904491,3.1419 -0.523653,0 -1.142514,-0.1428 -1.761375,-0.4761 -1.19012,3.0467 -3.475149,4.5701 -6.80748,4.5701 -2.761076,0 -5.426942,-1.095 -7.9975995,-3.2848 -2.5706571,-2.1897 -4.2368229,-4.8557 -4.9508941,-7.9499 -0.2380233,-1.095 -0.3808387,-2.1423 -0.3808387,-3.1895 0,-3.142 0.9997006,-5.427 2.9991004,-6.9503 l -0.3808387,-0.7141 c 0.6664666,-0.8568 1.6185625,-1.2853 2.8562851,-1.2853 1.5709575,0 3.1419145,0.1904 4.6176615,0.5713 1.09491,0.3332 2.189818,0.6664 3.332333,0.9997 0.999699,0.2379 2.618262,0.5235 4.903289,0.8569 0.571258,1.0472 1.09491,2.0469 1.618562,3.0942 1.142514,2.3803 1.951795,4.5224 2.380238,6.3314 z m 5.379337,-33.4185 c -0.714071,-0.14279 -1.999399,-0.33316 -3.855985,-0.61879 -0.999699,-0.14282 -2.094609,-0.14282 -3.284729,-0.047 -0.09521,0.476 -0.190418,1.28529 -0.285628,2.47539 0,0.5237 0.09521,1.2853 0.238024,2.2375 1.237724,0.095 2.475448,-0.047 3.760776,-0.4285 1.237724,-0.3333 2.380237,-0.9521 3.379938,-1.809 l 0.0476,-1.8089 z m 5.188918,13.2342 c 0,-0.7141 -0.238024,-1.3329 -0.618862,-1.8089 -0.428442,-0.4762 -0.952095,-0.7141 -1.523352,-0.7618 -1.190119,0 -2.189818,0.4761 -2.856285,1.4758 l 1.523352,0.095 0,0.1904 c -0.428442,-0.047 -1.142513,-0.095 -2.237423,-0.1904 -0.238024,-0.047 -0.666467,-0.1428 -1.237724,-0.238 -0.428442,-0.095 -0.809281,-0.1429 -1.142515,-0.1429 -0.523651,0 -1.190118,0.2381 -1.904189,0.7617 -0.714071,0.476 -1.09491,0.9521 -1.09491,1.4281 0,0.6188 0.333234,1.095 1.047306,1.4757 0.714071,0.3809 1.523351,0.5714 2.427841,0.5714 0.952096,0 1.666167,-0.1905 2.142214,-0.5714 0.238025,0.095 0.523653,0.143 0.952096,0.143 0.999699,0 1.951795,-0.2381 2.856285,-0.619 1.09491,-0.476 1.618561,-1.0472 1.666166,-1.809 z m -16.566454,19.4227 c -0.333233,-1.2853 -0.714072,-2.285 -1.09491,-3.0944 -0.856886,2.5231 -1.713771,3.8085 -2.523051,3.8085 -0.380839,0 -0.809281,-0.8569 -1.332934,-2.6184 -0.714071,-2.2373 -1.332933,-3.8559 -1.951795,-4.808 -2.380237,0.047 -3.617961,1.571 -3.617961,4.5701 0,2.1422 0.761676,4.0464 2.189819,5.8077 1.475747,1.8566 3.284728,2.8088 5.331733,2.8088 2.189818,0 3.284727,-1.4282 3.284727,-4.2845 0,-0.7141 -0.09521,-1.4757 -0.285628,-2.1898 z m 10.853884,-18.6134 c 0,0.5236 -0.190419,0.8092 -0.618862,0.8092 -0.380839,0 -0.523653,-0.2856 -0.523653,-0.8092 0,-0.4761 0.142814,-0.7618 0.523653,-0.7618 0.428443,0 0.618862,0.2857 0.618862,0.7618 z"
         class="fil5" />
      <polygon
         transform="matrix(0.04760475,0,0,0.04760475,-285.07068,107.73079)"
         class="fil4"
         points="7022,19139 6858,19139 6777,18997 6695,18856 6777,18714 6858,18573 7022,18573 7185,18573 7267,18714 7349,18856 7267,18997 7185,19139 "
         id="polygon4879"
         style="clip-rule:evenodd;fill:#f16136;fill-opacity:1;fill-rule:evenodd;image-rendering:optimizeQuality;shape-rendering:geometricPrecision;text-rendering:geometricPrecision" />
      <polygon
         transform="matrix(0.04760475,0,0,0.04760475,-285.07068,107.73079)"
         class="fil3"
         points="7300,18856 7161,18614 6882,18614 6743,18856 6882,19097 7161,19097 "
         id="polygon4881"
         style="clip-rule:evenodd;fill:#fefefe;fill-rule:evenodd;image-rendering:optimizeQuality;shape-rendering:geometricPrecision;text-rendering:geometricPrecision" />
      <path
         class="fil4"
         d="m 48.543408,1007.413 0,6.4742 -2.856285,0 0,-16.04279 5.141313,0 c 2.951495,0 5.331732,1.42814 5.331732,4.57009 0,2.9039 -1.90419,4.9985 -4.80808,4.9985 l -2.80868,0 z m 0,-2.7135 2.189819,0 c 1.523352,0 2.475447,-0.5237 2.475447,-2.1422 0,-1.6662 -0.952095,-2.047 -2.475447,-2.047 l -2.189819,0 0,4.1892 z"
         id="path4883"
         inkscape:connector-curvature="0"
         style="clip-rule:evenodd;fill:#f16136;fill-opacity:0.96416123;fill-rule:evenodd;image-rendering:optimizeQuality;shape-rendering:geometricPrecision;text-rendering:geometricPrecision" />
    </g>
  </g>
</svg>
