<?xml version="1.0" encoding="UTF-8" standalone="no"?>
<!-- Created with Inkscape (http://www.inkscape.org/) -->

<svg
   xmlns:dc="http://purl.org/dc/elements/1.1/"
   xmlns:cc="http://creativecommons.org/ns#"
   xmlns:rdf="http://www.w3.org/1999/02/22-rdf-syntax-ns#"
   xmlns:svg="http://www.w3.org/2000/svg"
   xmlns="http://www.w3.org/2000/svg"
   xmlns:sodipodi="http://sodipodi.sourceforge.net/DTD/sodipodi-0.dtd"
   xmlns:inkscape="http://www.inkscape.org/namespaces/inkscape"
   width="70"
   height="70"
   viewBox="0 0 70.000001 70.000001"
   id="svg4748"
   version="1.1"
   inkscape:version="0.91 r13725"
   inkscape:export-filename="C:\Users\Fabian Gutierrez\Desktop\path374.png"
   inkscape:export-xdpi="90"
   inkscape:export-ydpi="90"
   sodipodi:docname="paraguas.svg">
  <defs
     id="defs4750">
    <pattern
       y="0"
       x="0"
       height="6"
       width="6"
       patternUnits="userSpaceOnUse"
       id="EMFhbasepattern" />
    <pattern
       y="0"
       x="0"
       height="6"
       width="6"
       patternUnits="userSpaceOnUse"
       id="EMFhbasepattern-3" />
  </defs>
  <sodipodi:namedview
     id="base"
     pagecolor="#ffffff"
     bordercolor="#666666"
     borderopacity="1.0"
     inkscape:pageopacity="0.0"
     inkscape:pageshadow="2"
     inkscape:zoom="7.9195959"
     inkscape:cx="44.434429"
     inkscape:cy="31.872485"
     inkscape:document-units="px"
     inkscape:current-layer="layer1"
     showgrid="false"
     units="px"
     inkscape:window-width="1280"
     inkscape:window-height="1001"
     inkscape:window-x="-8"
     inkscape:window-y="-8"
     inkscape:window-maximized="1"
     showguides="true"
     inkscape:guide-bbox="true">
    <sodipodi:guide
       position="76.140249,65.000001"
       orientation="0,1"
       id="guide5628"
       inkscape:label=""
       inkscape:color="rgb(0,0,255)" />
    <sodipodi:guide
       position="28.663079,5.0000001"
       orientation="0,1"
       id="guide5630"
       inkscape:label=""
       inkscape:color="rgb(0,0,255)" />
    <sodipodi:guide
       position="5.0000001,72.730984"
       orientation="1,0"
       id="guide5632"
       inkscape:label=""
       inkscape:color="rgb(0,0,255)" />
    <sodipodi:guide
       position="65.000001,46.593287"
       orientation="1,0"
       id="guide5634"
       inkscape:label=""
       inkscape:color="rgb(0,0,255)" />
  </sodipodi:namedview>
  <metadata
     id="metadata4753">
    <rdf:RDF>
      <cc:Work
         rdf:about="">
        <dc:format>image/svg+xml</dc:format>
        <dc:type
           rdf:resource="http://purl.org/dc/dcmitype/StillImage" />
        <dc:title></dc:title>
      </cc:Work>
    </rdf:RDF>
  </metadata>
  <g
     inkscape:label="Capa 1"
     inkscape:groupmode="layer"
     id="layer1"
     transform="translate(0,-982.36213)">
    <rect
       style="opacity:1;fill:#222d55;fill-opacity:1"
       id="rect5505"
       width="70"
       height="70"
       x="0"
       y="982.36212" />
    <path
       class="fil4"
       d="m 96.589619,1019.2634 c -0.932387,0.2193 -1.426006,1.042 -1.426006,2.139 0,3.0165 4.991037,3.8392 4.991037,-0.2195 0,-1.0968 -0.548471,-1.7002 -1.426011,-1.9195 l 4.552261,-10.6952 c 2.41324,-5.8137 6.52673,-12.50496 1.70024,-17.49598 -1.70024,-1.80994 -3.78441,-2.79719 -5.813731,-3.07148 l -2.02932,0 c -2.632634,0.32909 -5.155573,1.97449 -6.800968,4.77169 -1.700241,2.96173 -1.096929,6.088 0.164539,9.21427 l 4.607106,12.7791 c 0.438773,1.152 1.426013,3.1812 1.480853,4.4976 z"
       id="path4431"
       inkscape:connector-curvature="0"
       style="clip-rule:evenodd;fill:#f16136;fill-opacity:1;fill-rule:evenodd;image-rendering:optimizeQuality;shape-rendering:geometricPrecision;text-rendering:geometricPrecision" />
    <path
       inkscape:connector-curvature="0"
       id="path4381"
       d="m 32.562923,995.043 c 0,1.06476 0.387254,1.74258 0.871288,2.32298 0.580859,0.58086 1.355335,0.87129 2.129812,0.96825 l 0.67767,0 c 0.580859,-0.096 1.161717,-0.28814 1.645765,-0.58086 0.67767,-0.67782 1.258528,-1.45215 1.258528,-2.71037 0,-2.61386 -2.420246,-3.58211 -3.097911,-7.35769 0,-0.28815 0,-0.38877 -0.193604,-0.4839 -0.29043,0.19209 -0.193605,0.38876 -0.29043,0.96779 -0.290429,1.25868 -0.67767,2.03301 -1.258528,3.00126 -0.774477,1.16172 -1.742576,2.4204 -1.742576,3.87254 z"
       style="fill:#f16136;fill-opacity:1;fill-rule:evenodd;stroke:none" />
    <path
       inkscape:connector-curvature="0"
       id="path4383"
       d="m 43.59911,1003.465 c 0,1.4521 0.677665,2.5174 1.936194,3.0982 1.161717,0.5809 2.710675,0.2882 3.67877,-0.5808 0.580859,-0.5809 0.871288,-1.5492 0.871288,-2.3235 0,-2.2269 -1.645765,-3.5821 -2.517053,-5.71206 -0.193604,-0.4839 -0.580859,-1.54865 -0.580859,-2.22647 l -0.290429,0 c -0.09682,1.5491 -0.774477,2.90429 -1.452147,3.96904 -0.580858,0.96829 -1.645764,2.32339 -1.645764,3.77559 z"
       style="fill:#f16136;fill-opacity:1;fill-rule:evenodd;stroke:none" />
    <path
       inkscape:connector-curvature="0"
       id="path4385"
       d="m 21.526686,1003.562 c 0,1.936 1.452133,3.1947 3.194695,3.2916 1.742563,0.096 3.388291,-1.2586 3.388291,-3.3886 0,-2.4199 -2.807432,-4.06602 -3.097861,-7.74463 l -0.387209,0 c 0,0.67782 -0.290429,1.74257 -0.484047,2.22647 -0.580859,1.54911 -2.032992,3.19476 -2.323421,4.35646 -0.09682,0.2881 -0.29043,0.9682 -0.29043,1.2587 z"
       style="fill:#f16136;fill-opacity:1;fill-rule:evenodd;stroke:none" />
    <path
       inkscape:connector-curvature="0"
       id="path4387"
       d="m 34.886358,1009.2736 c -6.195828,0.3887 -10.455392,2.5173 -14.714998,6.8733 -2.129803,2.13 -4.16279,5.8086 -4.840451,8.7129 -0.09683,0.5809 -0.387254,1.2587 -0.193604,1.9365 1.161708,-1.2587 0.09682,-0.5809 2.323421,-2.033 1.839373,-1.0652 5.324498,-0.4844 7.06706,2.3234 0.290429,0.3888 0.193604,0.5809 0.387209,0.8713 0.968099,-0.8713 0.290429,-1.4521 2.710661,-2.9043 1.839346,-1.2587 4.162781,-0.8713 5.905357,0.3888 1.936199,1.3552 1.258529,2.033 1.258529,5.9051 0.09682,0.7743 0,1.4521 0,2.13 l 0,6.099 c 0,0.7743 0.09682,1.3552 0,2.1295 0,0.6778 0.09682,1.4521 -0.09683,2.033 -0.580859,2.4203 -3.775582,2.7108 -5.227728,1.0652 -0.67767,-0.6778 -0.580859,-1.4522 -0.774477,-2.033 -0.580859,0 -0.968058,-0.096 -1.548917,0.096 0.387255,1.0648 -0.193604,0.8713 0.871247,2.5169 1.936194,3.0978 7.260733,2.3234 8.32564,-1.2586 0.484051,-1.7426 -0.193605,-17.1349 0.290429,-17.8127 1.35534,-2.13 6.486128,-3.1948 8.906374,0.6778 0.387255,0.5808 0.193605,0.5808 0.484048,1.1617 0.484047,-0.4844 1.161717,-3.3886 4.840487,-3.6791 1.839388,-0.2881 3.969204,0.4844 5.227728,2.5174 0.29043,-0.4844 0.09683,-0.2882 -0.193604,-1.5491 -0.09682,-0.5809 -0.290429,-1.0648 -0.387254,-1.6456 -0.387255,-1.0652 -0.774477,-2.13 -1.355336,-3.1948 l -1.452146,-2.3234 c -1.064906,-1.5491 -2.420246,-3.0012 -3.67877,-4.066 -6.099017,-5.0343 -11.617046,-4.6469 -12.488334,-4.9373 -0.290429,-0.7743 -0.09683,-3.5821 -0.484047,-4.2595 -0.580859,0.1921 -0.193605,-0.096 -0.871288,0.1921 0.193604,0.4839 -0.29043,3.3882 -0.29043,4.066 z"
       style="fill:#fefefe;fill-opacity:1;fill-rule:evenodd;stroke:none" />
  </g>
</svg>
