<?xml version="1.0" encoding="UTF-8" standalone="no"?>
<!-- Created with Inkscape (http://www.inkscape.org/) -->

<svg
   xmlns:dc="http://purl.org/dc/elements/1.1/"
   xmlns:cc="http://creativecommons.org/ns#"
   xmlns:rdf="http://www.w3.org/1999/02/22-rdf-syntax-ns#"
   xmlns:svg="http://www.w3.org/2000/svg"
   xmlns="http://www.w3.org/2000/svg"
   xmlns:sodipodi="http://sodipodi.sourceforge.net/DTD/sodipodi-0.dtd"
   xmlns:inkscape="http://www.inkscape.org/namespaces/inkscape"
   width="70"
   height="70"
   viewBox="0 0 70.000001 70.000001"
   id="svg4748"
   version="1.1"
   inkscape:version="0.91 r13725"
   inkscape:export-filename="C:\Users\Fabian Gutierrez\Desktop\path374.png"
   inkscape:export-xdpi="90"
   inkscape:export-ydpi="90"
   sodipodi:docname="reporte-5-min.svg">
  <defs
     id="defs4750" />
  <sodipodi:namedview
     id="base"
     pagecolor="#ffffff"
     bordercolor="#666666"
     borderopacity="1.0"
     inkscape:pageopacity="0.0"
     inkscape:pageshadow="2"
     inkscape:zoom="5.6"
     inkscape:cx="16.95036"
     inkscape:cy="25.81229"
     inkscape:document-units="px"
     inkscape:current-layer="layer1"
     showgrid="false"
     units="px"
     inkscape:window-width="1280"
     inkscape:window-height="1001"
     inkscape:window-x="-8"
     inkscape:window-y="-8"
     inkscape:window-maximized="1"
     showguides="true"
     inkscape:guide-bbox="true">
    <sodipodi:guide
       position="76.140249,65.000001"
       orientation="0,1"
       id="guide5628"
       inkscape:label=""
       inkscape:color="rgb(0,0,255)" />
    <sodipodi:guide
       position="28.663079,5.0000001"
       orientation="0,1"
       id="guide5630"
       inkscape:label=""
       inkscape:color="rgb(0,0,255)" />
    <sodipodi:guide
       position="5.0000001,72.730984"
       orientation="1,0"
       id="guide5632"
       inkscape:label=""
       inkscape:color="rgb(0,0,255)" />
    <sodipodi:guide
       position="65.000001,46.593287"
       orientation="1,0"
       id="guide5634"
       inkscape:label=""
       inkscape:color="rgb(0,0,255)" />
  </sodipodi:namedview>
  <metadata
     id="metadata4753">
    <rdf:RDF>
      <cc:Work
         rdf:about="">
        <dc:format>image/svg+xml</dc:format>
        <dc:type
           rdf:resource="http://purl.org/dc/dcmitype/StillImage" />
        <dc:title></dc:title>
      </cc:Work>
    </rdf:RDF>
  </metadata>
  <g
     inkscape:label="Capa 1"
     inkscape:groupmode="layer"
     id="layer1"
     transform="translate(0,-982.36213)">
    <rect
       style="opacity:1;fill:#222d55;fill-opacity:1"
       id="rect5505"
       width="70"
       height="70"
       x="0"
       y="982.36212" />
    <g
       id="g4191"
       transform="matrix(1.5478901,0,0,1.5478901,91.095232,-562.11015)">
      <path
         style="clip-rule:evenodd;fill:#f58634;fill-rule:evenodd;image-rendering:optimizeQuality;shape-rendering:geometricPrecision;text-rendering:geometricPrecision"
         inkscape:connector-curvature="0"
         id="path4431"
         d="m -23.561037,1021.0548 c -0.602362,0.1417 -0.92126,0.6732 -0.92126,1.3819 0,1.9488 3.22441,2.4803 3.22441,-0.1418 0,-0.7086 -0.354331,-1.0984 -0.92126,-1.2401 l 2.940944,-6.9095 c 1.559055,-3.7559 4.216535,-8.0787 1.098425,-11.3031 -1.098425,-1.1693 -2.444881,-1.8071 -3.755905,-1.9843 l -1.311023,0 c -1.700788,0.2126 -3.330709,1.2756 -4.393701,3.0827 -1.098425,1.9134 -0.708661,3.9331 0.106299,5.9528 l 2.976378,8.2558 c 0.283465,0.7442 0.92126,2.0552 0.956693,2.9056 z"
         class="fil4" />
      <path
         style="clip-rule:evenodd;fill:#fefefe;fill-rule:evenodd;image-rendering:optimizeQuality;shape-rendering:geometricPrecision;text-rendering:geometricPrecision"
         inkscape:connector-curvature="0"
         id="path4433"
         d="m -55.450801,1014.4288 0,13.4291 c 0.07087,0.7441 0.106299,0.4961 0.92126,0.4607 0.637795,-0.071 0.992126,-0.036 1.594488,-0.1063 0.637795,-0.1063 1.027559,-0.035 1.629921,-0.071 0.708662,-0.035 0.744095,-0.1772 1.559055,-0.1772 1.062993,0 2.125985,-0.071 3.22441,-0.1417 1.771653,-0.1417 2.763779,0.035 2.763779,-0.6024 l 0,-10.0276 c 0,-0.6377 -2.728346,-1.9488 -3.472441,-2.1968 -3.507874,-1.24 -5.279527,-0.8148 -8.220472,-0.5668 z"
         class="fil3" />
      <path
         style="clip-rule:evenodd;fill:#fefefe;fill-rule:evenodd;image-rendering:optimizeQuality;shape-rendering:geometricPrecision;text-rendering:geometricPrecision"
         inkscape:connector-curvature="0"
         id="path4435"
         d="m -31.568911,1023.6768 c 0.744095,0 1.062992,0.1063 1.062992,-0.4606 l 0,-11.2677 c 0,-0.4961 -0.602362,-0.5315 -1.133858,-0.7087 l -7.547244,-2.4449 c -0.566929,-0.2126 -1.02756,-0.3543 -1.48819,-0.496 -0.46063,-0.1772 -1.169291,-0.3189 -1.523622,-0.4961 0,2.1969 0,4.4291 0,6.626 0,3.1181 -0.496063,1.7362 2.019685,4.5709 2.551182,2.87 3.933072,4.6771 8.610237,4.6771 z"
         class="fil3" />
      <path
         style="clip-rule:evenodd;fill:#fefefe;fill-rule:evenodd;image-rendering:optimizeQuality;shape-rendering:geometricPrecision;text-rendering:geometricPrecision"
         inkscape:connector-curvature="0"
         id="path4437"
         d="m -29.124029,1031.3658 0,8.9291 c 0.92126,0 10.417322,-2.374 11.55118,-2.4448 l 0,-8.7874 c -1.877953,0.4252 -3.791338,0.7795 -5.740157,1.1692 -1.948818,0.3898 -3.93307,0.7087 -5.811023,1.1339 z"
         class="fil3" />
      <path
         style="clip-rule:evenodd;fill:#fefefe;fill-rule:evenodd;image-rendering:optimizeQuality;shape-rendering:geometricPrecision;text-rendering:geometricPrecision"
         inkscape:connector-curvature="0"
         id="path4439"
         d="m -42.198833,1036.6099 c 0.708662,0.071 2.267717,0.6732 2.940946,0.8858 0.992126,0.3544 1.913386,0.6733 2.870079,0.9921 l 5.881889,1.8071 0,-8.9291 c -3.862204,-0.8858 -7.866141,-1.5591 -11.692914,-2.4449 l 0,7.689 z"
         class="fil3" />
      <path
         style="clip-rule:evenodd;fill:#fefefe;fill-rule:evenodd;image-rendering:optimizeQuality;shape-rendering:geometricPrecision;text-rendering:geometricPrecision"
         inkscape:connector-curvature="0"
         id="path4441"
         d="m -55.450801,1029.8422 0,8.0079 c 2.30315,-0.071 9.177165,-1.2402 11.692913,-1.2402 l 0,-7.5472 -11.692913,0.7795 z"
         class="fil3" />
      <path
         style="clip-rule:evenodd;fill:#fefefe;fill-rule:evenodd;image-rendering:optimizeQuality;shape-rendering:geometricPrecision;text-rendering:geometricPrecision"
         inkscape:connector-curvature="0"
         id="path4443"
         d="m -42.198833,1027.5036 c 1.133858,0 10.594489,2.3031 11.692914,2.3386 l 0,-5.1024 c -4.535433,0 -6.448818,-0.2126 -9.744095,-3.9685 -0.389764,-0.4252 -0.46063,-0.6378 -0.92126,-1.063 -0.673228,-0.6732 -0.46063,-0.8149 -1.027559,-0.9567 l 0,8.752 z"
         class="fil3" />
      <path
         style="clip-rule:evenodd;fill:#fefefe;fill-rule:evenodd;image-rendering:optimizeQuality;shape-rendering:geometricPrecision;text-rendering:geometricPrecision"
         inkscape:connector-curvature="0"
         id="path4445"
         d="m -55.450801,1009.043 0,4.1456 c 2.76378,0 5.102362,-0.6378 8.503937,0.6024 1.452756,0.5315 2.940945,1.4882 3.188976,1.559 l 0,-7.5472 c -0.814961,0.035 -1.948819,0.248 -2.905511,0.3189 -0.92126,0.1063 -1.877953,0.2126 -2.905512,0.3189 l -5.88189,0.6024 z"
         class="fil3" />
      <path
         style="clip-rule:evenodd;fill:#fefefe;fill-rule:evenodd;image-rendering:optimizeQuality;shape-rendering:geometricPrecision;text-rendering:geometricPrecision"
         inkscape:connector-curvature="0"
         id="path4447"
         d="m -19.238203,1021.976 c 0,1.1693 -0.141733,1.8071 -0.637795,2.4804 -0.46063,0.6377 -0.956693,1.0984 -1.913386,1.311 -0.921259,0.2126 -1.771653,0.1417 -2.551181,-0.2481 -0.744094,-0.3897 -1.133858,-0.9566 -1.523622,-1.7007 -0.921259,0.2126 -2.303149,0.7441 -3.259842,0.7795 l 0,5.2441 c 1.311024,0 10.240156,-2.1614 11.55118,-2.1614 l 0,-6.1654 c -0.248032,0.1063 -1.311024,0.4252 -1.665354,0.4606 z"
         class="fil3" />
      <path
         style="clip-rule:evenodd;fill:#fefefe;fill-rule:evenodd;image-rendering:optimizeQuality;shape-rendering:geometricPrecision;text-rendering:geometricPrecision"
         inkscape:connector-curvature="0"
         id="path4449"
         d="m -29.124029,1023.4997 c 0.318898,-0.1418 2.515748,-0.7087 2.940945,-0.7441 0,-3.1536 1.311023,-0.815 -0.03543,-3.9685 l -2.905512,-6.2008 0,10.9134 z"
         class="fil3" />
      <path
         style="clip-rule:evenodd;fill:#fefefe;fill-rule:evenodd;image-rendering:optimizeQuality;shape-rendering:geometricPrecision;text-rendering:geometricPrecision"
         inkscape:connector-curvature="0"
         id="path4451"
         d="m -17.572849,1020.417 0,-5.6693 c -0.46063,0.5315 -2.338582,5.5984 -2.161417,5.8819 0.283464,0.496 1.311023,-0.1772 2.161417,-0.2126 z"
         class="fil3" />
      <path
         style="clip-rule:evenodd;fill:#fefefe;fill-rule:evenodd;image-rendering:optimizeQuality;shape-rendering:geometricPrecision;text-rendering:geometricPrecision"
         inkscape:connector-curvature="0"
         id="path4453"
         d="m -24.340565,1004.0469 c -1.381889,0 -2.515748,1.1339 -2.515748,2.5157 0,1.3819 1.133859,2.5158 2.515748,2.5158 1.417323,0 2.515748,-1.1339 2.515748,-2.5158 0,-1.3818 -1.098425,-2.5157 -2.515748,-2.5157 z"
         class="fil3" />
    </g>
  </g>
</svg>
