<?xml version="1.0" encoding="UTF-8" standalone="no"?>
<!-- Created with Inkscape (http://www.inkscape.org/) -->

<svg
   xmlns:dc="http://purl.org/dc/elements/1.1/"
   xmlns:cc="http://creativecommons.org/ns#"
   xmlns:rdf="http://www.w3.org/1999/02/22-rdf-syntax-ns#"
   xmlns:svg="http://www.w3.org/2000/svg"
   xmlns="http://www.w3.org/2000/svg"
   xmlns:sodipodi="http://sodipodi.sourceforge.net/DTD/sodipodi-0.dtd"
   xmlns:inkscape="http://www.inkscape.org/namespaces/inkscape"
   width="70"
   height="70"
   viewBox="0 0 70.000001 70.000001"
   id="svg4748"
   version="1.1"
   inkscape:version="0.91 r13725"
   inkscape:export-filename="C:\Users\Fabian Gutierrez\Desktop\path374.png"
   inkscape:export-xdpi="90"
   inkscape:export-ydpi="90"
   sodipodi:docname="seguro.svg">
  <defs
     id="defs4750">
    <pattern
       y="0"
       x="0"
       height="6"
       width="6"
       patternUnits="userSpaceOnUse"
       id="EMFhbasepattern" />
    <pattern
       y="0"
       x="0"
       height="6"
       width="6"
       patternUnits="userSpaceOnUse"
       id="EMFhbasepattern-3" />
    <pattern
       y="0"
       x="0"
       height="6"
       width="6"
       patternUnits="userSpaceOnUse"
       id="EMFhbasepattern-9" />
  </defs>
  <sodipodi:namedview
     id="base"
     pagecolor="#ffffff"
     bordercolor="#666666"
     borderopacity="1.0"
     inkscape:pageopacity="0.0"
     inkscape:pageshadow="2"
     inkscape:zoom="2.8"
     inkscape:cx="-26.223303"
     inkscape:cy="19.863722"
     inkscape:document-units="px"
     inkscape:current-layer="layer1"
     showgrid="false"
     units="px"
     inkscape:window-width="1280"
     inkscape:window-height="1001"
     inkscape:window-x="-8"
     inkscape:window-y="-8"
     inkscape:window-maximized="1"
     showguides="true"
     inkscape:guide-bbox="true">
    <sodipodi:guide
       position="76.140249,65.000001"
       orientation="0,1"
       id="guide5628"
       inkscape:label=""
       inkscape:color="rgb(0,0,255)" />
    <sodipodi:guide
       position="28.663079,5.0000001"
       orientation="0,1"
       id="guide5630"
       inkscape:label=""
       inkscape:color="rgb(0,0,255)" />
    <sodipodi:guide
       position="5.0000001,72.730984"
       orientation="1,0"
       id="guide5632"
       inkscape:label=""
       inkscape:color="rgb(0,0,255)" />
    <sodipodi:guide
       position="65.000001,46.593287"
       orientation="1,0"
       id="guide5634"
       inkscape:label=""
       inkscape:color="rgb(0,0,255)" />
  </sodipodi:namedview>
  <metadata
     id="metadata4753">
    <rdf:RDF>
      <cc:Work
         rdf:about="">
        <dc:format>image/svg+xml</dc:format>
        <dc:type
           rdf:resource="http://purl.org/dc/dcmitype/StillImage" />
        <dc:title></dc:title>
      </cc:Work>
    </rdf:RDF>
  </metadata>
  <g
     inkscape:label="Capa 1"
     inkscape:groupmode="layer"
     id="layer1"
     transform="translate(0,-982.36213)">
    <rect
       style="opacity:1;fill:#222d55;fill-opacity:1"
       id="rect5505"
       width="70"
       height="70"
       x="0"
       y="982.36212" />
    <path
       class="fil4"
       d="m 96.589619,1019.2634 c -0.932387,0.2193 -1.426006,1.042 -1.426006,2.139 0,3.0165 4.991037,3.8392 4.991037,-0.2195 0,-1.0968 -0.548471,-1.7002 -1.426011,-1.9195 l 4.552261,-10.6952 c 2.41324,-5.8137 6.52673,-12.50496 1.70024,-17.49598 -1.70024,-1.80994 -3.78441,-2.79719 -5.813731,-3.07148 l -2.02932,0 c -2.632634,0.32909 -5.155573,1.97449 -6.800968,4.77169 -1.700241,2.96173 -1.096929,6.088 0.164539,9.21427 l 4.607106,12.7791 c 0.438773,1.152 1.426013,3.1812 1.480853,4.4976 z"
       id="path4431"
       inkscape:connector-curvature="0"
       style="clip-rule:evenodd;fill:#f16136;fill-opacity:1;fill-rule:evenodd;image-rendering:optimizeQuality;shape-rendering:geometricPrecision;text-rendering:geometricPrecision" />
    <g
       id="g4562"
       transform="matrix(1.4547165,0,0,1.4547165,-22.67731,-454.0123)">
      <polygon
         transform="matrix(0.03543307,0,0,0.03543307,-11.446,336.82301)"
         class="fil3"
         points="862,18679 2022,18679 2022,19400 862,19400 "
         id="polygon4841"
         style="clip-rule:evenodd;fill:#fefefe;fill-rule:evenodd;image-rendering:optimizeQuality;shape-rendering:geometricPrecision;text-rendering:geometricPrecision" />
      <g
         transform="matrix(0.03543307,0,0,0.03543307,-11.446,336.82301)"
         id="g4843"
         style="clip-rule:evenodd;fill:#f16136;fill-opacity:1;fill-rule:evenodd;image-rendering:optimizeQuality;shape-rendering:geometricPrecision;text-rendering:geometricPrecision">
        <path
           class="fil4"
           d="m 932,18715 c 19,0 34,16 34,35 0,19 -15,34 -34,34 -20,0 -35,-15 -35,-34 0,-19 15,-35 35,-35 z"
           id="path4845"
           inkscape:connector-curvature="0"
           style="fill:#f16136;fill-opacity:1" />
        <path
           class="fil4"
           d="m 932,19295 c 19,0 34,16 34,35 0,19 -15,34 -34,34 -20,0 -35,-15 -35,-34 0,-19 15,-35 35,-35 z"
           id="path4847"
           inkscape:connector-curvature="0"
           style="fill:#f16136;fill-opacity:1" />
        <path
           class="fil4"
           d="m 1954,18715 c 19,0 34,16 34,35 0,19 -15,34 -34,34 -19,0 -35,-15 -35,-34 0,-19 16,-35 35,-35 z"
           id="path4849"
           inkscape:connector-curvature="0"
           style="fill:#f16136;fill-opacity:1" />
        <path
           class="fil4"
           d="m 1954,19295 c 19,0 34,16 34,35 0,19 -15,34 -34,34 -19,0 -35,-15 -35,-34 0,-19 16,-35 35,-35 z"
           id="path4851"
           inkscape:connector-curvature="0"
           style="fill:#f16136;fill-opacity:1" />
      </g>
      <path
         style="clip-rule:evenodd;fill:#373435;fill-rule:nonzero;image-rendering:optimizeQuality;shape-rendering:geometricPrecision;text-rendering:geometricPrecision"
         inkscape:connector-curvature="0"
         id="path4854"
         d="m 50.030372,1007.2875 c 0,3.9331 -0.99212,7.2284 -2.94094,9.9213 -1.84252,2.5866 -4.32283,4.2166 -7.44094,4.9607 -3.08268,-0.7441 -5.563,-2.3741 -7.44095,-4.9607 -1.94882,-2.6929 -2.90551,-5.9882 -2.90551,-9.9213 0,-1.4173 0.3189,-2.7637 0.92126,-4.0748 0.46063,-1.0275 1.02756,-1.8425 1.66535,-2.4449 1.45276,0.8859 2.87008,1.3111 4.2874,1.3111 1.38189,0 2.55119,-0.4252 3.47245,-1.2756 0.92125,0.8504 2.09055,1.2756 3.50787,1.2756 1.41732,0 2.83464,-0.4252 4.25197,-1.3111 0.67323,0.6024 1.20472,1.4174 1.70078,2.4449 0.60237,1.3111 0.92126,2.6575 0.92126,4.0748 z"
         class="fil10" />
      <path
         style="clip-rule:evenodd;fill:#f16136;fill-opacity:1;fill-rule:nonzero;image-rendering:optimizeQuality;shape-rendering:geometricPrecision;text-rendering:geometricPrecision"
         inkscape:connector-curvature="0"
         id="path4856"
         d="m 49.463452,1011.3978 c 0,2.6574 -0.99213,4.9606 -2.90552,6.8386 -1.91338,1.9134 -4.21653,2.8346 -6.87401,2.8346 -2.69292,0 -4.99606,-0.9212 -6.90945,-2.7637 -1.94882,-1.878 -2.90551,-4.1458 -2.90551,-6.8387 0,-2.6574 0.95669,-4.9606 2.90551,-6.8385 1.91339,-1.8426 4.21653,-2.7638 6.90945,-2.7638 2.65748,0 4.96063,0.9212 6.87401,2.7283 1.91339,1.878 2.90552,4.1457 2.90552,6.8032 z m -0.5315,-0.071 c 0,-2.4803 -0.92126,-4.6063 -2.76378,-6.4134 -1.84252,-1.7362 -4.00394,-2.6221 -6.48425,-2.6221 l -0.99213,2.0552 1.09843,0.2126 0.85039,-0.8504 1.48819,0.1063 0.3189,0.8149 -0.92126,0.9213 0,0.5315 0.56693,0.1063 0.28346,-0.4252 0.99213,-0.6378 -0.0354,0.4252 0.35433,0.6732 -0.4252,0.4606 0.28347,0.2481 -0.67323,0.035 0.28346,0.5669 -1.45275,0.6732 0.21259,0.815 -0.42519,0 -0.2126,-0.815 -1.06299,0 -0.17717,0.3189 -0.46063,-0.2126 -0.70866,0.7087 0.56693,0.6732 0,0.7441 0.60236,0.4252 3.43701,0.4252 1.09842,0.7441 -0.10629,1.9488 -2.40945,2.374 c -0.14174,0.1418 -0.28347,0.6024 -0.4252,1.2756 -0.14173,0.6733 -0.2126,1.1693 -0.17717,1.4528 l -0.35433,0.3897 c -0.28346,-0.5669 -0.63779,-1.4173 -1.09842,-2.5511 -0.1063,-0.3898 -0.2126,-0.9213 -0.28347,-1.5237 -0.0709,-0.496 -0.10629,-0.9921 -0.17716,-1.5236 l -1.52362,-1.311 1.34645,-1.5945 -0.56693,-0.7795 c -0.85039,-0.1772 -1.38189,-0.3543 -1.66535,-0.4961 -0.24803,-0.1417 -0.67323,-0.496 -1.31103,-1.1338 l 0.5315,1.0275 -0.35433,0.1418 -0.81496,-1.5237 0.17716,-1.4527 -0.28346,-0.9922 -0.77953,-0.7795 -0.56693,-0.1417 -0.49606,0.3543 -0.56693,0.1418 c -1.52362,1.7716 -2.26772,3.7913 -2.26772,6.059 0,2.5512 0.88583,4.7126 2.72835,6.5197 1.80709,1.7362 4.00394,2.622 6.55512,2.622 2.55118,0 4.74803,-0.8858 6.55512,-2.6929 1.80708,-1.7716 2.69291,-3.9685 2.69291,-6.5197 z"
         class="fil6" />
    </g>
  </g>
</svg>
