<?xml version="1.0" encoding="UTF-8" standalone="no"?>
<!-- Created with Inkscape (http://www.inkscape.org/) -->

<svg
   xmlns:dc="http://purl.org/dc/elements/1.1/"
   xmlns:cc="http://creativecommons.org/ns#"
   xmlns:rdf="http://www.w3.org/1999/02/22-rdf-syntax-ns#"
   xmlns:svg="http://www.w3.org/2000/svg"
   xmlns="http://www.w3.org/2000/svg"
   xmlns:sodipodi="http://sodipodi.sourceforge.net/DTD/sodipodi-0.dtd"
   xmlns:inkscape="http://www.inkscape.org/namespaces/inkscape"
   width="100"
   height="100"
   viewBox="0 0 100 100"
   id="svg2"
   version="1.1"
   inkscape:version="0.91 r13725"
   inkscape:export-filename="C:\Users\Fabian Gutierrez\Desktop\path4485.png"
   inkscape:export-xdpi="135"
   inkscape:export-ydpi="135"
   sodipodi:docname="servicio.svg">
  <defs
     id="defs4" />
  <sodipodi:namedview
     id="base"
     pagecolor="#ffffff"
     bordercolor="#666666"
     borderopacity="1.0"
     inkscape:pageopacity="0.0"
     inkscape:pageshadow="2"
     inkscape:zoom="5.6"
     inkscape:cx="44.828322"
     inkscape:cy="42.152702"
     inkscape:document-units="px"
     inkscape:current-layer="layer1"
     showgrid="false"
     units="px"
     showguides="true"
     inkscape:guide-bbox="true"
     inkscape:window-width="1280"
     inkscape:window-height="971"
     inkscape:window-x="-8"
     inkscape:window-y="-8"
     inkscape:window-maximized="1">
    <sodipodi:guide
       position="20,20"
       orientation="0,1"
       id="guide4489"
       inkscape:label=""
       inkscape:color="rgb(0,0,255)" />
    <sodipodi:guide
       position="80,23.233509"
       orientation="1,0"
       id="guide4491"
       inkscape:label=""
       inkscape:color="rgb(0,0,255)" />
    <sodipodi:guide
       position="80,80"
       orientation="0,1"
       id="guide4499"
       inkscape:label=""
       inkscape:color="rgb(0,0,255)" />
    <sodipodi:guide
       position="20,20"
       orientation="1,0"
       id="guide4501"
       inkscape:label=""
       inkscape:color="rgb(0,0,255)" />
  </sodipodi:namedview>
  <metadata
     id="metadata7">
    <rdf:RDF>
      <cc:Work
         rdf:about="">
        <dc:format>image/svg+xml</dc:format>
        <dc:type
           rdf:resource="http://purl.org/dc/dcmitype/StillImage" />
        <dc:title></dc:title>
      </cc:Work>
    </rdf:RDF>
  </metadata>
  <g
     inkscape:label="Capa 1"
     inkscape:groupmode="layer"
     id="layer1"
     transform="translate(0,-952.36212)">
    <rect
       style="opacity:1;fill:#222d55;fill-opacity:1"
       id="rect3336"
       width="100"
       height="100"
       x="0"
       y="952.36212" />
    <path
       inkscape:connector-curvature="0"
       id="path4541"
       d="m 46.703619,1032.2588 c -2.175839,-0.3379 -4.147008,-1.6617 -4.970132,-3.3377 -0.31832,-0.6482 -0.367639,-0.9102 -0.367639,-1.9526 0,-1.0424 0.04932,-1.3044 0.367639,-1.9525 0.438323,-0.8926 1.647693,-2.0918 2.592104,-2.5703 1.022936,-0.5184 2.257288,-0.7957 3.537921,-0.7947 2.721972,0 5.028845,1.3412 6.028424,3.4999 l 0.44976,0.9713 1.471488,-0.087 c 3.03972,-0.18 6.496743,-0.7887 8.874416,-1.5627 0.726028,-0.2363 0.992678,-0.423 1.852337,-1.2967 1.091961,-1.1098 2.141288,-2.604 2.911165,-4.1452 0.602641,-1.2064 1.407139,-3.5742 1.448026,-4.2617 l 0.03024,-0.5086 -0.751613,-0.039 c -0.625488,-0.033 -0.816293,0.013 -1.137062,0.2743 -0.582331,0.4742 -1.650436,1.1216 -2.327027,1.4106 -0.709344,0.303 -0.842647,0.4482 -1.068402,1.164 -0.643969,2.0418 -2.759683,5.3161 -3.767134,5.8301 -1.14707,0.5852 -2.556171,0.1253 -3.067746,-1.0011 -0.381302,-0.8396 -0.329125,-1.5126 0.179864,-2.3199 0.239118,-0.3793 0.749544,-1.1848 1.134282,-1.7899 0.716149,-1.1265 1.143179,-2.1239 1.636642,-3.8228 0.339196,-1.1678 0.80758,-1.6894 1.775413,-1.9767 0.377231,-0.1121 0.767641,-0.2037 0.86758,-0.2037 0.269167,0 1.146026,-0.4723 1.624675,-0.875 l 0.419177,-0.3527 -0.002,-2.697 c -0.0011,-1.4834 -0.04627,-2.763 -0.100329,-2.8436 -0.05405,-0.081 -0.278872,-0.1907 -0.499595,-0.2445 -0.220723,-0.054 -0.597019,-0.2469 -0.836213,-0.4289 -0.77132,-0.5869 -0.868606,-0.9423 -0.983936,-3.5945 -0.113375,-2.60719 -0.319807,-4.02516 -0.854731,-5.87107 -0.52528,-1.81264 -0.451164,-1.73909 -1.653966,-1.64127 -0.562111,0.0457 -1.924977,0.29191 -3.028593,0.54709 -1.103617,0.25518 -2.668745,0.61802 -3.478063,0.80631 -3.306682,0.76931 -6.030549,0.95543 -7.817781,0.53417 -2.503866,-0.59017 -4.294406,-2.22204 -5.70468,-5.19916 -0.335169,-0.70755 -0.661433,-1.25429 -0.725033,-1.21498 -0.0636,0.0393 -0.243904,0.41429 -0.400678,0.83331 -0.568055,1.51826 -1.632659,3.39632 -2.327077,4.10516 -0.898957,0.91764 -1.867172,1.37169 -3.585881,1.68163 -1.943509,0.35048 -2.101846,0.39885 -2.257468,0.68963 -0.279665,0.52256 -0.545069,2.5169 -0.611555,4.59548 -0.03766,1.1771 -0.128952,2.3374 -0.202884,2.5784 -0.422932,1.3786 -1.965654,2.0252 -3.25893,1.3658 -0.290752,-0.1482 -0.601312,-0.2416 -0.690132,-0.2075 -0.251345,0.096 -0.478315,1.1128 -0.494879,2.2161 -0.01319,0.8781 0.03502,1.0951 0.386251,1.739 0.840149,1.5403 2.956604,3.2206 4.548235,3.6111 1.215438,0.2981 1.714043,0.8921 2.140983,2.5504 0.55253,2.1462 1.928075,4.3999 3.850306,6.3084 0.720105,0.7149 1.397324,1.5106 1.504931,1.7681 0.811064,1.9412 -1.208216,3.8318 -3.122408,2.9234 -0.6688,-0.3174 -2.768013,-2.421 -3.754127,-3.7619 -1.043678,-1.4194 -1.679723,-2.5591 -2.35575,-4.2214 l -0.538053,-1.3231 -0.953142,-0.4984 c -1.439743,-0.7529 -2.145703,-1.2785 -3.403347,-2.5339 -2.274748,-2.2708 -3.224038,-4.6531 -2.940419,-7.3793 0.240001,-2.3069 0.954888,-4.1488 2.129709,-5.4871 l 0.513108,-0.58455 -0.06531,-3.35182 c -0.04164,-2.13714 -0.0085,-3.83388 0.09132,-4.68201 1.114288,-9.46316 6.659011,-16.01269 15.560761,-18.38064 2.397382,-0.63773 4.235401,-0.85448 7.260256,-0.85617 3.572152,-0.002 5.611869,0.29922 8.62827,1.2742 5.288426,1.70935 9.678875,5.54096 11.963681,10.44089 1.350568,2.89639 1.961832,5.58189 2.322767,10.20469 l 0.094,1.20395 0.869622,0.0961 c 2.812528,0.31069 4.894716,2.0184 5.836251,4.7866 0.221008,0.6498 0.250247,1.1734 0.250247,4.4814 0,3.5754 -0.014,3.7844 -0.308563,4.5999 -0.382654,1.0595 -1.050259,2.1172 -1.804879,2.8595 -0.564695,0.5555 -0.58208,0.5995 -0.869469,2.1997 -0.797203,4.439 -2.787516,8.4126 -5.667098,11.3141 -1.017577,1.0253 -1.48811,1.3946 -2.172401,1.7049 -2.337645,1.0599 -7.025819,1.9485 -11.870417,2.2499 l -1.690684,0.1052 -0.616899,0.543 c -0.731907,0.6442 -2.182959,1.4204 -3.024742,1.6179 -0.904084,0.2121 -2.256542,0.2875 -3.022957,0.1685 z m -9.645238,-22.9884 c -2.561711,-0.9151 -3.804218,-3.5839 -2.844191,-6.1091 0.364276,-0.9582 1.347802,-2.0038 2.330349,-2.4775 0.968249,-0.4669 2.548449,-0.5291 3.577451,-0.1409 1.04677,0.3948 2.003554,1.2882 2.534353,2.3664 1.113278,2.2614 0.09194,5.0903 -2.219579,6.1479 -1.050147,0.4805 -2.392826,0.5652 -3.378383,0.2132 z m 18.669612,0.039 c -1.32358,-0.4245 -2.667242,-1.756 -3.045147,-3.0173 -0.241689,-0.8067 -0.180993,-2.2988 0.126998,-3.122 0.344996,-0.922 1.290784,-1.9352 2.267596,-2.4291 1.037348,-0.5246 2.557259,-0.6064 3.644831,-0.1962 1.07072,0.4039 2.096907,1.3727 2.583738,2.4393 0.528851,1.1587 0.541672,2.6233 0.03268,3.7338 -0.755041,1.6473 -2.242324,2.6619 -4.024614,2.7453 -0.607271,0.028 -1.196077,-0.028 -1.586088,-0.1538 z"
       style="fill:#ffffff" />
  </g>
</svg>
