<?xml version="1.0" encoding="UTF-8" standalone="no"?>
<!-- Created with Inkscape (http://www.inkscape.org/) -->

<svg
   xmlns:dc="http://purl.org/dc/elements/1.1/"
   xmlns:cc="http://creativecommons.org/ns#"
   xmlns:rdf="http://www.w3.org/1999/02/22-rdf-syntax-ns#"
   xmlns:svg="http://www.w3.org/2000/svg"
   xmlns="http://www.w3.org/2000/svg"
   xmlns:sodipodi="http://sodipodi.sourceforge.net/DTD/sodipodi-0.dtd"
   xmlns:inkscape="http://www.inkscape.org/namespaces/inkscape"
   width="70"
   height="70"
   viewBox="0 0 70.000001 70.000001"
   id="svg4748"
   version="1.1"
   inkscape:version="0.91 r13725"
   inkscape:export-filename="C:\Users\Fabian Gutierrez\Desktop\path374.png"
   inkscape:export-xdpi="90"
   inkscape:export-ydpi="90"
   sodipodi:docname="sos.svg">
  <defs
     id="defs4750" />
  <sodipodi:namedview
     id="base"
     pagecolor="#ffffff"
     bordercolor="#666666"
     borderopacity="1.0"
     inkscape:pageopacity="0.0"
     inkscape:pageshadow="2"
     inkscape:zoom="1.979899"
     inkscape:cx="78.273189"
     inkscape:cy="-15.979435"
     inkscape:document-units="px"
     inkscape:current-layer="layer1"
     showgrid="false"
     units="px"
     inkscape:window-width="1280"
     inkscape:window-height="971"
     inkscape:window-x="-8"
     inkscape:window-y="-8"
     inkscape:window-maximized="1"
     showguides="true"
     inkscape:guide-bbox="true">
    <sodipodi:guide
       position="76.140249,65.000001"
       orientation="0,1"
       id="guide5628"
       inkscape:label=""
       inkscape:color="rgb(0,0,255)" />
    <sodipodi:guide
       position="28.663079,5.0000001"
       orientation="0,1"
       id="guide5630"
       inkscape:label=""
       inkscape:color="rgb(0,0,255)" />
    <sodipodi:guide
       position="5.0000001,72.730984"
       orientation="1,0"
       id="guide5632"
       inkscape:label=""
       inkscape:color="rgb(0,0,255)" />
    <sodipodi:guide
       position="65.000001,46.593287"
       orientation="1,0"
       id="guide5634"
       inkscape:label=""
       inkscape:color="rgb(0,0,255)" />
  </sodipodi:namedview>
  <metadata
     id="metadata4753">
    <rdf:RDF>
      <cc:Work
         rdf:about="">
        <dc:format>image/svg+xml</dc:format>
        <dc:type
           rdf:resource="http://purl.org/dc/dcmitype/StillImage" />
        <dc:title></dc:title>
      </cc:Work>
    </rdf:RDF>
  </metadata>
  <g
     inkscape:label="Capa 1"
     inkscape:groupmode="layer"
     id="layer1"
     transform="translate(0,-982.36213)">
    <rect
       style="opacity:1;fill:#222d55;fill-opacity:1"
       id="rect5505"
       width="70"
       height="70"
       x="0"
       y="982.36212" />
    <path
       class="fil4 str2"
       d="m 24.914818,989.12058 20.076059,0 c 1.465871,0 2.676808,1.28173 2.676808,2.75572 l 0,22.6866 c 0,1.474 -1.210937,2.7558 -2.676808,2.7558 l -20.076059,0 c -1.465871,0 -2.676808,-1.2818 -2.676808,-2.7558 l 0,-22.6866 c 0,-1.47399 1.210937,-2.75572 2.676808,-2.75572 z"
       id="path374"
       inkscape:connector-curvature="0"
       style="clip-rule:evenodd;fill:#fefefe;fill-rule:evenodd;stroke:#f16136;stroke-width:1.27819598;image-rendering:optimizeQuality;shape-rendering:geometricPrecision;text-rendering:geometricPrecision;stroke-opacity:1" />
    <path
       style="clip-rule:evenodd;fill:#fefefe;fill-rule:evenodd;image-rendering:optimizeQuality;shape-rendering:geometricPrecision;text-rendering:geometricPrecision"
       inkscape:connector-curvature="0"
       id="path378"
       d="m 32.37164,1028.7261 c -1.975739,0 -2.868008,-0.8972 -3.887745,-2.1149 -1.019736,-1.2176 -1.402137,-2.6916 -3.377876,-2.6916 -1.274671,0 -2.294407,1.0895 -2.294407,2.4994 0,3.5888 4.843748,10.8306 7.520555,13.5222 0.318668,0.3205 0.382402,0.3845 0.701069,0.7691 0.254934,0.3845 0.318668,0.7049 0.892269,0.7049 l 19.247523,0 c 0.573602,0 0.89227,-0.8331 1.210937,-1.2817 1.08347,-1.9226 2.294407,-3.653 2.294407,-5.7678 l 0,-10.4461 c 0,-2.243 -4.397613,-3.0762 -6.88322,-3.8452 -3.951478,-1.1536 -5.417349,-2.3071 -8.604025,-1.5381 l -1.465871,-13.5223 c -0.191201,-4.486 -4.078946,-2.8838 -4.652547,-1.538 -0.318668,0.9613 -0.127467,19.1619 -0.127467,22.1098 0,1.0254 0.446134,3.1403 -0.573602,3.1403 z"
       class="fil4" />
    <path
       style="clip-rule:evenodd;fill:#f16136;fill-rule:evenodd;image-rendering:optimizeQuality;shape-rendering:geometricPrecision;text-rendering:geometricPrecision;fill-opacity:1"
       inkscape:connector-curvature="0"
       id="path380"
       d="m 25.106019,1004.1809 c 0,2.0508 1.019736,4.3579 1.912005,5.5756 1.529605,1.9866 2.103207,2.1789 4.270146,3.3965 0,-5.3191 -1.338404,-12.4328 4.015212,-12.5609 4.461346,-0.1923 3.951478,4.6783 4.333879,7.8826 0.127467,1.1536 0.382401,2.6917 0.382401,4.0375 0.573602,-0.1923 1.465871,-0.8972 1.97574,-1.2818 0.637335,-0.5126 1.083469,-1.2176 1.529604,-1.8585 3.186676,-4.486 1.657072,-11.53555 -3.44161,-14.41944 -1.147203,-0.64087 -2.485607,-1.02539 -3.824011,-1.15356 l -2.16694,0 c -2.485607,0.25635 -4.907481,1.34582 -6.500819,3.3325 -0.446135,0.57678 -0.573602,0.57678 -0.956003,1.28173 -1.019736,1.92257 -1.529604,3.39657 -1.529604,5.76777 z"
       class="fil5" />
    <path
       style="clip-rule:evenodd;fill:#fefefe;fill-rule:evenodd;image-rendering:optimizeQuality;shape-rendering:geometricPrecision;text-rendering:geometricPrecision"
       inkscape:connector-curvature="0"
       id="path382"
       d="m 31.543104,1045.1963 c 0,0.8331 0.191201,1.8585 1.019737,1.8585 l 16.506981,0 c 1.08347,-0.064 1.912006,-0.1281 2.294407,-0.1922 0.382401,-1.5381 0.254934,-1.9867 0.254934,-3.7811 l -20.076059,0 0,2.1148 z"
       class="fil4" />
    <path
       class="fil6"
       d="m 4.0102236,1007.0648 3.1229425,-0.5768 c 0.1274671,1.4099 0.6373352,2.4353 1.465871,3.1403 0.7648022,0.7049 1.9120059,1.0895 3.3778769,1.0895 1.402137,0 2.485607,-0.3205 3.250409,-0.9613 0.701069,-0.6409 1.019736,-1.4099 1.019736,-2.2431 0,-0.769 -0.318667,-1.4099 -0.956002,-1.8585 -0.446135,-0.2563 -1.529605,-0.6409 -3.25041,-1.1535 -2.2944066,-0.6409 -3.8877446,-1.1536 -4.7800138,-1.6022 -0.8922693,-0.5127 -1.593338,-1.0895 -2.0394727,-1.9226 -0.4461346,-0.8331 -0.7010687,-1.73034 -0.7010687,-2.69164 0,-0.89721 0.1912006,-1.73034 0.5736017,-2.49938 0.3824011,-0.76903 0.8922693,-1.4099 1.5296045,-1.92259 0.5098681,-0.38452 1.2109368,-0.70495 2.0394726,-1.02539 0.8285358,-0.25634 1.7208054,-0.38452 2.7405414,-0.38452 1.465871,0 2.740541,0.19226 3.824011,0.70496 1.08347,0.4486 1.912006,1.02538 2.485607,1.85851 0.509869,0.76903 0.828536,1.79442 1.08347,3.14024 l -3.122942,0.4486 c -0.127467,-1.02538 -0.573602,-1.85851 -1.210937,-2.49937 -0.701069,-0.57678 -1.593338,-0.83313 -2.868008,-0.83313 -1.402138,0 -2.4856078,0.25635 -3.0592094,0.76904 -0.6373352,0.51269 -0.9560028,1.08947 -0.9560028,1.79442 0,0.44861 0.127467,0.83313 0.3824011,1.21765 0.2549341,0.38452 0.6373352,0.70495 1.2109369,0.89721 0.3186676,0.12819 1.2746702,0.44859 2.8042752,0.89719 2.230673,0.6409 3.760277,1.1536 4.652547,1.6022 0.892269,0.3845 1.593338,0.9613 2.103206,1.7944 0.509868,0.769 0.764802,1.7303 0.764802,2.8839 0,1.1536 -0.318668,2.243 -0.956003,3.2684 -0.573601,0.9613 -1.465871,1.7304 -2.613074,2.3071 -1.210937,0.5768 -2.485607,0.8332 -3.951478,0.8332 -2.4218741,0 -4.2701462,-0.5768 -5.5448166,-1.6663 -1.2746704,-1.0895 -2.1032062,-2.6916 -2.4218738,-4.8065 z"
       id="path384"
       inkscape:connector-curvature="0"
       style="clip-rule:evenodd;fill:#fefefe;fill-rule:nonzero;image-rendering:optimizeQuality;shape-rendering:geometricPrecision;text-rendering:geometricPrecision" />
    <path
       class="fil6"
       d="m 51.236762,1007.0648 3.186676,-0.5768 c 0.127467,1.4099 0.637335,2.4353 1.465871,3.1403 0.764802,0.7049 1.912006,1.0895 3.314143,1.0895 1.465871,0 2.549341,-0.3205 3.250409,-0.9613 0.701069,-0.6409 1.08347,-1.4099 1.08347,-2.2431 0,-0.769 -0.318667,-1.4099 -0.956002,-1.8585 -0.446135,-0.2563 -1.529605,-0.6409 -3.25041,-1.1535 -2.294407,-0.6409 -3.887745,-1.1536 -4.780014,-1.6022 -0.892269,-0.5127 -1.593338,-1.0895 -2.039473,-1.9226 -0.446134,-0.8331 -0.701068,-1.73034 -0.701068,-2.69164 0,-0.89721 0.1912,-1.73034 0.573601,-2.49938 0.382401,-0.76903 0.89227,-1.4099 1.529605,-1.92259 0.509868,-0.38452 1.147203,-0.70495 2.039472,-1.02539 0.828536,-0.25634 1.720805,-0.38452 2.740542,-0.38452 1.465871,0 2.740541,0.19226 3.824011,0.70496 1.08347,0.4486 1.912006,1.02538 2.421874,1.85851 0.573601,0.76903 0.892269,1.79442 1.08347,3.14024 l -3.059209,0.4486 c -0.127467,-1.02538 -0.573602,-1.85851 -1.210937,-2.49937 -0.701069,-0.57678 -1.657072,-0.83313 -2.868009,-0.83313 -1.465871,0 -2.485607,0.25635 -3.122942,0.76904 -0.573602,0.51269 -0.892269,1.08947 -0.892269,1.79442 0,0.44861 0.127467,0.83313 0.382401,1.21765 0.254934,0.38452 0.637335,0.70495 1.210937,0.89721 0.318667,0.12819 1.210936,0.44859 2.804274,0.89719 2.230674,0.6409 3.760278,1.1536 4.652547,1.6022 0.89227,0.3845 1.593338,0.9613 2.103207,1.7944 0.509868,0.769 0.764802,1.7303 0.764802,2.8839 0,1.1536 -0.318668,2.243 -0.956003,3.2684 -0.573602,0.9613 -1.465871,1.7304 -2.613074,2.3071 -1.210937,0.5768 -2.485608,0.8332 -3.951479,0.8332 -2.421873,0 -4.270145,-0.5768 -5.544816,-1.6663 -1.27467,-1.0895 -2.103206,-2.6916 -2.485607,-4.8065 z"
       id="path386"
       inkscape:connector-curvature="0"
       style="clip-rule:evenodd;fill:#fefefe;fill-rule:nonzero;image-rendering:optimizeQuality;shape-rendering:geometricPrecision;text-rendering:geometricPrecision" />
  </g>
</svg>
