<?xml version="1.0" encoding="UTF-8" standalone="no"?>
<!-- Created with Inkscape (http://www.inkscape.org/) -->

<svg
   xmlns:dc="http://purl.org/dc/elements/1.1/"
   xmlns:cc="http://creativecommons.org/ns#"
   xmlns:rdf="http://www.w3.org/1999/02/22-rdf-syntax-ns#"
   xmlns:svg="http://www.w3.org/2000/svg"
   xmlns="http://www.w3.org/2000/svg"
   xmlns:sodipodi="http://sodipodi.sourceforge.net/DTD/sodipodi-0.dtd"
   xmlns:inkscape="http://www.inkscape.org/namespaces/inkscape"
   width="70"
   height="70"
   viewBox="0 0 70.000001 70.000001"
   id="svg4748"
   version="1.1"
   inkscape:version="0.91 r13725"
   inkscape:export-filename="C:\Users\Fabian Gutierrez\Desktop\path374.png"
   inkscape:export-xdpi="90"
   inkscape:export-ydpi="90"
   sodipodi:docname="stop.svg">
  <defs
     id="defs4750">
    <pattern
       y="0"
       x="0"
       height="6"
       width="6"
       patternUnits="userSpaceOnUse"
       id="EMFhbasepattern" />
    <pattern
       y="0"
       x="0"
       height="6"
       width="6"
       patternUnits="userSpaceOnUse"
       id="EMFhbasepattern-3" />
    <pattern
       y="0"
       x="0"
       height="6"
       width="6"
       patternUnits="userSpaceOnUse"
       id="EMFhbasepattern-9" />
  </defs>
  <sodipodi:namedview
     id="base"
     pagecolor="#ffffff"
     bordercolor="#666666"
     borderopacity="1.0"
     inkscape:pageopacity="0.0"
     inkscape:pageshadow="2"
     inkscape:zoom="2.8"
     inkscape:cx="68.870561"
     inkscape:cy="33.577685"
     inkscape:document-units="px"
     inkscape:current-layer="layer1"
     showgrid="false"
     units="px"
     inkscape:window-width="1280"
     inkscape:window-height="1001"
     inkscape:window-x="-8"
     inkscape:window-y="-8"
     inkscape:window-maximized="1"
     showguides="true"
     inkscape:guide-bbox="true">
    <sodipodi:guide
       position="76.140249,65.000001"
       orientation="0,1"
       id="guide5628"
       inkscape:label=""
       inkscape:color="rgb(0,0,255)" />
    <sodipodi:guide
       position="28.663079,5.0000001"
       orientation="0,1"
       id="guide5630"
       inkscape:label=""
       inkscape:color="rgb(0,0,255)" />
    <sodipodi:guide
       position="5.0000001,72.730984"
       orientation="1,0"
       id="guide5632"
       inkscape:label=""
       inkscape:color="rgb(0,0,255)" />
    <sodipodi:guide
       position="65.000001,46.593287"
       orientation="1,0"
       id="guide5634"
       inkscape:label=""
       inkscape:color="rgb(0,0,255)" />
  </sodipodi:namedview>
  <metadata
     id="metadata4753">
    <rdf:RDF>
      <cc:Work
         rdf:about="">
        <dc:format>image/svg+xml</dc:format>
        <dc:type
           rdf:resource="http://purl.org/dc/dcmitype/StillImage" />
        <dc:title></dc:title>
      </cc:Work>
    </rdf:RDF>
  </metadata>
  <g
     inkscape:label="Capa 1"
     inkscape:groupmode="layer"
     id="layer1"
     transform="translate(0,-982.36213)">
    <rect
       style="opacity:1;fill:#222d55;fill-opacity:1"
       id="rect5505"
       width="70"
       height="70"
       x="0"
       y="982.36212" />
    <path
       class="fil4"
       d="m 96.589619,1019.2634 c -0.932387,0.2193 -1.426006,1.042 -1.426006,2.139 0,3.0165 4.991037,3.8392 4.991037,-0.2195 0,-1.0968 -0.548471,-1.7002 -1.426011,-1.9195 l 4.552261,-10.6952 c 2.41324,-5.8137 6.52673,-12.50496 1.70024,-17.49598 -1.70024,-1.80994 -3.78441,-2.79719 -5.813731,-3.07148 l -2.02932,0 c -2.632634,0.32909 -5.155573,1.97449 -6.800968,4.77169 -1.700241,2.96173 -1.096929,6.088 0.164539,9.21427 l 4.607106,12.7791 c 0.438773,1.152 1.426013,3.1812 1.480853,4.4976 z"
       id="path4431"
       inkscape:connector-curvature="0"
       style="clip-rule:evenodd;fill:#f16136;fill-opacity:1;fill-rule:evenodd;image-rendering:optimizeQuality;shape-rendering:geometricPrecision;text-rendering:geometricPrecision" />
    <path
       style="clip-rule:evenodd;fill:#fefefe;fill-rule:evenodd;image-rendering:optimizeQuality;shape-rendering:geometricPrecision;text-rendering:geometricPrecision"
       inkscape:connector-curvature="0"
       id="path4355"
       d="m 28.292193,1006.1881 0,2.1284 c -1.682911,0.1485 -5.741698,-0.1485 -7.870086,0 -1.088943,0.099 -1.880902,0.8909 -1.930399,1.9799 -0.0495,1.2869 0,2.6728 0,3.9598 -1.039445,0 -2.078891,0 -3.167834,0 -1.187937,0 -1.682911,0.049 -2.326377,0.7919 -0.593969,0.6435 -0.445477,1.6334 -0.445477,2.6729 0,1.0394 0,2.1284 0,3.1678 l -3.6628076,0 c 0,-1.0394 0.049497,-5.3952 0,-5.9892 -0.247487,-1.6334 -2.3758752,-2.4253 -3.6133102,-0.9404 -0.5444714,0.6435 -0.3959792,1.6334 -0.3959792,2.6233 l 0,18.1656 c 0,0.9404 -0.1484922,2.0294 0.3464818,2.7224 1.1879376,1.4849 3.3658232,0.7919 3.6628076,-0.8415 0.098995,-0.594 0,-5.0487 0,-6.0387 l 3.6628076,-0.05 c 0,1.1385 0,2.3264 0,3.4648 0,1.287 -0.148492,1.9799 0.643466,2.7719 0.742461,0.693 1.831404,0.495 2.969844,0.495 1.039446,0 2.425373,-0.05 3.464818,0.049 l 6.533657,8.0185 c 0.395979,0.495 0.791958,1.1385 1.534419,1.386 0.692964,0.198 4.801248,0.099 5.840694,0.099 3.860797,0 7.771091,0 11.681386,0 0.989948,0 5.048735,0.099 5.692201,-0.1485 1.831404,-0.594 1.385927,-2.6729 1.385927,-4.5538 l 1.979896,0 c 0,1.0395 -0.148492,2.7719 0.247487,3.5638 0.346482,0.792 1.385927,1.3859 2.524368,0.99 0.494974,-0.198 1.187937,-0.8415 1.583916,-1.2375 0.19799,-0.1485 0.346482,-0.297 0.494974,-0.4454 l 4.553761,-3.9103 c 0.19799,-0.1485 0.346482,-0.297 0.544472,-0.396 0.296984,-0.2475 0.593968,-0.594 0.791958,-1.1385 0.148492,-0.5939 0.0495,-9.7509 0.0495,-11.1864 0,-0.9404 0.099,-2.9698 0,-3.7123 -0.197989,-0.9899 -1.13844,-1.5344 -1.781906,-2.0294 l -5.345719,-4.0588 c -0.346482,-0.2474 -0.692964,-0.5444 -1.237435,-0.6434 -1.187938,-0.2475 -2.078891,0.495 -2.326378,1.3859 -0.247487,0.8415 0.0495,2.7224 -0.09899,3.7123 l -1.979896,0 c -0.247487,-1.8314 0.544472,-3.6628 -0.791958,-4.8012 -0.643466,-0.495 -1.484922,-0.396 -2.425373,-0.396 -0.94045,0 -1.880901,0 -2.821352,0 0,-1.4849 0,-2.9699 0,-4.4548 0,-1.0889 0.19799,-3.3163 -0.346481,-4.1083 -0.742461,-1.1384 -1.880902,-0.9404 -3.464818,-0.9404 -1.484922,0 -2.969844,0 -4.504264,0 l 0.0495,-2.1284 c 1.435424,0 2.47487,0.198 3.266828,-0.792 0.692964,-0.8909 0.445477,-2.2768 -0.395979,-2.8213 -0.890953,-0.6435 -2.425373,-0.4455 -3.61331,-0.4455 l -8.117574,0 c -1.088943,0 -2.920347,-0.198 -3.712305,0.396 -0.742461,0.594 -1.187938,1.8809 -0.395979,2.8708 0.841456,1.0395 1.732409,0.6435 3.266828,0.792 z"
       class="fil2" />
    <polygon
       class="fil2 str1"
       points="1575,14324 1493,14183 1411,14041 1493,13900 1575,13758 1738,13758 1901,13758 1983,13900 2065,14041 1983,14183 1901,14324 1738,14324 "
       id="polygon4359"
       style="clip-rule:evenodd;fill:#fefefe;fill-rule:evenodd;stroke:#222d55;stroke-width:20;image-rendering:optimizeQuality;shape-rendering:geometricPrecision;text-rendering:geometricPrecision;stroke-opacity:1"
       transform="matrix(0.0494974,0,0,0.0494974,-35.707945,307.3838)" />
    <polygon
       class="fil3 str1"
       points="1877,13800 1599,13800 1460,14041 1599,14282 1877,14282 2017,14041 "
       id="polygon4361"
       style="clip-rule:evenodd;fill:#f16136;fill-rule:evenodd;stroke:#222d55;stroke-width:20;image-rendering:optimizeQuality;shape-rendering:geometricPrecision;text-rendering:geometricPrecision;fill-opacity:1;stroke-opacity:1"
       transform="matrix(0.0494974,0,0,0.0494974,-35.707945,307.3838)" />
    <path
       class="fil2"
       d="m 49.625573,1004.5052 0,6.7811 -2.969844,0 0,-16.7301 5.345719,0 c 3.118336,0 5.593206,1.53442 5.593206,4.80125 0,3.01935 -2.029393,5.14775 -5.048735,5.14775 l -2.920346,0 z m 0,-2.7719 2.326377,0 c 1.53442,0 2.524368,-0.5939 2.524368,-2.22736 0,-1.7324 -0.989948,-2.12838 -2.524368,-2.12838 l -2.326377,0 0,4.35574 z"
       id="path4363"
       inkscape:connector-curvature="0"
       style="clip-rule:evenodd;fill:#fefefe;fill-rule:evenodd;image-rendering:optimizeQuality;shape-rendering:geometricPrecision;text-rendering:geometricPrecision;stroke:none;stroke-opacity:1" />
  </g>
</svg>
