<?xml version="1.0" encoding="UTF-8" standalone="no"?>
<!-- Created with Inkscape (http://www.inkscape.org/) -->

<svg
   xmlns:dc="http://purl.org/dc/elements/1.1/"
   xmlns:cc="http://creativecommons.org/ns#"
   xmlns:rdf="http://www.w3.org/1999/02/22-rdf-syntax-ns#"
   xmlns:svg="http://www.w3.org/2000/svg"
   xmlns="http://www.w3.org/2000/svg"
   xmlns:sodipodi="http://sodipodi.sourceforge.net/DTD/sodipodi-0.dtd"
   xmlns:inkscape="http://www.inkscape.org/namespaces/inkscape"
   width="70"
   height="70"
   viewBox="0 0 70.000001 70.000001"
   id="svg4748"
   version="1.1"
   inkscape:version="0.91 r13725"
   inkscape:export-filename="C:\Users\Fabian Gutierrez\Desktop\path374.png"
   inkscape:export-xdpi="90"
   inkscape:export-ydpi="90"
   sodipodi:docname="velocidad.svg">
  <defs
     id="defs4750" />
  <sodipodi:namedview
     id="base"
     pagecolor="#ffffff"
     bordercolor="#666666"
     borderopacity="1.0"
     inkscape:pageopacity="0.0"
     inkscape:pageshadow="2"
     inkscape:zoom="3.959798"
     inkscape:cx="67.872681"
     inkscape:cy="23.640992"
     inkscape:document-units="px"
     inkscape:current-layer="layer1"
     showgrid="false"
     units="px"
     inkscape:window-width="1280"
     inkscape:window-height="971"
     inkscape:window-x="-8"
     inkscape:window-y="-8"
     inkscape:window-maximized="1"
     showguides="true"
     inkscape:guide-bbox="true">
    <sodipodi:guide
       position="76.140249,65.000001"
       orientation="0,1"
       id="guide5628"
       inkscape:label=""
       inkscape:color="rgb(0,0,255)" />
    <sodipodi:guide
       position="28.663079,5.0000001"
       orientation="0,1"
       id="guide5630"
       inkscape:label=""
       inkscape:color="rgb(0,0,255)" />
    <sodipodi:guide
       position="5.0000001,72.730984"
       orientation="1,0"
       id="guide5632"
       inkscape:label=""
       inkscape:color="rgb(0,0,255)" />
    <sodipodi:guide
       position="65.000001,46.593287"
       orientation="1,0"
       id="guide5634"
       inkscape:label=""
       inkscape:color="rgb(0,0,255)" />
  </sodipodi:namedview>
  <metadata
     id="metadata4753">
    <rdf:RDF>
      <cc:Work
         rdf:about="">
        <dc:format>image/svg+xml</dc:format>
        <dc:type
           rdf:resource="http://purl.org/dc/dcmitype/StillImage" />
        <dc:title></dc:title>
      </cc:Work>
    </rdf:RDF>
  </metadata>
  <g
     inkscape:label="Capa 1"
     inkscape:groupmode="layer"
     id="layer1"
     transform="translate(0,-982.36213)">
    <rect
       style="opacity:1;fill:#222d55;fill-opacity:1"
       id="rect5505"
       width="70"
       height="70"
       x="0"
       y="982.36212" />
    <path
       style="clip-rule:evenodd;fill:#f16136;fill-opacity:1;fill-rule:evenodd;image-rendering:optimizeQuality;shape-rendering:geometricPrecision;text-rendering:geometricPrecision"
       inkscape:connector-curvature="0"
       id="path380"
       d="m -37.393981,1004.1809 c 0,2.0508 1.019736,4.3579 1.912005,5.5756 1.529605,1.9866 2.103207,2.1789 4.270146,3.3965 0,-5.3191 -1.338404,-12.4328 4.015212,-12.5609 4.461346,-0.1923 3.951478,4.6783 4.333879,7.8826 0.127467,1.1536 0.382401,2.6917 0.382401,4.0375 0.573602,-0.1923 1.465871,-0.8972 1.97574,-1.2818 0.637335,-0.5126 1.083469,-1.2176 1.529604,-1.8585 3.186676,-4.486 1.657072,-11.53555 -3.44161,-14.41944 -1.147203,-0.64087 -2.485607,-1.02539 -3.824011,-1.15356 l -2.16694,0 c -2.485607,0.25635 -4.907481,1.34582 -6.500819,3.3325 -0.446135,0.57678 -0.573602,0.57678 -0.956003,1.28173 -1.019736,1.92257 -1.529604,3.39657 -1.529604,5.76777 z"
       class="fil5" />
    <g
       transform="matrix(0.06011953,0,0,0.06011953,-57.293087,640.3075)"
       style="clip-rule:evenodd;fill-rule:evenodd;image-rendering:optimizeQuality;shape-rendering:geometricPrecision;text-rendering:geometricPrecision"
       id="g566">
      <path
         class="fil4"
         d="m 1792,6268 c 67,0 36,10 96,58 15,12 58,49 62,66 l -158,0 0,-124 z m -588,-74 c -53,0 -104,16 -159,16 l 0,8 c 49,0 218,31 267,31 l 0,3 c -70,0 -198,24 -271,24 l 0,7 c 43,0 219,35 271,35 l -271,27 125,26 c 46,9 38,-7 38,86 l 828,0 c 0,-76 -5,-61 -92,-148 -105,-104 -70,-91 -195,-91 0,-29 1,-70 -38,-70 l -464,0 c -25,0 -37,23 -39,46 z"
         id="path568"
         inkscape:connector-curvature="0"
         style="fill:#fefefe" />
      <path
         class="fil4"
         d="m 1204,6550 c 0,66 38,58 89,58 21,0 2,-24 39,-61 42,-41 108,-43 150,-4 14,14 31,39 31,65 l 221,0 c 33,-140 204,-106 213,0 65,0 81,-2 85,-39 l 0,-92 -828,0 0,73 z"
         id="path570"
         inkscape:connector-curvature="0"
         style="fill:#fefefe" />
      <path
         class="fil4"
         d="m 1417,6659 c -71,0 -52,-77 -8,-76 53,1 44,76 8,76 z m -93,-39 c 0,114 166,113 169,3 2,-43 -33,-84 -76,-84 -30,0 -44,-2 -71,26 -13,13 -22,31 -22,55 z"
         id="path572"
         inkscape:connector-curvature="0"
         style="fill:#fefefe" />
      <path
         class="fil4"
         d="m 1850,6659 c -63,0 -57,-63 -20,-74 59,-18 62,74 20,74 z m -93,-43 c 0,120 162,115 168,10 2,-43 -30,-87 -75,-87 l -19,0 c -38,0 -74,39 -74,77 z"
         id="path574"
         inkscape:connector-curvature="0"
         style="fill:#fefefe" />
    </g>
    <path
       class="fil4"
       d="m 34.6898,990.14307 c 10.34056,0 18.697177,8.35659 18.697177,18.69723 0,10.3406 -8.356617,18.697 -18.697177,18.697 -10.280441,0 -18.697174,-8.3564 -18.697174,-18.697 0,-10.34064 8.416733,-18.69723 18.697174,-18.69723 z m 0,1.26251 c 9.619125,0 17.434657,7.81558 17.434657,17.43472 0,9.6191 -7.815532,17.4345 -17.434657,17.4345 -9.619125,0 -17.434665,-7.8154 -17.434665,-17.4345 0,-9.61914 7.81554,-17.43472 17.434665,-17.43472 z"
       id="path576"
       inkscape:connector-curvature="0"
       style="clip-rule:evenodd;fill:#fefefe;fill-rule:evenodd;image-rendering:optimizeQuality;shape-rendering:geometricPrecision;text-rendering:geometricPrecision" />
    <polygon
       transform="matrix(0.06011953,0,0,0.06011953,-57.293087,640.3075)"
       class="fil4"
       points="1515,5860 1545,5860 1545,5943 1515,5943 "
       id="polygon578"
       style="clip-rule:evenodd;fill:#fefefe;fill-rule:evenodd;image-rendering:optimizeQuality;shape-rendering:geometricPrecision;text-rendering:geometricPrecision" />
    <polygon
       transform="matrix(0.06011953,0,0,0.06011953,-57.293087,640.3075)"
       class="fil4"
       points="1652,5888 1679,5903 1637,5976 1610,5961 "
       id="polygon580"
       style="clip-rule:evenodd;fill:#fefefe;fill-rule:evenodd;image-rendering:optimizeQuality;shape-rendering:geometricPrecision;text-rendering:geometricPrecision" />
    <polygon
       transform="matrix(0.06011953,0,0,0.06011953,-57.293087,640.3075)"
       class="fil4"
       points="1757,5982 1772,6008 1699,6050 1684,6024 "
       id="polygon582"
       style="clip-rule:evenodd;fill:#fefefe;fill-rule:evenodd;image-rendering:optimizeQuality;shape-rendering:geometricPrecision;text-rendering:geometricPrecision" />
    <polygon
       transform="matrix(0.06011953,0,0,0.06011953,-57.293087,640.3075)"
       class="fil4"
       points="1801,6115 1801,6145 1717,6145 1717,6115 "
       id="polygon584"
       style="clip-rule:evenodd;fill:#fefefe;fill-rule:evenodd;image-rendering:optimizeQuality;shape-rendering:geometricPrecision;text-rendering:geometricPrecision" />
    <polygon
       transform="matrix(0.06011953,0,0,0.06011953,-57.293087,640.3075)"
       class="fil4"
       points="1772,6252 1757,6278 1684,6236 1699,6210 "
       id="polygon586"
       style="clip-rule:evenodd;fill:#fefefe;fill-rule:evenodd;image-rendering:optimizeQuality;shape-rendering:geometricPrecision;text-rendering:geometricPrecision" />
    <polygon
       transform="matrix(0.06011953,0,0,0.06011953,-57.293087,640.3075)"
       class="fil4"
       points="1679,6357 1652,6372 1610,6299 1637,6284 "
       id="polygon588"
       style="clip-rule:evenodd;fill:#fefefe;fill-rule:evenodd;image-rendering:optimizeQuality;shape-rendering:geometricPrecision;text-rendering:geometricPrecision" />
    <polygon
       transform="matrix(0.06011953,0,0,0.06011953,-57.293087,640.3075)"
       class="fil4"
       points="1545,6400 1515,6400 1515,6316 1545,6316 "
       id="polygon590"
       style="clip-rule:evenodd;fill:#fefefe;fill-rule:evenodd;image-rendering:optimizeQuality;shape-rendering:geometricPrecision;text-rendering:geometricPrecision" />
    <polygon
       transform="matrix(0.06011953,0,0,0.06011953,-57.293087,640.3075)"
       class="fil4"
       points="1408,6372 1382,6357 1424,6284 1450,6299 "
       id="polygon592"
       style="clip-rule:evenodd;fill:#fefefe;fill-rule:evenodd;image-rendering:optimizeQuality;shape-rendering:geometricPrecision;text-rendering:geometricPrecision" />
    <polygon
       transform="matrix(0.06011953,0,0,0.06011953,-57.293087,640.3075)"
       class="fil4"
       points="1304,6278 1288,6252 1361,6210 1376,6236 "
       id="polygon594"
       style="clip-rule:evenodd;fill:#fefefe;fill-rule:evenodd;image-rendering:optimizeQuality;shape-rendering:geometricPrecision;text-rendering:geometricPrecision" />
    <polygon
       transform="matrix(0.06011953,0,0,0.06011953,-57.293087,640.3075)"
       class="fil4"
       points="1260,6145 1260,6115 1344,6115 1344,6145 "
       id="polygon596"
       style="clip-rule:evenodd;fill:#fefefe;fill-rule:evenodd;image-rendering:optimizeQuality;shape-rendering:geometricPrecision;text-rendering:geometricPrecision" />
    <polygon
       transform="matrix(0.06011953,0,0,0.06011953,-57.293087,640.3075)"
       class="fil4"
       points="1288,6008 1304,5982 1376,6024 1361,6050 "
       id="polygon598"
       style="clip-rule:evenodd;fill:#fefefe;fill-rule:evenodd;image-rendering:optimizeQuality;shape-rendering:geometricPrecision;text-rendering:geometricPrecision" />
    <polygon
       transform="matrix(0.06011953,0,0,0.06011953,-57.293087,640.3075)"
       class="fil4"
       points="1382,5903 1408,5888 1450,5961 1424,5976 "
       id="polygon600"
       style="clip-rule:evenodd;fill:#fefefe;fill-rule:evenodd;image-rendering:optimizeQuality;shape-rendering:geometricPrecision;text-rendering:geometricPrecision" />
    <path
       class="fil4"
       d="m 34.509442,1007.9385 c 0.541076,-0.1205 1.082151,0.2406 1.20239,0.7817 0.120245,0.5411 -0.240478,1.082 -0.781553,1.2023 -0.541076,0.059 -1.022033,-0.2405 -1.142272,-0.7815 -0.06011,-0.1205 -0.06011,-0.1804 -0.06011,-0.3007 l -4.689323,-4.6291 -4.809564,-4.80974 5.2304,4.32874 5.050041,4.2083 z"
       id="path602"
       inkscape:connector-curvature="0"
       style="clip-rule:evenodd;fill:#fefefe;fill-rule:evenodd;image-rendering:optimizeQuality;shape-rendering:geometricPrecision;text-rendering:geometricPrecision" />
    <g
       transform="matrix(0.06011953,0,0,0.06011953,-57.293087,640.3075)"
       style="clip-rule:evenodd;fill-rule:evenodd;image-rendering:optimizeQuality;shape-rendering:geometricPrecision;text-rendering:geometricPrecision;fill:#f16136;fill-opacity:1"
       id="g604">
      <polygon
         class="fil12"
         points="1423,6178 1488,6178 1488,6276 1423,6276 "
         id="polygon606"
         style="fill:#f16136;fill-opacity:1" />
      <polygon
         class="fil12"
         points="1498,6178 1563,6178 1563,6276 1498,6276 "
         id="polygon608"
         style="fill:#f16136;fill-opacity:1" />
      <polygon
         class="fil12"
         points="1572,6178 1637,6178 1637,6276 1572,6276 "
         id="polygon610"
         style="fill:#f16136;fill-opacity:1" />
    </g>
    <path
       class="fil6"
       d="m 30.240955,1012.5076 c 0.360716,0 0.601195,0.1204 0.781554,0.4209 0.240477,0.3607 0.360716,0.9619 0.360716,1.7434 0,0.8417 -0.120245,1.4429 -0.360716,1.7435 -0.180359,0.3007 -0.420838,0.481 -0.781554,0.481 -0.300597,0 -0.601196,-0.1803 -0.781555,-0.481 -0.240477,-0.3607 -0.300597,-0.9018 -0.300597,-1.7435 0,-0.7815 0.06011,-1.3827 0.300597,-1.7434 0.180359,-0.3006 0.480958,-0.4209 0.781555,-0.4209 z m 0,0.6613 c -0.06011,0 -0.120246,0.059 -0.180359,0.1205 -0.06011,0.059 -0.120245,0.1804 -0.180358,0.3007 -0.06011,0.2404 -0.06011,0.6011 -0.06011,1.0821 0,0.5411 0,0.8416 0.06011,1.0822 0.06011,0.1803 0.120246,0.3005 0.180358,0.3607 0.06011,0.059 0.120246,0.059 0.180359,0.059 0.06011,0 0.180358,0 0.240477,-0.059 0.06011,-0.059 0.06011,-0.1804 0.120246,-0.3607 0.06011,-0.1804 0.06011,-0.5411 0.06011,-1.0822 0,-0.481 0,-0.8417 -0.06011,-1.0221 -0.06011,-0.1803 -0.06011,-0.3006 -0.120246,-0.3607 -0.06011,-0.059 -0.180358,-0.1205 -0.240477,-0.1205 z"
       id="path612"
       inkscape:connector-curvature="0"
       style="clip-rule:evenodd;fill:#fefefe;fill-rule:nonzero;image-rendering:optimizeQuality;shape-rendering:geometricPrecision;text-rendering:geometricPrecision" />
    <path
       class="fil6"
       d="m 34.148725,1014.4315 c -0.18036,-0.059 -0.300599,-0.1804 -0.360718,-0.3608 -0.06011,-0.1803 -0.120246,-0.3006 -0.120246,-0.541 0,-0.3007 0.06012,-0.5411 0.240478,-0.7815 0.18036,-0.1804 0.480957,-0.3007 0.781554,-0.3007 0.300599,0 0.601196,0.1205 0.781554,0.3007 0.180358,0.2404 0.240478,0.4808 0.240478,0.7815 0,0.2404 -0.06011,0.4207 -0.120246,0.541 -0.06011,0.1804 -0.180358,0.3007 -0.360716,0.3608 0.180358,0.1204 0.360716,0.2404 0.420836,0.4207 0.120245,0.1804 0.18036,0.421 0.18036,0.6614 0,0.3607 -0.120246,0.7215 -0.300599,0.9619 -0.180359,0.2406 -0.480956,0.3607 -0.781554,0.3607 -0.360717,0 -0.601195,-0.1205 -0.781554,-0.3005 -0.300598,-0.2406 -0.420836,-0.6013 -0.420836,-1.0221 0,-0.1803 0.06011,-0.4208 0.180358,-0.6011 0.06011,-0.1804 0.240478,-0.3607 0.420837,-0.481 z m 0.120246,-0.8418 c 0,0.1804 0.06011,0.3007 0.120245,0.421 0.06012,0.059 0.180359,0.1204 0.300597,0.1204 0.120246,0 0.24048,-0.059 0.300599,-0.1204 0.06011,-0.1205 0.120246,-0.2406 0.120246,-0.421 0,-0.1204 -0.06012,-0.2404 -0.120246,-0.3607 -0.06011,-0.059 -0.18036,-0.1205 -0.300599,-0.1205 -0.120245,0 -0.240477,0.059 -0.300597,0.1205 -0.06011,0.1205 -0.120245,0.2406 -0.120245,0.3607 z m -0.06012,1.8639 c 0,0.2404 0.06012,0.4207 0.180359,0.541 0.06011,0.1205 0.180358,0.1804 0.300597,0.1804 0.180358,0 0.240479,-0.059 0.360718,-0.1804 0.06011,-0.1204 0.120245,-0.3006 0.120245,-0.541 0,-0.1804 -0.06011,-0.3608 -0.120245,-0.4811 -0.120246,-0.1204 -0.240479,-0.1803 -0.360718,-0.1803 -0.180359,0 -0.300597,0.059 -0.360717,0.2404 -0.06011,0.1205 -0.120245,0.2406 -0.120245,0.421 z"
       id="path614"
       inkscape:connector-curvature="0"
       style="clip-rule:evenodd;fill:#fefefe;fill-rule:nonzero;image-rendering:optimizeQuality;shape-rendering:geometricPrecision;text-rendering:geometricPrecision" />
    <path
       class="fil6"
       d="m 39.198764,1012.4475 c 0.300599,0 0.601196,0.1804 0.781555,0.4208 0.180359,0.3607 0.300598,0.962 0.300598,1.8036 0,0.7817 -0.120245,1.3828 -0.300598,1.7435 -0.180359,0.3007 -0.480956,0.4208 -0.781555,0.4208 -0.360716,0 -0.601194,-0.1205 -0.841673,-0.4808 -0.180358,-0.3007 -0.300597,-0.9018 -0.300597,-1.6835 0,-0.8416 0.120245,-1.4429 0.360718,-1.8036 0.180358,-0.3005 0.420836,-0.4208 0.781552,-0.4208 z m 0,0.6614 c -0.120245,0 -0.180358,0.059 -0.240477,0.1204 -0.06011,0.059 -0.120246,0.1804 -0.120246,0.3608 -0.06011,0.1803 -0.06011,0.541 -0.06011,1.0821 0,0.4809 0,0.8416 0.06011,1.022 0,0.1803 0.06011,0.3006 0.120246,0.3607 0.06011,0.059 0.120245,0.1204 0.240477,0.1204 0.06012,0 0.120246,-0.059 0.18036,-0.1204 0.06012,-0.059 0.120246,-0.1804 0.180359,-0.3005 0,-0.2406 0.06011,-0.6013 0.06011,-1.0822 0,-0.5411 -0.06011,-0.9018 -0.06011,-1.0821 -0.06012,-0.1804 -0.120246,-0.3007 -0.180359,-0.3608 -0.06011,-0.059 -0.120245,-0.1204 -0.18036,-0.1204 z"
       id="path616"
       inkscape:connector-curvature="0"
       style="clip-rule:evenodd;fill:#fefefe;fill-rule:nonzero;image-rendering:optimizeQuality;shape-rendering:geometricPrecision;text-rendering:geometricPrecision" />
  </g>
</svg>
