<?xml version="1.0" encoding="UTF-8" standalone="no"?>
<!-- Created with Inkscape (http://www.inkscape.org/) -->

<svg
   xmlns:dc="http://purl.org/dc/elements/1.1/"
   xmlns:cc="http://creativecommons.org/ns#"
   xmlns:rdf="http://www.w3.org/1999/02/22-rdf-syntax-ns#"
   xmlns:svg="http://www.w3.org/2000/svg"
   xmlns="http://www.w3.org/2000/svg"
   xmlns:sodipodi="http://sodipodi.sourceforge.net/DTD/sodipodi-0.dtd"
   xmlns:inkscape="http://www.inkscape.org/namespaces/inkscape"
   width="70"
   height="70"
   viewBox="0 0 70.000001 70.000001"
   id="svg4748"
   version="1.1"
   inkscape:version="0.91 r13725"
   inkscape:export-filename="C:\Users\Fabian Gutierrez\Desktop\path374.png"
   inkscape:export-xdpi="90"
   inkscape:export-ydpi="90"
   sodipodi:docname="zumbador.svg">
  <defs
     id="defs4750">
    <pattern
       y="0"
       x="0"
       height="6"
       width="6"
       patternUnits="userSpaceOnUse"
       id="EMFhbasepattern" />
    <pattern
       y="0"
       x="0"
       height="6"
       width="6"
       patternUnits="userSpaceOnUse"
       id="EMFhbasepattern-3" />
    <pattern
       y="0"
       x="0"
       height="6"
       width="6"
       patternUnits="userSpaceOnUse"
       id="EMFhbasepattern-9" />
    <pattern
       y="0"
       x="0"
       height="6"
       width="6"
       patternUnits="userSpaceOnUse"
       id="EMFhbasepattern-33" />
  </defs>
  <sodipodi:namedview
     id="base"
     pagecolor="#ffffff"
     bordercolor="#666666"
     borderopacity="1.0"
     inkscape:pageopacity="0.0"
     inkscape:pageshadow="2"
     inkscape:zoom="2.8"
     inkscape:cx="-30.791104"
     inkscape:cy="9.6023145"
     inkscape:document-units="px"
     inkscape:current-layer="layer1"
     showgrid="false"
     units="px"
     inkscape:window-width="1280"
     inkscape:window-height="1001"
     inkscape:window-x="-8"
     inkscape:window-y="-8"
     inkscape:window-maximized="1"
     showguides="true"
     inkscape:guide-bbox="true">
    <sodipodi:guide
       position="76.140249,65.000001"
       orientation="0,1"
       id="guide5628"
       inkscape:label=""
       inkscape:color="rgb(0,0,255)" />
    <sodipodi:guide
       position="28.663079,5.0000001"
       orientation="0,1"
       id="guide5630"
       inkscape:label=""
       inkscape:color="rgb(0,0,255)" />
    <sodipodi:guide
       position="5.0000001,72.730984"
       orientation="1,0"
       id="guide5632"
       inkscape:label=""
       inkscape:color="rgb(0,0,255)" />
    <sodipodi:guide
       position="65.000001,46.593287"
       orientation="1,0"
       id="guide5634"
       inkscape:label=""
       inkscape:color="rgb(0,0,255)" />
  </sodipodi:namedview>
  <metadata
     id="metadata4753">
    <rdf:RDF>
      <cc:Work
         rdf:about="">
        <dc:format>image/svg+xml</dc:format>
        <dc:type
           rdf:resource="http://purl.org/dc/dcmitype/StillImage" />
        <dc:title></dc:title>
      </cc:Work>
    </rdf:RDF>
  </metadata>
  <g
     inkscape:label="Capa 1"
     inkscape:groupmode="layer"
     id="layer1"
     transform="translate(0,-982.36213)">
    <rect
       style="opacity:1;fill:#222d55;fill-opacity:1"
       id="rect5505"
       width="70"
       height="70"
       x="0"
       y="982.36212" />
    <path
       class="fil4"
       d="m 96.589619,1019.2634 c -0.932387,0.2193 -1.426006,1.042 -1.426006,2.139 0,3.0165 4.991037,3.8392 4.991037,-0.2195 0,-1.0968 -0.548471,-1.7002 -1.426011,-1.9195 l 4.552261,-10.6952 c 2.41324,-5.8137 6.52673,-12.50496 1.70024,-17.49598 -1.70024,-1.80994 -3.78441,-2.79719 -5.813731,-3.07148 l -2.02932,0 c -2.632634,0.32909 -5.155573,1.97449 -6.800968,4.77169 -1.700241,2.96173 -1.096929,6.088 0.164539,9.21427 l 4.607106,12.7791 c 0.438773,1.152 1.426013,3.1812 1.480853,4.4976 z"
       id="path4431"
       inkscape:connector-curvature="0"
       style="clip-rule:evenodd;fill:#f16136;fill-opacity:1;fill-rule:evenodd;image-rendering:optimizeQuality;shape-rendering:geometricPrecision;text-rendering:geometricPrecision" />
    <path
       class="fil3"
       d="m 34.999993,987.38507 c 16.584296,0 29.977101,13.39273 29.977101,29.97703 0,16.5842 -13.392805,29.9771 -29.977101,29.9771 -16.58428,0 -29.9770864,-13.3929 -29.9770864,-29.9771 0,-16.5843 13.3928064,-29.97703 29.9770864,-29.97703 z"
       id="path4937"
       inkscape:connector-curvature="0"
       style="clip-rule:evenodd;fill:#fefefe;fill-rule:evenodd;image-rendering:optimizeQuality;shape-rendering:geometricPrecision;text-rendering:geometricPrecision" />
    <path
       class="fil6"
       d="m 59.619969,1013.3158 c 0,4.9012 -1.538744,9.4034 -4.502259,13.5637 1.481757,-3.0774 2.165635,-6.5539 2.165635,-10.4861 0,-3.5905 -0.569906,-6.953 -1.766703,-10.0304 -1.424772,-3.7614 -3.476435,-6.38292 -6.211992,-7.75071 3.305462,1.02584 5.870045,2.90641 7.69375,5.52811 1.709716,2.5646 2.621569,5.6419 2.621569,9.1754 z m -4.559261,0.798 c 0,3.9322 -1.196797,7.5226 -3.533421,10.8281 1.139827,-2.4506 1.709733,-5.2431 1.709733,-8.3206 0,-2.9066 -0.455934,-5.5851 -1.424772,-8.0358 -1.139811,-3.0204 -2.792542,-5.129 -4.958193,-6.212 2.621569,0.798 4.673232,2.2798 6.098004,4.4453 1.424772,2.0517 2.108649,4.4454 2.108649,7.295 z m -4.046325,0.8548 c 0,3.1345 -0.968854,6.0409 -2.90653,8.6626 0.968838,-1.9948 1.424772,-4.2174 1.424772,-6.668 0,-2.3365 -0.398932,-4.4453 -1.139811,-6.4399 -0.911852,-2.3936 -2.222636,-4.0464 -3.989355,-4.9582 2.108649,0.6839 3.704394,1.8238 4.901191,3.5333 1.139828,1.6528 1.709733,3.5905 1.709733,5.8702 z m -4.559261,4.7871 c 0,1.8238 -0.114035,3.4195 -0.512919,4.8442 -0.512904,2.1657 -1.367771,3.2485 -2.564567,3.2485 -0.341947,0 -1.02584,-0.3419 -2.051664,-1.0258 -1.3108,-0.9118 -3.761396,-1.5957 -7.408788,-2.1656 -3.020518,-0.5129 -5.642086,-0.741 -7.921709,-0.741 -0.626891,0 -0.911852,0.5129 -0.911852,1.4818 0,0.342 0.114036,0.8549 0.341947,1.4817 0.284944,0.627 0.398932,1.1399 0.398932,1.4818 0,0.3989 0.227959,0.7979 0.683893,1.2538 0.398932,0.456 0.626891,0.7979 0.626891,1.0258 0,0.1142 0,0.171 -0.05694,0.342 -0.05694,0.1142 -0.05694,0.228 -0.05694,0.285 0,0.2279 0.170974,0.5698 0.569906,0.9689 0.398932,0.4558 0.569906,0.7977 0.569906,1.1397 0,0.1142 -0.05694,0.3419 -0.170974,0.5698 -0.114035,0.2281 -0.170973,0.3991 -0.170973,0.513 0,0.228 0.05694,0.4559 0.284961,0.6839 0.170973,0.285 0.284945,0.4559 0.284945,0.57 0,0.2848 -0.398933,0.4558 -1.196797,0.4558 -1.766719,0 -2.963516,-0.5699 -3.704395,-1.5388 -0.398932,-0.6268 -0.854866,-1.9945 -1.253798,-3.9893 -0.740879,-3.7043 -2.108649,-5.585 -3.932354,-5.585 -0.05694,0 -0.170973,0 -0.284944,0 -0.170974,0.056 -0.284961,0.056 -0.341947,0.056 -2.108665,0 -3.134489,-1.9377 -3.134489,-5.8131 0,-2.2225 1.082826,-3.8184 3.248461,-4.7871 1.082825,-0.3989 2.792542,-1.0828 5.015178,-1.9376 2.336624,-0.9689 4.901208,-2.5077 7.750735,-4.5594 2.564584,-1.9376 4.445274,-3.5333 5.528099,-4.9011 0.398932,-2.2798 1.310784,-3.41948 2.678555,-3.41948 1.595745,0 3.191474,1.82358 4.673232,5.35708 1.025839,2.4506 1.823704,4.9583 2.336624,7.6367 0.455934,2.3937 0.683893,4.7303 0.683893,7.0669 z m -30.490004,5.1292 c -1.823704,-0.1142 -3.077503,-0.3419 -3.818382,-0.7408 -1.139811,-0.57 -1.766702,-1.5959 -1.766702,-3.1346 0,-1.5388 0.512919,-2.6216 1.424755,-3.3624 0.05694,-0.056 1.139828,-0.627 3.305462,-1.7667 -0.740878,0.8549 -1.139811,2.2227 -1.139811,4.0463 0,2.1657 0.626908,3.8183 1.994678,4.9582 z m 24.164041,-6.7818 c 0,-1.7668 -0.284944,-3.3625 -0.911852,-4.9013 -0.626891,-1.7097 -1.538743,-2.9635 -2.678554,-3.6474 0.626891,5.87 1.595729,10.2583 2.906513,13.2219 0.455934,-1.4249 0.683893,-3.0206 0.683893,-4.6732 z m 0,7.2378 c -1.481757,-2.2227 -2.621569,-5.0153 -3.476435,-8.3777 -0.797865,-3.1344 -1.196797,-6.155 -1.196797,-9.0616 l 0.284945,-2.8494 c -1.082809,1.4247 -2.621569,2.7925 -4.559245,4.0462 -1.709716,1.0259 -3.476435,2.1088 -5.186152,3.1347 -2.051663,1.3106 -3.077503,2.7925 -3.077503,4.4451 0,1.4818 0.227975,2.7925 0.797881,3.8183 0.626891,1.3678 1.595729,2.1088 2.906514,2.3367 0.05694,0 1.025839,0.056 2.735556,0.1142 4.103327,0.171 7.693733,0.9688 10.771236,2.3937 z m -26.044731,-1.5388 c -0.626908,-1.8237 -0.968838,-3.2485 -0.968838,-4.2743 0,-0.6839 0.114036,-1.3108 0.284945,-1.7667 l -0.569906,0.1142 c -0.227959,0.798 -0.284961,1.5959 -0.284961,2.4506 0,0.6839 0.284961,1.8807 0.854867,3.4766 l 0.683893,0 z m -1.367786,-0.1709 c -0.569906,-1.4249 -0.854851,-2.4508 -0.854851,-3.0206 0,-0.627 0.05694,-1.3678 0.170974,-2.2796 l -0.683894,0.456 c -0.114035,0.6837 -0.170973,1.2537 -0.170973,1.8805 0,0.741 0.284961,1.6528 0.911852,2.7356 l 0.626892,0.2281 z"
       id="path4939"
       inkscape:connector-curvature="0"
       style="clip-rule:evenodd;fill:#f16136;fill-rule:nonzero;image-rendering:optimizeQuality;shape-rendering:geometricPrecision;text-rendering:geometricPrecision;fill-opacity:1" />
  </g>
</svg>
